<svg xmlns="http://www.w3.org/2000/svg" width="1237.816" height="374.285"><defs><linearGradient id="a" x2="1" y1=".5" y2=".5" gradientUnits="objectBoundingBox"><stop offset="0" stop-color="#fdc709"/><stop offset="1" stop-color="#f3bb6d"/></linearGradient><clipPath id="b"><circle cx="37.683" cy="37.683" r="37.683" fill="none" data-name="Ellipse 1601" transform="translate(1413.827 3034.416)"/></clipPath></defs><g data-name="Group 1233" transform="translate(-342.222 -2769.043)"><g data-name="Group 1193"><g fill="url(#a)" stroke="#333132" stroke-width="2.257" data-name="Ellipse 1587" transform="translate(401.392 3025.397)"><circle cx="46.702" cy="46.702" r="46.702" stroke="none"/><circle cx="46.702" cy="46.702" r="45.573" fill="none"/></g><g data-name="Group 1192"><g data-name="Group 1185"><path fill="#333132" d="M454.643 3079.347c1-1.744 1.9-3.32 2.976-5.194 1.5.854 3.1 1.7 4.618 2.663a2.064 2.064 0 0 0 2.562-.037 10.4 10.4 0 0 1 14.437 14.288 10.439 10.439 0 0 1-19.149-7.06 1.75 1.75 0 0 0-1.04-2.1c-1.501-.801-2.947-1.707-4.404-2.56" data-name="Path 40199"/></g><g data-name="Group 1186"><path fill="#333132" d="m438.71 3074.4 2.977 5.176a28 28 0 0 1-3.157 1.859c-1.855.807-2.5 1.97-2.4 4.085a10.066 10.066 0 0 1-7.535 10.012 10.405 10.405 0 0 1-10.05-17.513 10.19 10.19 0 0 1 12.793-1.265 2.43 2.43 0 0 0 3.2.087c1.287-.898 2.709-1.602 4.172-2.441" data-name="Path 40200"/></g><g data-name="Group 1187"><path fill="#333132" d="M451.007 3063.176h-6.147c0-1.42-.082-2.8.023-4.168a2.46 2.46 0 0 0-1.671-2.766 10.21 10.21 0 0 1-5.826-10.088 10.47 10.47 0 0 1 20.007-3.382 10.14 10.14 0 0 1-4.265 13.043c-1.758.961-2.337 2-2.143 3.834a35 35 0 0 1 .022 3.527" data-name="Path 40201"/></g><g data-name="Group 1188"><path fill="#333132" d="M456.406 3072.28a8.322 8.322 0 1 1-8.38-8.278 8.21 8.21 0 0 1 8.38 8.278" data-name="Path 40202"/></g><g data-name="Group 1189"><path fill="#333132" d="M461.787 3074.954c-1.992-.94-4.056-1.332-4.3-4.445a8.54 8.54 0 0 0-3.117-5.38c-2.3-1.782-1.895-3.673-1.6-5.846 5.949.455 11.574 10.198 9.017 15.671" data-name="Path 40203"/></g><g data-name="Group 1190"><path fill="#333132" d="M438.885 3082.874c1.918-1.442 3.413-2.843 6.128-1.544a7.63 7.63 0 0 0 5.669.13c2.681-1.164 4.415-.158 6.291 1.3-2.04 4.121-12.948 5.822-18.088.114" data-name="Path 40204"/></g><g data-name="Group 1191"><path fill="#333132" d="M443.535 3059.161c.319 2.23.768 4.178-1.7 5.936a8.47 8.47 0 0 0-3.046 5.212c-.417 2.9-2.278 3.6-4.38 4.467-2.363-5.697 3.073-15.015 9.126-15.615" data-name="Path 40205"/></g></g><path fill="#fff" d="m423.338 3111.649 51.764-77.6a46.663 46.663 0 1 0-51.764 77.6" data-name="Path 40206" opacity=".1"/><g fill="none" stroke="#333132" stroke-width=".553" data-name="Ellipse 1588" transform="translate(405.886 3029.892)"><circle cx="42.207" cy="42.207" r="42.207" stroke="none"/><circle cx="42.207" cy="42.207" r="41.931"/></g></g><g data-name="Group 1195"><g fill="url(#a)" stroke="#333132" stroke-width="2.257" data-name="Ellipse 1589" transform="translate(1148.252 2790.227)"><circle cx="46.702" cy="46.702" r="46.702" stroke="none"/><circle cx="46.702" cy="46.702" r="45.573" fill="none"/></g><g fill="none" stroke="#333132" stroke-width=".553" data-name="Ellipse 1590" transform="translate(1152.746 2794.722)"><circle cx="42.207" cy="42.207" r="42.207" stroke="none"/><circle cx="42.207" cy="42.207" r="41.931"/></g><g fill="#333132" data-name="Group 1194"><path d="M1221.411 2833.227c4.376-5.841 5.646-10.951 3.573-14.394-1.567-2.6-4.879-3.966-9.585-3.966a36 36 0 0 0-8.619 1.2c-2.637-8.66-6.906-14.191-11.817-14.191-4.677 0-8.775 5.027-11.43 12.992a31.6 31.6 0 0 0-8.931-1.533c-3.844 0-6.686 1.144-8.223 3.307-2.326 3.276-1.442 8.47 2.489 14.62a48 48 0 0 0 3.566 4.824 47 47 0 0 0-3.915 4.542c-4.379 5.842-5.647 10.952-3.574 14.394 1.565 2.6 4.881 3.971 9.582 3.971a36.3 36.3 0 0 0 8.621-1.2c2.636 8.655 6.9 14.186 11.812 14.186 4.682 0 8.78-5.022 11.435-12.992a31.6 31.6 0 0 0 8.931 1.533c3.842 0 6.686-1.144 8.223-3.308 3.053-4.3.464-11.7-6.041-19.459a47 47 0 0 0 3.903-4.526m-6.012-17.007c2.931 0 6.77.576 8.422 3.316 1.744 2.891.469 7.588-3.5 12.877a46 46 0 0 1-3.7 4.308 71 71 0 0 0-7.366-7.179 68 68 0 0 0-2.1-12.174 34.8 34.8 0 0 1 8.245-1.148Zm-13.59 32.063a82 82 0 0 1-7.41 3.966 82 82 0 0 1-7.108-4.51 84 84 0 0 1-5.3-4.089 80.928 80.928 0 0 1 .055-14.036 83 83 0 0 1 6.079-4.038 83 83 0 0 1 7.405-3.968 82 82 0 0 1 7.107 4.511 80 80 0 0 1 5.31 4.106c.178 2.172.277 4.415.277 6.706 0 2.5-.12 4.951-.334 7.314a85 85 0 0 1-6.081 4.038m5.891-2.235a64.3 64.3 0 0 1-2.255 11.221 63 63 0 0 1-9.588-4.218 84 84 0 0 0 6.651-3.61 83 83 0 0 0 5.192-3.393m-14.813 6.9a64.5 64.5 0 0 1-8.732 3.183 66 66 0 0 1-1.981-10.573q2.079 1.694 4.336 3.292a86 86 0 0 0 6.377 4.095Zm-12.364-10.558a68 68 0 0 1-6.251-6.231 68 68 0 0 1 6.306-5.447q-.222 3.019-.227 6.222c0 1.855.06 3.678.172 5.453Zm1.706-14.576a64 64 0 0 1 2.256-11.221 63.4 63.4 0 0 1 9.588 4.217 83 83 0 0 0-6.649 3.609 83 83 0 0 0-5.195 3.392Zm14.816-6.893a64 64 0 0 1 8.729-3.189 66 66 0 0 1 1.982 10.565 89 89 0 0 0-4.335-3.283 83 83 0 0 0-6.376-4.096Zm12.363 10.577a68 68 0 0 1 6.218 6.234 67 67 0 0 1-6.273 5.42c.142-2.012.221-4.089.221-6.218q0-2.784-.166-5.434Zm-14.445-28.258c4.182 0 7.985 5.229 10.431 13.2a67 67 0 0 0-9.8 3.654 66 66 0 0 0-10.7-4.781c2.454-7.336 6.091-12.076 10.069-12.076Zm-27.476 14.195c1.266-1.791 3.728-2.736 7.115-2.736a30.2 30.2 0 0 1 8.521 1.461 66 66 0 0 0-2.4 12.737 70.4 70.4 0 0 0-7.333 6.227 45 45 0 0 1-3.383-4.586c-3.556-5.579-4.478-10.355-2.52-13.106Zm7.043 40.205c-2.931 0-6.771-.576-8.418-3.315-1.743-2.89-.468-7.584 3.5-12.878a46 46 0 0 1 3.713-4.322 70.6 70.6 0 0 0 7.346 7.182 68 68 0 0 0 2.109 12.185 34.5 34.5 0 0 1-8.25 1.145Zm20.433 12.987c-4.18 0-7.982-5.231-10.431-13.2a67.6 67.6 0 0 0 9.8-3.656 66 66 0 0 0 10.7 4.785c-2.452 7.328-6.086 12.068-10.069 12.068Zm27.48-14.2c-1.271 1.792-3.733 2.736-7.114 2.736a30.1 30.1 0 0 1-8.525-1.462 65.7 65.7 0 0 0 2.4-12.737 71 71 0 0 0 7.307-6.2c5.953 7.181 8.536 13.994 5.932 17.662Z" data-name="Path 40207"/><circle cx="4.672" cy="4.672" r="4.672" data-name="Ellipse 1591" transform="translate(1190.292 2832.257)"/><circle cx="2.336" cy="2.336" r="2.336" data-name="Ellipse 1592" transform="translate(1170.879 2808.596)"/><circle cx="2.336" cy="2.336" r="2.336" data-name="Ellipse 1593" transform="translate(1225.101 2824.84)"/><circle cx="2.336" cy="2.336" r="2.336" data-name="Ellipse 1594" transform="translate(1180.593 2861.377)"/></g><path fill="#fff" d="m1170.2 2876.478 51.764-77.6a46.663 46.663 0 1 0-51.764 77.6" data-name="Path 40208" opacity=".1"/></g><g data-name="Group 1201"><g fill="url(#a)" stroke="#333132" stroke-width="2.257" data-name="Ellipse 1595" transform="translate(903.64 3025.397)"><circle cx="46.702" cy="46.702" r="46.702" stroke="none"/><circle cx="46.702" cy="46.702" r="45.573" fill="none"/></g><g fill="none" stroke="#333132" stroke-width=".553" data-name="Ellipse 1596" transform="translate(908.134 3029.892)"><circle cx="42.207" cy="42.207" r="42.207" stroke="none"/><circle cx="42.207" cy="42.207" r="41.931"/></g><g data-name="Group 1200"><g data-name="Group 1196"><path fill="#333132" d="M945.268 3062.167c-1.514 2.022-2.886 3.809-4.2 5.64a4.2 4.2 0 0 0-.494 1.421c-.692 2.717-.687 2.726-3.463 2.7-6.337-.048-12.674-.123-19.011-.14-1.241 0-1.834-.308-1.724-1.713.919-11.74 6.223-20.865 16.142-27.272a4.3 4.3 0 0 1 .59-.316 2.3 2.3 0 0 1 .478-.067Z" data-name="Path 40209"/></g><g data-name="Group 1197"><path fill="#333132" d="M955.163 3062.718c.4-.716.687-1.254 1-1.778 3.392-5.74 6.816-11.461 10.158-17.23.67-1.156 1.148-1.493 2.4-.647 9.482 6.426 14.736 15.28 15.583 26.717.041.551.005 1.107.005 1.848-.6.054-1.139.139-1.674.144-6.785.064-13.571.095-20.356.192-1.214.017-1.739-.239-1.9-1.61a9.9 9.9 0 0 0-5.216-7.636" data-name="Path 40210"/></g><g data-name="Group 1198"><path fill="#333132" d="m955.741 3080.441 11.575 20.458c-9.473 6.236-24.2 6.314-33.781.07.168-.377.312-.787.522-1.161 3.385-6 6.8-11.987 10.148-18.009.6-1.085 1.108-1.377 2.335-.814a9.54 9.54 0 0 0 7.681.053c.459-.179.916-.36 1.52-.597" data-name="Path 40211"/></g><g data-name="Group 1199"><path fill="#333132" d="M943.486 3071.67a6.893 6.893 0 1 1 6.855 6.908 7.01 7.01 0 0 1-6.855-6.908" data-name="Path 40212"/></g></g><path fill="#fff" d="m925.586 3111.649 51.765-77.6a46.664 46.664 0 1 0-51.765 77.6" data-name="Path 40213" opacity=".1"/></g><g data-name="Group 1209"><g fill="url(#a)" stroke="#333132" stroke-width="2.257" data-name="Ellipse 1597" transform="translate(644.539 2790.227)"><circle cx="46.702" cy="46.702" r="46.702" stroke="none"/><circle cx="46.702" cy="46.702" r="45.573" fill="none"/></g><g fill="none" stroke="#333132" stroke-width=".553" data-name="Ellipse 1598" transform="translate(649.033 2794.722)"><circle cx="42.207" cy="42.207" r="42.207" stroke="none"/><circle cx="42.207" cy="42.207" r="41.931"/></g><g data-name="Group 1208"><g data-name="Group 1202"><path fill="#333132" d="M663.988 2856.633c.481.367.988.7 1.44 1.1a13.58 13.58 0 0 0 16.541 1.191 13.35 13.35 0 0 0 4.947-15.792c-.189-.535-.129-1.6.173-1.768a2.45 2.45 0 0 1 2.018-.032 4.14 4.14 0 0 0 4.267 0 2.46 2.46 0 0 1 2.02.028c.3.161.369 1.231.18 1.763a13.35 13.35 0 0 0 4.936 15.794 13.58 13.58 0 0 0 16.541-1.18c.455-.4.962-.747 1.444-1.119l.455.4a11 11 0 0 1-1.028 1.583 19.56 19.56 0 0 1-25.014 3.081 2.56 2.56 0 0 0-3.318-.008 19.565 19.565 0 0 1-25.019-3.061 16 16 0 0 1-1.089-1.469Z" data-name="Path 40214"/></g><g data-name="Group 1203"><path fill="#333132" d="M688.864 2805.9c-.5.214-.994.462-1.511.636-6.22 2.09-9.879 7.449-9.384 13.764.478 6.095 4.975 10.783 11.4 11.972.536.1 1.417.681 1.392.976a2.54 2.54 0 0 1-.97 1.763 4.15 4.15 0 0 0-2.179 3.666 2.96 2.96 0 0 1-1.175 1.862c-.189.15-1.2-.435-1.588-.9a13.46 13.46 0 0 0-16.019-3.634 13.17 13.17 0 0 0-7.4 14.778c.116.6.184 1.2.275 1.8l-.614.234a12.4 12.4 0 0 1-.908-1.829 19.22 19.22 0 0 1 9.859-22.829 2.62 2.62 0 0 0 1.665-2.893 19.28 19.28 0 0 1 15.351-19.916 14 14 0 0 1 1.635-.16c.054.246.107.48.171.71" data-name="Path 40215"/></g><g data-name="Group 1204"><path fill="#333132" d="M693.852 2805.158c.565.076 1.138.113 1.693.235a19.234 19.234 0 0 1 15.242 19.64 3 3 0 0 0 1.926 3.272 19.23 19.23 0 0 1 9.618 22.633 17 17 0 0 1-.81 1.867l-.517-.1a8.6 8.6 0 0 1 .014-1.674c1.517-7.435-2.659-14.251-10.022-15.9a12.99 12.99 0 0 0-13.306 4.458c-.41.466-1.126 1.042-1.62.975-.975-.133-1.388-.9-1.271-2 .17-1.607-.7-2.669-2.04-3.517a2.4 2.4 0 0 1-1.022-1.723c0-.37.921-.961 1.5-1.063a13.207 13.207 0 0 0 1.966-25.708 13.5 13.5 0 0 1-1.573-.756Z" data-name="Path 40216"/></g><g data-name="Group 1205"><path fill="#333132" d="M703.881 2838.532a3 3 0 0 1 4.155-2.846 1.59 1.59 0 0 1 .781 1.026c1.453 6.082-4.33 15.891-10.418 17.642a1.5 1.5 0 0 1-1.3-.443 11 11 0 0 1-.9-1.944c-.572-1.2-.28-1.871.973-2.524a12.17 12.17 0 0 0 6.709-10.911" data-name="Path 40217"/></g><g data-name="Group 1206"><path fill="#333132" d="M678.616 2839.573c.2 3.789 2.343 7.375 6.45 9.817.6.355 1.538 1.109 1.45 1.465a15.6 15.6 0 0 1-1.579 3.558c-.065.12-.781-.02-1.145-.166-6.158-2.461-10.8-10.176-10.25-16.859.126-1.524.747-1.9 2.2-1.709 2.814.376 2.83.314 2.874 3.894" data-name="Path 40218"/></g><g data-name="Group 1207"><path fill="#333132" d="M702.685 2824.74a29.6 29.6 0 0 1-2.95 3.364c-.29.245-1.286-.134-1.84-.441a12.9 12.9 0 0 0-13.36.03c-.542.3-1.58.628-1.829.381a16.4 16.4 0 0 1-2.294-3.13c-.071-.115.509-.732.874-1 5.584-4.071 14.446-4.048 19.975.016a13 13 0 0 0 1.424.78" data-name="Path 40219"/></g></g><path fill="#fff" d="m666.485 2876.478 51.764-77.6a46.663 46.663 0 1 0-51.764 77.6" data-name="Path 40220" opacity=".1"/></g><g data-name="Group 1212"><g fill="url(#a)" stroke="#333132" stroke-width="2.257" data-name="Ellipse 1599" transform="translate(1404.808 3025.397)"><circle cx="46.702" cy="46.702" r="46.702" stroke="none"/><circle cx="46.702" cy="46.702" r="45.573" fill="none"/></g><g fill="none" stroke="#333132" stroke-width=".553" data-name="Ellipse 1600" transform="translate(1409.302 3029.892)"><circle cx="42.207" cy="42.207" r="42.207" stroke="none"/><circle cx="42.207" cy="42.207" r="41.931"/></g><g data-name="Group 1211"><g fill="#333132" clip-path="url(#b)" data-name="Group 1210"><path d="m1442.3 3072.352-.793-24.106 6.9-14.948Zm28.217-34.746-8.152-3.623-17.243 40.592Zm17.665 22.463-2.848-9.018-36.723 27.488Zm-8.163-12.607-4.52-5.871-22.419 26.933Zm-22.848-17.978-8.76 29.089 8.76-23.791Zm-17.589 20.984-3.353 3.261v20.5Zm-16.619 21.631-6.428-1.341 16.5 10.595Zm27.469 9.254 38.758-9.254-.624-6.854Zm37.814.678.414-3.329s-26.547 3.983-26.806 4.242Zm-1.763 4.116-38.286.952 36.541 4.269Zm-28.271 5.221 36.2 8.826-10.707-4.687Zm1.407 7.889 9.635.937-18.16-7.5Zm-16.59-4.95a13.5 13.5 0 0 0-2.67 1.676c0 1.117 2.421 2.509 3.011 2.509s3.011-2.819 3.011-3.347-2.565-1.045-3.349-.838Zm6.631-35.049c-.3-.434-2.707.6-3.232 1.222a13.5 13.5 0 0 0-1.238 2.9c.636.918 3.419.683 3.9.346s.874-4.034.573-4.468Zm-11.681 29.151c.36 1.007 3.125.255 3.38 0a4.32 4.32 0 0 0-.555-3.056c-.576-.578-3.053 2.408-2.822 3.056Zm28.8 7.613c-.026-.509-2.417-.159-2.58.238-.253.615 1.34 1.42 1.564 1.408a2.69 2.69 0 0 0 1.023-1.646Zm4.378-18.016c-.026-.509-2.417-.159-2.58.237-.253.616 1.34 1.42 1.564 1.409a2.69 2.69 0 0 0 1.023-1.646Zm-9.2-13.506c-.636-.364-2.913 2.122-2.625 2.576.448.7 3.2-.161 3.439-.378s-.171-1.835-.807-2.198Zm-15.367 23.751c-1.49 0-1.868 1.392-.373 2.173s1.741-2.173.383-2.173Zm-15.879-11.817c1.325.668 1.537-1.859.33-1.859-1.314 0-1.649 1.191-.323 1.859Zm8.707-14.216c1.495.781 1.734-2.173.373-2.173-1.483 0-1.861 1.392-.366 2.173Zm5.464 17.426c-.652-.652-2.221.482-2.7 0s-.09-2.67-1.11-2.67c-1.517 0-1.68 4.439-.9 5.215s5.368-1.894 4.717-2.545Zm-6.745-5.616c0 .745 2.452.714 3.166 0s-.621-2.359-1.8-2.359c-.925 0-1.359 1.614-1.359 2.359Zm16.588 7.615c-.553.5 1.114 2.3 2.122 2.349s1.334-2.042.544-2.917c-.618-.691-2.107.069-2.659.568Zm-19.325 7.909c-.543-1.511.822-3.383 3.052-4.234a9.3 9.3 0 0 0-3.392-2.776 4.41 4.41 0 0 1-3.38 2.487.97.97 0 0 1-.12.785 1.06 1.06 0 0 1-1.479.239 1.07 1.07 0 0 1-.454-1.219 4.43 4.43 0 0 1-2.565-2.292 9.274 9.274 0 1 0 9.019 16.161 2.54 2.54 0 0 1-.9-2.62 1.37 1.37 0 0 1 .078-1.51 1.45 1.45 0 0 1 1.156-.685.9.9 0 0 1 .128-.333 1.06 1.06 0 0 1 1.479-.239 1.15 1.15 0 0 1 .374.431 1.2 1.2 0 0 1 .208.231 2.3 2.3 0 0 1 .616.237 2.2 2.2 0 0 1 .366.375 9.25 9.25 0 0 0 .769-3.687c-2.223.715-4.413.14-4.948-1.351Z" data-name="Path 40221"/><path d="m1434.56 3035.248-4.685 5.995 6.354 40.347Z" data-name="Path 40222"/><path d="m1427.452 3046.483-4.485 7.427 13.216 29.749Z" data-name="Path 40223"/><path d="m1419.123 3052.825-2.584 5.217 14.6 21.772Z" data-name="Path 40224"/><path d="M1452.1 3044.61c.441-.3.222-3.5-.152-4.262a9.9 9.9 0 0 0-2.077-2.064c-.933.635-1.479 4.16-1.329 4.826s3.122 1.799 3.558 1.5" data-name="Path 40225"/><path d="M1442.933 3043.27c-.115-.52-3.163-1.5-4.014-1.441a9.8 9.8 0 0 0-2.687 1.162c.243 1.1 3.313 2.918 3.987 3.026s2.829-2.227 2.714-2.747" data-name="Path 40226"/></g></g><path fill="#fff" d="m1426.754 3111.649 51.764-77.6a46.663 46.663 0 1 0-51.764 77.6" data-name="Path 40227" opacity=".1"/></g><g data-name="Group 1214"><g fill="#383838" data-name="Group 1213"><path d="M418.423 3143.328a6.1 6.1 0 0 1-2.188-.386 5.07 5.07 0 0 1-2.907-2.769 5.56 5.56 0 0 1 0-4.216 5 5 0 0 1 1.162-1.672 5.2 5.2 0 0 1 1.753-1.1 6.1 6.1 0 0 1 2.195-.385 6 6 0 0 1 2.391.458 4.65 4.65 0 0 1 1.8 1.345l-1.512 1.4a3.55 3.55 0 0 0-1.163-.894 3.3 3.3 0 0 0-1.4-.3 3.6 3.6 0 0 0-1.308.233 3 3 0 0 0-1.033.669 3 3 0 0 0-.675 1.032 3.75 3.75 0 0 0 0 2.646 3.1 3.1 0 0 0 .675 1.032 3 3 0 0 0 1.033.669 3.6 3.6 0 0 0 1.308.232 3.3 3.3 0 0 0 1.4-.3 3.46 3.46 0 0 0 1.163-.908l1.512 1.4a4.7 4.7 0 0 1-1.8 1.352 6 6 0 0 1-2.406.462" data-name="Path 40228"/><path d="M428.8 3135.215a3.65 3.65 0 0 1 1.665.371 2.7 2.7 0 0 1 1.156 1.134 4 4 0 0 1 .422 1.955v4.478h-2.269v-4.129a2 2 0 0 0-.414-1.4 1.5 1.5 0 0 0-1.17-.45 2.05 2.05 0 0 0-.967.225 1.56 1.56 0 0 0-.669.691 2.6 2.6 0 0 0-.24 1.192v3.867h-2.268v-10.788h2.268v5.133l-.509-.655a2.9 2.9 0 0 1 1.207-1.206 3.7 3.7 0 0 1 1.788-.418" data-name="Path 40229"/><path d="M438.035 3143.269a5.04 5.04 0 0 1-2.348-.523 3.86 3.86 0 0 1-1.562-1.432 3.9 3.9 0 0 1-.553-2.072 4 4 0 0 1 .545-2.086 3.87 3.87 0 0 1 1.49-1.425 4.67 4.67 0 0 1 4.209-.029 3.65 3.65 0 0 1 1.462 1.4 4.2 4.2 0 0 1 .537 2.173c0 .088 0 .187-.014.3s-.02.216-.029.313h-6.354v-1.323h5.162l-.872.393a2.2 2.2 0 0 0-.248-1.062 1.8 1.8 0 0 0-.683-.7 2 2 0 0 0-1.018-.254 2.03 2.03 0 0 0-1.025.254 1.77 1.77 0 0 0-.69.713 2.24 2.24 0 0 0-.248 1.083v.349a2.2 2.2 0 0 0 .284 1.126 1.86 1.86 0 0 0 .8.742 2.7 2.7 0 0 0 1.214.254 2.9 2.9 0 0 0 1.1-.189 2.7 2.7 0 0 0 .865-.567l1.207 1.309a3.5 3.5 0 0 1-1.352.937 5 5 0 0 1-1.879.316" data-name="Path 40230"/><path d="M453.344 3135.215a3.56 3.56 0 0 1 1.651.371 2.67 2.67 0 0 1 1.134 1.134 4.1 4.1 0 0 1 .414 1.955v4.478h-2.268v-4.129a2.1 2.1 0 0 0-.393-1.4 1.39 1.39 0 0 0-1.1-.45 1.75 1.75 0 0 0-.886.225 1.5 1.5 0 0 0-.611.676 2.64 2.64 0 0 0-.218 1.149v3.925h-2.268v-4.129a2.12 2.12 0 0 0-.385-1.4 1.37 1.37 0 0 0-1.1-.45 1.75 1.75 0 0 0-.887.225 1.5 1.5 0 0 0-.611.676 2.64 2.64 0 0 0-.218 1.149v3.925h-2.268v-7.821h2.167v2.136l-.408-.625a2.8 2.8 0 0 1 1.156-1.214 3.5 3.5 0 0 1 1.709-.414 3.3 3.3 0 0 1 1.882.545 2.64 2.64 0 0 1 1.069 1.665l-.8-.218a3.13 3.13 0 0 1 1.258-1.454 3.7 3.7 0 0 1 1.981-.53" data-name="Path 40231"/><path d="M459.712 3134.241a1.44 1.44 0 0 1-1.018-.363 1.233 1.233 0 0 1 0-1.8 1.44 1.44 0 0 1 1.018-.364 1.5 1.5 0 0 1 1.018.342 1.11 1.11 0 0 1 .393.88 1.24 1.24 0 0 1-.386.937 1.42 1.42 0 0 1-1.025.368m-1.134 8.912v-7.821h2.268v7.821Z" data-name="Path 40232"/><path d="M466.734 3143.269a4.8 4.8 0 0 1-2.253-.516 3.946 3.946 0 0 1 0-7.022 4.8 4.8 0 0 1 2.253-.516 4.3 4.3 0 0 1 2.152.516 3.14 3.14 0 0 1 1.352 1.476l-1.759.945a2.05 2.05 0 0 0-.763-.814 1.97 1.97 0 0 0-1-.262 2.1 2.1 0 0 0-1.047.262 1.9 1.9 0 0 0-.734.741 2.65 2.65 0 0 0 0 2.326 1.9 1.9 0 0 0 .734.742 2.1 2.1 0 0 0 1.047.262 2 2 0 0 0 1-.255 1.97 1.97 0 0 0 .763-.821l1.759.959a3.15 3.15 0 0 1-1.352 1.461 4.3 4.3 0 0 1-2.152.516" data-name="Path 40233"/><path d="M473.96 3143.269a3.6 3.6 0 0 1-1.57-.312 2.4 2.4 0 0 1-1-.851 2.3 2.3 0 0 1-.007-2.428 2.24 2.24 0 0 1 1.083-.821 5.3 5.3 0 0 1 1.934-.3h2.079v1.323h-1.832a1.7 1.7 0 0 0-1.1.262.84.84 0 0 0-.3.654.81.81 0 0 0 .342.69 1.54 1.54 0 0 0 .938.255 1.94 1.94 0 0 0 1.017-.269 1.54 1.54 0 0 0 .655-.792l.348 1.046a2.02 2.02 0 0 1-.9 1.149 3.24 3.24 0 0 1-1.687.394m2.384-.116v-1.526l-.145-.335v-2.733a1.46 1.46 0 0 0-.444-1.134 1.96 1.96 0 0 0-1.359-.407 4 4 0 0 0-1.229.2 3.3 3.3 0 0 0-1.025.531l-.814-1.585a4.9 4.9 0 0 1 1.541-.7 7 7 0 0 1 1.832-.247 4.15 4.15 0 0 1 2.777.843 3.28 3.28 0 0 1 .989 2.632v4.463Z" data-name="Path 40234"/><path d="M480.516 3143.153v-10.788h2.269v10.788Z" data-name="Path 40235"/></g></g><g data-name="Group 1216"><g fill="#383838" data-name="Group 1215"><path d="M654.744 2780.485v-10.177h4.972a4.77 4.77 0 0 1 2.886.727 2.29 2.29 0 0 1 .967 1.919 2.44 2.44 0 0 1-.393 1.388 2.57 2.57 0 0 1-1.076.909 3.65 3.65 0 0 1-1.57.32l.277-.6a4.4 4.4 0 0 1 1.7.312 2.55 2.55 0 0 1 1.155.924 2.6 2.6 0 0 1 .415 1.5 2.37 2.37 0 0 1-1.033 2.043 5.23 5.23 0 0 1-3.038.734Zm2.34-1.774h2.749a2.6 2.6 0 0 0 1.388-.3 1.04 1.04 0 0 0 .472-.952 1.06 1.06 0 0 0-.472-.952 2.5 2.5 0 0 0-1.388-.313h-2.923v-1.715h2.515a2.4 2.4 0 0 0 1.316-.3 1 1 0 0 0 .458-.908 1 1 0 0 0-.458-.894 2.4 2.4 0 0 0-1.316-.3h-2.341Z" data-name="Path 40236"/><path d="M666.84 2771.573a1.44 1.44 0 0 1-1.018-.364 1.23 1.23 0 0 1 0-1.8 1.44 1.44 0 0 1 1.018-.364 1.5 1.5 0 0 1 1.018.342 1.11 1.11 0 0 1 .392.879 1.25 1.25 0 0 1-.385.938 1.42 1.42 0 0 1-1.025.369m-1.134 8.912v-7.822h2.268v7.822Z" data-name="Path 40237"/><path d="M673.8 2780.6a4.6 4.6 0 0 1-2.217-.523 4 4 0 0 1-1.527-1.432 4.14 4.14 0 0 1 0-4.158 3.93 3.93 0 0 1 1.527-1.425 5 5 0 0 1 4.427 0 3.9 3.9 0 0 1 1.526 1.418 3.98 3.98 0 0 1-1.526 5.6 4.6 4.6 0 0 1-2.21.52m0-1.861a2 2 0 0 0 1.018-.261 1.87 1.87 0 0 0 .712-.749 2.7 2.7 0 0 0 0-2.319 1.87 1.87 0 0 0-.712-.741 2.11 2.11 0 0 0-2.036 0 1.9 1.9 0 0 0-.719.741 2.63 2.63 0 0 0 0 2.319 1.9 1.9 0 0 0 .719.749 2 2 0 0 0 1.018.262Z" data-name="Path 40238"/><path d="M679.6 2780.485V2769.7h2.269v10.788Z" data-name="Path 40239"/><path d="M687.7 2780.6a4.6 4.6 0 0 1-2.217-.523 4 4 0 0 1-1.527-1.432 4.15 4.15 0 0 1 0-4.158 3.93 3.93 0 0 1 1.527-1.425 5 5 0 0 1 4.427 0 3.9 3.9 0 0 1 1.526 1.418 3.98 3.98 0 0 1-1.526 5.6 4.6 4.6 0 0 1-2.21.52m0-1.861a2 2 0 0 0 1.018-.261 1.87 1.87 0 0 0 .712-.749 2.7 2.7 0 0 0 0-2.319 1.87 1.87 0 0 0-.712-.741 2.11 2.11 0 0 0-2.036 0 1.9 1.9 0 0 0-.719.741 2.63 2.63 0 0 0 0 2.319 1.9 1.9 0 0 0 .719.749 2 2 0 0 0 1.018.262Z" data-name="Path 40240"/><path d="M696.833 2780.107a4.1 4.1 0 0 1-1.97-.473 3.863 3.863 0 0 1-1.41-5.306 3.63 3.63 0 0 1 1.41-1.316 4.15 4.15 0 0 1 1.97-.465 3.7 3.7 0 0 1 1.744.4 2.75 2.75 0 0 1 1.178 1.235 5.63 5.63 0 0 1 0 4.275 2.8 2.8 0 0 1-1.178 1.243 3.6 3.6 0 0 1-1.744.407m.349 3.315a8.4 8.4 0 0 1-2.13-.269 4.65 4.65 0 0 1-1.709-.807l.9-1.628a3.7 3.7 0 0 0 1.257.647 5 5 0 0 0 1.505.239 2.42 2.42 0 0 0 1.752-.538 2.15 2.15 0 0 0 .545-1.6v-1.177l.145-1.963-.028-1.977v-1.687h2.151v6.514a4.14 4.14 0 0 1-1.134 3.212 4.67 4.67 0 0 1-3.254 1.034m.1-5.176a2.3 2.3 0 0 0 1.062-.24 1.8 1.8 0 0 0 .726-.676 2.06 2.06 0 0 0 0-2.013 1.8 1.8 0 0 0-.726-.669 2.47 2.47 0 0 0-2.123 0 1.81 1.81 0 0 0-1 1.679 1.9 1.9 0 0 0 .269 1 1.83 1.83 0 0 0 .734.676 2.3 2.3 0 0 0 1.059.243Z" data-name="Path 40241"/><path d="M704.814 2771.573a1.44 1.44 0 0 1-1.017-.364 1.23 1.23 0 0 1 0-1.8 1.44 1.44 0 0 1 1.017-.364 1.5 1.5 0 0 1 1.018.342 1.11 1.11 0 0 1 .393.879 1.25 1.25 0 0 1-.386.938 1.42 1.42 0 0 1-1.025.369m-1.134 8.912v-7.822h2.268v7.822Z" data-name="Path 40242"/><path d="M711.837 2780.6a4.8 4.8 0 0 1-2.254-.516 3.946 3.946 0 0 1 0-7.022 4.8 4.8 0 0 1 2.254-.516 4.3 4.3 0 0 1 2.151.516 3.14 3.14 0 0 1 1.352 1.476l-1.759.945a2.05 2.05 0 0 0-.763-.814 1.97 1.97 0 0 0-1-.262 2.1 2.1 0 0 0-1.047.262 1.9 1.9 0 0 0-.734.741 2.65 2.65 0 0 0 0 2.326 1.9 1.9 0 0 0 .734.742 2.1 2.1 0 0 0 1.047.261 2 2 0 0 0 1-.254 1.98 1.98 0 0 0 .763-.822l1.759.96a3.15 3.15 0 0 1-1.352 1.461 4.3 4.3 0 0 1-2.151.516" data-name="Path 40243"/><path d="M719.062 2780.6a3.6 3.6 0 0 1-1.57-.312 2.4 2.4 0 0 1-1-.851 2.3 2.3 0 0 1-.008-2.428 2.24 2.24 0 0 1 1.084-.821 5.3 5.3 0 0 1 1.933-.3h2.079v1.323h-1.832a1.7 1.7 0 0 0-1.1.261.84.84 0 0 0-.3.655.81.81 0 0 0 .342.69 1.54 1.54 0 0 0 .938.255 1.95 1.95 0 0 0 1.017-.269 1.54 1.54 0 0 0 .655-.793l.348 1.047a2.02 2.02 0 0 1-.9 1.149 3.25 3.25 0 0 1-1.686.394m2.384-.116v-1.527l-.145-.334v-2.733a1.46 1.46 0 0 0-.443-1.134 1.96 1.96 0 0 0-1.36-.407 4 4 0 0 0-1.228.2 3.2 3.2 0 0 0-1.025.531l-.815-1.585a4.9 4.9 0 0 1 1.541-.7 7 7 0 0 1 1.832-.247 4.15 4.15 0 0 1 2.777.843 3.27 3.27 0 0 1 .989 2.632v4.463Z" data-name="Path 40244"/><path d="M725.619 2780.485V2769.7h2.268v10.788Z" data-name="Path 40245"/></g></g><g data-name="Group 1218"><g fill="#383838" data-name="Group 1217"><path d="M904.556 3140.391v-10.177h4.4a5.7 5.7 0 0 1 2.356.443 3.45 3.45 0 0 1 1.526 1.272 3.55 3.55 0 0 1 .538 1.978 3.5 3.5 0 0 1-.538 1.955 3.4 3.4 0 0 1-1.526 1.258 5.8 5.8 0 0 1-2.356.436h-3.1l1.046-1.033v3.868Zm2.355-3.606-1.046-1.1h2.966a2.4 2.4 0 0 0 1.628-.472 1.85 1.85 0 0 0 0-2.61 2.44 2.44 0 0 0-1.628-.465h-2.966l1.046-1.12Zm4.115 3.606-2.544-3.693H911l2.573 3.693Z" data-name="Path 40246"/><path d="M917.423 3140.507a3.6 3.6 0 0 1-1.57-.313 2.4 2.4 0 0 1-1-.85 2.17 2.17 0 0 1-.349-1.207 2.2 2.2 0 0 1 .341-1.221 2.23 2.23 0 0 1 1.084-.821 5.3 5.3 0 0 1 1.933-.3h2.079v1.323h-1.832a1.7 1.7 0 0 0-1.1.261.84.84 0 0 0-.3.655.82.82 0 0 0 .341.69 1.54 1.54 0 0 0 .938.255 1.95 1.95 0 0 0 1.018-.269 1.55 1.55 0 0 0 .654-.793l.349 1.047a2.03 2.03 0 0 1-.9 1.149 3.25 3.25 0 0 1-1.686.394m2.385-.116v-1.527l-.146-.334v-2.73a1.46 1.46 0 0 0-.443-1.134 1.96 1.96 0 0 0-1.36-.407 4 4 0 0 0-1.228.2 3.3 3.3 0 0 0-1.025.531l-.814-1.585a4.9 4.9 0 0 1 1.541-.7 6.9 6.9 0 0 1 1.832-.247 4.16 4.16 0 0 1 2.777.843 3.28 3.28 0 0 1 .988 2.631v4.464Z" data-name="Path 40247"/><path d="M927.4 3140.507a3.97 3.97 0 0 1-1.992-.5 3.7 3.7 0 0 1-1.4-1.4 4.65 4.65 0 0 1 0-4.26 3.63 3.63 0 0 1 1.4-1.4 4 4 0 0 1 1.992-.494 3.35 3.35 0 0 1 1.73.436 2.88 2.88 0 0 1 1.149 1.323 5.5 5.5 0 0 1 .407 2.268 5.6 5.6 0 0 1-.393 2.261 2.8 2.8 0 0 1-1.126 1.33 3.4 3.4 0 0 1-1.767.436m.392-1.861a1.96 1.96 0 0 0 1-.262 1.9 1.9 0 0 0 .719-.748 2.63 2.63 0 0 0 0-2.319 1.93 1.93 0 0 0-.719-.742 1.97 1.97 0 0 0-1-.261 2 2 0 0 0-1.017.261 1.93 1.93 0 0 0-.72.742 2.63 2.63 0 0 0 0 2.319 1.9 1.9 0 0 0 .72.748 2 2 0 0 0 1.013.262Zm2.051 1.745v-1.6l.043-2.327-.145-2.311v-4.553h2.268v10.788Z" data-name="Path 40248"/><path d="M935.232 3131.479a1.44 1.44 0 0 1-1.018-.364 1.23 1.23 0 0 1 0-1.8 1.44 1.44 0 0 1 1.018-.364 1.5 1.5 0 0 1 1.018.342 1.11 1.11 0 0 1 .393.879 1.25 1.25 0 0 1-.386.938 1.42 1.42 0 0 1-1.025.369m-1.134 8.912v-7.822h2.268v7.822Z" data-name="Path 40249"/><path d="M942.2 3140.507a4.6 4.6 0 0 1-2.217-.523 4 4 0 0 1-1.527-1.432 4.14 4.14 0 0 1 0-4.158 3.9 3.9 0 0 1 1.527-1.425 5 5 0 0 1 4.427 0 3.9 3.9 0 0 1 1.526 1.417 3.98 3.98 0 0 1-1.526 5.6 4.6 4.6 0 0 1-2.21.521m0-1.861a2 2 0 0 0 1.018-.262 1.86 1.86 0 0 0 .712-.748 2.7 2.7 0 0 0 0-2.319 1.9 1.9 0 0 0-.712-.742 2.12 2.12 0 0 0-2.036 0 1.93 1.93 0 0 0-.719.742 2.63 2.63 0 0 0 0 2.319 1.9 1.9 0 0 0 .719.748 2 2 0 0 0 1.018.262" data-name="Path 40250"/><path d="M948 3140.391V3129.6h2.268v10.788Z" data-name="Path 40251"/><path d="M956.095 3140.507a4.6 4.6 0 0 1-2.217-.523 4 4 0 0 1-1.527-1.432 4.14 4.14 0 0 1 0-4.158 3.9 3.9 0 0 1 1.527-1.425 5 5 0 0 1 4.426 0 3.966 3.966 0 0 1 0 7.015 4.6 4.6 0 0 1-2.209.523m0-1.861a2 2 0 0 0 1.018-.262 1.86 1.86 0 0 0 .712-.748 2.7 2.7 0 0 0 0-2.319 1.9 1.9 0 0 0-.712-.742 2.12 2.12 0 0 0-2.036 0 1.94 1.94 0 0 0-.72.742 2.64 2.64 0 0 0 0 2.319 1.9 1.9 0 0 0 .72.748 2 2 0 0 0 1.018.262" data-name="Path 40252"/><path d="M965.226 3140.013a4.1 4.1 0 0 1-1.97-.473 3.863 3.863 0 0 1-1.411-5.306 3.64 3.64 0 0 1 1.411-1.316 4.14 4.14 0 0 1 1.97-.465 3.7 3.7 0 0 1 1.744.4 2.75 2.75 0 0 1 1.178 1.235 5.64 5.64 0 0 1 0 4.275 2.8 2.8 0 0 1-1.178 1.243 3.6 3.6 0 0 1-1.744.407m.349 3.315a8.4 8.4 0 0 1-2.13-.269 4.65 4.65 0 0 1-1.709-.807l.9-1.628a3.7 3.7 0 0 0 1.258.646 5 5 0 0 0 1.505.24 2.41 2.41 0 0 0 1.751-.538 2.15 2.15 0 0 0 .546-1.6v-1.172l.146-1.962-.03-1.977v-1.687h2.152v6.513a4.14 4.14 0 0 1-1.134 3.213 4.68 4.68 0 0 1-3.255 1.028m.1-5.176a2.3 2.3 0 0 0 1.062-.24 1.8 1.8 0 0 0 .727-.676 2.07 2.07 0 0 0 0-2.014 1.8 1.8 0 0 0-.727-.668 2.47 2.47 0 0 0-2.124 0 1.891 1.891 0 0 0 0 3.358 2.3 2.3 0 0 0 1.063.24Z" data-name="Path 40253"/><path d="M973.207 3131.479a1.44 1.44 0 0 1-1.018-.364 1.23 1.23 0 0 1 0-1.8 1.44 1.44 0 0 1 1.018-.364 1.5 1.5 0 0 1 1.017.342 1.11 1.11 0 0 1 .393.879 1.25 1.25 0 0 1-.385.938 1.42 1.42 0 0 1-1.025.369m-1.134 8.912v-7.822h2.268v7.822Z" data-name="Path 40254"/><path d="M980.229 3140.507a4.8 4.8 0 0 1-2.253-.516 3.946 3.946 0 0 1 0-7.022 4.8 4.8 0 0 1 2.253-.516 4.3 4.3 0 0 1 2.151.516 3.15 3.15 0 0 1 1.353 1.476l-1.759.945a2.05 2.05 0 0 0-.764-.815 2 2 0 0 0-1-.261 2.1 2.1 0 0 0-1.047.261 1.9 1.9 0 0 0-.734.742 2.66 2.66 0 0 0 0 2.326 1.9 1.9 0 0 0 .734.741 2.1 2.1 0 0 0 1.047.262 2 2 0 0 0 1-.254 2 2 0 0 0 .764-.822l1.759.96a3.16 3.16 0 0 1-1.353 1.461 4.3 4.3 0 0 1-2.151.516" data-name="Path 40255"/><path d="M987.453 3140.507a3.6 3.6 0 0 1-1.569-.313 2.4 2.4 0 0 1-1-.85 2.3 2.3 0 0 1-.007-2.428 2.23 2.23 0 0 1 1.083-.821 5.3 5.3 0 0 1 1.934-.3h2.079v1.323h-1.832a1.7 1.7 0 0 0-1.1.261.83.83 0 0 0-.3.655.81.81 0 0 0 .341.69 1.54 1.54 0 0 0 .937.255 1.95 1.95 0 0 0 1.018-.269 1.55 1.55 0 0 0 .655-.793l.349 1.047a2.03 2.03 0 0 1-.9 1.149 3.25 3.25 0 0 1-1.688.394m2.385-.116v-1.527l-.145-.334v-2.73a1.46 1.46 0 0 0-.444-1.134 1.95 1.95 0 0 0-1.359-.407 4 4 0 0 0-1.229.2 3.3 3.3 0 0 0-1.025.531l-.814-1.585a4.9 4.9 0 0 1 1.542-.7 6.9 6.9 0 0 1 1.831-.247 4.15 4.15 0 0 1 2.777.843 3.27 3.27 0 0 1 .988 2.631v4.464Z" data-name="Path 40256"/><path d="M994.011 3140.391V3129.6h2.268v10.788Z" data-name="Path 40257"/></g></g><g data-name="Group 1220"><g fill="#383838" data-name="Group 1219"><path d="M1166.742 2779.831v-10.177h1.947l6.005 7.327h-.945v-7.327h2.326v10.177h-1.934l-6.019-7.328h.945v7.328Z" data-name="Path 40258"/><path d="M1181.629 2779.947a3.86 3.86 0 0 1-1.737-.378 2.67 2.67 0 0 1-1.185-1.156 4.14 4.14 0 0 1-.423-1.984v-4.42h2.269v4.085a2.1 2.1 0 0 0 .414 1.433 1.5 1.5 0 0 0 1.17.457 1.9 1.9 0 0 0 .931-.225 1.55 1.55 0 0 0 .64-.7 2.7 2.7 0 0 0 .233-1.185v-3.867h2.268v7.822h-2.152v-2.152l.392.625a2.7 2.7 0 0 1-1.155 1.229 3.44 3.44 0 0 1-1.665.416" data-name="Path 40259"/><path d="M1192.1 2779.947a4.8 4.8 0 0 1-2.253-.516 3.947 3.947 0 0 1 0-7.022 4.8 4.8 0 0 1 2.253-.516 4.3 4.3 0 0 1 2.152.516 3.15 3.15 0 0 1 1.352 1.476l-1.758.945a2.05 2.05 0 0 0-.764-.815 2 2 0 0 0-1-.261 2.1 2.1 0 0 0-1.047.261 1.9 1.9 0 0 0-.734.742 2.65 2.65 0 0 0 0 2.326 1.9 1.9 0 0 0 .734.741 2.1 2.1 0 0 0 1.047.262 2 2 0 0 0 1-.254 2 2 0 0 0 .764-.822l1.758.96a3.16 3.16 0 0 1-1.352 1.461 4.3 4.3 0 0 1-2.152.516" data-name="Path 40260"/><path d="M1196.851 2779.831v-10.788h2.268v10.788Z" data-name="Path 40261"/><path d="M1205.109 2779.947a5 5 0 0 1-2.348-.523 3.86 3.86 0 0 1-1.563-1.432 3.9 3.9 0 0 1-.553-2.072 3.97 3.97 0 0 1 .546-2.086 3.86 3.86 0 0 1 1.49-1.425 4.67 4.67 0 0 1 4.209-.029 3.65 3.65 0 0 1 1.461 1.4 4.2 4.2 0 0 1 .538 2.174q-.001.13-.014.3c-.013.17-.02.216-.03.313h-6.353v-1.323h5.161l-.873.392a2.2 2.2 0 0 0-.246-1.061 1.8 1.8 0 0 0-.684-.705 2 2 0 0 0-1.017-.255 2 2 0 0 0-1.025.255 1.77 1.77 0 0 0-.691.712 2.25 2.25 0 0 0-.247 1.083v.349a2.2 2.2 0 0 0 .284 1.127 1.84 1.84 0 0 0 .8.741 2.7 2.7 0 0 0 1.214.255 3 3 0 0 0 1.1-.189 2.7 2.7 0 0 0 .865-.567l1.206 1.308a3.5 3.5 0 0 1-1.352.938 5 5 0 0 1-1.878.32" data-name="Path 40262"/><path d="M1212.595 2779.947a3.6 3.6 0 0 1-1.569-.313 2.4 2.4 0 0 1-1-.85 2.3 2.3 0 0 1-.007-2.428 2.24 2.24 0 0 1 1.083-.821 5.3 5.3 0 0 1 1.934-.3h2.079v1.323h-1.832a1.7 1.7 0 0 0-1.1.261.83.83 0 0 0-.3.654.81.81 0 0 0 .341.691 1.53 1.53 0 0 0 .937.255 1.95 1.95 0 0 0 1.018-.269 1.55 1.55 0 0 0 .655-.793l.349 1.047a2.03 2.03 0 0 1-.9 1.149 3.25 3.25 0 0 1-1.688.394m2.385-.116v-1.531l-.145-.334v-2.733a1.46 1.46 0 0 0-.444-1.134 1.95 1.95 0 0 0-1.359-.407 4 4 0 0 0-1.229.2 3.3 3.3 0 0 0-1.025.531l-.814-1.585a4.9 4.9 0 0 1 1.542-.7 6.9 6.9 0 0 1 1.831-.247 4.16 4.16 0 0 1 2.777.843 3.27 3.27 0 0 1 .988 2.631v4.464Z" data-name="Path 40263"/><path d="M1219.153 2779.831v-7.822h2.166v2.21l-.3-.64a2.5 2.5 0 0 1 1.119-1.257 3.8 3.8 0 0 1 1.876-.429v2.093l-.262-.022c-.078 0-.16-.007-.248-.007a1.928 1.928 0 0 0-2.078 2.181v3.693Z" data-name="Path 40264"/></g></g><g data-name="Group 1222"><g fill="#383838" data-name="Group 1221"><path d="M1419.068 3138.617h5.539v1.89h-7.88v-10.177h7.691v1.89h-5.35Zm-.175-4.187h4.9v1.832h-4.9Z" data-name="Path 40265"/><path d="m1425.232 3140.507 3.5-4.594-.044 1.25-3.358-4.478h2.544l2.122 2.922-.959.03 2.195-2.952h2.414l-3.373 4.435v-1.22l3.489 4.609h-2.573l-2.225-3.111.945.131-2.209 2.98Z" data-name="Path 40266"/><path d="M1434.871 3143.328v-10.643h2.166v1.6l-.043 2.326.145 2.311v4.406Zm4.623-2.7a3.35 3.35 0 0 1-1.73-.436 2.9 2.9 0 0 1-1.156-1.33 5.4 5.4 0 0 1-.414-2.261 5.6 5.6 0 0 1 .392-2.268 2.8 2.8 0 0 1 1.134-1.323 3.44 3.44 0 0 1 1.774-.436 3.93 3.93 0 0 1 1.984.5 3.7 3.7 0 0 1 1.4 1.4 4.64 4.64 0 0 1 0 4.259 3.64 3.64 0 0 1-1.4 1.4 3.97 3.97 0 0 1-1.984.49Zm-.393-1.861a1.96 1.96 0 0 0 1.011-.261 1.93 1.93 0 0 0 .712-.749 2.63 2.63 0 0 0 0-2.319 1.9 1.9 0 0 0-1.723-1 2 2 0 0 0-1.017.262 1.86 1.86 0 0 0-.712.741 2.7 2.7 0 0 0 0 2.319 1.85 1.85 0 0 0 .712.749 2 2 0 0 0 1.016.253Z" data-name="Path 40267"/><path d="M1444.9 3140.507v-10.788h2.268v10.788Z" data-name="Path 40268"/><path d="M1453 3140.623a4.6 4.6 0 0 1-2.218-.523 4 4 0 0 1-1.526-1.432 4.14 4.14 0 0 1 0-4.158 3.93 3.93 0 0 1 1.526-1.425 5 5 0 0 1 4.427 0 3.968 3.968 0 0 1 0 7.015 4.6 4.6 0 0 1-2.209.523m0-1.861a2 2 0 0 0 1.017-.261 1.87 1.87 0 0 0 .713-.749 2.7 2.7 0 0 0 0-2.319 1.9 1.9 0 0 0-.713-.741 2.1 2.1 0 0 0-2.035 0 1.9 1.9 0 0 0-.72.741 2.63 2.63 0 0 0 0 2.319 1.9 1.9 0 0 0 .72.749 2 2 0 0 0 1.018.261" data-name="Path 40269"/><path d="M1461.432 3140.623a7.6 7.6 0 0 1-1.926-.24 4.7 4.7 0 0 1-1.461-.6l.756-1.628a5 5 0 0 0 1.272.545 5.2 5.2 0 0 0 1.446.211 2.4 2.4 0 0 0 1.113-.189.58.58 0 0 0 .327-.524.45.45 0 0 0-.254-.414 2.2 2.2 0 0 0-.676-.211q-.423-.072-.923-.145t-1.011-.2a3.5 3.5 0 0 1-.931-.371 1.9 1.9 0 0 1-.676-.669 2.32 2.32 0 0 1 .175-2.4 2.84 2.84 0 0 1 1.243-.894 5.2 5.2 0 0 1 1.948-.327 8 8 0 0 1 1.628.175 4.4 4.4 0 0 1 1.382.508l-.756 1.614a3.9 3.9 0 0 0-1.141-.458 5.3 5.3 0 0 0-1.113-.123 2.3 2.3 0 0 0-1.1.2.6.6 0 0 0-.349.523.47.47 0 0 0 .255.437 2.3 2.3 0 0 0 .675.232q.423.087.924.153a9 9 0 0 1 1.011.2 3.6 3.6 0 0 1 .923.371 1.95 1.95 0 0 1 .676.654 2 2 0 0 1 .262 1.083 2.04 2.04 0 0 1-.437 1.287 2.86 2.86 0 0 1-1.257.879 5.5 5.5 0 0 1-2.005.321" data-name="Path 40270"/><path d="M1467.655 3131.595a1.43 1.43 0 0 1-1.017-.364 1.23 1.23 0 0 1 0-1.8 1.44 1.44 0 0 1 1.017-.364 1.5 1.5 0 0 1 1.017.342 1.11 1.11 0 0 1 .393.879 1.25 1.25 0 0 1-.385.938 1.42 1.42 0 0 1-1.025.369m-1.134 8.912v-7.822h2.269v7.822Z" data-name="Path 40271"/><path d="m1473.02 3140.507-3.286-7.822h2.341l2.733 6.732h-1.164l2.835-6.732h2.182l-3.3 7.822Z" data-name="Path 40272"/><path d="M1483.254 3140.623a5.04 5.04 0 0 1-2.348-.523 3.86 3.86 0 0 1-1.562-1.432 3.9 3.9 0 0 1-.553-2.072 3.97 3.97 0 0 1 .546-2.086 3.86 3.86 0 0 1 1.49-1.425 4.67 4.67 0 0 1 4.208-.029 3.65 3.65 0 0 1 1.462 1.4 4.2 4.2 0 0 1 .538 2.173q0 .13-.015.3c-.015.17-.019.216-.029.313h-6.353v-1.323h5.161l-.873.392a2.2 2.2 0 0 0-.246-1.061 1.83 1.83 0 0 0-.684-.7 2 2 0 0 0-1.018-.254 2 2 0 0 0-1.024.254 1.77 1.77 0 0 0-.691.712 2.25 2.25 0 0 0-.247 1.083v.349a2.2 2.2 0 0 0 .284 1.127 1.85 1.85 0 0 0 .8.742 2.7 2.7 0 0 0 1.214.254 3 3 0 0 0 1.1-.189 2.7 2.7 0 0 0 .865-.567l1.206 1.309a3.5 3.5 0 0 1-1.352.937 5 5 0 0 1-1.879.316" data-name="Path 40273"/></g></g><path fill="none" stroke="#3f557b" stroke-width="3.212" d="M342.222 2978.458h196.04l36.8-46.314-19.035-24.744" data-name="Path 40274"/><path fill="none" stroke="#3f557b" stroke-width="3.212" d="m806.945 3002.566 19.033-24.743-36.8-46.314H593.141l-19.482-24.517" data-name="Path 40275"/><path fill="none" stroke="#3f557b" stroke-width="3.212" d="m1057.8 2907.4 19.033 24.743-36.8 46.314H843.995l-18.016 24.109" data-name="Path 40276"/><path fill="none" stroke="#3f557b" stroke-width="3.212" d="m1307.267 3002.566 19.033-24.743-36.8-46.314h-196.04l-17.66-24.109" data-name="Path 40277"/><path fill="none" stroke="#3f557b" stroke-width="3.212" d="m1558.967 2907.4 19.033 24.744-36.8 46.314h-196.04l-17.052 24.109" data-name="Path 40278"/><circle cx="7.058" cy="7.058" r="7.058" fill="#fff" stroke="#3f557b" stroke-width="3.212" data-name="Ellipse 1602" transform="translate(441.035 2971.383)"/><path fill="none" stroke="#3f557b" stroke-width="3.212" d="M448.093 2992.16v25.932" data-name="Line 93"/><circle cx="7.058" cy="7.058" r="7.058" fill="#fff" stroke="#3f557b" stroke-width="3.212" data-name="Ellipse 1603" transform="translate(943.284 2971.383)"/><path fill="none" stroke="#3f557b" stroke-width="3.212" d="M950.342 2992.16v25.932" data-name="Line 94"/><circle cx="7.058" cy="7.058" r="7.058" fill="#fff" stroke="#3f557b" stroke-width="3.212" data-name="Ellipse 1604" transform="translate(1444.452 2971.383)"/><path fill="none" stroke="#3f557b" stroke-width="3.212" d="M1451.51 2992.16v25.932" data-name="Line 95"/><circle cx="7.058" cy="7.058" r="7.058" fill="#fff" stroke="#3f557b" stroke-width="3.212" data-name="Ellipse 1605" transform="translate(1187.896 2923.529)"/><path fill="none" stroke="#3f557b" stroke-width="3.212" d="M1194.954 2916.867v-25.932" data-name="Line 96"/><circle cx="7.058" cy="7.058" r="7.058" fill="#fff" stroke="#3f557b" stroke-width="3.212" data-name="Ellipse 1606" transform="translate(684.182 2923.529)"/><path fill="none" stroke="#3f557b" stroke-width="3.212" d="M691.24 2916.867v-25.932" data-name="Line 97"/><g data-name="Group 1224"><g data-name="Group 1223"><path fill="#3e517b" d="m494.527 2915.528-19.781 17.072H420.92l-19.26-17.074v-129.304l19.26-17.179h53.826l19.781 17.283v25.194h-30.192v-12.285h-32.483v103.175h32.483v-13.223h30.192Z" data-name="Path 40279"/></g></g><g data-name="Group 1226"><g data-name="Group 1225"><path fill="#3e517b" d="m737 3126.253-19.365 17.075h-72.152v-163.559h72.149L737 2996.947v50.286l-11.66 14.159 11.66 14.471Zm-61.324-79.853H706.7v-36.439h-31.024Zm0 66.735H706.7V3076.7h-31.024Z" data-name="Path 40280"/></g></g><g data-name="Group 1228"><g data-name="Group 1227"><path fill="#3e517b" d="M999.014 2932.6h-32.378l-25.716-66.631h-8.953v66.631h-30.3v-163.557h72.565l19.261 17.179v60.072l-20.614 19.26Zm-67.047-96.928H963.3v-36.543h-31.333Z" data-name="Path 40281"/></g></g><g data-name="Group 1230"><g data-name="Group 1229"><path fill="#3e517b" d="m1210.258 3143.328-33-85.684v85.684h-30.088v-163.559h32.379l33.107 85.787v-85.787h29.984v163.35l.1.209Z" data-name="Path 40282"/></g></g><g data-name="Group 1232"><g data-name="Group 1231"><path fill="#3e517b" d="M1490.915 2932.6H1412.1v-163.557h78.188v30.192H1442.3v36.439h41.332v30.3H1442.3v36.439h48.619Z" data-name="Path 40283"/></g></g></g></svg>