<svg xmlns="http://www.w3.org/2000/svg" width="48.022" height="56.907"><g data-name="Group 1180"><g data-name="Group 1179"><g data-name="Group 1178"><g data-name="Group 1173"><path fill="#3e517b" d="m14.344 33.501 6.22 23.321L0 33.501Z" data-name="Path 39898"/></g><g data-name="Group 1174"><path fill="#3e517b" d="M14.463 30.17H0l9.507-9.507a1.67 1.67 0 0 1 1.178-.488h9.489Z" data-name="Path 39899"/></g><path fill="#68c2ea" d="M30.685 30.17H16.634l7.377-9.995Z" data-name="Path 39900"/><path fill="#68c2ea" d="m30.23 33.587-6.219 23.32-6.219-23.32Z" data-name="Path 39901"/><g data-name="Group 1175"><path fill="#3e517b" d="m33.559 30.17-5.711-9.995h9.489a1.67 1.67 0 0 1 1.178.488l9.507 9.507Z" data-name="Path 39902"/></g><g data-name="Group 1176"><path fill="#3e517b" d="M33.678 33.586h14.344L27.458 56.907Z" data-name="Path 39903"/></g><g data-name="Group 1177"><path fill="#3e517b" d="M24.014 9.498a1.666 1.666 0 0 1-1.666-1.666V1.665a1.666 1.666 0 0 1 3.332 0v6.167a1.666 1.666 0 0 1-1.666 1.666" data-name="Path 39904"/></g><path fill="#68c2ea" d="M7.453 12.94 4.369 7.6a1.666 1.666 0 1 1 2.885-1.666l3.084 5.341a1.666 1.666 0 0 1-2.885 1.665" data-name="Path 39905"/><path fill="#68c2ea" d="M38.294 13.547a1.665 1.665 0 0 1-.61-2.275l3.084-5.341a1.666 1.666 0 1 1 2.885 1.666l-3.084 5.34a1.665 1.665 0 0 1-2.275.61" data-name="Path 39906"/></g></g></g></svg>