<svg xmlns="http://www.w3.org/2000/svg" width="48.022" height="56.907" viewBox="0 0 48.022 56.907">
  <g id="Group_1180" data-name="Group 1180" transform="translate(-1714.486 -2314.06)">
    <g id="Group_1179" data-name="Group 1179">
      <g id="Group_1178" data-name="Group 1178">
        <g id="Group_1173" data-name="Group 1173">
          <path id="Path_39898" data-name="Path 39898" d="M1728.83,2347.561l6.22,23.321-20.564-23.321Z" fill="#3e517b"/>
        </g>
        <g id="Group_1174" data-name="Group 1174">
          <path id="Path_39899" data-name="Path 39899" d="M1728.949,2344.23h-14.463l9.507-9.507a1.668,1.668,0,0,1,1.178-.488h9.489Z" fill="#3e517b"/>
        </g>
        <path id="Path_39900" data-name="Path 39900" d="M1745.171,2344.23H1731.12l7.377-9.995Z" fill="#68c2ea"/>
        <path id="Path_39901" data-name="Path 39901" d="M1744.716,2347.647l-6.219,23.32-6.219-23.32Z" fill="#68c2ea"/>
        <g id="Group_1175" data-name="Group 1175">
          <path id="Path_39902" data-name="Path 39902" d="M1748.045,2344.23l-5.711-9.995h9.489a1.668,1.668,0,0,1,1.178.488l9.507,9.507Z" fill="#3e517b"/>
        </g>
        <g id="Group_1176" data-name="Group 1176">
          <path id="Path_39903" data-name="Path 39903" d="M1748.164,2347.646h14.344l-20.564,23.321Z" fill="#3e517b"/>
        </g>
        <g id="Group_1177" data-name="Group 1177">
          <path id="Path_39904" data-name="Path 39904" d="M1738.5,2323.558a1.666,1.666,0,0,1-1.666-1.666v-6.167a1.666,1.666,0,0,1,3.332,0v6.167A1.666,1.666,0,0,1,1738.5,2323.558Z" fill="#3e517b"/>
        </g>
        <path id="Path_39905" data-name="Path 39905" d="M1721.939,2327l-3.084-5.34a1.666,1.666,0,1,1,2.885-1.666l3.084,5.341a1.666,1.666,0,0,1-2.885,1.665Z" fill="#68c2ea"/>
        <path id="Path_39906" data-name="Path 39906" d="M1752.78,2327.607a1.665,1.665,0,0,1-.61-2.275l3.084-5.341a1.666,1.666,0,1,1,2.885,1.666l-3.084,5.34A1.665,1.665,0,0,1,1752.78,2327.607Z" fill="#68c2ea"/>
      </g>
    </g>
  </g>
</svg>
