<svg xmlns="http://www.w3.org/2000/svg" xmlns:xlink="http://www.w3.org/1999/xlink" width="22.645" height="22.677" viewBox="0 0 22.645 22.677">
  <defs>
    <clipPath id="clip-path">
      <rect id="Rectangle_617" data-name="Rectangle 617" width="22.645" height="22.677" transform="translate(0 0)" fill="none"/>
    </clipPath>
  </defs>
  <g id="Group_1343" data-name="Group 1343" transform="translate(0 0)">
    <g id="Group_1342" data-name="Group 1342" clip-path="url(#clip-path)">
      <path id="Path_42033" data-name="Path 42033" d="M3.9,6.648A4.27,4.27,0,0,0,5.753,6.8a4.269,4.269,0,0,0,1.48-.415,8.388,8.388,0,0,0,1.54-1.063,7.432,7.432,0,0,0,1.818-2.182,3.578,3.578,0,0,0,.542-1.753A1.13,1.13,0,0,0,10.184.239,3.4,3.4,0,0,0,9.015.267,8.643,8.643,0,0,0,4.643,2.28a.707.707,0,0,0-.182.2.839.839,0,0,0,.089-.035,6.3,6.3,0,0,1,1.2-.545,1.092,1.092,0,0,1,.795-.076.453.453,0,0,1,.341.51,1.493,1.493,0,0,1-.128.5,2.265,2.265,0,0,1-.894.931,1.474,1.474,0,0,0-.719.754A1.716,1.716,0,0,0,5.379,6.1a1.807,1.807,0,0,0,.459.421,2.316,2.316,0,0,1-.256,0,.66.66,0,0,1-.5-.2A1.624,1.624,0,0,1,4.78,4.838a1.183,1.183,0,0,0-.108-.931,1,1,0,0,0-1.581-.245A2.1,2.1,0,0,0,2.6,4.724a1.557,1.557,0,0,0,.079.92,1.761,1.761,0,0,0,1.219,1" fill="#fff"/>
      <path id="Path_42034" data-name="Path 42034" d="M16.959,6.151a12.313,12.313,0,0,1-1.794,2.456c-.325.325-.672.629-1.028.923-.936.773-1.864,1.557-2.842,2.277-.463.341-.914.7-1.358,1.065a4.26,4.26,0,0,0-1.19,1.467,1.605,1.605,0,0,0-.155.969,1.3,1.3,0,0,0,1.065,1.07,4.015,4.015,0,0,0,1.987-.014,9.23,9.23,0,0,0,2.789-1.273,24.209,24.209,0,0,0,2.708-2.136,15.874,15.874,0,0,0,1.3-1.3A14.92,14.92,0,0,0,20.013,9.6a7.491,7.491,0,0,0,1.035-2.28,3.081,3.081,0,0,0-.718-2.961c-.22-.245-.4-.445-.646-.687-.422-.419-.894-.827-1.334-1.219a9.091,9.091,0,0,0-.918-.671.134.134,0,0,0,.014.137,3.875,3.875,0,0,1,.207,2.631,6.066,6.066,0,0,1-.694,1.6" fill="#fff"/>
      <path id="Path_42035" data-name="Path 42035" d="M11.252.114a4.448,4.448,0,0,1,.592.34,1.445,1.445,0,0,1,.676,1.441A4.432,4.432,0,0,1,12,3.389a7.128,7.128,0,0,1-.662.967c-.239.311-.492.609-.756.9A11.366,11.366,0,0,1,8.969,6.681c-.1.074-.2.15-.3.217A10.5,10.5,0,0,0,7.49,7.7a2.72,2.72,0,0,0-1.071,2,1.6,1.6,0,0,0,1.424,1.723,3.758,3.758,0,0,0,1.864-.278,10.07,10.07,0,0,0,1.845-1.05,13.6,13.6,0,0,0,2.839-2.65,10.673,10.673,0,0,0,.948-1.351,13.462,13.462,0,0,0,.975-1.872,5.936,5.936,0,0,0,.359-1.741A1.551,1.551,0,0,0,15.663.828,6.983,6.983,0,0,0,14.291.39,18.99,18.99,0,0,0,11.836.041a3.413,3.413,0,0,0-.726-.03c.038.07.1.079.142.1" fill="#fff"/>
      <path id="Path_42036" data-name="Path 42036" d="M22.594,9.745a10.374,10.374,0,0,0-.767-2.62c-.038-.091-.078-.182-.12-.272a.085.085,0,0,0-.092-.061c-.052.008-.053.05-.057.09-.009.1-.023.207-.027.311a7.048,7.048,0,0,1-.415,2.078,8.8,8.8,0,0,1-1.4,2.542c-.42.529-.849,1.048-1.315,1.536a17.053,17.053,0,0,1-1.568,1.435,35,35,0,0,1-3.287,2.381,14.758,14.758,0,0,0-1.555,1.073,1.137,1.137,0,0,0-.394,1.34,1.245,1.245,0,0,0,1.172.853,4.3,4.3,0,0,0,1.5-.278,11.015,11.015,0,0,0,2.9-1.531A19.1,19.1,0,0,0,20.2,15.91a10.817,10.817,0,0,0,1.582-2.227,6.757,6.757,0,0,0,.865-3.244,4.383,4.383,0,0,0-.049-.694" fill="#fff"/>
      <path id="Path_42037" data-name="Path 42037" d="M19,18.243a29.574,29.574,0,0,1-5.27,3.322.273.273,0,0,0-.034.451.4.4,0,0,0,.25.121,2.364,2.364,0,0,0,.564-.007,6.2,6.2,0,0,0,1.739-.6,12.726,12.726,0,0,0,3.821-2.976A10.61,10.61,0,0,0,22.5,13.334,14.049,14.049,0,0,1,19,18.243" fill="#fff"/>
      <path id="Path_42038" data-name="Path 42038" d="M10.715,19.884a2.036,2.036,0,0,1,.229-1.876A6.685,6.685,0,0,1,5.441,8.2c-.207.02-.414.031-.616.031A5.635,5.635,0,0,1,3.131,7.97a4.253,4.253,0,0,1-.6-.237L.518,7.841A11.344,11.344,0,0,0,0,10.522l1.858.867c0,.3.016.6.046.9.011.1.026.207.041.311L.224,13.722A11.387,11.387,0,0,0,1.111,16.3l2.045-.178a9.481,9.481,0,0,0,.681,1.009l-.928,1.827A11.384,11.384,0,0,0,4.97,20.752l1.681-1.176a9.378,9.378,0,0,0,1.093.537l.11,2.046a11.269,11.269,0,0,0,2.679.519l.85-1.818a2.186,2.186,0,0,1-.668-.976" fill="#fff"/>
    </g>
  </g>
</svg>
