<svg xmlns="http://www.w3.org/2000/svg" width="22.645" height="22.677"><defs><clipPath id="a"><path fill="none" d="M0 0h22.645v22.677H0z" data-name="Rectangle 617"/></clipPath></defs><g data-name="Group 1343"><g fill="#fff" clip-path="url(#a)" data-name="Group 1342"><path d="M3.9 6.648a4.3 4.3 0 0 0 1.853.152 4.3 4.3 0 0 0 1.48-.415 8.4 8.4 0 0 0 1.54-1.063 7.4 7.4 0 0 0 1.818-2.182 3.6 3.6 0 0 0 .542-1.753 1.13 1.13 0 0 0-.949-1.148 3.4 3.4 0 0 0-1.169.028A8.64 8.64 0 0 0 4.643 2.28a.7.7 0 0 0-.182.2 1 1 0 0 0 .089-.035 6.3 6.3 0 0 1 1.2-.545 1.1 1.1 0 0 1 .795-.076.453.453 0 0 1 .341.51 1.5 1.5 0 0 1-.128.5 2.27 2.27 0 0 1-.894.931 1.47 1.47 0 0 0-.719.754A1.72 1.72 0 0 0 5.379 6.1a1.8 1.8 0 0 0 .459.421 2 2 0 0 1-.256 0 .66.66 0 0 1-.5-.2 1.62 1.62 0 0 1-.302-1.483 1.18 1.18 0 0 0-.108-.931 1 1 0 0 0-1.581-.245A2.1 2.1 0 0 0 2.6 4.724a1.56 1.56 0 0 0 .079.92 1.76 1.76 0 0 0 1.219 1" data-name="Path 42033"/><path d="M16.959 6.151a12.3 12.3 0 0 1-1.794 2.456c-.325.325-.672.629-1.028.923-.936.773-1.864 1.557-2.842 2.277-.463.341-.914.7-1.358 1.065a4.26 4.26 0 0 0-1.19 1.467 1.6 1.6 0 0 0-.155.969 1.3 1.3 0 0 0 1.065 1.07 4 4 0 0 0 1.987-.014 9.2 9.2 0 0 0 2.789-1.273 24 24 0 0 0 2.708-2.136 16 16 0 0 0 1.3-1.3A15 15 0 0 0 20.013 9.6a7.5 7.5 0 0 0 1.035-2.28 3.08 3.08 0 0 0-.718-2.961c-.22-.245-.4-.445-.646-.687-.422-.419-.894-.827-1.334-1.219a9 9 0 0 0-.918-.671.13.13 0 0 0 .014.137 3.88 3.88 0 0 1 .207 2.631 6 6 0 0 1-.694 1.6" data-name="Path 42034"/><path d="M11.252.114a4.5 4.5 0 0 1 .592.34 1.45 1.45 0 0 1 .676 1.441A4.4 4.4 0 0 1 12 3.389a7 7 0 0 1-.662.967q-.36.465-.756.9a11.4 11.4 0 0 1-1.613 1.425c-.1.074-.2.15-.3.217A10.5 10.5 0 0 0 7.49 7.7a2.72 2.72 0 0 0-1.071 2 1.6 1.6 0 0 0 1.424 1.723 3.76 3.76 0 0 0 1.864-.278 10 10 0 0 0 1.845-1.05 13.6 13.6 0 0 0 2.839-2.65 11 11 0 0 0 .948-1.351 13.5 13.5 0 0 0 .975-1.872 6 6 0 0 0 .359-1.741 1.55 1.55 0 0 0-1.01-1.653A7 7 0 0 0 14.291.39a19 19 0 0 0-2.455-.349 3.4 3.4 0 0 0-.726-.03c.038.07.1.079.142.1" data-name="Path 42035"/><path d="M22.594 9.745a10.4 10.4 0 0 0-.767-2.62 7 7 0 0 0-.12-.272.085.085 0 0 0-.092-.061c-.052.008-.053.05-.057.09-.009.1-.023.207-.027.311a7 7 0 0 1-.415 2.078 8.8 8.8 0 0 1-1.4 2.542c-.42.529-.849 1.048-1.315 1.536a17 17 0 0 1-1.568 1.435 35 35 0 0 1-3.287 2.381 15 15 0 0 0-1.555 1.073 1.14 1.14 0 0 0-.394 1.34 1.245 1.245 0 0 0 1.172.853 4.3 4.3 0 0 0 1.5-.278 11 11 0 0 0 2.9-1.531A19 19 0 0 0 20.2 15.91a10.8 10.8 0 0 0 1.582-2.227 6.76 6.76 0 0 0 .865-3.244 4.4 4.4 0 0 0-.049-.694" data-name="Path 42036"/><path d="M19 18.243a29.6 29.6 0 0 1-5.27 3.322.273.273 0 0 0-.034.451.4.4 0 0 0 .25.121 2.4 2.4 0 0 0 .564-.007 6.2 6.2 0 0 0 1.739-.6 12.7 12.7 0 0 0 3.821-2.976 10.6 10.6 0 0 0 2.43-5.22 14.05 14.05 0 0 1-3.5 4.909" data-name="Path 42037"/><path d="M10.715 19.884a2.04 2.04 0 0 1 .229-1.876A6.685 6.685 0 0 1 5.441 8.2q-.312.03-.616.031a5.6 5.6 0 0 1-1.694-.261 4 4 0 0 1-.6-.237l-2.013.108A11.3 11.3 0 0 0 0 10.522l1.858.867q0 .45.046.9c.011.1.026.207.041.311L.224 13.722a11.4 11.4 0 0 0 .887 2.578l2.045-.178a9.5 9.5 0 0 0 .681 1.009l-.928 1.827a11.4 11.4 0 0 0 2.061 1.794l1.681-1.176a9 9 0 0 0 1.093.537l.11 2.046a11.3 11.3 0 0 0 2.679.519l.85-1.818a2.2 2.2 0 0 1-.668-.976" data-name="Path 42038"/></g></g></svg>