<svg xmlns="http://www.w3.org/2000/svg" width="70" height="70.153"><g fill="#fff" data-name="Group 1110"><path d="M69.995 35.104c0 .506.013 1.013 0 1.519-.163 5.564-.48 5.927-5.849 6.725-3.384.5-4.737 3.819-2.7 6.62 3.142 4.321 3.135 4.315-.38 8.469a40.6 40.6 0 0 1-5.026 4.617 2.775 2.775 0 0 1-4.065.062c-.765-.66-1.6-1.239-2.427-1.827a4.018 4.018 0 0 0-6.28 2.676c-.772 6.348-1.021 5.34-6.51 6.088-2.374.323-4.709-.22-7.056-.428a2.49 2.49 0 0 1-2.44-2.453c-.115-1.089-.329-2.167-.478-3.253a4.093 4.093 0 0 0-6.066-2.77c-.071.046-.138.1-.207.145-4.925 3.359-4.927 3.362-9.328-.741a28 28 0 0 1-1.6-1.616C5.488 54.502 5.49 54.5 8.919 49.6a4.065 4.065 0 0 0-2.727-6.222c-6.3-.972-5.255-.428-6.063-6.208-.356-2.552.148-5.048.416-7.559.18-1.682 1.41-2.086 2.838-2.354 2.146-.4 4.68.059 5.912-2.56a1.07 1.07 0 0 1 1.368-.338 1.47 1.47 0 0 1 1 1.331 3.96 3.96 0 0 1-3.056 4.024c-1.672.349-3.92-.28-4.835 1.465-1.113 2.123-.677 4.624-.377 6.972.18 1.406 1.179 1.846 2.5 2.032a8.16 8.16 0 0 1 7.359 7.641c.14 1.718-1.167 2.787-2.122 3.885-1.544 1.775-1.524 3.23.277 4.708a12 12 0 0 1 .883.907c3.443 3.513 3.488 3.572 7.494.6 1.493-1.108 2.813-1.362 4.374-.337a3.7 3.7 0 0 0 1.382.614c3.147.5 4.381 2.553 4.385 5.482 0 2.464 1.412 3.21 3.54 3.273.507.015 1.013.032 1.519.035 4.527.028 4.8-.105 5.344-4.585.246-2.033.98-3.327 3.026-3.77a3.7 3.7 0 0 0 1.408-.552c2.488-1.83 4.668-1.307 6.686.778 1.786 1.846 3.464 1.734 5.038-.283a6 6 0 0 1 .542-.532c3.747-3.656 3.791-3.688.747-7.792a3.37 3.37 0 0 1-.368-4.176 5.9 5.9 0 0 0 .828-1.841c.567-2.934 2.557-3.981 5.261-4 2.476-.016 3.569-1.162 3.317-3.615a4 4 0 0 1 0-.506c.075-5.514.075-5.514-5.323-6.41a3.815 3.815 0 0 1-3.1-3.953 1.5 1.5 0 0 1 .961-1.367 1.306 1.306 0 0 1 1.721.671c.773 1.491 2.107 1.772 3.585 1.945 4.743.556 4.971.807 5.294 5.569.057.84.008 1.687.008 2.531Z" data-name="Path 38882"/><path d="M49.125 16.002c-.049-.517-.162-1.44-.217-2.366a1.45 1.45 0 0 1 1.162-1.706 1.52 1.52 0 0 1 1.76 1.116 11.6 11.6 0 0 1 .714 4.726c-.252 8.981-7.4 16.618-15.907 17.082-9.536.521-17.438-5.5-18.877-14.375A17.4 17.4 0 0 1 30.96.53a16.68 16.68 0 0 1 15.957 4.193c.842.787 1.537 1.64 2.661.343a1.488 1.488 0 0 1 2.418-.184c.844.892.323 1.726-.316 2.46q-6.483 7.448-12.985 14.877c-4.8 5.486-3.973 5.367-8.889.19-1.918-2.02-3.913-3.968-5.863-5.957-.758-.774-1.377-1.675-.391-2.623s1.878-.269 2.628.48c2.212 2.205 4.443 4.394 6.582 6.669 1.014 1.078 1.709 1.325 2.8.025q4.551-5.432 9.323-10.678c1.215-1.331 1.035-2.255-.173-3.394-4.321-4.075-11.646-4.827-16.988-1.685a14.375 14.375 0 0 0-6.491 15.747 14 14 0 0 0 12.944 10.644c9.037.296 15.361-6.134 14.948-15.635" data-name="Path 38883"/><path d="M52.189 35.232c-.122-1.094-.24-2.1-.342-3.1-.095-.943.187-1.746 1.192-1.928s1.586.5 1.793 1.4a16.2 16.2 0 0 1 .454 2.99 20.249 20.249 0 0 1-40.177 4.285 16.4 16.4 0 0 1-.045-6.526c.247-1.111.448-2.381 1.926-2.11 1.437.263 1.27 1.511 1.13 2.656-.812 6.666 1.321 12.214 6.771 16.16a16.34 16.34 0 0 0 17.911 1.468c6.269-3.147 9.038-8.536 9.387-15.295" data-name="Path 38884"/><path d="M57.159 8.898c1.781 2.912 3.914 1.5 6.125.031.366-.243.934.249 1.2.72a1.59 1.59 0 0 1-.372 2.07c-1.554 1.357-1.495 2.547.01 3.917a1.571 1.571 0 1 1-2.254 2.158c-1.221-1.428-2.311-1.7-3.674-.14-.686.786-1.722 1.264-2.619.225a1.6 1.6 0 0 1 .4-2.441c1.666-1.31 1.336-2.405-.089-3.617a1.68 1.68 0 0 1-.524-2.055c.268-.576.756-.888 1.797-.868" data-name="Path 38885"/><path d="M6.789 8.907a2.58 2.58 0 0 1 1.887 1.127c.974 1.132 1.834 1.231 2.878.045.774-.879 1.786-1.9 2.945-.639s-.046 2.176-.886 2.923c-1.11.986-.972 1.731.056 2.661.849.766 2 1.7.782 2.927s-2.179.1-2.942-.756c-1.107-1.244-1.94-.859-2.891.168-.75.811-1.676 1.689-2.776.6s-.259-2.035.581-2.762c1.452-1.256.945-2.259-.222-3.312-.645-.582-1.136-1.283-.633-2.215a1.46 1.46 0 0 1 1.221-.767" data-name="Path 38886"/></g></svg>