<svg xmlns="http://www.w3.org/2000/svg" width="232.626" height="69.715"><defs><linearGradient id="a" x2="1" y1=".5" y2=".5" gradientUnits="objectBoundingBox"><stop offset="0" stop-color="#fdc709"/><stop offset="1" stop-color="#f3bb6d"/></linearGradient><clipPath id="b"><circle cx="15.617" cy="15.617" r="15.617" fill="none" data-name="Ellipse 1509" transform="translate(2408.371 7417.111)"/></clipPath></defs><g data-name="Group 885"><path fill="#383838" d="m22.195 62.408 5.164.31a7.53 7.53 0 0 1-2.5 5.19 8.585 8.585 0 0 1-11.3-.673 9.68 9.68 0 0 1-2.3-6.849 10.65 10.65 0 0 1 2.184-6.985 8.54 8.54 0 0 1 11.71-.634 8.34 8.34 0 0 1 2.218 5.367l-5.272.283a4.06 4.06 0 0 0-.708-2.67 2.14 2.14 0 0 0-1.665-.822q-2.67 0-2.67 5.366a8.26 8.26 0 0 0 .7 4.086 2.19 2.19 0 0 0 1.949 1.078q2.221 0 2.49-3.047" data-name="Path 35603"/><path fill="#383838" d="M59.712 69.432v-18.4h9.344a5.48 5.48 0 0 1 4.246 1.47 4.85 4.85 0 0 1 1.335 3.357 4.26 4.26 0 0 1-.774 2.487 3.97 3.97 0 0 1-2.313 1.531q3.573.862 3.573 4.287a5.8 5.8 0 0 1-1.26 3.661q-1.263 1.613-5.387 1.611Zm5.2-11.352h2.616a1.7 1.7 0 0 0 1.389-.5 1.67 1.67 0 0 0 .4-1.066q0-1.537-1.888-1.536h-2.521Zm0 7.253h2.751a1.99 1.99 0 0 0 1.5-.5 1.61 1.61 0 0 0 .479-1.139 1.74 1.74 0 0 0-.465-1.167 2.2 2.2 0 0 0-1.706-.533h-2.562Z" data-name="Path 35604"/><path fill="#383838" d="M124.13 69.432h-6.263l-2.689-7.038h-1.781v7.038h-5.649v-18.4h9.613a7.43 7.43 0 0 1 4.942 1.49 4.9 4.9 0 0 1 1.76 3.93 5.9 5.9 0 0 1-.648 2.812 5.45 5.45 0 0 1-2.616 2.15Zm-10.733-10.975h2.414a2.96 2.96 0 0 0 1.711-.445 1.48 1.48 0 0 0 .647-1.308q0-1.766-2.17-1.766h-2.6Z" data-name="Path 35605"/><path fill="#383838" d="M172.826 69.432h-4.6l-5.04-8.131a31 31 0 0 1-1.957-3.8 12.8 12.8 0 0 1 .445 3.02v8.912h-4.585v-18.4h5.339l4.289 6.741a26 26 0 0 1 1.941 3.533 27 27 0 0 1-.432-4.827v-5.453h4.6Z" data-name="Path 35606"/><path fill="#383838" d="m215.305 64.511 5.016.337a5.93 5.93 0 0 1-2.272 3.445 7.85 7.85 0 0 1-4.942 1.422 7.6 7.6 0 0 1-5.529-2 6.65 6.65 0 0 1-2.062-4.968 7.414 7.414 0 1 1 14.817.121q0 .284-.012.782h-9.182a3.55 3.55 0 0 0 .459 1.922 2.223 2.223 0 0 0 3.707-1.059Zm-.365-3.56a2.49 2.49 0 0 0-.556-1.867 1.98 1.98 0 0 0-1.351-.478q-1.908 0-1.909 2.345Z" data-name="Path 35607"/><g fill="url(#a)" stroke="#333132" stroke-width=".936" data-name="Ellipse 1495" transform="translate(145.437)"><circle cx="19.355" cy="19.355" r="19.355" stroke="none"/><circle cx="19.355" cy="19.355" r="18.887" fill="none"/></g><g fill="none" stroke="#333132" stroke-width=".229" data-name="Ellipse 1496" transform="translate(147.299 1.862)"><circle cx="17.493" cy="17.493" r="17.493" stroke="none"/><circle cx="17.493" cy="17.493" r="17.378"/></g><g fill="url(#a)" stroke="#333132" stroke-width=".936" data-name="Ellipse 1497" transform="translate(48.479)"><circle cx="19.355" cy="19.355" r="19.355" stroke="none"/><circle cx="19.355" cy="19.355" r="18.887" fill="none"/></g><g fill="none" stroke="#333132" stroke-width=".229" data-name="Ellipse 1498" transform="translate(50.342 1.862)"><circle cx="17.493" cy="17.493" r="17.493" stroke="none"/><circle cx="17.493" cy="17.493" r="17.378"/></g><g data-name="Group 868"><g data-name="Group 862"><path fill="#333132" d="M56.54 27.521c.2.152.409.292.6.458a5.626 5.626 0 0 0 6.855.494 5.53 5.53 0 0 0 2.05-6.545c-.078-.222-.053-.665.072-.733a1.01 1.01 0 0 1 .836-.013 1.72 1.72 0 0 0 1.769 0 1.01 1.01 0 0 1 .837.011c.125.067.153.511.074.731a5.536 5.536 0 0 0 2.046 6.546 5.63 5.63 0 0 0 6.855-.489c.189-.167.4-.31.6-.464l.189.167a4.6 4.6 0 0 1-.427.656 8.11 8.11 0 0 1-10.367 1.277 1.06 1.06 0 0 0-1.375 0 8.11 8.11 0 0 1-10.368-1.269 7 7 0 0 1-.452-.609Z" data-name="Path 35608"/></g><g data-name="Group 863"><path fill="#333132" d="M66.849 6.497c-.208.088-.412.191-.626.263a5.471 5.471 0 0 0 .834 10.666c.222.041.587.283.576.405a1.05 1.05 0 0 1-.4.73 1.72 1.72 0 0 0-.9 1.52 1.24 1.24 0 0 1-.487.772c-.079.062-.5-.181-.659-.371a5.58 5.58 0 0 0-6.639-1.506 5.46 5.46 0 0 0-3.066 6.124c.047.247.076.5.114.748l-.255.1a5 5 0 0 1-.376-.758 7.97 7.97 0 0 1 4.086-9.461 1.086 1.086 0 0 0 .69-1.2 7.99 7.99 0 0 1 6.362-8.254 6 6 0 0 1 .678-.067Z" data-name="Path 35609"/></g><g data-name="Group 864"><path fill="#333132" d="M68.917 6.188c.234.032.471.046.7.1a7.97 7.97 0 0 1 6.317 8.14 1.24 1.24 0 0 0 .8 1.356 7.97 7.97 0 0 1 3.987 9.38 7 7 0 0 1-.336.774l-.214-.04a3.5 3.5 0 0 1 .006-.694 5.542 5.542 0 0 0-9.669-4.74c-.17.193-.466.432-.671.4-.4-.055-.575-.373-.527-.831a1.48 1.48 0 0 0-.845-1.457 1 1 0 0 1-.424-.714c0-.153.382-.4.621-.441a5.473 5.473 0 0 0 .815-10.654 6 6 0 0 1-.653-.314Z" data-name="Path 35610"/></g><g data-name="Group 865"><path fill="#333132" d="M73.073 20.019a1.242 1.242 0 0 1 1.722-1.179.66.66 0 0 1 .324.425c.6 2.521-1.795 6.586-4.318 7.312a.62.62 0 0 1-.537-.184 4.5 4.5 0 0 1-.374-.806c-.238-.5-.117-.775.4-1.046a5.04 5.04 0 0 0 2.783-4.522" data-name="Path 35611"/></g><g data-name="Group 866"><path fill="#333132" d="M62.602 20.451a5.06 5.06 0 0 0 2.673 4.068c.248.148.638.46.6.608a6.4 6.4 0 0 1-.654 1.474c-.027.05-.324-.008-.474-.068a7.4 7.4 0 0 1-4.248-6.988c.052-.631.309-.789.912-.708 1.166.156 1.171.13 1.191 1.614" data-name="Path 35612"/></g><g data-name="Group 867"><path fill="#333132" d="M72.577 14.303a12 12 0 0 1-1.222 1.4c-.12.1-.533-.056-.763-.183a5.35 5.35 0 0 0-5.537.012c-.224.126-.655.26-.758.158a6.8 6.8 0 0 1-.95-1.3c-.03-.048.211-.3.362-.413a7.41 7.41 0 0 1 8.278.006 5 5 0 0 0 .59.32" data-name="Path 35613"/></g></g><g fill="url(#a)" stroke="#333132" stroke-width=".936" data-name="Ellipse 1499" transform="translate(.001)"><circle cx="19.355" cy="19.355" r="19.355" stroke="none"/><circle cx="19.355" cy="19.355" r="18.887" fill="none"/></g><g data-name="Group 876"><g data-name="Group 869"><path fill="#333132" d="m22.07 22.359 1.234-2.153c.619.354 1.282.7 1.913 1.1a.86.86 0 0 0 1.062-.015 4.309 4.309 0 0 1 5.983 5.921 4.326 4.326 0 0 1-7.936-2.926.724.724 0 0 0-.431-.872c-.622-.326-1.22-.701-1.825-1.055" data-name="Path 35614"/></g><g data-name="Group 870"><path fill="#333132" d="m15.467 20.307 1.234 2.145a12 12 0 0 1-1.309.771 1.5 1.5 0 0 0-1 1.693 4.17 4.17 0 0 1-3.123 4.149 4.312 4.312 0 0 1-4.165-7.258 4.22 4.22 0 0 1 5.3-.524 1.01 1.01 0 0 0 1.326.036c.541-.371 1.131-.663 1.737-1.012" data-name="Path 35615"/></g><g data-name="Group 871"><path fill="#333132" d="M20.563 15.657h-2.548c0-.589-.033-1.161.01-1.727a1.02 1.02 0 0 0-.692-1.147 4.23 4.23 0 0 1-2.415-4.181 4.339 4.339 0 0 1 8.292-1.4 4.2 4.2 0 0 1-1.768 5.4 1.42 1.42 0 0 0-.888 1.589 14 14 0 0 1 .009 1.466" data-name="Path 35616"/></g><g data-name="Group 872"><path fill="#333132" d="M22.801 19.427a3.449 3.449 0 1 1-3.474-3.431 3.4 3.4 0 0 1 3.474 3.431" data-name="Path 35617"/></g><g data-name="Group 873"><path fill="#333132" d="M25.031 20.538c-.826-.39-1.681-.552-1.784-1.842a3.55 3.55 0 0 0-1.292-2.23c-.955-.738-.786-1.522-.661-2.422 2.465.183 4.797 4.226 3.737 6.494" data-name="Path 35618"/></g><g data-name="Group 874"><path fill="#333132" d="M15.539 23.821c.795-.6 1.415-1.179 2.54-.64a3.16 3.16 0 0 0 2.35.053 2.3 2.3 0 0 1 2.607.541c-.846 1.706-5.367 2.411-7.497.046" data-name="Path 35619"/></g><g data-name="Group 875"><path fill="#333132" d="M17.466 13.993c.132.924.319 1.731-.7 2.46a3.52 3.52 0 0 0-1.263 2.16c-.172 1.2-.944 1.494-1.815 1.852-.983-2.361 1.27-6.223 3.778-6.472" data-name="Path 35620"/></g></g><g fill="#333132" data-name="Group 877" transform="translate(-2210.718 -7413.373)"><path d="M2386.475 7431.194c1.814-2.421 2.34-4.539 1.481-5.966-.65-1.076-2.022-1.643-3.973-1.643a15 15 0 0 0-3.572.5c-1.092-3.589-2.862-5.881-4.9-5.881-1.939 0-3.637 2.083-4.737 5.384a13.1 13.1 0 0 0-3.7-.635 3.96 3.96 0 0 0-3.408 1.371c-.964 1.357-.6 3.51 1.032 6.059a20 20 0 0 0 1.478 2 19.5 19.5 0 0 0-1.623 1.882c-1.815 2.421-2.34 4.539-1.481 5.966.649 1.076 2.023 1.645 3.971 1.645a15 15 0 0 0 3.572-.5c1.093 3.587 2.861 5.879 4.9 5.879 1.94 0 3.638-2.081 4.739-5.384a13 13 0 0 0 3.7.635 3.96 3.96 0 0 0 3.408-1.371c1.265-1.783.192-4.849-2.5-8.065a19 19 0 0 0 1.613-1.876m-2.492-7.049c1.215 0 2.806.239 3.491 1.375.722 1.2.194 3.144-1.45 5.336a19 19 0 0 1-1.532 1.786 29.4 29.4 0 0 0-3.053-2.975 28 28 0 0 0-.871-5.046 14.4 14.4 0 0 1 3.415-.476m-5.632 13.289a34 34 0 0 1-3.071 1.643 34 34 0 0 1-2.946-1.869 37 37 0 0 1-2.2-1.695 33.56 33.56 0 0 1 .023-5.817c.8-.581 1.637-1.142 2.52-1.673a34 34 0 0 1 3.068-1.644 34 34 0 0 1 2.946 1.869 34 34 0 0 1 2.2 1.7q.113 1.352.115 2.779c0 1.037-.049 2.052-.138 3.031a35 35 0 0 1-2.517 1.676m2.441-.927a26.7 26.7 0 0 1-.934 4.651 26 26 0 0 1-3.974-1.748c.92-.447 1.843-.944 2.757-1.5a34 34 0 0 0 2.151-1.403m-6.139 2.859a27 27 0 0 1-3.619 1.319 27.4 27.4 0 0 1-.82-4.382q.862.702 1.8 1.365a35 35 0 0 0 2.639 1.698m-5.124-4.376a2.427 2.427 0 1 1 .023-4.84c-.061.835-.094 1.7-.094 2.579q0 1.155.071 2.261m.707-6.041a26.6 26.6 0 0 1 .935-4.65 26.3 26.3 0 0 1 3.974 1.747 34 34 0 0 0-2.756 1.5c-.748.446-1.465.918-2.153 1.403m6.14-2.857a27 27 0 0 1 3.618-1.321 27 27 0 0 1 .822 4.379 35.4 35.4 0 0 0-4.44-3.058m5.124 4.384a28 28 0 0 1 2.578 2.584 28 28 0 0 1-2.6 2.246c.059-.834.091-1.7.091-2.577q0-1.152-.069-2.253m-5.986-11.711c1.733 0 3.309 2.167 4.323 5.469a28 28 0 0 0-4.061 1.514 27.4 27.4 0 0 0-4.436-1.981c1.018-3.038 2.525-5.002 4.174-5.002m-11.388 5.883a3.44 3.44 0 0 1 2.949-1.134 12.5 12.5 0 0 1 3.532.6 27.4 27.4 0 0 0-.993 5.279 29 29 0 0 0-3.039 2.581 19 19 0 0 1-1.4-1.9c-1.475-2.307-1.86-4.286-1.049-5.426m2.92 16.662c-1.215 0-2.806-.238-3.489-1.373-.722-1.2-.194-3.144 1.45-5.338a19 19 0 0 1 1.538-1.791 29.4 29.4 0 0 0 3.045 2.977 28.3 28.3 0 0 0 .874 5.05 14.3 14.3 0 0 1-3.418.475m8.468 5.383c-1.733 0-3.308-2.168-4.323-5.47a28 28 0 0 0 4.063-1.515 27.3 27.3 0 0 0 4.433 1.983c-1.017 3.037-2.523 5.002-4.173 5.002m11.389-5.885a3.44 3.44 0 0 1-2.949 1.134 12.5 12.5 0 0 1-3.533-.6 27 27 0 0 0 .993-5.279 29 29 0 0 0 3.029-2.569c2.468 2.971 3.539 5.794 2.457 7.314Z" data-name="Path 35621"/><circle cx="1.936" cy="1.936" r="1.936" data-name="Ellipse 1500" transform="translate(2373.578 7430.792)"/><circle cx=".968" cy=".968" r=".968" data-name="Ellipse 1501" transform="translate(2365.532 7420.986)"/><circle cx=".968" cy=".968" r=".968" data-name="Ellipse 1502" transform="translate(2388.004 7427.718)"/><circle cx=".968" cy=".968" r=".968" data-name="Ellipse 1503" transform="translate(2369.558 7442.86)"/></g><path fill="#fff" d="M9.096 35.746 30.549 3.584A19.339 19.339 0 1 0 9.096 35.746" data-name="Path 35622" opacity=".1"/><g fill="none" stroke="#333132" stroke-width=".229" data-name="Ellipse 1504" transform="translate(1.863 1.862)"><circle cx="17.493" cy="17.493" r="17.493" stroke="none"/><circle cx="17.493" cy="17.493" r="17.378"/></g><g fill="url(#a)" stroke="#333132" stroke-width=".936" data-name="Ellipse 1505" transform="translate(96.958)"><circle cx="19.355" cy="19.355" r="19.355" stroke="none"/><circle cx="19.355" cy="19.355" r="18.887" fill="none"/></g><g fill="none" stroke="#333132" stroke-width=".229" data-name="Ellipse 1506" transform="translate(98.821 1.862)"><circle cx="17.493" cy="17.493" r="17.493" stroke="none"/><circle cx="17.493" cy="17.493" r="17.378"/></g><path fill="#fff" d="m154.532 35.746 21.453-32.162a19.339 19.339 0 1 0-21.453 32.162" data-name="Path 35623" opacity=".1"/><g fill="url(#a)" stroke="#333132" stroke-width=".936" data-name="Ellipse 1507" transform="translate(193.916)"><circle cx="19.355" cy="19.355" r="19.355" stroke="none"/><circle cx="19.355" cy="19.355" r="18.887" fill="none"/></g><g fill="none" stroke="#333132" stroke-width=".229" data-name="Ellipse 1508" transform="translate(195.778 1.862)"><circle cx="17.493" cy="17.493" r="17.493" stroke="none"/><circle cx="17.493" cy="17.493" r="17.378"/></g><g data-name="Group 882"><g data-name="Group 878"><path fill="#333132" d="M114.21 15.239c-.627.838-1.2 1.579-1.739 2.337a1.8 1.8 0 0 0-.205.589c-.286 1.126-.284 1.13-1.435 1.121-2.626-.02-5.252-.051-7.879-.058-.514 0-.76-.128-.714-.71a14.08 14.08 0 0 1 6.69-11.3 2 2 0 0 1 .244-.131 1 1 0 0 1 .2-.028z" data-name="Path 35624"/></g><g data-name="Group 879"><path fill="#333132" d="M118.311 15.467c.166-.3.285-.519.413-.737 1.406-2.379 2.825-4.75 4.21-7.14.278-.48.476-.619.993-.269a14.01 14.01 0 0 1 6.458 11.073c.017.228 0 .459 0 .766-.251.022-.472.057-.694.059-2.812.027-5.624.04-8.436.08-.5.007-.721-.1-.786-.667a4.1 4.1 0 0 0-2.158-3.165" data-name="Path 35625"/></g><g data-name="Group 880"><path fill="#333132" d="M118.551 22.812c1.612 2.849 3.206 5.666 4.8 8.479a13.6 13.6 0 0 1-14 .029c.069-.156.129-.326.216-.481 1.4-2.488 2.818-4.968 4.206-7.464.249-.449.459-.571.967-.337a3.96 3.96 0 0 0 3.184.022Z" data-name="Path 35626"/></g><g data-name="Group 881"><path fill="#333132" d="M113.472 19.177a2.857 2.857 0 1 1 2.841 2.863 2.9 2.9 0 0 1-2.841-2.863" data-name="Path 35627"/></g></g><g data-name="Group 884"><g fill="#333132" clip-path="url(#b)" data-name="Group 883" transform="translate(-2210.718 -7413.373)"><path d="m2420.173 7432.833-.329-9.991 2.862-6.195Zm11.694-14.4-3.378-1.5-7.147 16.823Zm7.321 9.309-1.18-3.737-15.219 11.392Zm-3.382-5.225-1.874-2.433-9.291 11.162Zm-9.47-7.45-3.63 12.055 3.63-9.86Zm-7.289 8.7-1.39 1.352v8.5Zm-6.888 8.965-2.664-.556 6.838 4.391Zm11.384 3.835 16.063-3.835-.258-2.841Zm15.672.281.172-1.379s-11 1.65-11.11 1.758Zm-.731 1.706-15.867.4 15.144 1.769Zm-11.716 2.164 15 3.658-4.437-1.943Zm.583 3.269 3.993.389-7.526-3.109Zm-6.876-2.051a5.6 5.6 0 0 0-1.106.694c0 .464 1 1.041 1.248 1.041a3.6 3.6 0 0 0 1.247-1.388c0-.223-1.064-.438-1.389-.351Zm2.748-14.526c-.124-.179-1.122.25-1.339.507a5.6 5.6 0 0 0-.513 1.2c.264.38 1.417.283 1.618.143a3.6 3.6 0 0 0 .234-1.854Zm-4.841 12.082c.149.417 1.3.1 1.4 0a1.78 1.78 0 0 0-.23-1.267c-.239-.244-1.266.994-1.17 1.263Zm11.938 3.155c-.011-.211-1-.066-1.069.1-.1.255.555.589.648.584a1.11 1.11 0 0 0 .421-.688Zm1.814-7.467c-.011-.211-1-.066-1.069.1-.1.255.555.588.648.583a1.1 1.1 0 0 0 .421-.687Zm-3.813-5.6c-.263-.15-1.207.88-1.087 1.068.185.292 1.326-.066 1.425-.156s-.074-.763-.338-.914Zm-6.368 9.844c-.618 0-.774.577-.155.9s.719-.902.155-.902Zm-6.581-4.9c.549.276.637-.771.136-.771-.547.001-.686.495-.136.772Zm3.608-5.892c.62.324.719-.9.155-.9-.618 0-.774.577-.155.901Zm2.265 7.222c-.271-.27-.921.2-1.121 0s-.037-1.106-.46-1.106c-.628 0-.7 1.839-.375 2.161s2.226-.784 1.956-1.054Zm-2.8-2.327c0 .308 1.016.3 1.312 0s-.257-.978-.746-.978c-.382.001-.562.67-.562.979Zm6.875 3.155c-.229.207.462.953.88.974s.553-.846.225-1.209c-.255-.285-.872.03-1.101.236Zm-8.009 3.278c-.225-.626.341-1.4 1.265-1.754a3.86 3.86 0 0 0-1.406-1.151 1.83 1.83 0 0 1-1.4 1.031.4.4 0 0 1-.049.325.458.458 0 0 1-.8-.406 1.83 1.83 0 0 1-1.062-.95 3.843 3.843 0 1 0 3.737 6.7 1.05 1.05 0 0 1-.373-1.086.57.57 0 0 1 .032-.626.6.6 0 0 1 .48-.284.4.4 0 0 1 .053-.138.44.44 0 0 1 .613-.1.5.5 0 0 1 .155.179.5.5 0 0 1 .086.1 1 1 0 0 1 .255.1 1 1 0 0 1 .152.155 3.8 3.8 0 0 0 .319-1.528c-.924.291-1.831.052-2.053-.566Z" data-name="Path 35628"/><path d="m2416.964 7417.456-1.942 2.484 2.633 16.722Z" data-name="Path 35629"/><path d="m2414.018 7422.111-1.859 3.079 5.477 12.329Z" data-name="Path 35630"/><path d="m2410.566 7424.74-1.071 2.162 6.051 9.023Z" data-name="Path 35631"/><path d="M2424.235 7421.335a3.2 3.2 0 0 0-.063-1.766 4.1 4.1 0 0 0-.861-.855 3.37 3.37 0 0 0-.551 2c.062.276 1.293.745 1.475.621" data-name="Path 35632"/><path d="M2420.434 7420.78c-.047-.215-1.311-.623-1.663-.6a4 4 0 0 0-1.114.482c.1.456 1.373 1.209 1.653 1.254s1.172-.916 1.124-1.136" data-name="Path 35633"/></g></g><path fill="#fff" d="m106.053 35.746 21.454-32.162a19.339 19.339 0 1 0-21.454 32.162" data-name="Path 35634" opacity=".1"/><path fill="#fff" d="M57.575 35.746 79.028 3.584a19.339 19.339 0 1 0-21.453 32.162" data-name="Path 35635" opacity=".1"/><path fill="#fff" d="m203.011 35.746 21.453-32.162a19.339 19.339 0 1 0-21.453 32.162" data-name="Path 35636" opacity=".1"/></g></svg>