<svg xmlns="http://www.w3.org/2000/svg" xmlns:xlink="http://www.w3.org/1999/xlink" width="232.626" height="69.715" viewBox="0 0 232.626 69.715">
  <defs>
    <linearGradient id="linear-gradient" y1="0.5" x2="1" y2="0.5" gradientUnits="objectBoundingBox">
      <stop offset="0" stop-color="#fdc709"/>
      <stop offset="1" stop-color="#f3bb6d"/>
    </linearGradient>
    <clipPath id="clip-path">
      <circle id="Ellipse_1509" data-name="Ellipse 1509" cx="15.617" cy="15.617" r="15.617" transform="translate(2408.371 7417.111)" fill="none"/>
    </clipPath>
  </defs>
  <g id="Group_885" data-name="Group 885" transform="translate(-2210.718 -7413.373)">
    <path id="Path_35603" data-name="Path 35603" d="M2232.913,7475.781l5.164.31a7.526,7.526,0,0,1-2.5,5.19,8.585,8.585,0,0,1-11.3-.673,9.675,9.675,0,0,1-2.3-6.849,10.649,10.649,0,0,1,2.184-6.985,8.542,8.542,0,0,1,11.71-.634,8.335,8.335,0,0,1,2.218,5.367l-5.272.283a4.057,4.057,0,0,0-.708-2.67,2.137,2.137,0,0,0-1.665-.822q-2.67,0-2.67,5.366a8.264,8.264,0,0,0,.7,4.086,2.192,2.192,0,0,0,1.949,1.078Q2232.644,7478.828,2232.913,7475.781Z" fill="#383838"/>
    <path id="Path_35604" data-name="Path 35604" d="M2270.43,7482.805v-18.4h9.344a5.475,5.475,0,0,1,4.246,1.47,4.853,4.853,0,0,1,1.335,3.357,4.26,4.26,0,0,1-.774,2.487,3.967,3.967,0,0,1-2.313,1.531q3.573.862,3.573,4.287a5.784,5.784,0,0,1-1.26,3.661q-1.263,1.613-5.387,1.611Zm5.2-11.352h2.616a1.7,1.7,0,0,0,1.389-.5,1.666,1.666,0,0,0,.4-1.066q0-1.537-1.888-1.536h-2.521Zm0,7.253h2.751a1.985,1.985,0,0,0,1.5-.5,1.613,1.613,0,0,0,.479-1.139,1.74,1.74,0,0,0-.465-1.167,2.2,2.2,0,0,0-1.706-.533h-2.562Z" fill="#383838"/>
    <path id="Path_35605" data-name="Path 35605" d="M2334.848,7482.805h-6.263l-2.689-7.038h-1.781v7.038h-5.649v-18.4h9.613a7.429,7.429,0,0,1,4.942,1.49,4.9,4.9,0,0,1,1.76,3.93,5.92,5.92,0,0,1-.648,2.812,5.451,5.451,0,0,1-2.616,2.15Zm-10.733-10.975h2.414a2.958,2.958,0,0,0,1.711-.445,1.481,1.481,0,0,0,.647-1.308q0-1.766-2.17-1.766h-2.6Z" fill="#383838"/>
    <path id="Path_35606" data-name="Path 35606" d="M2383.544,7482.805h-4.6l-5.04-8.131a30.952,30.952,0,0,1-1.957-3.8,12.843,12.843,0,0,1,.445,3.02v8.912h-4.585v-18.4h5.339l4.289,6.741a25.96,25.96,0,0,1,1.941,3.533,26.757,26.757,0,0,1-.432-4.827V7464.4h4.6Z" fill="#383838"/>
    <path id="Path_35607" data-name="Path 35607" d="M2426.023,7477.884l5.016.337a5.929,5.929,0,0,1-2.272,3.445,7.847,7.847,0,0,1-4.942,1.422,7.6,7.6,0,0,1-5.529-2,6.649,6.649,0,0,1-2.062-4.968,7.414,7.414,0,1,1,14.817.121q0,.284-.012.782h-9.182a3.545,3.545,0,0,0,.459,1.922,2.223,2.223,0,0,0,3.707-1.059Zm-.365-3.56a2.488,2.488,0,0,0-.556-1.867,1.976,1.976,0,0,0-1.351-.478q-1.908,0-1.909,2.345Z" fill="#383838"/>
    <g id="Ellipse_1495" data-name="Ellipse 1495" transform="translate(2356.155 7413.373)" stroke="#333132" stroke-width="0.936" fill="url(#linear-gradient)">
      <circle cx="19.355" cy="19.355" r="19.355" stroke="none"/>
      <circle cx="19.355" cy="19.355" r="18.887" fill="none"/>
    </g>
    <g id="Ellipse_1496" data-name="Ellipse 1496" transform="translate(2358.017 7415.235)" fill="none" stroke="#333132" stroke-width="0.229">
      <circle cx="17.493" cy="17.493" r="17.493" stroke="none"/>
      <circle cx="17.493" cy="17.493" r="17.378" fill="none"/>
    </g>
    <g id="Ellipse_1497" data-name="Ellipse 1497" transform="translate(2259.197 7413.373)" stroke="#333132" stroke-width="0.936" fill="url(#linear-gradient)">
      <circle cx="19.355" cy="19.355" r="19.355" stroke="none"/>
      <circle cx="19.355" cy="19.355" r="18.887" fill="none"/>
    </g>
    <g id="Ellipse_1498" data-name="Ellipse 1498" transform="translate(2261.06 7415.235)" fill="none" stroke="#333132" stroke-width="0.229">
      <circle cx="17.493" cy="17.493" r="17.493" stroke="none"/>
      <circle cx="17.493" cy="17.493" r="17.378" fill="none"/>
    </g>
    <g id="Group_868" data-name="Group 868">
      <g id="Group_862" data-name="Group 862">
        <path id="Path_35608" data-name="Path 35608" d="M2267.258,7440.894c.2.152.409.292.6.458a5.626,5.626,0,0,0,6.855.494,5.533,5.533,0,0,0,2.05-6.545c-.078-.222-.053-.665.072-.733a1.011,1.011,0,0,1,.836-.013,1.721,1.721,0,0,0,1.769,0,1.013,1.013,0,0,1,.837.011c.125.067.153.511.074.731a5.536,5.536,0,0,0,2.046,6.546,5.629,5.629,0,0,0,6.855-.489c.189-.167.4-.31.6-.464l.189.167a4.626,4.626,0,0,1-.427.656,8.108,8.108,0,0,1-10.367,1.277,1.059,1.059,0,0,0-1.375,0,8.108,8.108,0,0,1-10.368-1.269,6.807,6.807,0,0,1-.452-.609Z" fill="#333132"/>
      </g>
      <g id="Group_863" data-name="Group 863">
        <path id="Path_35609" data-name="Path 35609" d="M2277.567,7419.87c-.208.088-.412.191-.626.263a5.471,5.471,0,0,0,.834,10.666c.222.041.587.283.576.405a1.048,1.048,0,0,1-.4.73,1.719,1.719,0,0,0-.9,1.52,1.235,1.235,0,0,1-.487.772c-.079.062-.5-.181-.659-.371a5.577,5.577,0,0,0-6.639-1.506,5.458,5.458,0,0,0-3.066,6.124c.047.247.076.5.114.748l-.255.1a5.135,5.135,0,0,1-.376-.758,7.967,7.967,0,0,1,4.086-9.461,1.086,1.086,0,0,0,.69-1.2,7.988,7.988,0,0,1,6.362-8.254,5.676,5.676,0,0,1,.678-.067Z" fill="#333132"/>
      </g>
      <g id="Group_864" data-name="Group 864">
        <path id="Path_35610" data-name="Path 35610" d="M2279.635,7419.561c.234.032.471.046.7.1a7.971,7.971,0,0,1,6.317,8.14,1.242,1.242,0,0,0,.8,1.356,7.97,7.97,0,0,1,3.987,9.38,7.275,7.275,0,0,1-.336.774l-.214-.04a3.48,3.48,0,0,1,.006-.694,5.542,5.542,0,0,0-9.669-4.74c-.17.193-.466.432-.671.4-.4-.055-.575-.373-.527-.831a1.479,1.479,0,0,0-.845-1.457.994.994,0,0,1-.424-.714c0-.153.382-.4.621-.441a5.473,5.473,0,0,0,.815-10.654,5.619,5.619,0,0,1-.653-.314Z" fill="#333132"/>
      </g>
      <g id="Group_865" data-name="Group 865">
        <path id="Path_35611" data-name="Path 35611" d="M2283.791,7433.392a1.242,1.242,0,0,1,1.722-1.179.66.66,0,0,1,.324.425c.6,2.521-1.795,6.586-4.318,7.312a.624.624,0,0,1-.537-.184,4.475,4.475,0,0,1-.374-.806c-.238-.5-.117-.775.4-1.046A5.041,5.041,0,0,0,2283.791,7433.392Z" fill="#333132"/>
      </g>
      <g id="Group_866" data-name="Group 866">
        <path id="Path_35612" data-name="Path 35612" d="M2273.32,7433.824a5.055,5.055,0,0,0,2.673,4.068c.248.148.638.46.6.608a6.438,6.438,0,0,1-.654,1.474c-.027.05-.324-.008-.474-.068a7.4,7.4,0,0,1-4.248-6.988c.052-.631.309-.789.912-.708C2273.295,7432.366,2273.3,7432.34,2273.32,7433.824Z" fill="#333132"/>
      </g>
      <g id="Group_867" data-name="Group 867">
        <path id="Path_35613" data-name="Path 35613" d="M2283.295,7427.676a12.17,12.17,0,0,1-1.222,1.4c-.12.1-.533-.056-.763-.183a5.345,5.345,0,0,0-5.537.012c-.224.126-.655.26-.758.158a6.794,6.794,0,0,1-.95-1.3c-.03-.048.211-.3.362-.413a7.406,7.406,0,0,1,8.278.006A5.333,5.333,0,0,0,2283.295,7427.676Z" fill="#333132"/>
      </g>
    </g>
    <g id="Ellipse_1499" data-name="Ellipse 1499" transform="translate(2210.719 7413.373)" stroke="#333132" stroke-width="0.936" fill="url(#linear-gradient)">
      <circle cx="19.355" cy="19.355" r="19.355" stroke="none"/>
      <circle cx="19.355" cy="19.355" r="18.887" fill="none"/>
    </g>
    <g id="Group_876" data-name="Group 876">
      <g id="Group_869" data-name="Group 869">
        <path id="Path_35614" data-name="Path 35614" d="M2232.788,7435.732l1.234-2.153c.619.354,1.282.7,1.913,1.1a.857.857,0,0,0,1.062-.015,4.309,4.309,0,0,1,5.983,5.921,4.326,4.326,0,0,1-7.936-2.926.724.724,0,0,0-.431-.872C2233.991,7436.461,2233.393,7436.086,2232.788,7435.732Z" fill="#333132"/>
      </g>
      <g id="Group_870" data-name="Group 870">
        <path id="Path_35615" data-name="Path 35615" d="M2226.185,7433.68l1.234,2.145a11.641,11.641,0,0,1-1.309.771,1.5,1.5,0,0,0-1,1.693,4.172,4.172,0,0,1-3.123,4.149,4.312,4.312,0,0,1-4.165-7.258,4.222,4.222,0,0,1,5.3-.524,1.01,1.01,0,0,0,1.326.036C2224.989,7434.321,2225.579,7434.029,2226.185,7433.68Z" fill="#333132"/>
      </g>
      <g id="Group_871" data-name="Group 871">
        <path id="Path_35616" data-name="Path 35616" d="M2231.281,7429.03h-2.548c0-.589-.033-1.161.01-1.727a1.019,1.019,0,0,0-.692-1.147,4.23,4.23,0,0,1-2.415-4.181,4.339,4.339,0,0,1,8.292-1.4,4.2,4.2,0,0,1-1.768,5.4,1.417,1.417,0,0,0-.888,1.589A14.4,14.4,0,0,1,2231.281,7429.03Z" fill="#333132"/>
      </g>
      <g id="Group_872" data-name="Group 872">
        <path id="Path_35617" data-name="Path 35617" d="M2233.519,7432.8a3.449,3.449,0,1,1-3.474-3.431A3.4,3.4,0,0,1,2233.519,7432.8Z" fill="#333132"/>
      </g>
      <g id="Group_873" data-name="Group 873">
        <path id="Path_35618" data-name="Path 35618" d="M2235.749,7433.911c-.826-.39-1.681-.552-1.784-1.842a3.552,3.552,0,0,0-1.292-2.23c-.955-.738-.786-1.522-.661-2.422C2234.477,7427.6,2236.809,7431.643,2235.749,7433.911Z" fill="#333132"/>
      </g>
      <g id="Group_874" data-name="Group 874">
        <path id="Path_35619" data-name="Path 35619" d="M2226.257,7437.194c.795-.6,1.415-1.179,2.54-.64a3.157,3.157,0,0,0,2.35.053,2.3,2.3,0,0,1,2.607.541C2232.908,7438.854,2228.387,7439.559,2226.257,7437.194Z" fill="#333132"/>
      </g>
      <g id="Group_875" data-name="Group 875">
        <path id="Path_35620" data-name="Path 35620" d="M2228.184,7427.366c.132.924.319,1.731-.7,2.46a3.515,3.515,0,0,0-1.263,2.16c-.172,1.2-.944,1.494-1.815,1.852C2223.423,7431.477,2225.676,7427.615,2228.184,7427.366Z" fill="#333132"/>
      </g>
    </g>
    <g id="Group_877" data-name="Group 877">
      <path id="Path_35621" data-name="Path 35621" d="M2386.475,7431.194c1.814-2.421,2.34-4.539,1.481-5.966-.65-1.076-2.022-1.643-3.973-1.643a14.919,14.919,0,0,0-3.572.5c-1.092-3.589-2.862-5.881-4.9-5.881-1.939,0-3.637,2.083-4.737,5.384a13.1,13.1,0,0,0-3.7-.635,3.963,3.963,0,0,0-3.408,1.371c-.964,1.357-.6,3.51,1.032,6.059a19.722,19.722,0,0,0,1.478,2,19.478,19.478,0,0,0-1.623,1.882c-1.815,2.421-2.34,4.539-1.481,5.966.649,1.076,2.023,1.645,3.971,1.645h0a15.048,15.048,0,0,0,3.572-.5c1.093,3.587,2.861,5.879,4.9,5.879,1.94,0,3.638-2.081,4.739-5.384a13.082,13.082,0,0,0,3.7.635,3.963,3.963,0,0,0,3.408-1.371c1.265-1.783.192-4.849-2.5-8.065A19.436,19.436,0,0,0,2386.475,7431.194Zm-2.492-7.049c1.215,0,2.806.239,3.491,1.375.722,1.2.194,3.144-1.45,5.336a19.076,19.076,0,0,1-1.532,1.786,29.375,29.375,0,0,0-3.053-2.975,28.074,28.074,0,0,0-.871-5.046A14.384,14.384,0,0,1,2383.983,7424.145Zm-5.632,13.289a34.144,34.144,0,0,1-3.071,1.643,33.969,33.969,0,0,1-2.946-1.869c-.768-.546-1.5-1.113-2.2-1.695-.076-.9-.115-1.834-.115-2.784,0-1.038.049-2.054.138-3.033.8-.581,1.637-1.142,2.52-1.673a34.246,34.246,0,0,1,3.068-1.644,33.457,33.457,0,0,1,2.946,1.869c.773.548,1.509,1.119,2.2,1.7.074.9.115,1.829.115,2.779,0,1.037-.049,2.052-.138,3.031C2380.074,7436.341,2379.231,7436.9,2378.351,7437.434Zm2.441-.927a26.712,26.712,0,0,1-.934,4.651,26.279,26.279,0,0,1-3.974-1.748c.92-.447,1.843-.944,2.757-1.5C2379.386,7437.465,2380.1,7436.994,2380.792,7436.507Zm-6.139,2.859a26.764,26.764,0,0,1-3.619,1.319,27.352,27.352,0,0,1-.82-4.382c.574.468,1.175.923,1.8,1.365C2372.881,7438.284,2373.766,7438.85,2374.653,7439.366Zm-5.124-4.376a2.427,2.427,0,1,1,.023-4.84c-.061.835-.094,1.7-.094,2.579Q2369.458,7433.884,2369.529,7434.99Zm.707-6.041a26.566,26.566,0,0,1,.935-4.65,26.3,26.3,0,0,1,3.974,1.747c-.92.448-1.844.945-2.756,1.5C2371.641,7427.992,2370.924,7428.464,2370.236,7428.949Zm6.14-2.857a26.614,26.614,0,0,1,3.618-1.321,27.214,27.214,0,0,1,.822,4.379c-.571-.461-1.172-.917-1.8-1.361C2378.149,7427.172,2377.262,7426.606,2376.376,7426.092Zm5.124,4.384a28.306,28.306,0,0,1,2.578,2.584,28,28,0,0,1-2.6,2.246c.059-.834.091-1.7.091-2.577Q2381.569,7431.577,2381.5,7430.476Zm-5.986-11.711c1.733,0,3.309,2.167,4.323,5.469a27.831,27.831,0,0,0-4.061,1.514,27.345,27.345,0,0,0-4.436-1.981C2372.358,7420.729,2373.865,7418.765,2375.514,7418.765Zm-11.388,5.883a3.437,3.437,0,0,1,2.949-1.134,12.519,12.519,0,0,1,3.532.6,27.354,27.354,0,0,0-.993,5.279,29.249,29.249,0,0,0-3.039,2.581,18.677,18.677,0,0,1-1.4-1.9C2363.7,7427.767,2363.315,7425.788,2364.126,7424.648Zm2.92,16.662h0c-1.215,0-2.806-.238-3.489-1.373-.722-1.2-.194-3.144,1.45-5.338a18.961,18.961,0,0,1,1.538-1.791,29.4,29.4,0,0,0,3.045,2.977,28.289,28.289,0,0,0,.874,5.05A14.331,14.331,0,0,1,2367.046,7441.31Zm8.468,5.383c-1.733,0-3.308-2.168-4.323-5.47a28,28,0,0,0,4.063-1.515,27.3,27.3,0,0,0,4.433,1.983C2378.67,7444.728,2377.164,7446.693,2375.514,7446.693Zm11.389-5.885a3.442,3.442,0,0,1-2.949,1.134,12.477,12.477,0,0,1-3.533-.6,27.1,27.1,0,0,0,.993-5.279,29.321,29.321,0,0,0,3.029-2.569C2386.911,7436.465,2387.982,7439.288,2386.9,7440.808Z" fill="#333132"/>
      <circle id="Ellipse_1500" data-name="Ellipse 1500" cx="1.936" cy="1.936" r="1.936" transform="translate(2373.578 7430.792)" fill="#333132"/>
      <circle id="Ellipse_1501" data-name="Ellipse 1501" cx="0.968" cy="0.968" r="0.968" transform="translate(2365.532 7420.986)" fill="#333132"/>
      <circle id="Ellipse_1502" data-name="Ellipse 1502" cx="0.968" cy="0.968" r="0.968" transform="translate(2388.004 7427.718)" fill="#333132"/>
      <circle id="Ellipse_1503" data-name="Ellipse 1503" cx="0.968" cy="0.968" r="0.968" transform="translate(2369.558 7442.86)" fill="#333132"/>
    </g>
    <path id="Path_35622" data-name="Path 35622" d="M2219.814,7449.119l21.453-32.162a19.339,19.339,0,1,0-21.453,32.162Z" fill="#fff" opacity="0.1"/>
    <g id="Ellipse_1504" data-name="Ellipse 1504" transform="translate(2212.581 7415.235)" fill="none" stroke="#333132" stroke-width="0.229">
      <circle cx="17.493" cy="17.493" r="17.493" stroke="none"/>
      <circle cx="17.493" cy="17.493" r="17.378" fill="none"/>
    </g>
    <g id="Ellipse_1505" data-name="Ellipse 1505" transform="translate(2307.676 7413.373)" stroke="#333132" stroke-width="0.936" fill="url(#linear-gradient)">
      <circle cx="19.355" cy="19.355" r="19.355" stroke="none"/>
      <circle cx="19.355" cy="19.355" r="18.887" fill="none"/>
    </g>
    <g id="Ellipse_1506" data-name="Ellipse 1506" transform="translate(2309.539 7415.235)" fill="none" stroke="#333132" stroke-width="0.229">
      <circle cx="17.493" cy="17.493" r="17.493" stroke="none"/>
      <circle cx="17.493" cy="17.493" r="17.378" fill="none"/>
    </g>
    <path id="Path_35623" data-name="Path 35623" d="M2365.25,7449.119l21.453-32.162a19.339,19.339,0,1,0-21.453,32.162Z" fill="#fff" opacity="0.1"/>
    <g id="Ellipse_1507" data-name="Ellipse 1507" transform="translate(2404.634 7413.373)" stroke="#333132" stroke-width="0.936" fill="url(#linear-gradient)">
      <circle cx="19.355" cy="19.355" r="19.355" stroke="none"/>
      <circle cx="19.355" cy="19.355" r="18.887" fill="none"/>
    </g>
    <g id="Ellipse_1508" data-name="Ellipse 1508" transform="translate(2406.496 7415.235)" fill="none" stroke="#333132" stroke-width="0.229">
      <circle cx="17.493" cy="17.493" r="17.493" stroke="none"/>
      <circle cx="17.493" cy="17.493" r="17.378" fill="none"/>
    </g>
    <g id="Group_882" data-name="Group 882">
      <g id="Group_878" data-name="Group 878">
        <path id="Path_35624" data-name="Path 35624" d="M2324.928,7428.612c-.627.838-1.2,1.579-1.739,2.337a1.786,1.786,0,0,0-.205.589c-.286,1.126-.284,1.13-1.435,1.121-2.626-.02-5.252-.051-7.879-.058-.514,0-.76-.128-.714-.71a14.075,14.075,0,0,1,6.69-11.3,1.87,1.87,0,0,1,.244-.131.93.93,0,0,1,.2-.028C2321.726,7423.2,2323.375,7425.986,2324.928,7428.612Z" fill="#333132"/>
      </g>
      <g id="Group_879" data-name="Group 879">
        <path id="Path_35625" data-name="Path 35625" d="M2329.029,7428.84c.166-.3.285-.519.413-.737,1.406-2.379,2.825-4.75,4.21-7.14.278-.48.476-.619.993-.269a14.012,14.012,0,0,1,6.458,11.073c.017.228,0,.459,0,.766-.251.022-.472.057-.694.059-2.812.027-5.624.04-8.436.08-.5.007-.721-.1-.786-.667A4.105,4.105,0,0,0,2329.029,7428.84Z" fill="#333132"/>
      </g>
      <g id="Group_880" data-name="Group 880">
        <path id="Path_35626" data-name="Path 35626" d="M2329.269,7436.185c1.612,2.849,3.206,5.666,4.8,8.479a13.6,13.6,0,0,1-14,.029c.069-.156.129-.326.216-.481,1.4-2.488,2.818-4.968,4.206-7.464.249-.449.459-.571.967-.337a3.958,3.958,0,0,0,3.184.022Z" fill="#333132"/>
      </g>
      <g id="Group_881" data-name="Group 881">
        <path id="Path_35627" data-name="Path 35627" d="M2324.19,7432.55a2.857,2.857,0,1,1,2.841,2.863A2.9,2.9,0,0,1,2324.19,7432.55Z" fill="#333132"/>
      </g>
    </g>
    <g id="Group_884" data-name="Group 884">
      <g id="Group_883" data-name="Group 883" clip-path="url(#clip-path)">
        <path id="Path_35628" data-name="Path 35628" d="M2420.173,7432.833l-.329-9.991,2.862-6.195Zm11.694-14.4-3.378-1.5-7.147,16.823Zm7.321,9.309-1.18-3.737-15.219,11.392Zm-3.382-5.225-1.874-2.433-9.291,11.162Zm-9.47-7.45-3.63,12.055,3.63-9.86Zm-7.289,8.7-1.39,1.352v8.5Zm-6.888,8.965-2.664-.556,6.838,4.391Zm11.384,3.835,16.063-3.835-.258-2.841Zm15.672.281.172-1.379s-11,1.65-11.11,1.758Zm-.731,1.706-15.867.4,15.144,1.769Zm-11.716,2.164,15,3.658-4.437-1.943Zm.583,3.269,3.993.389-7.526-3.109Zm-6.876-2.051a5.556,5.556,0,0,0-1.106.694c0,.464,1,1.041,1.248,1.041a3.6,3.6,0,0,0,1.247-1.388C2421.864,7442.06,2420.8,7441.845,2420.475,7441.932Zm2.748-14.526c-.124-.179-1.122.25-1.339.507a5.561,5.561,0,0,0-.513,1.2c.264.38,1.417.283,1.618.143A3.593,3.593,0,0,0,2423.223,7427.406Zm-4.841,12.082c.149.417,1.3.1,1.4,0a1.784,1.784,0,0,0-.23-1.267C2419.313,7437.981,2418.286,7439.219,2418.382,7439.488Zm11.938,3.155c-.011-.211-1-.066-1.069.1-.1.255.555.589.648.584A1.114,1.114,0,0,0,2430.32,7442.643Zm1.814-7.467c-.011-.211-1-.066-1.069.1-.1.255.555.588.648.583A1.111,1.111,0,0,0,2432.134,7435.176Zm-3.813-5.6c-.263-.15-1.207.88-1.087,1.068.185.292,1.326-.066,1.425-.156S2428.585,7429.729,2428.321,7429.578Zm-6.368,9.844c-.618,0-.774.577-.155.9S2422.517,7439.422,2421.953,7439.422Zm-6.581-4.9c.549.276.637-.771.136-.771C2414.961,7433.754,2414.822,7434.248,2415.372,7434.525Zm3.608-5.892c.62.324.719-.9.155-.9C2418.517,7427.732,2418.361,7428.309,2418.98,7428.633Zm2.265,7.222c-.271-.27-.921.2-1.121,0s-.037-1.106-.46-1.106c-.628,0-.7,1.839-.375,2.161S2421.515,7436.125,2421.245,7435.855Zm-2.8-2.327c0,.308,1.016.3,1.312,0s-.257-.978-.746-.978C2418.629,7432.55,2418.449,7433.219,2418.449,7433.528Zm6.875,3.155c-.229.207.462.953.88.974s.553-.846.225-1.209C2426.17,7436.162,2425.553,7436.477,2425.324,7436.683Zm-8.009,3.278c-.225-.626.341-1.4,1.265-1.754a3.861,3.861,0,0,0-1.406-1.151,1.83,1.83,0,0,1-1.4,1.031.4.4,0,0,1-.049.325.458.458,0,0,1-.8-.406,1.831,1.831,0,0,1-1.062-.95,3.843,3.843,0,1,0,3.737,6.7,1.053,1.053,0,0,1-.373-1.086.571.571,0,0,1,.032-.626.6.6,0,0,1,.48-.284.359.359,0,0,1,.053-.138.44.44,0,0,1,.613-.1.487.487,0,0,1,.155.179.468.468,0,0,1,.086.1.909.909,0,0,1,.255.1.94.94,0,0,1,.152.155,3.834,3.834,0,0,0,.319-1.528C2418.444,7440.818,2417.537,7440.579,2417.315,7439.961Z" fill="#333132"/>
        <path id="Path_35629" data-name="Path 35629" d="M2416.964,7417.456l-1.942,2.484,2.633,16.722Z" fill="#333132"/>
        <path id="Path_35630" data-name="Path 35630" d="M2414.018,7422.111l-1.859,3.079,5.477,12.329Z" fill="#333132"/>
        <path id="Path_35631" data-name="Path 35631" d="M2410.566,7424.74l-1.071,2.162,6.051,9.023Z" fill="#333132"/>
        <path id="Path_35632" data-name="Path 35632" d="M2424.235,7421.335a3.189,3.189,0,0,0-.063-1.766,4.088,4.088,0,0,0-.861-.855,3.373,3.373,0,0,0-.551,2C2422.822,7420.99,2424.053,7421.459,2424.235,7421.335Z" fill="#333132"/>
        <path id="Path_35633" data-name="Path 35633" d="M2420.434,7420.78c-.047-.215-1.311-.623-1.663-.6a4.062,4.062,0,0,0-1.114.482c.1.456,1.373,1.209,1.653,1.254S2420.482,7421,2420.434,7420.78Z" fill="#333132"/>
      </g>
    </g>
    <path id="Path_35634" data-name="Path 35634" d="M2316.771,7449.119l21.454-32.162a19.339,19.339,0,1,0-21.454,32.162Z" fill="#fff" opacity="0.1"/>
    <path id="Path_35635" data-name="Path 35635" d="M2268.293,7449.119l21.453-32.162a19.339,19.339,0,1,0-21.453,32.162Z" fill="#fff" opacity="0.1"/>
    <path id="Path_35636" data-name="Path 35636" d="M2413.729,7449.119l21.453-32.162a19.339,19.339,0,1,0-21.453,32.162Z" fill="#fff" opacity="0.1"/>
  </g>
</svg>
