<svg xmlns="http://www.w3.org/2000/svg" xmlns:xlink="http://www.w3.org/1999/xlink" width="74.382" height="74.115" viewBox="0 0 74.382 74.115">
  <defs>
    <clipPath id="clip-path">
      <rect id="Rectangle_572" data-name="Rectangle 572" width="74.382" height="74.115" transform="translate(390.962 3634.253)" fill="none"/>
    </clipPath>
  </defs>
  <g id="Group_1112" data-name="Group 1112" transform="translate(-390.962 -3634.253)">
    <g id="Group_1111" data-name="Group 1111" clip-path="url(#clip-path)">
      <path id="Path_38887" data-name="Path 38887" d="M423.216,3672.765l-4.064-4.066c-.016.664-1.121,2.61-1,3.093a7.609,7.609,0,0,0,2.191,1.97c.784-.087,2.038-.832,2.87-1m23.192-32.238-1.978,1.951,5.009,5.009c.262-.354,2-1.813,1.948-2.083Zm-47.886-.734a6.01,6.01,0,0,0-4.966,3.966,10.368,10.368,0,0,0-.408,1.626v41.183a10.254,10.254,0,0,1,5.355-2.78l.021-7.168c.562-1.232,1.981-.867,2.164.446a49.511,49.511,0,0,1,.019,7.4c-.164,1.762-.9,1.3-2.1,1.535-7.319,1.429-7.154,11.22.27,12.047,12-.1,24.089.181,36.042-.143l4.282-4.285c1.183-.746,2.415.278,1.591,1.445l-11.039,11.113h33.41v-5.228h-2.4c-.853,0-.959-2.181.292-2.181h2.105v-3.2h-2.105c-1.251,0-1.145-2.178-.292-2.178h2.4v-3.342h-2.251c-.575,0-.975-1.007-.721-1.6a3.906,3.906,0,0,1,.575-.581h2.4v-3.342h-2.4c-.853,0-.959-2.178.292-2.178h2.105v-9.588L443.6,3692.2a1.1,1.1,0,0,1-1.273-1.7l15.757-15.767v-23.17H448.42l-22.513,22.516-6.612,2.47h21.717a1.12,1.12,0,0,1-.286,2.183l-30.373,0a1.1,1.1,0,0,1-.217-2.121c.779-.245,3.688.168,4-.21l3.674-10.272,5.412-5.482a1.081,1.081,0,0,1,1.626,1.334l-4.536,4.615,5.009,5.009,22.587-22.587-5.009-5.009-15.725,15.368a1.1,1.1,0,0,1-1.034-1.624l6.081-6.192H400.7v20.99a5.692,5.692,0,0,1-.365.794c-.491.565-1.812.24-1.812-.357Zm52.111-3.315a11.284,11.284,0,0,0-2.564,2.493l4.98,4.877c.732-.911,2.772-2.032,2.353-3.339a44.486,44.486,0,0,0-3.64-3.769,1.219,1.219,0,0,0-1.129-.262m14.711,71.153c-.324.43-.629.778-1.226.732l-37.312-.038a1.081,1.081,0,0,1-.664-1.621l6.373-6.481H398.16c-3.353,0-7.179-4.312-7.174-7.646l-.024-47.2a8.736,8.736,0,0,1,5.633-7.444c.911-.326,4.1-1.134,4.1.476v10.821H434.62l14.162-14.166a3.409,3.409,0,0,1,3.486-.575,31.181,31.181,0,0,1,4.579,4.282,3.315,3.315,0,0,1,.216,4.139l-6.246,6.32h8.208c.448,0,1.235.621,1.235,1.091v22.152c.913-.535,3.117-3.6,4.1-3.461a1.808,1.808,0,0,1,.981.7Z" fill="#fff"/>
      <path id="Path_38888" data-name="Path 38888" d="M455.321,3698.48v-8.135l-8.135,8.135Zm1.851,1.851a2.078,2.078,0,0,1-1.046.335c-3.691.335-7.884-.268-11.631-.006a1.126,1.126,0,0,1-1.021-1.607l11.99-12.126a1.17,1.17,0,0,1,2.035.876c-.233,3.669.31,7.71.008,11.336a2.849,2.849,0,0,1-.335,1.192" fill="#fff"/>
    </g>
  </g>
</svg>
