<svg xmlns="http://www.w3.org/2000/svg" width="70" height="71.979"><g fill="#fff" data-name="Group 1109"><path d="M69.986 37.06c0 .676.034 1.354-.005 2.028-.3 5.052-.471 5.239-5.453 6.037-3.927.629-5.2 3.818-2.819 7.041 2.861 3.867 2.844 3.853-.275 7.682a37.4 37.4 0 0 1-5.55 5.178 2.687 2.687 0 0 1-3.865-.021c-.774-.653-1.609-1.236-2.431-1.829a4.07 4.07 0 0 0-6.347 2.588c-.926 5.456-.931 5.41-6.417 6.117-2.4.309-4.717-.195-7.067-.373a2.575 2.575 0 0 1-2.56-2.631c-.086-1.007-.312-2-.448-3.006a4.06 4.06 0 0 0-6.215-2.765c-.141.095-.275.2-.413.295-4.575 3.2-4.6 3.234-8.734-.79-1.569-1.529-2.984-3.218-4.449-4.853a2.554 2.554 0 0 1 .036-3.831c.565-.625 1.028-1.341 1.532-2.02 2.142-2.888.755-6.2-2.819-6.745-.836-.127-1.664-.331-2.5-.392-1.852-.134-2.589-1.162-2.845-2.932a34.7 34.7 0 0 1 .024-9.846 3 3 0 0 1 2.672-2.87c2.294-.462 4.934.011 6.431-2.731.5-.917 1.721-.332 2.076.775.452 1.412-.944 3.837-2.389 4.251-.242.069-.507.059-.748.13-1.573.46-3.782-.248-4.65 1.351-1.194 2.2-.766 4.772-.353 7.207.247 1.461 1.31 1.758 2.588 1.923 1.565.2 3.577-.087 4.466 1.323a22.5 22.5 0 0 1 2.733 6.486c.388 1.563-1.255 2.691-2.2 3.811-1.443 1.705-1.461 3.1.264 4.516a9 9 0 0 1 .7.731c3.672 3.793 3.707 3.842 7.874.812 1.412-1.027 2.674-1.3 4.163-.329a3.9 3.9 0 0 0 1.382.622c3.347.576 4.622 2.735 4.586 5.908-.023 1.929 1.073 2.72 2.83 2.848.842.061 1.688.1 2.532.1 4.11-.011 4.506-.179 4.907-4.209.25-2.517 1.312-3.858 3.69-4.383a5.6 5.6 0 0 0 1.857-.795c1.669-1.118 3.052-.766 4.6.395 3.855 2.892 3.9 2.833 7.3-.612q.178-.18.355-.361c2.74-2.826 2.74-2.826.435-5.93a6.986 6.986 0 0 1 4.445-10.833c3.88-.588 3.88-.588 3.916-4.613v-.254c-.106-5.76.4-4.943-4.954-5.634-2.413-.312-3.056-1.748-3.45-3.669a1.45 1.45 0 0 1 .805-1.7 1.342 1.342 0 0 1 1.915.7c.732 1.417 2.008 1.662 3.385 1.839 4.92.631 4.933.639 5.4 5.475.088.921.013 1.858.013 2.787Z" data-name="Path 38877"/><path d="M52.083 35.786c-.019-.23-.059-.905-.132-1.577-.107-1-.021-1.99 1.158-2.183s1.607.736 1.811 1.7a18.6 18.6 0 0 1-2.473 13.644 20.164 20.164 0 0 1-22.436 9.426 20.545 20.545 0 0 1-15.329-18.987 22 22 0 0 1 .4-4.024c.14-.983.576-1.916 1.747-1.761 1.3.173 1.493 1.261 1.313 2.335a15.5 15.5 0 0 0-.009 5.536c1.779 9.4 9.529 15.209 19.093 14.256 8.695-.865 15.127-8.618 14.857-18.365" data-name="Path 38878"/><path d="M36.591 28.159c0 3.377.045 6.756-.022 10.132-.026 1.333.506 3.362-1.535 3.42-2.095.06-1.643-1.983-1.653-3.318-.049-6.67-.075-13.342.007-20.011a3.826 3.826 0 0 0-2.233-4.02 7.29 7.29 0 0 1-3.668-8.387 7.725 7.725 0 0 1 14.892-.57 7.26 7.26 0 0 1-3.256 8.785c-2.4 1.245-2.629 2.887-2.557 5.1.097 2.956.024 5.914.025 8.869m-1.405-24.88a4.677 4.677 0 0 0-4.651 4.4 4.44 4.44 0 0 0 4.464 4.472 4.123 4.123 0 0 0 4.426-4.156 4.47 4.47 0 0 0-4.239-4.716" data-name="Path 38879"/><path d="M42.557 31.417c-.874-3.216.617-5.954 3.674-8.114 1.161-.821 2.015-2.072 3.167-2.909a3.66 3.66 0 0 0 1.657-4.257 7.26 7.26 0 0 1 4.482-8.208 7.8 7.8 0 0 1 9.3 2.454 7.71 7.71 0 0 1 0 9.21 7.336 7.336 0 0 1-9.24 2.405c-1.83-.9-2.71-.212-4.15.787-4.616 3.2-6.666 7.311-5.7 12.911.18 1.049.138 2.473-1.341 2.58-1.6.115-1.781-1.27-1.831-2.492-.059-1.265-.018-2.534-.018-4.367m16.038-11.922a4.733 4.733 0 0 0 4.53-4.572 4.42 4.42 0 0 0-4.455-4.258 4.105 4.105 0 0 0-4.409 4.192 4.38 4.38 0 0 0 4.334 4.638" data-name="Path 38880"/><path d="M27.397 31.326c0 1.916.035 3.268-.011 4.618-.039 1.148-.259 2.362-1.735 2.3-1.327-.053-1.456-1.2-1.466-2.26-.021-2.027-.008-4.053-.024-6.08-.005-.756.1-1.611-.549-2.139q-3.629-2.96-7.337-5.819c-.745-.577-1.438.063-2.135.288-4.53 1.461-9.036-.861-10.183-5.248a7.73 7.73 0 0 1 5.981-9.585c5.194-1.215 10.4 3.874 8.99 9.1-.625 2.321-.1 3.637 1.745 4.822.919.589 1.661 1.469 2.605 2 3.381 1.921 5.079 4.591 4.119 8.003M15.931 14.92a4.4 4.4 0 0 0-4.45-4.254 4.127 4.127 0 0 0-4.405 4.449 4.37 4.37 0 0 0 4.594 4.373 4.735 4.735 0 0 0 4.261-4.568" data-name="Path 38881"/></g></svg>