<svg xmlns="http://www.w3.org/2000/svg" width="48.023" height="56.908" viewBox="0 0 48.023 56.908">
  <g id="Group_2043" data-name="Group 2043" transform="translate(-1722.852 -1260.407)">
    <path id="Path_2840" data-name="Path 2840" d="M10195.973,1293.909l6.221,23.321-20.564-23.321Z" transform="translate(-8458.777)" fill="#33b44a"/>
    <path id="Path_2841" data-name="Path 2841" d="M10196.092,1290.578h-14.463l9.507-9.507a1.67,1.67,0,0,1,1.179-.488h9.489Z" transform="translate(-8458.777)" fill="#33b44a"/>
    <path id="Path_2842" data-name="Path 2842" d="M10212.314,1290.578h-14.052l7.377-9.995Z" transform="translate(-8458.777)" fill="#6d6e70"/>
    <path id="Path_2843" data-name="Path 2843" d="M10211.859,1293.994l-6.22,23.321-6.218-23.321Z" transform="translate(-8458.777)" fill="#6d6e70"/>
    <path id="Path_2844" data-name="Path 2844" d="M10215.188,1290.578l-5.712-9.995h9.489a1.67,1.67,0,0,1,1.179.488l9.508,9.507Z" transform="translate(-8458.777)" fill="#33b44a"/>
    <path id="Path_2845" data-name="Path 2845" d="M10215.307,1293.994h14.346l-20.564,23.321Z" transform="translate(-8458.777)" fill="#33b44a"/>
    <path id="Path_2846" data-name="Path 2846" d="M10205.64,1269.906a1.665,1.665,0,0,1-1.665-1.666v-6.167a1.666,1.666,0,1,1,3.331,0v6.167A1.666,1.666,0,0,1,10205.64,1269.906Z" transform="translate(-8458.777)" fill="#33b44a"/>
    <path id="Path_2847" data-name="Path 2847" d="M10189.082,1273.345l-3.083-5.34a1.666,1.666,0,1,1,2.885-1.666l3.083,5.34a1.666,1.666,0,1,1-2.885,1.666Z" transform="translate(-8458.777)" fill="#6d6e70"/>
    <path id="Path_2848" data-name="Path 2848" d="M10219.923,1273.955a1.665,1.665,0,0,1-.608-2.275l3.083-5.341a1.666,1.666,0,1,1,2.885,1.666l-3.083,5.34A1.667,1.667,0,0,1,10219.923,1273.955Z" transform="translate(-8458.777)" fill="#6d6e70"/>
  </g>
</svg>
