<svg xmlns="http://www.w3.org/2000/svg" xmlns:xlink="http://www.w3.org/1999/xlink" width="24.127" height="22.677" viewBox="0 0 24.127 22.677">
  <defs>
    <clipPath id="clip-path">
      <rect id="Rectangle_614" data-name="Rectangle 614" width="24.127" height="22.677" transform="translate(0 0)" fill="none"/>
    </clipPath>
  </defs>
  <g id="Group_1336" data-name="Group 1336" transform="translate(0 0)" clip-path="url(#clip-path)">
    <path id="Path_42014" data-name="Path 42014" d="M18.181,1.844a9.5,9.5,0,0,1,.944.691c.454.4.939.823,1.374,1.255.25.249.438.455.665.707A3.174,3.174,0,0,1,21.9,7.544a7.742,7.742,0,0,1-1.066,2.347,15.367,15.367,0,0,1-1.612,2.116,16.511,16.511,0,0,1-1.344,1.341,25,25,0,0,1-2.787,2.2,9.495,9.495,0,0,1-2.871,1.31,4.129,4.129,0,0,1-2.045.015,1.338,1.338,0,0,1-1.1-1.1,1.662,1.662,0,0,1,.161-1,4.361,4.361,0,0,1,1.225-1.51c.456-.376.92-.746,1.4-1.1,1.007-.742,1.961-1.548,2.925-2.344.366-.3.724-.615,1.058-.95a12.7,12.7,0,0,0,1.847-2.528,6.254,6.254,0,0,0,.714-1.65,3.991,3.991,0,0,0-.213-2.709.137.137,0,0,1-.014-.141" fill="#fff"/>
    <path id="Path_42015" data-name="Path 42015" d="M11.59.012a3.473,3.473,0,0,1,.747.031A19.384,19.384,0,0,1,14.864.4a7.178,7.178,0,0,1,1.413.451,1.6,1.6,0,0,1,1.039,1.7,6.057,6.057,0,0,1-.37,1.792,13.762,13.762,0,0,1-1,1.927,11.027,11.027,0,0,1-.976,1.391,14.008,14.008,0,0,1-2.922,2.727,10.3,10.3,0,0,1-1.9,1.081,3.871,3.871,0,0,1-1.919.286A1.65,1.65,0,0,1,6.762,9.984a2.8,2.8,0,0,1,1.1-2.054A10.682,10.682,0,0,1,9.076,7.1c.107-.068.209-.146.311-.223a11.672,11.672,0,0,0,1.656-1.469c.272-.3.532-.6.777-.924a7.4,7.4,0,0,0,.683-1,4.589,4.589,0,0,0,.539-1.538,1.488,1.488,0,0,0-.7-1.483,4.606,4.606,0,0,0-.61-.35c-.048-.024-.107-.034-.146-.106" fill="#fff"/>
    <path id="Path_42016" data-name="Path 42016" d="M23.576,10.793a6.953,6.953,0,0,1-.891,3.339,11.111,11.111,0,0,1-1.628,2.292,19.614,19.614,0,0,1-3.122,2.791,11.315,11.315,0,0,1-2.981,1.576,4.373,4.373,0,0,1-1.542.286A1.28,1.28,0,0,1,12.2,20.2a1.173,1.173,0,0,1,.406-1.38,15.359,15.359,0,0,1,1.6-1.1,35.944,35.944,0,0,0,3.384-2.451,17.5,17.5,0,0,0,1.613-1.477c.48-.5.922-1.037,1.354-1.581A9.047,9.047,0,0,0,22,9.591a7.268,7.268,0,0,0,.427-2.139c.005-.107.019-.213.028-.32,0-.041.006-.085.059-.093a.086.086,0,0,1,.094.063c.043.092.085.186.124.28a10.649,10.649,0,0,1,.789,2.7,4.435,4.435,0,0,1,.051.715" fill="#fff"/>
    <path id="Path_42017" data-name="Path 42017" d="M6.087,6.716a1.857,1.857,0,0,1-.472-.433,1.766,1.766,0,0,1-.237-1.63,1.515,1.515,0,0,1,.74-.776,2.332,2.332,0,0,0,.92-.958A1.527,1.527,0,0,0,7.169,2.4a.465.465,0,0,0-.35-.524A1.125,1.125,0,0,0,6,1.956a6.452,6.452,0,0,0-1.239.561c-.016.01-.037.014-.091.036a.721.721,0,0,1,.187-.206A8.9,8.9,0,0,1,9.357.275a3.5,3.5,0,0,1,1.2-.029,1.164,1.164,0,0,1,.977,1.178,3.694,3.694,0,0,1-.558,1.805A7.65,7.65,0,0,1,9.108,5.475,8.662,8.662,0,0,1,7.523,6.569,4.378,4.378,0,0,1,6,7a4.4,4.4,0,0,1-1.908-.153A1.813,1.813,0,0,1,2.838,5.81a1.6,1.6,0,0,1-.082-.947,2.167,2.167,0,0,1,.5-1.094,1.027,1.027,0,0,1,1.626.252A1.222,1.222,0,0,1,5,4.98a1.669,1.669,0,0,0,.315,1.53.679.679,0,0,0,.51.2c.074.008.149,0,.264,0" fill="#fff"/>
    <path id="Path_42018" data-name="Path 42018" d="M2.52,4.443c-.15.334-.291.644-.427.956a9.756,9.756,0,0,0-.655,1.763,1.841,1.841,0,0,0,.549,1.926,2.658,2.658,0,0,0,1.168.579,10.914,10.914,0,0,1,1.111.288A2.361,2.361,0,0,1,5.59,13.234a1.639,1.639,0,0,1-1.251.912,4.027,4.027,0,0,1-2.647-.369A3.041,3.041,0,0,1,.484,12.571a3.958,3.958,0,0,1-.462-2.392A7.317,7.317,0,0,1,.236,8.868,11.533,11.533,0,0,1,1.888,5.219c.162-.229.331-.454.5-.679a.188.188,0,0,1,.134-.1" fill="#fff"/>
    <path id="Path_42019" data-name="Path 42019" d="M24.127,12.6c-.043.27-.08.541-.13.809-.079.432-.143.868-.257,1.29a14.262,14.262,0,0,1-.628,1.819A10.793,10.793,0,0,1,20.825,20a10.566,10.566,0,0,1-2.775,2.042,6.417,6.417,0,0,1-1.789.615,2.5,2.5,0,0,1-.58.007.418.418,0,0,1-.258-.125.281.281,0,0,1,.035-.464c.416-.288.857-.535,1.288-.8a21.423,21.423,0,0,0,2.732-1.909,13.811,13.811,0,0,0,1.133-1.072,21.732,21.732,0,0,0,1.913-2.577,14.431,14.431,0,0,0,.976-1.854c.2-.4.381-.811.554-1.225a.256.256,0,0,1,.033-.048l.04.006" fill="#fff"/>
  </g>
</svg>
