<svg xmlns="http://www.w3.org/2000/svg" xmlns:xlink="http://www.w3.org/1999/xlink" width="22.714" height="22.677" viewBox="0 0 22.714 22.677">
  <defs>
    <clipPath id="clip-path">
      <rect id="Rectangle_616" data-name="Rectangle 616" width="22.714" height="22.677" transform="translate(0 0)" fill="none"/>
    </clipPath>
  </defs>
  <g id="Group_1341" data-name="Group 1341" transform="translate(0 0)">
    <g id="Group_1340" data-name="Group 1340" clip-path="url(#clip-path)">
      <path id="Path_42026" data-name="Path 42026" d="M3.758,6.828A4.341,4.341,0,0,0,5.64,6.98a4.316,4.316,0,0,0,1.5-.423A8.5,8.5,0,0,0,8.706,5.479a7.56,7.56,0,0,0,1.846-2.216,3.638,3.638,0,0,0,.55-1.78A1.148,1.148,0,0,0,10.138.32,3.476,3.476,0,0,0,8.952.348a8.793,8.793,0,0,0-4.44,2.044.718.718,0,0,0-.184.2.73.73,0,0,0,.09-.036A6.424,6.424,0,0,1,5.64,2.007a1.111,1.111,0,0,1,.808-.077.46.46,0,0,1,.346.517,1.511,1.511,0,0,1-.13.51,2.29,2.29,0,0,1-.908.945,1.5,1.5,0,0,0-.73.766A1.744,1.744,0,0,0,5.26,6.276a1.844,1.844,0,0,0,.466.427,2.387,2.387,0,0,1-.26,0,.667.667,0,0,1-.5-.2,1.645,1.645,0,0,1-.311-1.51,1.2,1.2,0,0,0-.111-.946,1.014,1.014,0,0,0-1.6-.248,2.134,2.134,0,0,0-.5,1.078,1.584,1.584,0,0,0,.08.935A1.79,1.79,0,0,0,3.758,6.828" fill="#fff"/>
      <path id="Path_42027" data-name="Path 42027" d="M17.084,5.953a11.756,11.756,0,0,1-1.622,2.4c-.3.322-.618.623-.947.916-.864.769-1.719,1.548-2.626,2.268-.429.341-.845.7-1.255,1.063a4.035,4.035,0,0,0-1.081,1.439,1.535,1.535,0,0,0-.115.929,1.239,1.239,0,0,0,1.053.981,3.828,3.828,0,0,0,1.892-.084,8.777,8.777,0,0,0,2.611-1.311,22.977,22.977,0,0,0,2.5-2.129,15.192,15.192,0,0,0,1.2-1.287,14.212,14.212,0,0,0,1.419-2.013,7.17,7.17,0,0,0,.906-2.208,2.941,2.941,0,0,0-.789-2.8c-.218-.225-.4-.409-.639-.631-.417-.384-.881-.756-1.314-1.114a8.929,8.929,0,0,0-.9-.607A.129.129,0,0,0,17.4,1.9a3.692,3.692,0,0,1,.289,2.5,5.8,5.8,0,0,1-.6,1.552" fill="#fff"/>
      <path id="Path_42028" data-name="Path 42028" d="M22.662,9.739a10.5,10.5,0,0,0-.779-2.66c-.038-.093-.079-.185-.122-.277a.087.087,0,0,0-.093-.062c-.053.008-.054.052-.058.092-.009.106-.023.211-.028.316a7.142,7.142,0,0,1-.421,2.11,8.925,8.925,0,0,1-1.422,2.581c-.427.537-.862,1.064-1.336,1.559a17.161,17.161,0,0,1-1.591,1.458,35.594,35.594,0,0,1-3.339,2.417,15.268,15.268,0,0,0-1.579,1.09,1.159,1.159,0,0,0-.4,1.362,1.265,1.265,0,0,0,1.191.865,4.353,4.353,0,0,0,1.521-.282,11.192,11.192,0,0,0,2.941-1.555A19.416,19.416,0,0,0,20.227,16a11.016,11.016,0,0,0,1.606-2.261,6.867,6.867,0,0,0,.879-3.294,4.407,4.407,0,0,0-.05-.7" fill="#fff"/>
      <path id="Path_42029" data-name="Path 42029" d="M19.018,18.213a29.988,29.988,0,0,1-5.351,3.373.276.276,0,0,0-.034.458.4.4,0,0,0,.253.123,2.337,2.337,0,0,0,.573-.007,6.309,6.309,0,0,0,1.765-.606A12.919,12.919,0,0,0,20.1,18.531a10.782,10.782,0,0,0,2.462-5.3,14.265,14.265,0,0,1-3.549,4.985" fill="#fff"/>
      <path id="Path_42030" data-name="Path 42030" d="M11.068.116a4.661,4.661,0,0,1,.6.345,1.469,1.469,0,0,1,.686,1.463,4.522,4.522,0,0,1-.532,1.518,7.282,7.282,0,0,1-.673.981c-.242.316-.5.619-.767.912A11.538,11.538,0,0,1,8.75,6.784c-.1.076-.2.153-.307.22a10.65,10.65,0,0,0-1.195.819A2.753,2.753,0,0,0,6.161,9.849,1.627,1.627,0,0,0,7.606,11.6,3.826,3.826,0,0,0,9.5,11.318a10.186,10.186,0,0,0,1.874-1.068,13.755,13.755,0,0,0,2.882-2.69,10.761,10.761,0,0,0,.963-1.372,13.607,13.607,0,0,0,.99-1.9,6.023,6.023,0,0,0,.365-1.768A1.575,1.575,0,0,0,15.547.841,7.064,7.064,0,0,0,14.154.4,19.229,19.229,0,0,0,11.661.042a3.447,3.447,0,0,0-.737-.031c.038.071.1.081.144.1" fill="#fff"/>
      <path id="Path_42031" data-name="Path 42031" d="M7.882,19.848a7.089,7.089,0,0,1-1.5-3.1,3.184,3.184,0,0,1-.052-1.269.653.653,0,0,1,.938-.533,2.49,2.49,0,0,1,1.079.781,3.373,3.373,0,0,1,.784,1.455c.005.022.012.044.051.042.006-.01.021-.022.021-.035a4.4,4.4,0,0,0-1.141-3.341,4.093,4.093,0,0,0-3.081-1.182c-.532,0-1.229.177-1.763.158A2.348,2.348,0,0,1,.772,10.761a10.972,10.972,0,0,1-.19-2.674,4.237,4.237,0,0,1,.081-.592s-.133.447-.187.617a11.1,11.1,0,0,0-.288,5.245,11.956,11.956,0,0,0,2.9,5.772A11.883,11.883,0,0,0,8.421,22.3a11.545,11.545,0,0,0,4.247.3,8.211,8.211,0,0,1-4.786-2.756" fill="#fff"/>
      <path id="Path_42032" data-name="Path 42032" d="M3.523,11.571A1.728,1.728,0,1,0,1.795,9.843a1.728,1.728,0,0,0,1.728,1.728" fill="#fff"/>
    </g>
  </g>
</svg>
