<svg xmlns="http://www.w3.org/2000/svg" width="83.692" height="90" viewBox="0 0 83.692 90">
  <g id="Group_2049" data-name="Group 2049" transform="translate(-766.593 -4255.806)">
    <path id="Path_17730" data-name="Path 17730" d="M7183.835,4255.912c9.621-1.3,14.94,9.641,17.665,17.115.358.244,3.042-.386,3.73-.46,8-.859,20.735,0,20.738,10.866,0,1-.677,3.26-.581,3.981.04.3,1.1,1.449,1.369,2.057a5.972,5.972,0,0,1-4.54,8.422c-.6.081-2.156-.119-2.316-.052a23.952,23.952,0,0,0-2.289,2.86.708.708,0,0,0,.1.461c3.235,3.721,6.674,8.577,7.774,13.46,3.035,13.474-10.245,15.413-20.258,14.383-.692-.071-3.369-.706-3.73-.46-.135.648-1.367,2.956-1.278,3.4a25.215,25.215,0,0,1,1.566,2.4c1.583,4.664-1.941,8.314-6.63,7.957-.433-.033-1.066-.39-1.3-.344-.146.029-1.5,1.319-1.843,1.558-11.12,7.749-19.359-5.9-22.342-14.968-.361-.246-3.038.389-3.729.46-5.513.567-12.525.73-17.03-3.014-8.085-6.723-.951-18.831,4.546-24.829a.711.711,0,0,0,.1-.461,24.332,24.332,0,0,0-2.292-2.862c-.2-.088-2.1.136-2.846.019a5.991,5.991,0,0,1-4.325-8.326,26.7,26.7,0,0,1,1.654-2.152c.1-.4-.5-2.959-.5-3.748-.055-11.071,12.446-11.951,20.693-11.065.688.074,3.371.7,3.729.46C7171.715,4267.049,7176.809,4256.862,7183.835,4255.912Zm14.831,17.957c-2.109-7.444-9.556-20.589-18.578-12.986-3.66,3.084-6.124,8.407-7.587,12.882a108.712,108.712,0,0,1,13.007,4.454C7189.85,4276.647,7194.123,4274.821,7198.666,4273.869Zm-29.948,1.9c-4.228-.552-8.306-1.133-12.55-.324-5.65,1.076-9.346,4.7-7.731,10.75a5.9,5.9,0,0,1,6.415,8.406c-.188.4-1.092,1.6-1.083,1.7a7.829,7.829,0,0,0,1.8,2.2c3.474-3.1,6.913-6.218,10.586-9.089A104.88,104.88,0,0,1,7168.718,4275.766Zm54.005,10.411c2.736-12.155-12.351-11.907-20.267-10.411a104.88,104.88,0,0,1,2.563,13.643,124.04,124.04,0,0,1,10.613,9.291l1.8-2.179A6.009,6.009,0,0,1,7222.723,4286.177Zm-40.737-6.429-10.436-3.147-2.263,10.727Zm19.9,7.58-2.263-10.727-10.434,3.147Zm-16.535-5.845a99.117,99.117,0,0,0-16.541,9.635,86.029,86.029,0,0,0,.083,19.443,91.378,91.378,0,0,0,16.774,9.557,93.442,93.442,0,0,0,16.7-9.664,105,105,0,0,0,.481-13.751,46.191,46.191,0,0,0-.39-5.3.8.8,0,0,0-.275-.484,33.038,33.038,0,0,0-3.719-2.536c-1.483-.97-3.053-1.924-4.595-2.8a60.35,60.35,0,0,0-7.764-3.992C7185.849,4281.514,7185.631,4281.379,7185.351,4281.483Zm-36.4,7.407a3.205,3.205,0,0,0-2.56,3.6,3.15,3.15,0,1,0,2.56-3.6Zm70.249.779c-2.866,2.647.85,7.21,4.008,4.86C7226.778,4291.876,7222.359,4286.754,7219.2,4289.669Zm-53.52,3.915-3.793,2.934-4.343,4.2c-.093.535,6.979,6.629,8.04,7.274Zm39.808,14.4c.339.094.38-.156.565-.286a73.625,73.625,0,0,0,7.571-6.847c.093-.535-6.974-6.637-8.041-7.274Zm-36.773,17.818a104.894,104.894,0,0,1-2.563-13.644c-3.684-2.863-7.1-6-10.586-9.088-4.551,4.817-11.9,16.4-3.969,21.368,2.934,1.838,6.823,2.1,10.206,2.131Zm33.738,0c5.873,1.062,18.519,1.98,20.384-5.68,1.405-5.772-3.543-12.956-7.236-17.051-3.459,3.116-6.921,6.208-10.585,9.087A103.142,103.142,0,0,1,7202.456,4325.806Zm-20.471-4.356c-.053-.057-1.193-.4-1.455-.538a117.965,117.965,0,0,1-11.243-6.668l2.263,10.727c.371.275,7.135-1.97,8.117-2.335.619-.231,1.49-.509,2.05-.793C7181.867,4321.767,7182.3,4321.785,7181.985,4321.45Zm7.2.374,10.436,3.146,2.262-10.726Zm9.667,5.88c-4.629-.857-8.944-2.782-13.347-4.351a108.8,108.8,0,0,1-13.007,4.454c1.58,5.391,6.618,15.294,13.16,15.229,1.469-.015,4.774-1.3,5.627-2.528.41-.59-.463-1.4-.672-2.007a5.912,5.912,0,0,1,7.1-7.765Zm-3.656,5.724a4.073,4.073,0,0,0-1.545,1.109,3.17,3.17,0,0,0,4.317,4.507C7200.814,4337.192,7199.036,4332.569,7195.2,4333.428Z" transform="translate(-6377)" fill="#fff"/>
    <path id="Path_17731" data-name="Path 17731" d="M7183.835,4290.409c16.24-2.062,16.032,23.06-.153,20.717C7172.311,4309.48,7172.446,4291.856,7183.835,4290.409Zm1.338,2.655c-10.831.639-8.824,17.541,2.129,15.219C7196.371,4306.36,7194.488,4292.515,7185.173,4293.064Z" transform="translate(-6377)" fill="#fff"/>
    <path id="Path_17732" data-name="Path 17732" d="M7189.706,4299.5c3.45-.757,1.295,5.955-1.413,6.56a1.354,1.354,0,0,1-1.674-.71c-.564-1.71.806-1.669,1.513-2.679C7188.816,4301.692,7188.532,4299.754,7189.706,4299.5Z" transform="translate(-6377)" fill="#fff"/>
  </g>
</svg>
