<svg xmlns="http://www.w3.org/2000/svg" viewBox="0 0 1071.9 1024" fill="#fff"><path d="M0 881.9c9.5-48.1 44.4-87.2 91-102.3 11.7-1.6 23.2-4.2 34.4-7.8l-.2-547.1c5.3-60.9 67.8-62.6 112.6-80.7 3.8-33.3-5.3-76.6 3.4-108.4 8.4-26.8 37-41.7 63.8-33.3 1.8.6 3.6 1.3 5.4 2 11.4 4.8 30.3 23.9 30.3 36.6v67.9l258.9-86.7c6.3-2.3 13.3-1.4 18.8 2.3 46.8 48.8 101.4 91.5 147.4 141 13 14 20.8 32 22 51.1 4.8 60.4-3.7 127 0 188.1 1.2 9.3-5.4 17.7-14.6 18.9-9.3 1.2-17.7-5.4-18.9-14.6-7.3-58.4 5.3-132.1.2-192.3-.3-4.7-1.2-9.4-2.8-13.9-17.2-22.3-37-42.5-58.9-60.1-21.3-22.9-44-44.6-67.8-64.8v386.5h281c8.6 2.3 16.7 6.2 23.9 11.4 8.9 7.8 15.4 17.9 18.8 29.3v270.5c57.1-9.5 111.1 29.1 120.6 86.2.3 1.5.5 3 .7 4.6 3 41.7 2.9 83.6-.3 125.2-3 16.5-16.1 29.4-32.7 32.1l-998.2.6C21.9 1023.1 7 1012.5.2 997V882.1ZM271.6 47.3c-4.2 23.9 3.1 59.4 0 84.6l34.3-10.2c1.7-.5 1.2-1.9 1.4-3.3 1.4-25.3.8-50.6-1.7-75.8-5.3-8.8-16.7-11.7-25.5-6.4-4.1 2.5-7.1 6.4-8.4 11.1Zm319.6 13.5L183.3 197.1c-8 .7-24.5 16.7-24.5 23.5v769.8h79.4V874.5c1.4-15.5 10.5-29.2 24.3-36.3 48.6-9.7 105.3-36.4 153.2-43.1 12.8-3 26.1 1.6 34.4 11.7 3 4.1 5.6 8.7 7.5 13.4v170.2h133.7V629l-202.2 68.5c-8.8 2.4-17.9-2.7-20.4-11.5-2.4-8.8 2.7-17.9 11.5-20.4l211-70v-79.4L257.4 628.6c-9.1.7-17.1-6.2-17.7-15.3-.6-8 4.6-15.3 12.4-17.3l339-113.3v-79.4L259 515.3c-8.9 1.7-17.5-4.1-19.2-13.1-1.6-8.6 3.8-17 12.3-19.1l339-113.3v-79.4L259.4 402.8c-9.1 1.6-17.8-4.4-19.4-13.5-1.5-8.5 3.7-16.8 12-19.1l339-113.3v-79.2L259.3 290.1c-9.1 1.6-17.8-4.4-19.4-13.5-1.5-8.5 3.7-16.8 12-19.1l339-113.3V60.8Zm263.4 831.5V862c4.8-24.2 17.3-46.1 35.5-62.7 5.8-4.9 24.3-14.4 25.1-18.6V513.2c1.2-5.1-7.6-15.6-11.5-15.6H624.8v394.8h229.9Zm-729.2-85.7C77.9 808.7 39 845 33.5 892.3h91.9zm913 85.7c8.3-114.2-161.3-114.2-150.4 0zm-614.2-64.8-58.5 14.6v148.3h58.5zm-91.9 25.1c-8.2 3.2-60.6 13.9-60.6 19.8v118h60.6V852.5Zm-206.9 73.1h-94v57.5c1.4 2.7 3.2 5.1 5.3 7.3h88.8v-64.7Zm729.2 0H624.8v64.7h229.8zm183.8 0H888v64.7h145.2c2.1-2.2 3.9-4.6 5.3-7.3v-57.5Z"/><path d="M306.5 690.2c24.2-3.9 31.9 19.2 15 29.6-4 2.4-59.7 21.3-64.1 21.7-9 .9-17-5.7-17.9-14.7-.6-6.4 2.6-12.6 8.3-15.8 18.9-8.5 38.6-15.4 58.6-20.7ZM684.7 535.5l172 .5c20.5 6.3 18.3 45.8 16.7 62.9 0 15.5-12.6 28.1-28.1 28.1h-.2c-50.1 3.5-100.4 3.5-150.5 0-16.4.3-29.9-12.8-30.2-29.2v-1.2c-1.9-18.7-3.4-56.2 20.3-61ZM684.7 654.4l172 .5c20.5 6.3 18.3 45.8 16.7 62.9 0 15.5-12.6 28.1-28.1 28.1h-.2c-50.1 3.5-100.4 3.5-150.5 0-16.4.2-29.9-12.9-30.2-29.3v-1.1c-1.9-18.7-3.4-56.3 20.3-61ZM673.5 785.5l81.3.3c9.7 4.7 8.6 33.9 8 46.5s-5.1 19.3-13.3 20.8c-23.7 2.6-47.5 2.6-71.2 0-9-1.3-13.3-8.5-14.3-22.5-1-13.9-1.8-41.6 9.4-45.2Z"/></svg>