<svg xmlns="http://www.w3.org/2000/svg" width="82.946" height="88.681" viewBox="0 0 82.946 88.681">
  <g id="Group_2048" data-name="Group 2048" transform="translate(-1163.191 -4255.6)">
    <path id="Path_17720" data-name="Path 17720" d="M7615.522,4288.976a6.773,6.773,0,0,1,6.865,9.8,6.9,6.9,0,0,1-10.312,2.157l-11.58,10.1-.139.341a6.757,6.757,0,0,1-9.211,9.217c-3.045-1.68-3.862-5.145-3.012-8.356l-9.554-5.873c-.436,0-1.107.835-1.5,1.07-3.1,1.855-6.15,1.214-8.777-1.075-3.406,2.043-6.9,4.1-10.133,6.332,2.935,7.509-7.79,12.795-11.955,6.028-4.326-7.029,4.99-14.1,10.7-8.186l10.111-6.188c-.571-2.579-.5-4.893,1.27-6.979,4.237-5,12.448-1.405,11.838,5.049-.053.556-.529,1.521-.278,1.926l9.086,5.607.621.239a6.865,6.865,0,0,1,9.205-.75l11.751-10.23C7608.286,4295.006,7610.661,4289.531,7615.522,4288.976Zm-.008,2.379c-5.205.893-4.215,8.941,1.031,8.753C7622.573,4299.891,7621.892,4290.26,7615.514,4291.355Zm-38.928,13.473c3.49-3.535-.984-9.589-5.568-6.761C7565.606,4301.4,7571.945,4309.528,7576.586,4304.828Zm17.091,5.62c-5.132.749-4.434,8.937,1.025,8.748C7600.512,4318.994,7600.218,4309.492,7593.677,4310.448Zm-42.956.36c-4.311.875-4.242,7.935.341,8.569C7558.157,4320.357,7557.845,4309.363,7550.721,4310.808Z" transform="translate(-6377)" fill="#fff"/>
    <path id="Path_17721" data-name="Path 17721" d="M7588.336,4256.316c1.258,1.264.54,4.809.91,5.1a20.011,20.011,0,0,0,2,.849c.609-.048,2.221-3.177,4.32-2.989,1.334.12,5.036,3.717,5.271,5.008.462,2.544-2.94,3.883-2.863,4.7a17.211,17.211,0,0,0,.88,2.061c1.012.683,5.278-1.142,5.7,2.375a30.871,30.871,0,0,1-.016,4.948c-.446,2.891-3.718,1.791-5.405,2.12-.389.076-1.219,1.941-1.153,2.272.07.357,2.117,2,2.5,2.625a2.428,2.428,0,0,1-.053,2.822,47.28,47.28,0,0,1-3.779,3.747c-2.093,1.315-3.919-1.184-5.221-2.487a6.841,6.841,0,0,0-2.212.744c-.7,1.044,1.066,5.3-2.378,5.7a31.925,31.925,0,0,1-5.128-.011c-3.142-.487-1.362-4.723-1.963-5.654a15.624,15.624,0,0,0-2.274-.88c-.295.033-2.06,2.192-2.712,2.545a2.581,2.581,0,0,1-2.886-.126,38.108,38.108,0,0,1-3.567-3.591,3.225,3.225,0,0,1-.458-1.207c-.2-2.14,3.031-3.586,2.9-4.52a20.032,20.032,0,0,0-.728-1.951c-.487-.426-4.163.811-5.386-1.131-.687-1.09-.69-5.922-.075-7.034,1.16-2.1,4.962-.8,5.461-1.24a15.06,15.06,0,0,0,.731-2.234c-.079-.309-1.768-1.752-2.147-2.273-.84-1.153-1.1-2-.217-3.273a44.865,44.865,0,0,1,3.679-3.663,2.734,2.734,0,0,1,2.515-.141c.669.306,2.575,2.721,2.891,2.746a19.527,19.527,0,0,1,2.271-.894c.166-2-.723-5.325,2.132-5.668a33.677,33.677,0,0,1,5.148,0A2.555,2.555,0,0,1,7588.336,4256.316Zm-1.59,5.719a28.088,28.088,0,0,1,0-3.854c0-.523-4-.175-4.588-.276v3.58a3.214,3.214,0,0,1-1.037,1.716,12.525,12.525,0,0,1-3.269,1.322c-2.161.149-2.951-1.724-4.413-2.943-.765,1-2.368,2.042-3.039,3.019-.133.194-.229.2-.092.463.679,1.315,2.949,1.852,2.873,3.95-.042,1.133-1.481,4.495-2.862,4.495h-3.763v4.588h3.763c1.379,0,2.83,3.347,2.859,4.5.055,2.129-2.183,2.618-2.87,3.948-.137.266-.041.27.092.463.671.978,2.274,2.016,3.039,3.02,1.18-.934,2.4-3.085,4.038-3.083a16.627,16.627,0,0,1,3.571,1.351,3.059,3.059,0,0,1,1.11,1.827v3.579c.587-.1,4.588.247,4.588-.276v-3.854c0-1.091,3.724-2.623,4.651-2.6,1.5.039,2.7,2.1,3.792,2.972h.184l3.107-3.151c-1.065-1.771-3.487-2.441-2.749-4.941.3-1.021,1.424-3.753,2.67-3.753h3.763v-4.588H7598.4c-1.3,0-2.887-3.623-2.853-4.674.057-1.81,3.128-3.422,2.925-4.191a32.549,32.549,0,0,0-2.819-2.893c-.194-.133-.2-.229-.463-.092-1.143.59-1.886,2.753-3.573,2.866C7590.39,4264.6,7587.041,4263.368,7586.746,4262.035Z" transform="translate(-6377)" fill="#fff"/>
    <path id="Path_17722" data-name="Path 17722" d="M7565.576,4280.727c.656.624,2.174,3.519,2.089,4.435-.155,1.681-2.31,1.849-2.675,2.467a7.273,7.273,0,0,0,.107,1.287c.3.332,2.911.019,3.393,1.84.206.777-.52,3.463-.871,4.279a1.813,1.813,0,0,1-2.075,1.242c-1.081-.039-2.5-1.13-2.93.356-.258.9,2.644,2.546.179,4.589-1.146.949-3.808,2.537-5.127,1.273a22.155,22.155,0,0,1-1.228-2.169,1.6,1.6,0,0,0-1.416.467c-.563.975-.114,2.345-1.648,2.942-.823.321-3.441-.346-4.308-.716a2.072,2.072,0,0,1-1.42-2.253c.087-1.127,1.221-2.147-.189-2.758-.56-.243-2.012,1.086-2.86,1.137-1.54.093-2.787-2.29-3.346-3.544-1.348-3.018,1.805-2.963,2.27-3.922.824-1.7-1.91-1.39-2.853-2.288-1.017-.969-.182-4.162.419-5.287,1.145-2.146,4.144-.378,4.341-.518.036-.025.464-.69.481-.73.366-.824-1.5-2.015-.929-3.853.254-.823,3.747-2.772,4.59-2.752a2.036,2.036,0,0,1,1.3.549c.99.844.921,2.78,2.513,2.027.465-.22.329-2.441,1.661-3.153a2.194,2.194,0,0,1,1.091-.29,24.518,24.518,0,0,1,3.627.967,2.281,2.281,0,0,1,1.271,1.85c.043,1.046-1.288,2.61.209,3.109C7562.047,4281.577,7563.84,4279.074,7565.576,4280.727Zm-1.409,1.957c-2.282,1.135-3.194,1.874-5.233-.178-1.792-1.8-.067-3.419-.53-4.054a7.73,7.73,0,0,0-2.31-.541c-.107,1.349-.47,2.907-1.969,3.263a16.148,16.148,0,0,1-1.978.242c-1.479,0-2.179-1.584-2.663-2.77l-2.19,1.374c.792,1.336,1.736,2.252.842,3.792-1.409,2.425-2.523,2.4-5.072,1.625-.032.719-.469,1.428-.543,2.127-.042.393.022.195.248.277,2.354.857,3.122.431,3.239,3.555.079,2.109-1.085,2.176-2.59,3.137.237.373.969,2.143,1.359,2.082.305-.048,1.37-.967,2.06-1.072a4.212,4.212,0,0,1,3.3,1.632c.909,1.171.218,2.438-.1,3.678l2.368.536c.547-1.492.355-2.792,2.174-3.243,2.634-.652,3.469.017,4.56,2.356.473-.066,2.114-.914,2.069-1.359-.113-1.13-1.877-1.5-.676-3.669,1.376-2.483,2.555-2.33,5.1-1.593l.548-2.3c-1.648-.488-2.992-.462-3.44-2.426-.564-2.473.188-3.472,2.527-4.272Z" transform="translate(-6377)" fill="#fff"/>
    <path id="Path_17723" data-name="Path 17723" d="M7608.081,4343.945l-.192-33.969a1.311,1.311,0,0,1,1.154-.682l12.955.085a1.2,1.2,0,0,1,.731,1.287l-.047,32.824a1.089,1.089,0,0,1-.961.691c-4.115-.272-8.615.329-12.682,0A1.783,1.783,0,0,1,7608.081,4343.945Zm12.254-32.261h-10.279v30.285h10.279Z" transform="translate(-6377)" fill="#fff"/>
    <path id="Path_17724" data-name="Path 17724" d="M7566.6,4343.945l-.131-27.852a1.082,1.082,0,0,1,.9-.564c4.025.3,8.534-.363,12.5,0,.949.087,1.368.346,1.376,1.377l-.1,26.71a1.084,1.084,0,0,1-.9.564c-4.115-.272-8.616.329-12.682,0A1.782,1.782,0,0,1,7566.6,4343.945Zm12.254-26.02h-10.279v24.044h10.279Z" transform="translate(-6377)" fill="#fff"/>
    <path id="Path_17725" data-name="Path 17725" d="M7560.268,4325.5l.059,18.227a1.016,1.016,0,0,1-.828.457c-4.115-.272-8.615.329-12.682,0a1.783,1.783,0,0,1-.958-.234l-.057-18.417a1.608,1.608,0,0,1,1.2-.454,86.5,86.5,0,0,1,12.127,0A2.91,2.91,0,0,1,7560.268,4325.5Zm-2.155,1.972h-10.278v14.5h10.278Z" transform="translate(-6377)" fill="#fff"/>
    <path id="Path_17726" data-name="Path 17726" d="M7601.382,4325.5l.059,18.227a1.015,1.015,0,0,1-.828.457c-4.115-.272-8.615.329-12.682,0a1.782,1.782,0,0,1-.958-.234l-.057-18.417a1.608,1.608,0,0,1,1.2-.454,86.509,86.509,0,0,1,12.127,0A2.908,2.908,0,0,1,7601.382,4325.5Zm-2.155,1.972h-10.278v14.5h10.278Z" transform="translate(-6377)" fill="#fff"/>
    <path id="Path_17727" data-name="Path 17727" d="M7582.668,4264.748c11.373-1.365,17.5,12.365,8.937,19.583-8.1,6.829-20.289-.466-18.175-10.834A11.306,11.306,0,0,1,7582.668,4264.748Zm1.292,2.2c-11.322.5-10.916,17.773.461,17.684C7596.291,4284.541,7595.782,4266.424,7583.96,4266.949Z" transform="translate(-6377)" fill="#fff"/>
    <path id="Path_17728" data-name="Path 17728" d="M7554.045,4283.1c7.892-.28,9.3,11.183,1.874,12.9C7546.453,4298.194,7544.8,4283.424,7554.045,4283.1Zm-.385,2.386c-5.067.771-4.345,8.628.865,8.4C7560.226,4293.641,7559.437,4284.6,7553.66,4285.482Z" transform="translate(-6377)" fill="#fff"/>
    <path id="Path_17729" data-name="Path 17729" d="M7578.534,4274.288c1.4-1.324,3.438,2.442,4.608,2.876l5.554-5.468a1.167,1.167,0,0,1,1.829,1.266l-6.8,6.978a1.01,1.01,0,0,1-1.029.094,45.813,45.813,0,0,1-4.213-4.048A1.312,1.312,0,0,1,7578.534,4274.288Z" transform="translate(-6377)" fill="#fff"/>
  </g>
</svg>
