<svg xmlns="http://www.w3.org/2000/svg" width="60.492" height="75.198" viewBox="0 0 60.492 75.198">
  <g id="Group_97" data-name="Group 97" transform="translate(-1093.12 -844.081)">
    <path id="Path_1770" data-name="Path 1770" d="M1152.722,919.279h-15.271c-1.248-.4-.946-2.937.073-2.937h12.995V864.8h-38.03v51.539h12.848a2.9,2.9,0,0,1,.808.66c.65.964.072,1.7-.734,2.277h-15.124a1.987,1.987,0,0,1-.888-1.241v-9.472l-8.855-2.377a1.747,1.747,0,0,1-.773-1c-.168-1.022,2.088-7.373,1.835-7.77l-7.9-4.505a1.575,1.575,0,0,1-.275-2.167l18.729-32.369c.621-1.536.876-4.5,1.591-5.751a1.782,1.782,0,0,1,2.126-.667l4.185-7.265a1.56,1.56,0,0,1,1.832-.525l30.879,17.721a1.729,1.729,0,0,1,.839,1.658v54.2A1.869,1.869,0,0,1,1152.722,919.279Zm-11.9-60.788-18.867-10.865-3.008,5.067Zm-26.429,3.376h25.99l-24.135-6.473Zm-10.28,26.723,4.845-18.5-12.17,20.948,5.71,3.426.7-2.7c-.07-.366-1.3-.732-1.646-1.129a1.541,1.541,0,0,1,1.5-2.537C1103.484,888.2,1103.716,888.532,1104.118,888.59Zm5.288,10.72V880.515l-6.317,23.271,6.317,1.691V902.54C1106.162,902.444,1106.045,898.64,1109.406,899.31Z" fill="#c29669"/>
    <path id="Path_1771" data-name="Path 1771" d="M1132.018,919.279h-1.175c-1.146-.554-1.159-2.616.1-2.9A1.548,1.548,0,0,1,1132.018,919.279Z" fill="#c29669"/>
    <path id="Path_1772" data-name="Path 1772" d="M1142.7,867.632c6-.787,6.878,8.309,1.122,8.9C1137.963,877.137,1137.033,868.375,1142.7,867.632Zm.292,3.076a1.4,1.4,0,0,0,0,2.727A1.4,1.4,0,1,0,1142.993,870.708Z" fill="#c29669"/>
    <path id="Path_1773" data-name="Path 1773" d="M1116.264,910.5a38.937,38.937,0,0,1,5.518,0,1.53,1.53,0,0,1-.124,2.9,35.17,35.17,0,0,1-5.247-.022C1114.98,913.051,1115.037,910.777,1116.264,910.5Z" fill="#c29669"/>
  </g>
</svg>
