<svg xmlns="http://www.w3.org/2000/svg" width="60.492" height="75.198"><g fill="#c29669" data-name="Group 97"><path d="M59.602 75.198H44.331c-1.248-.4-.946-2.937.073-2.937h12.995V20.719h-38.03v51.539h12.848a2.9 2.9 0 0 1 .808.66c.65.964.072 1.7-.734 2.277H17.167a1.99 1.99 0 0 1-.888-1.241v-9.472l-8.855-2.377a1.75 1.75 0 0 1-.773-1c-.168-1.022 2.088-7.373 1.835-7.77l-7.9-4.505a1.575 1.575 0 0 1-.275-2.167L19.04 14.294c.621-1.536.876-4.5 1.591-5.751a1.78 1.78 0 0 1 2.126-.667L26.942.611a1.56 1.56 0 0 1 1.832-.525l30.879 17.721a1.73 1.73 0 0 1 .839 1.658v54.2a1.87 1.87 0 0 1-.89 1.533m-11.9-60.788L28.835 3.545l-3.008 5.067Zm-26.429 3.376h25.99l-24.135-6.473Zm-10.28 26.723 4.845-18.5-12.17 20.948 5.71 3.426.7-2.7c-.07-.366-1.3-.732-1.646-1.129a1.541 1.541 0 0 1 1.5-2.537c.432.102.664.434 1.066.492Zm5.288 10.72V36.434L9.964 59.705l6.317 1.691v-2.937c-3.239-.096-3.356-3.9.005-3.23Z" data-name="Path 1770"/><path d="M38.898 75.198h-1.175c-1.146-.554-1.159-2.616.1-2.9a1.548 1.548 0 0 1 1.075 2.9" data-name="Path 1771"/><path d="M49.58 23.551c6-.787 6.878 8.309 1.122 8.9-5.859.605-6.789-8.157-1.122-8.9m.292 3.076a1.4 1.4 0 0 0 0 2.727 1.4 1.4 0 1 0 .001-2.727Z" data-name="Path 1772"/><path d="M23.144 66.419a39 39 0 0 1 5.518 0 1.53 1.53 0 0 1-.124 2.9 35 35 0 0 1-5.247-.022c-1.431-.327-1.374-2.601-.147-2.878" data-name="Path 1773"/></g></svg>