<svg xmlns="http://www.w3.org/2000/svg" width="89.076" height="89.766"><g fill="#fff" data-name="Group 2047"><path d="M17.628 74.794a5.93 5.93 0 0 0-2.053-5.517c-3.295-3.149-7.552-5.121-9.026-9.669-2.533-7.819-4-16.307-6.478-24.181-1.008-7.915 9.028-10.088 11.769-2.983l3.547 13.374a6.68 6.68 0 0 1 5.7-.379 91 91 0 0 1 12.115 7.141c2.179 1.654 5.36 6.051 5.36 8.848v13.366h3.646c.076 0 1 .906.851 1.206-.4 3.9.5 8.773 0 12.545a1.386 1.386 0 0 1-1.4 1.217l-27.768-.11c-.342-.3-.773-.6-.762-1.107.317-3.957-.387-8.474 0-12.36.037-.37.477-1.391.853-1.391Zm17.947 0V63.11a10.98 10.98 0 0 0-4.613-8.286c-3.449-2.432-7.871-4.394-11.5-6.634-3.562-.593-5.039 3.276-2.082 5.446 2.549 1.871 6.145 3.176 8.753 5.081a1.577 1.577 0 0 1-1.913 2.473c-4.781-3.437-13.207-4.84-11.309-12.609L8.792 33.248c-1.548-3.141-5.652-2.363-5.708 1.207L9.871 59.65c1.089 2.6 6.916 5.961 8.974 8.412a11.4 11.4 0 0 1 1.773 3.461v3.271Zm4.487 2.992H16.133v8.973h23.928Z" data-name="Path 17715"/><path d="M71.469 74.794h3.645c.077 0 1 .906.851 1.206-.4 3.9.5 8.773 0 12.545a1.386 1.386 0 0 1-1.4 1.217l-27.769-.11c-.342-.3-.772-.6-.762-1.107.318-3.957-.387-8.474 0-12.36.036-.37.476-1.391.852-1.391h3.646V61.433c0-1.619 1.919-5.265 2.986-6.548 2.367-2.842 9.674-6.908 13.152-8.72 2.527-1.317 4.372-1.686 7.041-.342l3.547-13.374c2.617-7 12.647-4.995 11.765 2.792-2.525 8.055-3.931 17-6.661 24.933-1.509 4.381-7.1 6.886-10.039 10.338a7.4 7.4 0 0 0-.854 4.282m-2.992 0v-3.271a10.65 10.65 0 0 1 1.961-3.647c2.069-2.267 7.744-5.738 8.787-8.226l6.787-25.195c-.034-3.411-3.833-4.282-5.611-1.484l-4.216 15.61c.5 3.531.066 5.825-2.977 7.856a74 74 0 0 1-8.334 4.751c-1.917.606-3-.873-1.92-2.479l8.876-5.145a2.923 2.923 0 0 0-2.334-5.324c-5.39 3.651-15.974 6.767-15.974 14.683v11.871Zm4.487 2.992H49.035v8.973h23.926Z" data-name="Path 17716"/><path d="M21.499.056c1.328-.4 3.53 1.4 4.849 1.99a16.24 16.24 0 0 0 13.466.059c1.115-.468 3.45-2 4.453-2.1 1.382-.127 3.968 1.711 5.389 2.285a16.31 16.31 0 0 0 13.093-.247c1.69-.754 4.381-3.332 5.69-1.15l.037 22.58a37.76 37.76 0 0 1-18.567 29.291 39.5 39.5 0 0 1-4.475 2.442 2.57 2.57 0 0 1-1.643.058 42 42 0 0 1-4.6-2.5 37.65 37.65 0 0 1-17.207-22.051c-2.634-9.363-.813-19.836-1.371-29.494a1.57 1.57 0 0 1 .886-1.163m43.986 4.261a20.5 20.5 0 0 1-14.954 1.588c-2.161-.6-3.986-1.736-6.062-2.522-6.455 3.708-14.261 4.674-20.857.746.341 8.188-.89 16.918 1.173 24.9a34.53 34.53 0 0 0 16.46 21.3 32 32 0 0 0 2.928 1.57 1.12 1.12 0 0 0 .885-.061 32.5 32.5 0 0 0 3.961-2.211c10.2-6.315 15.935-16.79 16.475-28.767.246-5.439-.198-11.077-.009-16.543" data-name="Path 17717"/><path d="M44.484 6.614c.5-.026 3.822 1.574 4.782 1.864a25.1 25.1 0 0 0 7.349 1.08c1.237-.03 3.828-.748 4.811-.53.792.176 1.013.821 1.078 1.542a76 76 0 0 1-.442 15.466c-1.524 8.755-7.831 17.92-15.827 21.936-2.259 1.134-2.662.432-4.662-.768a31.7 31.7 0 0 1-14.352-20.233c-1.127-5.442-.424-11.057-.623-16.583a1.41 1.41 0 0 1 .467-1.029c.888-.787 4.107.168 5.417.2a25.1 25.1 0 0 0 7.349-1.08c1.069-.324 4.015-1.832 4.653-1.865m15.019 5.741a25.9 25.9 0 0 1-15.017-2.389 25.48 25.48 0 0 1-14.892 2.389c.018 5.109-.277 10.195.987 15.183a28.6 28.6 0 0 0 9.393 14.723 23.4 23.4 0 0 0 4.259 2.861c.681.231 2.532-1.13 3.179-1.582a28.38 28.38 0 0 0 11.1-16c1.268-4.99.973-10.076.991-15.185" data-name="Path 17718"/><path d="M53.466 17.442a1.6 1.6 0 0 1 2.015 2.2L42.302 32.82a1.92 1.92 0 0 1-1.6-.079l-6.359-6.545a1.61 1.61 0 0 1 1.985-1.984c1 .318 4.743 5.051 5.293 4.953Z" data-name="Path 17719"/></g></svg>