<svg xmlns="http://www.w3.org/2000/svg" xmlns:xlink="http://www.w3.org/1999/xlink" width="1237.816" height="374.285" viewBox="0 0 1237.816 374.285">
  <defs>
    <linearGradient id="linear-gradient" y1="0.5" x2="1" y2="0.5" gradientUnits="objectBoundingBox">
      <stop offset="0" stop-color="#fdc709"/>
      <stop offset="1" stop-color="#f3bb6d"/>
    </linearGradient>
    <clipPath id="clip-path">
      <circle id="Ellipse_1601" data-name="Ellipse 1601" cx="37.683" cy="37.683" r="37.683" transform="translate(1413.827 3034.416)" fill="none"/>
    </clipPath>
  </defs>
  <g id="Group_1233" data-name="Group 1233" transform="translate(-342.222 -2769.043)">
    <g id="Group_1193" data-name="Group 1193">
      <g id="Ellipse_1587" data-name="Ellipse 1587" transform="translate(401.392 3025.397)" stroke="#333132" stroke-width="2.257" fill="url(#linear-gradient)">
        <circle cx="46.702" cy="46.702" r="46.702" stroke="none"/>
        <circle cx="46.702" cy="46.702" r="45.573" fill="none"/>
      </g>
      <g id="Group_1192" data-name="Group 1192">
        <g id="Group_1185" data-name="Group 1185">
          <path id="Path_40199" data-name="Path 40199" d="M454.643,3079.347c1-1.744,1.9-3.32,2.976-5.194,1.5.854,3.1,1.7,4.618,2.663a2.064,2.064,0,0,0,2.562-.037,10.4,10.4,0,0,1,14.437,14.288,10.439,10.439,0,0,1-19.149-7.06,1.748,1.748,0,0,0-1.04-2.1C457.546,3081.106,456.1,3080.2,454.643,3079.347Z" fill="#333132"/>
        </g>
        <g id="Group_1186" data-name="Group 1186">
          <path id="Path_40200" data-name="Path 40200" d="M438.71,3074.4l2.977,5.176a28.085,28.085,0,0,1-3.157,1.859c-1.855.807-2.5,1.97-2.4,4.085a10.066,10.066,0,0,1-7.535,10.012,10.405,10.405,0,0,1-10.05-17.513,10.188,10.188,0,0,1,12.793-1.265,2.433,2.433,0,0,0,3.2.087C435.825,3075.943,437.247,3075.239,438.71,3074.4Z" fill="#333132"/>
        </g>
        <g id="Group_1187" data-name="Group 1187">
          <path id="Path_40201" data-name="Path 40201" d="M451.007,3063.176H444.86c0-1.42-.082-2.8.023-4.168a2.459,2.459,0,0,0-1.671-2.766,10.208,10.208,0,0,1-5.826-10.088,10.47,10.47,0,0,1,20.007-3.382,10.142,10.142,0,0,1-4.265,13.043c-1.758.961-2.337,2-2.143,3.834A34.558,34.558,0,0,1,451.007,3063.176Z" fill="#333132"/>
        </g>
        <g id="Group_1188" data-name="Group 1188">
          <path id="Path_40202" data-name="Path 40202" d="M456.406,3072.28a8.322,8.322,0,1,1-8.38-8.278A8.212,8.212,0,0,1,456.406,3072.28Z" fill="#333132"/>
        </g>
        <g id="Group_1189" data-name="Group 1189">
          <path id="Path_40203" data-name="Path 40203" d="M461.787,3074.954c-1.992-.94-4.056-1.332-4.3-4.445a8.54,8.54,0,0,0-3.117-5.38c-2.3-1.782-1.895-3.673-1.6-5.846C458.719,3059.738,464.344,3069.481,461.787,3074.954Z" fill="#333132"/>
        </g>
        <g id="Group_1190" data-name="Group 1190">
          <path id="Path_40204" data-name="Path 40204" d="M438.885,3082.874c1.918-1.442,3.413-2.843,6.128-1.544a7.629,7.629,0,0,0,5.669.13c2.681-1.164,4.415-.158,6.291,1.3C454.933,3086.881,444.025,3088.582,438.885,3082.874Z" fill="#333132"/>
        </g>
        <g id="Group_1191" data-name="Group 1191">
          <path id="Path_40205" data-name="Path 40205" d="M443.535,3059.161c.319,2.23.768,4.178-1.7,5.936a8.467,8.467,0,0,0-3.046,5.212c-.417,2.9-2.278,3.6-4.38,4.467C432.046,3069.079,437.482,3059.761,443.535,3059.161Z" fill="#333132"/>
        </g>
      </g>
      <path id="Path_40206" data-name="Path 40206" d="M423.338,3111.649l51.764-77.6a46.663,46.663,0,1,0-51.764,77.6Z" fill="#fff" opacity="0.1"/>
      <g id="Ellipse_1588" data-name="Ellipse 1588" transform="translate(405.886 3029.892)" fill="none" stroke="#333132" stroke-width="0.553">
        <circle cx="42.207" cy="42.207" r="42.207" stroke="none"/>
        <circle cx="42.207" cy="42.207" r="41.931" fill="none"/>
      </g>
    </g>
    <g id="Group_1195" data-name="Group 1195">
      <g id="Ellipse_1589" data-name="Ellipse 1589" transform="translate(1148.252 2790.227)" stroke="#333132" stroke-width="2.257" fill="url(#linear-gradient)">
        <circle cx="46.702" cy="46.702" r="46.702" stroke="none"/>
        <circle cx="46.702" cy="46.702" r="45.573" fill="none"/>
      </g>
      <g id="Ellipse_1590" data-name="Ellipse 1590" transform="translate(1152.746 2794.722)" fill="none" stroke="#333132" stroke-width="0.553">
        <circle cx="42.207" cy="42.207" r="42.207" stroke="none"/>
        <circle cx="42.207" cy="42.207" r="41.931" fill="none"/>
      </g>
      <g id="Group_1194" data-name="Group 1194">
        <path id="Path_40207" data-name="Path 40207" d="M1221.411,2833.227c4.376-5.841,5.646-10.951,3.573-14.394-1.567-2.6-4.879-3.966-9.585-3.966a36.02,36.02,0,0,0-8.619,1.2c-2.637-8.66-6.906-14.191-11.817-14.191-4.677,0-8.775,5.027-11.43,12.992a31.621,31.621,0,0,0-8.931-1.533c-3.844,0-6.686,1.144-8.223,3.307-2.326,3.276-1.442,8.47,2.489,14.62a47.682,47.682,0,0,0,3.566,4.824,47.184,47.184,0,0,0-3.915,4.542c-4.379,5.842-5.647,10.952-3.574,14.394,1.565,2.6,4.881,3.971,9.582,3.971h0a36.255,36.255,0,0,0,8.621-1.2c2.636,8.655,6.9,14.186,11.812,14.186,4.682,0,8.78-5.022,11.435-12.992a31.557,31.557,0,0,0,8.931,1.533c3.842,0,6.686-1.144,8.223-3.308,3.053-4.3.464-11.7-6.041-19.459A47.182,47.182,0,0,0,1221.411,2833.227Zm-6.012-17.007c2.931,0,6.77.576,8.422,3.316,1.744,2.891.469,7.588-3.5,12.877a45.663,45.663,0,0,1-3.7,4.308,70.986,70.986,0,0,0-7.366-7.179,67.8,67.8,0,0,0-2.1-12.174A34.749,34.749,0,0,1,1215.4,2816.22Zm-13.59,32.063a82.156,82.156,0,0,1-7.41,3.966,82.06,82.06,0,0,1-7.108-4.51c-1.853-1.318-3.628-2.685-5.3-4.089-.184-2.181-.278-4.428-.278-6.719,0-2.5.118-4.955.333-7.317,1.922-1.4,3.95-2.757,6.079-4.038a83.306,83.306,0,0,1,7.405-3.968,81.533,81.533,0,0,1,7.107,4.511c1.866,1.322,3.641,2.7,5.31,4.106.178,2.172.277,4.415.277,6.706,0,2.5-.12,4.951-.334,7.314C1205.966,2845.647,1203.933,2847,1201.809,2848.283Zm5.891-2.235a64.321,64.321,0,0,1-2.255,11.221,63.146,63.146,0,0,1-9.588-4.218c2.218-1.079,4.446-2.278,6.651-3.61C1204.306,2848.359,1206.042,2847.223,1207.7,2846.048Zm-14.813,6.9a64.5,64.5,0,0,1-8.732,3.183,65.932,65.932,0,0,1-1.981-10.573q2.079,1.694,4.336,3.292C1188.611,2850.336,1190.747,2851.7,1192.887,2852.945Zm-12.364-10.558a67.639,67.639,0,0,1-6.251-6.231,67.932,67.932,0,0,1,6.306-5.447q-.222,3.019-.227,6.222C1180.351,2838.789,1180.411,2840.612,1180.523,2842.387Zm1.706-14.576a63.9,63.9,0,0,1,2.256-11.221,63.361,63.361,0,0,1,9.588,4.217c-2.219,1.08-4.45,2.279-6.649,3.609C1185.619,2825.5,1183.889,2826.639,1182.229,2827.811Zm14.816-6.893a63.964,63.964,0,0,1,8.729-3.189,65.763,65.763,0,0,1,1.982,10.565c-1.377-1.111-2.826-2.211-4.335-3.283C1201.32,2823.522,1199.18,2822.157,1197.045,2820.918Zm12.363,10.577a68.085,68.085,0,0,1,6.218,6.234,67.1,67.1,0,0,1-6.273,5.42c.142-2.012.221-4.089.221-6.218Q1209.574,2834.15,1209.408,2831.5Zm-14.445-28.258c4.182,0,7.985,5.229,10.431,13.2a67.1,67.1,0,0,0-9.8,3.654,65.991,65.991,0,0,0-10.7-4.781C1187.348,2807.977,1190.985,2803.237,1194.963,2803.237Zm-27.476,14.195c1.266-1.791,3.728-2.736,7.115-2.736a30.159,30.159,0,0,1,8.521,1.461,65.917,65.917,0,0,0-2.4,12.737,70.444,70.444,0,0,0-7.333,6.227,45.241,45.241,0,0,1-3.383-4.586C1166.451,2824.959,1165.529,2820.183,1167.487,2817.432Zm7.043,40.205h0c-2.931,0-6.771-.576-8.418-3.315-1.743-2.89-.468-7.584,3.5-12.878a45.788,45.788,0,0,1,3.713-4.322,70.559,70.559,0,0,0,7.346,7.182,68.073,68.073,0,0,0,2.109,12.185A34.526,34.526,0,0,1,1174.53,2857.637Zm20.433,12.987c-4.18,0-7.982-5.231-10.431-13.2a67.557,67.557,0,0,0,9.8-3.656,65.936,65.936,0,0,0,10.7,4.785C1202.58,2865.884,1198.946,2870.624,1194.963,2870.624Zm27.48-14.2c-1.271,1.792-3.733,2.736-7.114,2.736a30.114,30.114,0,0,1-8.525-1.462,65.659,65.659,0,0,0,2.4-12.737,70.665,70.665,0,0,0,7.307-6.2C1222.464,2845.945,1225.047,2852.758,1222.443,2856.426Z" fill="#333132"/>
        <circle id="Ellipse_1591" data-name="Ellipse 1591" cx="4.672" cy="4.672" r="4.672" transform="translate(1190.292 2832.257)" fill="#333132"/>
        <circle id="Ellipse_1592" data-name="Ellipse 1592" cx="2.336" cy="2.336" r="2.336" transform="translate(1170.879 2808.596)" fill="#333132"/>
        <circle id="Ellipse_1593" data-name="Ellipse 1593" cx="2.336" cy="2.336" r="2.336" transform="translate(1225.101 2824.84)" fill="#333132"/>
        <circle id="Ellipse_1594" data-name="Ellipse 1594" cx="2.336" cy="2.336" r="2.336" transform="translate(1180.593 2861.377)" fill="#333132"/>
      </g>
      <path id="Path_40208" data-name="Path 40208" d="M1170.2,2876.478l51.764-77.6a46.663,46.663,0,1,0-51.764,77.6Z" fill="#fff" opacity="0.1"/>
    </g>
    <g id="Group_1201" data-name="Group 1201">
      <g id="Ellipse_1595" data-name="Ellipse 1595" transform="translate(903.64 3025.397)" stroke="#333132" stroke-width="2.257" fill="url(#linear-gradient)">
        <circle cx="46.702" cy="46.702" r="46.702" stroke="none"/>
        <circle cx="46.702" cy="46.702" r="45.573" fill="none"/>
      </g>
      <g id="Ellipse_1596" data-name="Ellipse 1596" transform="translate(908.134 3029.892)" fill="none" stroke="#333132" stroke-width="0.553">
        <circle cx="42.207" cy="42.207" r="42.207" stroke="none"/>
        <circle cx="42.207" cy="42.207" r="41.931" fill="none"/>
      </g>
      <g id="Group_1200" data-name="Group 1200">
        <g id="Group_1196" data-name="Group 1196">
          <path id="Path_40209" data-name="Path 40209" d="M945.268,3062.167c-1.514,2.022-2.886,3.809-4.2,5.64a4.237,4.237,0,0,0-.494,1.421c-.692,2.717-.687,2.726-3.463,2.7-6.337-.048-12.674-.123-19.011-.14-1.241,0-1.834-.308-1.724-1.713.919-11.74,6.223-20.865,16.142-27.272a4.313,4.313,0,0,1,.59-.316,2.329,2.329,0,0,1,.478-.067Z" fill="#333132"/>
        </g>
        <g id="Group_1197" data-name="Group 1197">
          <path id="Path_40210" data-name="Path 40210" d="M955.163,3062.718c.4-.716.687-1.254,1-1.778,3.392-5.74,6.816-11.461,10.158-17.23.67-1.156,1.148-1.493,2.4-.647,9.482,6.426,14.736,15.28,15.583,26.717.041.551.005,1.107.005,1.848-.6.054-1.139.139-1.674.144-6.785.064-13.571.095-20.356.192-1.214.017-1.739-.239-1.9-1.61A9.9,9.9,0,0,0,955.163,3062.718Z" fill="#333132"/>
        </g>
        <g id="Group_1198" data-name="Group 1198">
          <path id="Path_40211" data-name="Path 40211" d="M955.741,3080.441l11.575,20.458c-9.473,6.236-24.2,6.314-33.781.07.168-.377.312-.787.522-1.161,3.385-6,6.8-11.987,10.148-18.009.6-1.085,1.108-1.377,2.335-.814a9.537,9.537,0,0,0,7.681.053C954.68,3080.859,955.137,3080.678,955.741,3080.441Z" fill="#333132"/>
        </g>
        <g id="Group_1199" data-name="Group 1199">
          <path id="Path_40212" data-name="Path 40212" d="M943.486,3071.67a6.893,6.893,0,1,1,6.855,6.908A7.008,7.008,0,0,1,943.486,3071.67Z" fill="#333132"/>
        </g>
      </g>
      <path id="Path_40213" data-name="Path 40213" d="M925.586,3111.649l51.765-77.6a46.664,46.664,0,1,0-51.765,77.6Z" fill="#fff" opacity="0.1"/>
    </g>
    <g id="Group_1209" data-name="Group 1209">
      <g id="Ellipse_1597" data-name="Ellipse 1597" transform="translate(644.539 2790.227)" stroke="#333132" stroke-width="2.257" fill="url(#linear-gradient)">
        <circle cx="46.702" cy="46.702" r="46.702" stroke="none"/>
        <circle cx="46.702" cy="46.702" r="45.573" fill="none"/>
      </g>
      <g id="Ellipse_1598" data-name="Ellipse 1598" transform="translate(649.033 2794.722)" fill="none" stroke="#333132" stroke-width="0.553">
        <circle cx="42.207" cy="42.207" r="42.207" stroke="none"/>
        <circle cx="42.207" cy="42.207" r="41.931" fill="none"/>
      </g>
      <g id="Group_1208" data-name="Group 1208">
        <g id="Group_1202" data-name="Group 1202">
          <path id="Path_40214" data-name="Path 40214" d="M663.988,2856.633c.481.367.988.7,1.44,1.1a13.578,13.578,0,0,0,16.541,1.191,13.35,13.35,0,0,0,4.947-15.792c-.189-.535-.129-1.6.173-1.768a2.447,2.447,0,0,1,2.018-.032,4.144,4.144,0,0,0,4.267,0,2.458,2.458,0,0,1,2.02.028c.3.161.369,1.231.18,1.763a13.352,13.352,0,0,0,4.936,15.794,13.581,13.581,0,0,0,16.541-1.18c.455-.4.962-.747,1.444-1.119l.455.4a10.994,10.994,0,0,1-1.028,1.583,19.56,19.56,0,0,1-25.014,3.081,2.557,2.557,0,0,0-3.318-.008,19.565,19.565,0,0,1-25.019-3.061,16.387,16.387,0,0,1-1.089-1.469Z" fill="#333132"/>
        </g>
        <g id="Group_1203" data-name="Group 1203">
          <path id="Path_40215" data-name="Path 40215" d="M688.864,2805.9c-.5.214-.994.462-1.511.636-6.22,2.09-9.879,7.449-9.384,13.764.478,6.095,4.975,10.783,11.4,11.972.536.1,1.417.681,1.392.976a2.539,2.539,0,0,1-.97,1.763,4.153,4.153,0,0,0-2.179,3.666,2.964,2.964,0,0,1-1.175,1.862c-.189.15-1.2-.435-1.588-.9a13.462,13.462,0,0,0-16.019-3.634,13.173,13.173,0,0,0-7.4,14.778c.116.6.184,1.2.275,1.8l-.614.234a12.357,12.357,0,0,1-.908-1.829,19.223,19.223,0,0,1,9.859-22.829,2.62,2.62,0,0,0,1.665-2.893,19.278,19.278,0,0,1,15.351-19.916,13.665,13.665,0,0,1,1.635-.16C688.747,2805.436,688.8,2805.67,688.864,2805.9Z" fill="#333132"/>
        </g>
        <g id="Group_1204" data-name="Group 1204">
          <path id="Path_40216" data-name="Path 40216" d="M693.852,2805.158c.565.076,1.138.113,1.693.235a19.234,19.234,0,0,1,15.242,19.64,3,3,0,0,0,1.926,3.272,19.231,19.231,0,0,1,9.618,22.633,16.836,16.836,0,0,1-.81,1.867l-.517-.1a8.576,8.576,0,0,1,.014-1.674c1.517-7.435-2.659-14.251-10.022-15.9a12.991,12.991,0,0,0-13.306,4.458c-.41.466-1.126,1.042-1.62.975-.975-.133-1.388-.9-1.271-2,.17-1.607-.7-2.669-2.04-3.517a2.391,2.391,0,0,1-1.022-1.723c0-.37.921-.961,1.5-1.063a13.207,13.207,0,0,0,1.966-25.708,13.5,13.5,0,0,1-1.573-.756Z" fill="#333132"/>
        </g>
        <g id="Group_1205" data-name="Group 1205">
          <path id="Path_40217" data-name="Path 40217" d="M703.881,2838.532a3,3,0,0,1,4.155-2.846,1.587,1.587,0,0,1,.781,1.026c1.453,6.082-4.33,15.891-10.418,17.642a1.505,1.505,0,0,1-1.3-.443,10.9,10.9,0,0,1-.9-1.944c-.572-1.2-.28-1.871.973-2.524A12.165,12.165,0,0,0,703.881,2838.532Z" fill="#333132"/>
        </g>
        <g id="Group_1206" data-name="Group 1206">
          <path id="Path_40218" data-name="Path 40218" d="M678.616,2839.573c.2,3.789,2.343,7.375,6.45,9.817.6.355,1.538,1.109,1.45,1.465a15.626,15.626,0,0,1-1.579,3.558c-.065.12-.781-.02-1.145-.166-6.158-2.461-10.8-10.176-10.25-16.859.126-1.524.747-1.9,2.2-1.709C678.556,2836.055,678.572,2835.993,678.616,2839.573Z" fill="#333132"/>
        </g>
        <g id="Group_1207" data-name="Group 1207">
          <path id="Path_40219" data-name="Path 40219" d="M702.685,2824.74a29.642,29.642,0,0,1-2.95,3.364c-.29.245-1.286-.134-1.84-.441a12.9,12.9,0,0,0-13.36.03c-.542.3-1.58.628-1.829.381a16.424,16.424,0,0,1-2.294-3.13c-.071-.115.509-.732.874-1,5.584-4.071,14.446-4.048,19.975.016A13.044,13.044,0,0,0,702.685,2824.74Z" fill="#333132"/>
        </g>
      </g>
      <path id="Path_40220" data-name="Path 40220" d="M666.485,2876.478l51.764-77.6a46.663,46.663,0,1,0-51.764,77.6Z" fill="#fff" opacity="0.1"/>
    </g>
    <g id="Group_1212" data-name="Group 1212">
      <g id="Ellipse_1599" data-name="Ellipse 1599" transform="translate(1404.808 3025.397)" stroke="#333132" stroke-width="2.257" fill="url(#linear-gradient)">
        <circle cx="46.702" cy="46.702" r="46.702" stroke="none"/>
        <circle cx="46.702" cy="46.702" r="45.573" fill="none"/>
      </g>
      <g id="Ellipse_1600" data-name="Ellipse 1600" transform="translate(1409.302 3029.892)" fill="none" stroke="#333132" stroke-width="0.553">
        <circle cx="42.207" cy="42.207" r="42.207" stroke="none"/>
        <circle cx="42.207" cy="42.207" r="41.931" fill="none"/>
      </g>
      <g id="Group_1211" data-name="Group 1211">
        <g id="Group_1210" data-name="Group 1210" clip-path="url(#clip-path)">
          <path id="Path_40221" data-name="Path 40221" d="M1442.3,3072.352l-.793-24.106,6.9-14.948Zm28.217-34.746-8.152-3.623-17.243,40.592Zm17.665,22.463-2.848-9.018-36.723,27.488Zm-8.163-12.607-4.52-5.871-22.419,26.933Zm-22.848-17.978-8.76,29.089,8.76-23.791Zm-17.589,20.984-3.353,3.261v20.5Zm-16.619,21.631-6.428-1.341,16.5,10.595Zm27.469,9.254,38.758-9.254-.624-6.854Zm37.814.678.414-3.329s-26.547,3.983-26.806,4.242Zm-1.763,4.116-38.286.952,36.541,4.269Zm-28.271,5.221,36.2,8.826-10.707-4.687Zm1.407,7.889,9.635.937-18.16-7.5Zm-16.59-4.95a13.449,13.449,0,0,0-2.67,1.676c0,1.117,2.421,2.509,3.011,2.509s3.011-2.819,3.011-3.347S1443.816,3094.1,1443.032,3094.307Zm6.631-35.049c-.3-.434-2.707.6-3.232,1.222a13.445,13.445,0,0,0-1.238,2.9c.636.918,3.419.683,3.9.346S1449.964,3059.692,1449.663,3059.258Zm-11.681,29.151c.36,1.007,3.125.255,3.38,0a4.315,4.315,0,0,0-.555-3.056C1440.228,3084.775,1437.751,3087.761,1437.982,3088.409Zm28.8,7.613c-.026-.509-2.417-.159-2.58.238-.253.615,1.34,1.42,1.564,1.408A2.685,2.685,0,0,0,1466.786,3096.022Zm4.378-18.016c-.026-.509-2.417-.159-2.58.237-.253.616,1.34,1.42,1.564,1.409A2.686,2.686,0,0,0,1471.164,3078.006Zm-9.2-13.506c-.636-.364-2.913,2.122-2.625,2.576.448.7,3.2-.161,3.439-.378S1462.6,3064.863,1461.964,3064.5Zm-15.367,23.751c-1.49,0-1.868,1.392-.373,2.173S1447.958,3088.251,1446.6,3088.251Zm-15.879-11.817c1.325.668,1.537-1.859.33-1.859C1429.727,3074.575,1429.392,3075.766,1430.718,3076.434Zm8.707-14.216c1.495.781,1.734-2.173.373-2.173C1438.308,3060.045,1437.93,3061.437,1439.425,3062.218Zm5.464,17.426c-.652-.652-2.221.482-2.7,0s-.09-2.67-1.11-2.67c-1.517,0-1.68,4.439-.9,5.215S1445.54,3080.295,1444.889,3079.644Zm-6.745-5.616c0,.745,2.452.714,3.166,0s-.621-2.359-1.8-2.359C1438.578,3071.669,1438.144,3073.283,1438.144,3074.028Zm16.588,7.615c-.553.5,1.114,2.3,2.122,2.349s1.334-2.042.544-2.917C1456.773,3080.384,1455.284,3081.144,1454.732,3081.643Zm-19.325,7.909c-.543-1.511.822-3.383,3.052-4.234a9.3,9.3,0,0,0-3.392-2.776,4.411,4.411,0,0,1-3.38,2.487.969.969,0,0,1-.12.785,1.06,1.06,0,0,1-1.479.239,1.072,1.072,0,0,1-.454-1.219,4.428,4.428,0,0,1-2.565-2.292,9.274,9.274,0,1,0,9.019,16.161,2.539,2.539,0,0,1-.9-2.62,1.373,1.373,0,0,1,.078-1.51,1.445,1.445,0,0,1,1.156-.685.918.918,0,0,1,.128-.333,1.062,1.062,0,0,1,1.479-.239,1.149,1.149,0,0,1,.374.431,1.186,1.186,0,0,1,.208.231,2.289,2.289,0,0,1,.616.237,2.224,2.224,0,0,1,.366.375,9.251,9.251,0,0,0,.769-3.687C1438.132,3091.618,1435.942,3091.043,1435.407,3089.552Z" fill="#333132"/>
          <path id="Path_40222" data-name="Path 40222" d="M1434.56,3035.248l-4.685,5.995,6.354,40.347Z" fill="#333132"/>
          <path id="Path_40223" data-name="Path 40223" d="M1427.452,3046.483l-4.485,7.427,13.216,29.749Z" fill="#333132"/>
          <path id="Path_40224" data-name="Path 40224" d="M1419.123,3052.825l-2.584,5.217,14.6,21.772Z" fill="#333132"/>
          <path id="Path_40225" data-name="Path 40225" d="M1452.1,3044.61c.441-.3.222-3.5-.152-4.262a9.867,9.867,0,0,0-2.077-2.064c-.933.635-1.479,4.16-1.329,4.826S1451.664,3044.909,1452.1,3044.61Z" fill="#333132"/>
          <path id="Path_40226" data-name="Path 40226" d="M1442.933,3043.27c-.115-.52-3.163-1.5-4.014-1.441a9.84,9.84,0,0,0-2.687,1.162c.243,1.1,3.313,2.918,3.987,3.026S1443.048,3043.79,1442.933,3043.27Z" fill="#333132"/>
        </g>
      </g>
      <path id="Path_40227" data-name="Path 40227" d="M1426.754,3111.649l51.764-77.6a46.663,46.663,0,1,0-51.764,77.6Z" fill="#fff" opacity="0.1"/>
    </g>
    <g id="Group_1214" data-name="Group 1214">
      <g id="Group_1213" data-name="Group 1213">
        <path id="Path_40228" data-name="Path 40228" d="M418.423,3143.328a6.088,6.088,0,0,1-2.188-.386,5.072,5.072,0,0,1-2.907-2.769,5.561,5.561,0,0,1,0-4.216,5.036,5.036,0,0,1,1.162-1.672,5.241,5.241,0,0,1,1.753-1.1,6.063,6.063,0,0,1,2.195-.385,6,6,0,0,1,2.391.458,4.648,4.648,0,0,1,1.8,1.345l-1.512,1.4a3.553,3.553,0,0,0-1.163-.894,3.277,3.277,0,0,0-1.4-.3,3.566,3.566,0,0,0-1.308.233,2.962,2.962,0,0,0-1.033.669,3.036,3.036,0,0,0-.675,1.032,3.752,3.752,0,0,0,0,2.646,3.055,3.055,0,0,0,.675,1.032,2.962,2.962,0,0,0,1.033.669,3.571,3.571,0,0,0,1.308.232,3.263,3.263,0,0,0,1.4-.3,3.457,3.457,0,0,0,1.163-.908l1.512,1.4a4.716,4.716,0,0,1-1.8,1.352A5.968,5.968,0,0,1,418.423,3143.328Z" fill="#383838"/>
        <path id="Path_40229" data-name="Path 40229" d="M428.8,3135.215a3.65,3.65,0,0,1,1.665.371,2.689,2.689,0,0,1,1.156,1.134,4.02,4.02,0,0,1,.422,1.955v4.478h-2.269v-4.129a2.013,2.013,0,0,0-.414-1.4,1.51,1.51,0,0,0-1.17-.45,2.047,2.047,0,0,0-.967.225,1.564,1.564,0,0,0-.669.691,2.592,2.592,0,0,0-.24,1.192v3.867h-2.268v-10.788h2.268v5.133l-.509-.655a2.906,2.906,0,0,1,1.207-1.206A3.724,3.724,0,0,1,428.8,3135.215Z" fill="#383838"/>
        <path id="Path_40230" data-name="Path 40230" d="M438.035,3143.269a5.036,5.036,0,0,1-2.348-.523,3.859,3.859,0,0,1-1.562-1.432,3.9,3.9,0,0,1-.553-2.072,3.979,3.979,0,0,1,.545-2.086,3.867,3.867,0,0,1,1.49-1.425,4.669,4.669,0,0,1,4.209-.029,3.651,3.651,0,0,1,1.462,1.4,4.2,4.2,0,0,1,.537,2.173c0,.088,0,.187-.014.3s-.02.216-.029.313h-6.354v-1.323h5.162l-.872.393a2.173,2.173,0,0,0-.248-1.062,1.809,1.809,0,0,0-.683-.7,1.991,1.991,0,0,0-1.018-.254,2.032,2.032,0,0,0-1.025.254,1.767,1.767,0,0,0-.69.713,2.244,2.244,0,0,0-.248,1.083v.349a2.2,2.2,0,0,0,.284,1.126,1.856,1.856,0,0,0,.8.742,2.726,2.726,0,0,0,1.214.254,2.944,2.944,0,0,0,1.1-.189,2.677,2.677,0,0,0,.865-.567l1.207,1.309a3.51,3.51,0,0,1-1.352.937A5.006,5.006,0,0,1,438.035,3143.269Z" fill="#383838"/>
        <path id="Path_40231" data-name="Path 40231" d="M453.344,3135.215a3.562,3.562,0,0,1,1.651.371,2.674,2.674,0,0,1,1.134,1.134,4.08,4.08,0,0,1,.414,1.955v4.478h-2.268v-4.129a2.087,2.087,0,0,0-.393-1.4,1.388,1.388,0,0,0-1.1-.45,1.746,1.746,0,0,0-.886.225,1.51,1.51,0,0,0-.611.676,2.644,2.644,0,0,0-.218,1.149v3.925h-2.268v-4.129a2.121,2.121,0,0,0-.385-1.4,1.367,1.367,0,0,0-1.1-.45,1.75,1.75,0,0,0-.887.225,1.516,1.516,0,0,0-.611.676,2.644,2.644,0,0,0-.218,1.149v3.925h-2.268v-7.821h2.167v2.136l-.408-.625a2.812,2.812,0,0,1,1.156-1.214,3.474,3.474,0,0,1,1.709-.414,3.284,3.284,0,0,1,1.882.545,2.64,2.64,0,0,1,1.069,1.665l-.8-.218a3.133,3.133,0,0,1,1.258-1.454A3.683,3.683,0,0,1,453.344,3135.215Z" fill="#383838"/>
        <path id="Path_40232" data-name="Path 40232" d="M459.712,3134.241a1.441,1.441,0,0,1-1.018-.363,1.233,1.233,0,0,1,0-1.8,1.443,1.443,0,0,1,1.018-.364,1.494,1.494,0,0,1,1.018.342,1.113,1.113,0,0,1,.393.88,1.244,1.244,0,0,1-.386.937A1.417,1.417,0,0,1,459.712,3134.241Zm-1.134,8.912v-7.821h2.268v7.821Z" fill="#383838"/>
        <path id="Path_40233" data-name="Path 40233" d="M466.734,3143.269a4.8,4.8,0,0,1-2.253-.516,3.946,3.946,0,0,1,0-7.022,4.8,4.8,0,0,1,2.253-.516,4.313,4.313,0,0,1,2.152.516,3.14,3.14,0,0,1,1.352,1.476l-1.759.945a2.045,2.045,0,0,0-.763-.814,1.971,1.971,0,0,0-1-.262,2.094,2.094,0,0,0-1.047.262,1.889,1.889,0,0,0-.734.741,2.649,2.649,0,0,0,0,2.326,1.9,1.9,0,0,0,.734.742,2.1,2.1,0,0,0,1.047.262,2.015,2.015,0,0,0,1-.255,1.971,1.971,0,0,0,.763-.821l1.759.959a3.152,3.152,0,0,1-1.352,1.461A4.314,4.314,0,0,1,466.734,3143.269Z" fill="#383838"/>
        <path id="Path_40234" data-name="Path 40234" d="M473.96,3143.269a3.618,3.618,0,0,1-1.57-.312,2.38,2.38,0,0,1-1-.851,2.305,2.305,0,0,1-.007-2.428,2.242,2.242,0,0,1,1.083-.821,5.259,5.259,0,0,1,1.934-.3h2.079v1.323h-1.832a1.7,1.7,0,0,0-1.1.262.835.835,0,0,0-.3.654.813.813,0,0,0,.342.69,1.535,1.535,0,0,0,.938.255,1.938,1.938,0,0,0,1.017-.269,1.54,1.54,0,0,0,.655-.792l.348,1.046a2.021,2.021,0,0,1-.9,1.149A3.237,3.237,0,0,1,473.96,3143.269Zm2.384-.116v-1.526l-.145-.335v-2.733a1.46,1.46,0,0,0-.444-1.134,1.959,1.959,0,0,0-1.359-.407,3.941,3.941,0,0,0-1.229.2,3.249,3.249,0,0,0-1.025.531l-.814-1.585a4.93,4.93,0,0,1,1.541-.7,6.939,6.939,0,0,1,1.832-.247,4.153,4.153,0,0,1,2.777.843,3.275,3.275,0,0,1,.989,2.632v4.463Z" fill="#383838"/>
        <path id="Path_40235" data-name="Path 40235" d="M480.516,3143.153v-10.788h2.269v10.788Z" fill="#383838"/>
      </g>
    </g>
    <g id="Group_1216" data-name="Group 1216">
      <g id="Group_1215" data-name="Group 1215">
        <path id="Path_40236" data-name="Path 40236" d="M654.744,2780.485v-10.177h4.972a4.769,4.769,0,0,1,2.886.727,2.288,2.288,0,0,1,.967,1.919,2.44,2.44,0,0,1-.393,1.388,2.565,2.565,0,0,1-1.076.909,3.646,3.646,0,0,1-1.57.32l.277-.6a4.358,4.358,0,0,1,1.7.312,2.554,2.554,0,0,1,1.155.924,2.6,2.6,0,0,1,.415,1.5,2.365,2.365,0,0,1-1.033,2.043,5.228,5.228,0,0,1-3.038.734Zm2.34-1.774h2.749a2.625,2.625,0,0,0,1.388-.3,1.041,1.041,0,0,0,.472-.952,1.061,1.061,0,0,0-.472-.952,2.522,2.522,0,0,0-1.388-.313H656.91v-1.715h2.515a2.41,2.41,0,0,0,1.316-.3,1.006,1.006,0,0,0,.458-.908,1,1,0,0,0-.458-.894,2.413,2.413,0,0,0-1.316-.3h-2.341Z" fill="#383838"/>
        <path id="Path_40237" data-name="Path 40237" d="M666.84,2771.573a1.437,1.437,0,0,1-1.018-.364,1.231,1.231,0,0,1,0-1.8,1.437,1.437,0,0,1,1.018-.364,1.5,1.5,0,0,1,1.018.342,1.114,1.114,0,0,1,.392.879,1.245,1.245,0,0,1-.385.938A1.418,1.418,0,0,1,666.84,2771.573Zm-1.134,8.912v-7.822h2.268v7.822Z" fill="#383838"/>
        <path id="Path_40238" data-name="Path 40238" d="M673.8,2780.6a4.581,4.581,0,0,1-2.217-.523,3.987,3.987,0,0,1-1.527-1.432,4.145,4.145,0,0,1,0-4.158,3.934,3.934,0,0,1,1.527-1.425,5.007,5.007,0,0,1,4.427,0,3.881,3.881,0,0,1,1.526,1.418,3.978,3.978,0,0,1-1.526,5.6A4.591,4.591,0,0,1,673.8,2780.6Zm0-1.861a2,2,0,0,0,1.018-.261,1.865,1.865,0,0,0,.712-.749,2.7,2.7,0,0,0,0-2.319,1.871,1.871,0,0,0-.712-.741,2.109,2.109,0,0,0-2.036,0,1.921,1.921,0,0,0-.719.741,2.633,2.633,0,0,0,0,2.319,1.915,1.915,0,0,0,.719.749A2,2,0,0,0,673.8,2778.74Z" fill="#383838"/>
        <path id="Path_40239" data-name="Path 40239" d="M679.6,2780.485V2769.7h2.269v10.788Z" fill="#383838"/>
        <path id="Path_40240" data-name="Path 40240" d="M687.7,2780.6a4.578,4.578,0,0,1-2.217-.523,3.98,3.98,0,0,1-1.527-1.432,4.146,4.146,0,0,1,0-4.158,3.927,3.927,0,0,1,1.527-1.425,5.007,5.007,0,0,1,4.427,0,3.881,3.881,0,0,1,1.526,1.418,3.978,3.978,0,0,1-1.526,5.6A4.6,4.6,0,0,1,687.7,2780.6Zm0-1.861a2,2,0,0,0,1.018-.261,1.865,1.865,0,0,0,.712-.749,2.7,2.7,0,0,0,0-2.319,1.871,1.871,0,0,0-.712-.741,2.109,2.109,0,0,0-2.036,0,1.922,1.922,0,0,0-.719.741,2.634,2.634,0,0,0,0,2.319,1.916,1.916,0,0,0,.719.749A2,2,0,0,0,687.7,2778.74Z" fill="#383838"/>
        <path id="Path_40241" data-name="Path 40241" d="M696.833,2780.107a4.1,4.1,0,0,1-1.97-.473,3.863,3.863,0,0,1-1.41-5.306,3.634,3.634,0,0,1,1.41-1.316,4.147,4.147,0,0,1,1.97-.465,3.671,3.671,0,0,1,1.744.4,2.747,2.747,0,0,1,1.178,1.235,5.625,5.625,0,0,1,0,4.275,2.792,2.792,0,0,1-1.178,1.243A3.628,3.628,0,0,1,696.833,2780.107Zm.349,3.315a8.37,8.37,0,0,1-2.13-.269,4.646,4.646,0,0,1-1.709-.807l.9-1.628a3.709,3.709,0,0,0,1.257.647,5,5,0,0,0,1.505.239,2.42,2.42,0,0,0,1.752-.538,2.151,2.151,0,0,0,.545-1.6v-1.177l.145-1.963-.028-1.977v-1.687h2.151v6.514a4.14,4.14,0,0,1-1.134,3.212A4.668,4.668,0,0,1,697.182,2783.422Zm.1-5.176a2.286,2.286,0,0,0,1.062-.24,1.776,1.776,0,0,0,.726-.676,2.064,2.064,0,0,0,0-2.013,1.794,1.794,0,0,0-.726-.669,2.468,2.468,0,0,0-2.123,0,1.808,1.808,0,0,0-1,1.679,1.875,1.875,0,0,0,.269,1,1.829,1.829,0,0,0,.734.676A2.282,2.282,0,0,0,697.283,2778.246Z" fill="#383838"/>
        <path id="Path_40242" data-name="Path 40242" d="M704.814,2771.573a1.435,1.435,0,0,1-1.017-.364,1.229,1.229,0,0,1,0-1.8,1.435,1.435,0,0,1,1.017-.364,1.494,1.494,0,0,1,1.018.342,1.112,1.112,0,0,1,.393.879,1.246,1.246,0,0,1-.386.938A1.416,1.416,0,0,1,704.814,2771.573Zm-1.134,8.912v-7.822h2.268v7.822Z" fill="#383838"/>
        <path id="Path_40243" data-name="Path 40243" d="M711.837,2780.6a4.8,4.8,0,0,1-2.254-.516,3.946,3.946,0,0,1,0-7.022,4.8,4.8,0,0,1,2.254-.516,4.312,4.312,0,0,1,2.151.516,3.14,3.14,0,0,1,1.352,1.476l-1.759.945a2.046,2.046,0,0,0-.763-.814,1.971,1.971,0,0,0-1-.262,2.094,2.094,0,0,0-1.047.262,1.89,1.89,0,0,0-.734.741,2.649,2.649,0,0,0,0,2.326,1.9,1.9,0,0,0,.734.742,2.1,2.1,0,0,0,1.047.261,2.014,2.014,0,0,0,1-.254,1.975,1.975,0,0,0,.763-.822l1.759.96a3.154,3.154,0,0,1-1.352,1.461A4.312,4.312,0,0,1,711.837,2780.6Z" fill="#383838"/>
        <path id="Path_40244" data-name="Path 40244" d="M719.062,2780.6a3.618,3.618,0,0,1-1.57-.312,2.384,2.384,0,0,1-1-.851,2.3,2.3,0,0,1-.008-2.428,2.237,2.237,0,0,1,1.084-.821,5.249,5.249,0,0,1,1.933-.3h2.079v1.323h-1.832a1.7,1.7,0,0,0-1.1.261.836.836,0,0,0-.3.655.814.814,0,0,0,.342.69,1.537,1.537,0,0,0,.938.255,1.945,1.945,0,0,0,1.017-.269,1.541,1.541,0,0,0,.655-.793l.348,1.047a2.02,2.02,0,0,1-.9,1.149A3.247,3.247,0,0,1,719.062,2780.6Zm2.384-.116v-1.527l-.145-.334v-2.733a1.463,1.463,0,0,0-.443-1.134,1.96,1.96,0,0,0-1.36-.407,3.941,3.941,0,0,0-1.228.2,3.237,3.237,0,0,0-1.025.531l-.815-1.585a4.924,4.924,0,0,1,1.541-.7,6.889,6.889,0,0,1,1.832-.247,4.151,4.151,0,0,1,2.777.843,3.273,3.273,0,0,1,.989,2.632v4.463Z" fill="#383838"/>
        <path id="Path_40245" data-name="Path 40245" d="M725.619,2780.485V2769.7h2.268v10.788Z" fill="#383838"/>
      </g>
    </g>
    <g id="Group_1218" data-name="Group 1218">
      <g id="Group_1217" data-name="Group 1217">
        <path id="Path_40246" data-name="Path 40246" d="M904.556,3140.391v-10.177h4.4a5.737,5.737,0,0,1,2.356.443,3.449,3.449,0,0,1,1.526,1.272,3.552,3.552,0,0,1,.538,1.978,3.483,3.483,0,0,1-.538,1.955,3.417,3.417,0,0,1-1.526,1.258,5.826,5.826,0,0,1-2.356.436h-3.1l1.046-1.033v3.868Zm2.355-3.606-1.046-1.1h2.966a2.41,2.41,0,0,0,1.628-.472,1.852,1.852,0,0,0,0-2.61,2.438,2.438,0,0,0-1.628-.465h-2.966l1.046-1.12Zm4.115,3.606-2.544-3.693H911l2.573,3.693Z" fill="#383838"/>
        <path id="Path_40247" data-name="Path 40247" d="M917.423,3140.507a3.607,3.607,0,0,1-1.57-.313,2.377,2.377,0,0,1-1-.85,2.166,2.166,0,0,1-.349-1.207,2.189,2.189,0,0,1,.341-1.221,2.232,2.232,0,0,1,1.084-.821,5.249,5.249,0,0,1,1.933-.3h2.079v1.323h-1.832a1.7,1.7,0,0,0-1.1.261.835.835,0,0,0-.3.655.817.817,0,0,0,.341.69,1.539,1.539,0,0,0,.938.255,1.951,1.951,0,0,0,1.018-.269,1.547,1.547,0,0,0,.654-.793l.349,1.047a2.028,2.028,0,0,1-.9,1.149A3.253,3.253,0,0,1,917.423,3140.507Zm2.385-.116v-1.527l-.146-.334V3135.8a1.463,1.463,0,0,0-.443-1.134,1.955,1.955,0,0,0-1.36-.407,3.942,3.942,0,0,0-1.228.2,3.248,3.248,0,0,0-1.025.531l-.814-1.585a4.882,4.882,0,0,1,1.541-.7,6.878,6.878,0,0,1,1.832-.247,4.155,4.155,0,0,1,2.777.843,3.275,3.275,0,0,1,.988,2.631v4.464Z" fill="#383838"/>
        <path id="Path_40248" data-name="Path 40248" d="M927.4,3140.507a3.968,3.968,0,0,1-1.992-.5,3.675,3.675,0,0,1-1.4-1.4,4.654,4.654,0,0,1,0-4.26,3.633,3.633,0,0,1,1.4-1.4,4.027,4.027,0,0,1,1.992-.494,3.346,3.346,0,0,1,1.73.436,2.876,2.876,0,0,1,1.149,1.323,5.464,5.464,0,0,1,.407,2.268,5.641,5.641,0,0,1-.393,2.261,2.8,2.8,0,0,1-1.126,1.33A3.4,3.4,0,0,1,927.4,3140.507Zm.392-1.861a1.958,1.958,0,0,0,1-.262,1.907,1.907,0,0,0,.719-.748,2.625,2.625,0,0,0,0-2.319,1.931,1.931,0,0,0-.719-.742,1.967,1.967,0,0,0-1-.261,1.989,1.989,0,0,0-1.017.261,1.933,1.933,0,0,0-.72.742,2.633,2.633,0,0,0,0,2.319,1.908,1.908,0,0,0,.72.748A1.98,1.98,0,0,0,927.788,3138.646Zm2.051,1.745v-1.6l.043-2.327-.145-2.311V3129.6h2.268v10.788Z" fill="#383838"/>
        <path id="Path_40249" data-name="Path 40249" d="M935.232,3131.479a1.437,1.437,0,0,1-1.018-.364,1.232,1.232,0,0,1,0-1.8,1.437,1.437,0,0,1,1.018-.364,1.494,1.494,0,0,1,1.018.342,1.111,1.111,0,0,1,.393.879,1.246,1.246,0,0,1-.386.938A1.418,1.418,0,0,1,935.232,3131.479Zm-1.134,8.912v-7.822h2.268v7.822Z" fill="#383838"/>
        <path id="Path_40250" data-name="Path 40250" d="M942.2,3140.507a4.578,4.578,0,0,1-2.217-.523,3.979,3.979,0,0,1-1.527-1.432,4.145,4.145,0,0,1,0-4.158,3.926,3.926,0,0,1,1.527-1.425,5,5,0,0,1,4.427,0,3.879,3.879,0,0,1,1.526,1.417,3.978,3.978,0,0,1-1.526,5.6A4.591,4.591,0,0,1,942.2,3140.507Zm0-1.861a1.986,1.986,0,0,0,1.018-.262,1.857,1.857,0,0,0,.712-.748,2.7,2.7,0,0,0,0-2.319,1.88,1.88,0,0,0-.712-.742,2.116,2.116,0,0,0-2.036,0,1.931,1.931,0,0,0-.719.742,2.634,2.634,0,0,0,0,2.319,1.907,1.907,0,0,0,.719.748A1.986,1.986,0,0,0,942.2,3138.646Z" fill="#383838"/>
        <path id="Path_40251" data-name="Path 40251" d="M948,3140.391V3129.6h2.268v10.788Z" fill="#383838"/>
        <path id="Path_40252" data-name="Path 40252" d="M956.095,3140.507a4.578,4.578,0,0,1-2.217-.523,3.979,3.979,0,0,1-1.527-1.432,4.145,4.145,0,0,1,0-4.158,3.926,3.926,0,0,1,1.527-1.425,5,5,0,0,1,4.426,0,3.966,3.966,0,0,1,0,7.015A4.59,4.59,0,0,1,956.095,3140.507Zm0-1.861a1.986,1.986,0,0,0,1.018-.262,1.863,1.863,0,0,0,.712-.748,2.7,2.7,0,0,0,0-2.319,1.886,1.886,0,0,0-.712-.742,2.116,2.116,0,0,0-2.036,0,1.94,1.94,0,0,0-.72.742,2.642,2.642,0,0,0,0,2.319,1.915,1.915,0,0,0,.72.748A1.983,1.983,0,0,0,956.095,3138.646Z" fill="#383838"/>
        <path id="Path_40253" data-name="Path 40253" d="M965.226,3140.013a4.093,4.093,0,0,1-1.97-.473,3.863,3.863,0,0,1-1.411-5.306,3.644,3.644,0,0,1,1.411-1.316,4.145,4.145,0,0,1,1.97-.465,3.671,3.671,0,0,1,1.744.4,2.747,2.747,0,0,1,1.178,1.235,5.638,5.638,0,0,1,0,4.275,2.8,2.8,0,0,1-1.178,1.243A3.628,3.628,0,0,1,965.226,3140.013Zm.349,3.315a8.369,8.369,0,0,1-2.13-.269,4.646,4.646,0,0,1-1.709-.807l.9-1.628a3.713,3.713,0,0,0,1.258.646,5,5,0,0,0,1.505.24,2.414,2.414,0,0,0,1.751-.538,2.148,2.148,0,0,0,.546-1.6V3138.2l.146-1.962-.03-1.977v-1.687h2.152v6.513a4.141,4.141,0,0,1-1.134,3.213A4.675,4.675,0,0,1,965.575,3143.328Zm.1-5.176a2.289,2.289,0,0,0,1.062-.24,1.785,1.785,0,0,0,.727-.676,2.074,2.074,0,0,0,0-2.014,1.8,1.8,0,0,0-.727-.668,2.47,2.47,0,0,0-2.124,0,1.891,1.891,0,0,0,0,3.358A2.286,2.286,0,0,0,965.676,3138.152Z" fill="#383838"/>
        <path id="Path_40254" data-name="Path 40254" d="M973.207,3131.479a1.437,1.437,0,0,1-1.018-.364,1.229,1.229,0,0,1,0-1.8,1.437,1.437,0,0,1,1.018-.364,1.491,1.491,0,0,1,1.017.342,1.111,1.111,0,0,1,.393.879,1.249,1.249,0,0,1-.385.938A1.419,1.419,0,0,1,973.207,3131.479Zm-1.134,8.912v-7.822h2.268v7.822Z" fill="#383838"/>
        <path id="Path_40255" data-name="Path 40255" d="M980.229,3140.507a4.8,4.8,0,0,1-2.253-.516,3.946,3.946,0,0,1,0-7.022,4.8,4.8,0,0,1,2.253-.516,4.307,4.307,0,0,1,2.151.516,3.147,3.147,0,0,1,1.353,1.476l-1.759.945a2.051,2.051,0,0,0-.764-.815,1.975,1.975,0,0,0-1-.261,2.107,2.107,0,0,0-1.047.261,1.912,1.912,0,0,0-.734.742,2.658,2.658,0,0,0,0,2.326,1.9,1.9,0,0,0,.734.741,2.1,2.1,0,0,0,1.047.262,2.012,2.012,0,0,0,1-.254,1.983,1.983,0,0,0,.764-.822l1.759.96a3.16,3.16,0,0,1-1.353,1.461A4.307,4.307,0,0,1,980.229,3140.507Z" fill="#383838"/>
        <path id="Path_40256" data-name="Path 40256" d="M987.453,3140.507a3.6,3.6,0,0,1-1.569-.313,2.38,2.38,0,0,1-1-.85,2.305,2.305,0,0,1-.007-2.428,2.234,2.234,0,0,1,1.083-.821,5.259,5.259,0,0,1,1.934-.3h2.079v1.323h-1.832a1.71,1.71,0,0,0-1.1.261.834.834,0,0,0-.3.655.814.814,0,0,0,.341.69,1.536,1.536,0,0,0,.937.255,1.949,1.949,0,0,0,1.018-.269,1.549,1.549,0,0,0,.655-.793l.349,1.047a2.029,2.029,0,0,1-.9,1.149A3.248,3.248,0,0,1,987.453,3140.507Zm2.385-.116v-1.527l-.145-.334V3135.8a1.46,1.46,0,0,0-.444-1.134,1.951,1.951,0,0,0-1.359-.407,3.953,3.953,0,0,0-1.229.2,3.258,3.258,0,0,0-1.025.531l-.814-1.585a4.887,4.887,0,0,1,1.542-.7,6.882,6.882,0,0,1,1.831-.247,4.153,4.153,0,0,1,2.777.843,3.272,3.272,0,0,1,.988,2.631v4.464Z" fill="#383838"/>
        <path id="Path_40257" data-name="Path 40257" d="M994.011,3140.391V3129.6h2.268v10.788Z" fill="#383838"/>
      </g>
    </g>
    <g id="Group_1220" data-name="Group 1220">
      <g id="Group_1219" data-name="Group 1219">
        <path id="Path_40258" data-name="Path 40258" d="M1166.742,2779.831v-10.177h1.947l6.005,7.327h-.945v-7.327h2.326v10.177h-1.934l-6.019-7.328h.945v7.328Z" fill="#383838"/>
        <path id="Path_40259" data-name="Path 40259" d="M1181.629,2779.947a3.859,3.859,0,0,1-1.737-.378,2.665,2.665,0,0,1-1.185-1.156,4.138,4.138,0,0,1-.423-1.984v-4.42h2.269v4.085a2.093,2.093,0,0,0,.414,1.433,1.5,1.5,0,0,0,1.17.457,1.893,1.893,0,0,0,.931-.225,1.554,1.554,0,0,0,.64-.7,2.689,2.689,0,0,0,.233-1.185v-3.867h2.268v7.822h-2.152v-2.152l.392.625a2.69,2.69,0,0,1-1.155,1.229A3.438,3.438,0,0,1,1181.629,2779.947Z" fill="#383838"/>
        <path id="Path_40260" data-name="Path 40260" d="M1192.1,2779.947a4.8,4.8,0,0,1-2.253-.516,3.947,3.947,0,0,1,0-7.022,4.8,4.8,0,0,1,2.253-.516,4.309,4.309,0,0,1,2.152.516,3.146,3.146,0,0,1,1.352,1.476l-1.758.945a2.05,2.05,0,0,0-.764-.815,1.98,1.98,0,0,0-1-.261,2.106,2.106,0,0,0-1.047.261,1.9,1.9,0,0,0-.734.742,2.648,2.648,0,0,0,0,2.326,1.888,1.888,0,0,0,.734.741,2.094,2.094,0,0,0,1.047.262,2.025,2.025,0,0,0,1-.254,1.982,1.982,0,0,0,.764-.822l1.758.96a3.158,3.158,0,0,1-1.352,1.461A4.309,4.309,0,0,1,1192.1,2779.947Z" fill="#383838"/>
        <path id="Path_40261" data-name="Path 40261" d="M1196.851,2779.831v-10.788h2.268v10.788Z" fill="#383838"/>
        <path id="Path_40262" data-name="Path 40262" d="M1205.109,2779.947a5.033,5.033,0,0,1-2.348-.523,3.856,3.856,0,0,1-1.563-1.432,3.913,3.913,0,0,1-.553-2.072,3.968,3.968,0,0,1,.546-2.086,3.859,3.859,0,0,1,1.49-1.425,4.669,4.669,0,0,1,4.209-.029,3.652,3.652,0,0,1,1.461,1.4,4.191,4.191,0,0,1,.538,2.174c0,.087-.006.187-.014.3s-.02.216-.03.313h-6.353v-1.323h5.161l-.873.392a2.179,2.179,0,0,0-.246-1.061,1.8,1.8,0,0,0-.684-.705,1.98,1.98,0,0,0-1.017-.255,2.018,2.018,0,0,0-1.025.255,1.768,1.768,0,0,0-.691.712,2.247,2.247,0,0,0-.247,1.083v.349a2.2,2.2,0,0,0,.284,1.127,1.842,1.842,0,0,0,.8.741,2.71,2.71,0,0,0,1.214.255,2.948,2.948,0,0,0,1.1-.189,2.677,2.677,0,0,0,.865-.567l1.206,1.308a3.515,3.515,0,0,1-1.352.938A5.009,5.009,0,0,1,1205.109,2779.947Z" fill="#383838"/>
        <path id="Path_40263" data-name="Path 40263" d="M1212.595,2779.947a3.6,3.6,0,0,1-1.569-.313,2.378,2.378,0,0,1-1-.85,2.305,2.305,0,0,1-.007-2.428,2.235,2.235,0,0,1,1.083-.821,5.259,5.259,0,0,1,1.934-.3h2.079v1.323h-1.832a1.71,1.71,0,0,0-1.1.261.834.834,0,0,0-.3.654.814.814,0,0,0,.341.691,1.534,1.534,0,0,0,.937.255,1.951,1.951,0,0,0,1.018-.269,1.551,1.551,0,0,0,.655-.793l.349,1.047a2.029,2.029,0,0,1-.9,1.149A3.248,3.248,0,0,1,1212.595,2779.947Zm2.385-.116V2778.3l-.145-.334v-2.733a1.46,1.46,0,0,0-.444-1.134,1.953,1.953,0,0,0-1.359-.407,3.946,3.946,0,0,0-1.229.2,3.249,3.249,0,0,0-1.025.531l-.814-1.585a4.894,4.894,0,0,1,1.542-.7,6.886,6.886,0,0,1,1.831-.247,4.155,4.155,0,0,1,2.777.843,3.272,3.272,0,0,1,.988,2.631v4.464Z" fill="#383838"/>
        <path id="Path_40264" data-name="Path 40264" d="M1219.153,2779.831v-7.822h2.166v2.21l-.3-.64a2.508,2.508,0,0,1,1.119-1.257,3.8,3.8,0,0,1,1.876-.429v2.093l-.262-.022c-.078,0-.16-.007-.248-.007a1.928,1.928,0,0,0-2.078,2.181v3.693Z" fill="#383838"/>
      </g>
    </g>
    <g id="Group_1222" data-name="Group 1222">
      <g id="Group_1221" data-name="Group 1221">
        <path id="Path_40265" data-name="Path 40265" d="M1419.068,3138.617h5.539v1.89h-7.88V3130.33h7.691v1.89h-5.35Zm-.175-4.187h4.9v1.832h-4.9Z" fill="#383838"/>
        <path id="Path_40266" data-name="Path 40266" d="M1425.232,3140.507l3.5-4.594-.044,1.25-3.358-4.478h2.544l2.122,2.922-.959.03,2.195-2.952h2.414l-3.373,4.435V3135.9l3.489,4.609h-2.573l-2.225-3.111.945.131-2.209,2.98Z" fill="#383838"/>
        <path id="Path_40267" data-name="Path 40267" d="M1434.871,3143.328v-10.643h2.166v1.6l-.043,2.326.145,2.311v4.406Zm4.623-2.7a3.346,3.346,0,0,1-1.73-.436,2.9,2.9,0,0,1-1.156-1.33,5.389,5.389,0,0,1-.414-2.261,5.636,5.636,0,0,1,.392-2.268,2.792,2.792,0,0,1,1.134-1.323,3.441,3.441,0,0,1,1.774-.436,3.934,3.934,0,0,1,1.984.5,3.7,3.7,0,0,1,1.4,1.4,4.644,4.644,0,0,1,0,4.259,3.635,3.635,0,0,1-1.4,1.4A3.971,3.971,0,0,1,1439.494,3140.623Zm-.393-1.861a1.957,1.957,0,0,0,1.011-.261,1.934,1.934,0,0,0,.712-.749,2.633,2.633,0,0,0,0-2.319,1.9,1.9,0,0,0-1.723-1,1.983,1.983,0,0,0-1.017.262,1.857,1.857,0,0,0-.712.741,2.7,2.7,0,0,0,0,2.319,1.853,1.853,0,0,0,.712.749A1.989,1.989,0,0,0,1439.1,3138.762Z" fill="#383838"/>
        <path id="Path_40268" data-name="Path 40268" d="M1444.9,3140.507v-10.788h2.268v10.788Z" fill="#383838"/>
        <path id="Path_40269" data-name="Path 40269" d="M1453,3140.623a4.587,4.587,0,0,1-2.218-.523,3.987,3.987,0,0,1-1.526-1.432,4.139,4.139,0,0,1,0-4.158,3.932,3.932,0,0,1,1.526-1.425,5.007,5.007,0,0,1,4.427,0,3.968,3.968,0,0,1,0,7.015A4.592,4.592,0,0,1,1453,3140.623Zm0-1.861a1.988,1.988,0,0,0,1.017-.261,1.874,1.874,0,0,0,.713-.749,2.7,2.7,0,0,0,0-2.319,1.878,1.878,0,0,0-.713-.741,2.107,2.107,0,0,0-2.035,0,1.917,1.917,0,0,0-.72.741,2.634,2.634,0,0,0,0,2.319,1.912,1.912,0,0,0,.72.749A2,2,0,0,0,1453,3138.762Z" fill="#383838"/>
        <path id="Path_40270" data-name="Path 40270" d="M1461.432,3140.623a7.629,7.629,0,0,1-1.926-.24,4.739,4.739,0,0,1-1.461-.6l.756-1.628a5.028,5.028,0,0,0,1.272.545,5.217,5.217,0,0,0,1.446.211,2.373,2.373,0,0,0,1.113-.189.582.582,0,0,0,.327-.524.445.445,0,0,0-.254-.414,2.24,2.24,0,0,0-.676-.211q-.423-.072-.923-.145t-1.011-.2a3.447,3.447,0,0,1-.931-.371,1.906,1.906,0,0,1-.676-.669,2.317,2.317,0,0,1,.175-2.4,2.836,2.836,0,0,1,1.243-.894,5.218,5.218,0,0,1,1.948-.327,7.843,7.843,0,0,1,1.628.175,4.417,4.417,0,0,1,1.382.508l-.756,1.614a3.86,3.86,0,0,0-1.141-.458,5.325,5.325,0,0,0-1.113-.123,2.29,2.29,0,0,0-1.1.2.6.6,0,0,0-.349.523.472.472,0,0,0,.255.437,2.328,2.328,0,0,0,.675.232q.423.087.924.153a8.531,8.531,0,0,1,1.011.2,3.631,3.631,0,0,1,.923.371,1.952,1.952,0,0,1,.676.654,2.008,2.008,0,0,1,.262,1.083,2.035,2.035,0,0,1-.437,1.287,2.864,2.864,0,0,1-1.257.879A5.508,5.508,0,0,1,1461.432,3140.623Z" fill="#383838"/>
        <path id="Path_40271" data-name="Path 40271" d="M1467.655,3131.595a1.432,1.432,0,0,1-1.017-.364,1.229,1.229,0,0,1,0-1.8,1.438,1.438,0,0,1,1.017-.364,1.488,1.488,0,0,1,1.017.342,1.112,1.112,0,0,1,.393.879,1.246,1.246,0,0,1-.385.938A1.419,1.419,0,0,1,1467.655,3131.595Zm-1.134,8.912v-7.822h2.269v7.822Z" fill="#383838"/>
        <path id="Path_40272" data-name="Path 40272" d="M1473.02,3140.507l-3.286-7.822h2.341l2.733,6.732h-1.164l2.835-6.732h2.182l-3.3,7.822Z" fill="#383838"/>
        <path id="Path_40273" data-name="Path 40273" d="M1483.254,3140.623a5.039,5.039,0,0,1-2.348-.523,3.859,3.859,0,0,1-1.562-1.432,3.91,3.91,0,0,1-.553-2.072,3.971,3.971,0,0,1,.546-2.086,3.859,3.859,0,0,1,1.49-1.425,4.667,4.667,0,0,1,4.208-.029,3.651,3.651,0,0,1,1.462,1.4,4.2,4.2,0,0,1,.538,2.173c0,.087-.006.187-.015.3s-.019.216-.029.313h-6.353v-1.323h5.161l-.873.392a2.183,2.183,0,0,0-.246-1.061,1.826,1.826,0,0,0-.684-.7,1.991,1.991,0,0,0-1.018-.254,2.026,2.026,0,0,0-1.024.254,1.768,1.768,0,0,0-.691.712,2.25,2.25,0,0,0-.247,1.083v.349a2.2,2.2,0,0,0,.284,1.127,1.85,1.85,0,0,0,.8.742,2.72,2.72,0,0,0,1.214.254,2.948,2.948,0,0,0,1.1-.189,2.677,2.677,0,0,0,.865-.567l1.206,1.309a3.52,3.52,0,0,1-1.352.937A5.005,5.005,0,0,1,1483.254,3140.623Z" fill="#383838"/>
      </g>
    </g>
    <path id="Path_40274" data-name="Path 40274" d="M342.222,2978.458h196.04l36.8-46.314L556.027,2907.4" fill="none" stroke="#3f557b" stroke-width="3.212"/>
    <path id="Path_40275" data-name="Path 40275" d="M806.945,3002.566l19.033-24.743-36.8-46.314H593.141l-19.482-24.517" fill="none" stroke="#3f557b" stroke-width="3.212"/>
    <path id="Path_40276" data-name="Path 40276" d="M1057.8,2907.4l19.033,24.743-36.8,46.314H843.995l-18.016,24.109" fill="none" stroke="#3f557b" stroke-width="3.212"/>
    <path id="Path_40277" data-name="Path 40277" d="M1307.267,3002.566l19.033-24.743-36.8-46.314h-196.04L1075.8,2907.4" fill="none" stroke="#3f557b" stroke-width="3.212"/>
    <path id="Path_40278" data-name="Path 40278" d="M1558.967,2907.4,1578,2932.144l-36.8,46.314h-196.04l-17.052,24.109" fill="none" stroke="#3f557b" stroke-width="3.212"/>
    <circle id="Ellipse_1602" data-name="Ellipse 1602" cx="7.058" cy="7.058" r="7.058" transform="translate(441.035 2971.383)" fill="#fff" stroke="#3f557b" stroke-width="3.212"/>
    <line id="Line_93" data-name="Line 93" y2="25.932" transform="translate(448.093 2992.16)" fill="none" stroke="#3f557b" stroke-width="3.212"/>
    <circle id="Ellipse_1603" data-name="Ellipse 1603" cx="7.058" cy="7.058" r="7.058" transform="translate(943.284 2971.383)" fill="#fff" stroke="#3f557b" stroke-width="3.212"/>
    <line id="Line_94" data-name="Line 94" y2="25.932" transform="translate(950.342 2992.16)" fill="none" stroke="#3f557b" stroke-width="3.212"/>
    <circle id="Ellipse_1604" data-name="Ellipse 1604" cx="7.058" cy="7.058" r="7.058" transform="translate(1444.452 2971.383)" fill="#fff" stroke="#3f557b" stroke-width="3.212"/>
    <line id="Line_95" data-name="Line 95" y2="25.932" transform="translate(1451.51 2992.16)" fill="none" stroke="#3f557b" stroke-width="3.212"/>
    <circle id="Ellipse_1605" data-name="Ellipse 1605" cx="7.058" cy="7.058" r="7.058" transform="translate(1187.896 2923.529)" fill="#fff" stroke="#3f557b" stroke-width="3.212"/>
    <line id="Line_96" data-name="Line 96" y1="25.932" transform="translate(1194.954 2890.935)" fill="none" stroke="#3f557b" stroke-width="3.212"/>
    <circle id="Ellipse_1606" data-name="Ellipse 1606" cx="7.058" cy="7.058" r="7.058" transform="translate(684.182 2923.529)" fill="#fff" stroke="#3f557b" stroke-width="3.212"/>
    <line id="Line_97" data-name="Line 97" y1="25.932" transform="translate(691.24 2890.935)" fill="none" stroke="#3f557b" stroke-width="3.212"/>
    <g id="Group_1224" data-name="Group 1224">
      <g id="Group_1223" data-name="Group 1223">
        <path id="Path_40279" data-name="Path 40279" d="M494.527,2915.528,474.746,2932.6H420.92l-19.26-17.074V2786.222l19.26-17.179h53.826l19.781,17.283v25.194H464.335v-12.285H431.852V2902.41h32.483v-13.223h30.192Z" fill="#3e517b"/>
      </g>
    </g>
    <g id="Group_1226" data-name="Group 1226">
      <g id="Group_1225" data-name="Group 1225">
        <path id="Path_40280" data-name="Path 40280" d="M737,3126.253l-19.365,17.075H645.483V2979.769h72.149L737,2996.947v50.286l-11.66,14.159L737,3075.863ZM675.676,3046.4H706.7v-36.439H675.676Zm0,66.735H706.7V3076.7H675.676Z" fill="#3e517b"/>
      </g>
    </g>
    <g id="Group_1228" data-name="Group 1228">
      <g id="Group_1227" data-name="Group 1227">
        <path id="Path_40281" data-name="Path 40281" d="M999.014,2932.6H966.636l-25.716-66.631h-8.953V2932.6h-30.3V2769.043h72.565l19.261,17.179v60.072l-20.614,19.26Zm-67.047-96.928H963.3v-36.543H931.967Z" fill="#3e517b"/>
      </g>
    </g>
    <g id="Group_1230" data-name="Group 1230">
      <g id="Group_1229" data-name="Group 1229">
        <path id="Path_40282" data-name="Path 40282" d="M1210.258,3143.328l-33-85.684v85.684h-30.088V2979.769h32.379l33.107,85.787v-85.787h29.984v163.35l.1.209Z" fill="#3e517b"/>
      </g>
    </g>
    <g id="Group_1232" data-name="Group 1232">
      <g id="Group_1231" data-name="Group 1231">
        <path id="Path_40283" data-name="Path 40283" d="M1490.915,2932.6H1412.1V2769.043h78.188v30.192H1442.3v36.439h41.332v30.3H1442.3v36.439h48.619Z" fill="#3e517b"/>
      </g>
    </g>
  </g>
</svg>
