<svg xmlns="http://www.w3.org/2000/svg" xmlns:xlink="http://www.w3.org/1999/xlink" width="224.997" height="48.631" viewBox="0 0 224.997 48.631">
  <defs>
    <clipPath id="clip-path">
      <rect id="Rectangle_312" data-name="Rectangle 312" width="1.098" height="7.389" transform="translate(6653.729 978.006)" fill="#fff"/>
    </clipPath>
  </defs>
  <g id="Group_2051" data-name="Group 2051" transform="translate(-101.675 -959.715)">
    <path id="Path_17551" data-name="Path 17551" d="M6689.6,960.513c.319-.379.691-.842,1.246-.795a1.307,1.307,0,0,1,1.31,1.3c0,.889-.171,1.768-.2,2.655-.039,1.108-.153,2.211-.275,3.314-.993.576-2,1.129-2.977,1.732a6.473,6.473,0,0,1-1.179.571c-.322-1.213-.668-2.419-1.019-3.626-.1-.428-.349-.956.006-1.333q1.551-1.9,3.09-3.818" transform="translate(-6377)" fill="#fff"/>
    <path id="Path_17552" data-name="Path 17552" d="M6665.067,986.018c1.349-1.168,2.691-2.342,4.039-3.513q2.3.63,4.579,1.308-1.115,2.157-2.3,4.274c-1.925.161-3.843.445-5.775.5a1.274,1.274,0,0,1-1.286-1.306,1.735,1.735,0,0,1,.747-1.259" transform="translate(-6377)" fill="#fff"/>
    <path id="Path_17553" data-name="Path 17553" d="M6674.743,961.016a1.244,1.244,0,0,1,1.288-1.215,1.554,1.554,0,0,1,1.142.669c1.091,1.353,2.211,2.684,3.311,4.031.257.233.063.576.012.857-.393,1.332-.7,2.69-1.11,4.014a8.615,8.615,0,0,1-1.426-.755c-.916-.509-1.826-1.032-2.736-1.551-.13-2.019-.465-4.023-.481-6.05" transform="translate(-6377)" fill="#fff"/>
    <path id="Path_17554" data-name="Path 17554" d="M6693.449,983.679c1.52-.468,3.05-.9,4.575-1.357,1.236,1.108,2.518,2.163,3.777,3.245.44.382,1.02.787,1.026,1.436a1.345,1.345,0,0,1-1.56,1.407c-1.83-.178-3.663-.312-5.494-.464-.776-1.422-1.583-2.826-2.324-4.267" transform="translate(-6377)" fill="#fff"/>
    <path id="Path_17555" data-name="Path 17555" d="M6675.364,992.019c1.372-.789,2.761-1.549,4.124-2.354a21.045,21.045,0,0,1,.385,2.327c.111.931.365,1.847.384,2.789.038.275-.188.464-.331.665-.9,1.061-1.773,2.14-2.655,3.212a1.4,1.4,0,0,1-1.379.608,1.437,1.437,0,0,1-1.049-1.708c.249-1.839.3-3.7.521-5.539" transform="translate(-6377)" fill="#fff"/>
    <path id="Path_17556" data-name="Path 17556" d="M6683.3,961.942c.154-.006.309-.009.464-.013.711,2.466,1.27,4.976,1.923,7.456a5.461,5.461,0,0,1,.367,2.435c-.2.724-.4,1.448-.579,2.176l-.46-.142a14.7,14.7,0,0,0-.534-2.5,4.2,4.2,0,0,0-1.874-.1,16.852,16.852,0,0,0-.53,2.568q-.242.089-.48.181c-.174-.764-.4-1.515-.6-2.27a2.643,2.643,0,0,1,.158-1.462c.735-2.772,1.377-5.568,2.143-8.331" transform="translate(-6377)" fill="#fff"/>
    <path id="Path_17557" data-name="Path 17557" d="M6671.46,966.918a2.782,2.782,0,0,1,.73.3c2.434,1.478,4.88,2.941,7.319,4.412a1.643,1.643,0,0,1,.59.739c.332.612.676,1.216,1,1.831l-.406.229c-.683-.446-1.307-.989-2.032-1.365-.638.13-1.077.8-1.41,1.321a14.382,14.382,0,0,0,1.354,2.2c-.084.137-.168.275-.249.415-.666-.4-1.341-.782-2.01-1.175a1.238,1.238,0,0,1-.5-.527q-2.271-3.991-4.55-7.977c.041-.1.124-.3.164-.4" transform="translate(-6377)" fill="#fff"/>
    <path id="Path_17558" data-name="Path 17558" d="M6695.051,967.116c.238-.15.58-.279.725.063a3.28,3.28,0,0,1-.349.764c-1.459,2.511-2.864,5.054-4.336,7.556a15.912,15.912,0,0,1-2.407,1.5c-.07-.144-.139-.287-.206-.431a15.038,15.038,0,0,0,1.34-2.177,3.188,3.188,0,0,0-1.332-1.347,16.013,16.013,0,0,0-2.095,1.375l-.429-.2c.4-.732.782-1.469,1.206-2.184a1.635,1.635,0,0,1,.636-.548c2.421-1.447,4.832-2.911,7.247-4.367" transform="translate(-6377)" fill="#fff"/>
    <path id="Path_17559" data-name="Path 17559" d="M6674.814,976.988a1.715,1.715,0,0,1,1.059-.125c.77.23,1.551.424,2.315.674-.039.106-.12.318-.16.424-.832.206-1.692.3-2.506.574.018.638-.22,1.394.129,1.957.756.295,1.6.322,2.385.549.035.11.107.329.142.439-.86.246-1.718.513-2.589.722-3.075-.8-6.158-1.6-9.213-2.486.072-.194.04-.515.311-.542,2.705-.745,5.419-1.454,8.127-2.186" transform="translate(-6377)" fill="#fff"/>
    <path id="Path_17560" data-name="Path 17560" d="M6688.878,977.549c.747-.27,1.521-.446,2.28-.683a1.932,1.932,0,0,1,1.178.141c2.764.742,5.523,1.49,8.291,2.214a4.934,4.934,0,0,1-.015.5,3.887,3.887,0,0,1-.789.263c-2.748.728-5.493,1.473-8.239,2.2a21.315,21.315,0,0,1-2.7-.726c.037-.1.11-.311.146-.415.725-.182,1.461-.3,2.192-.459.239-.017.331-.26.359-.466a5.292,5.292,0,0,0-.088-1.652c-.817-.173-1.639-.32-2.45-.512-.043-.1-.126-.307-.169-.409" transform="translate(-6377)" fill="#fff"/>
    <path id="Path_17561" data-name="Path 17561" d="M6676.329,983.2c.68-.4,1.365-.8,2.048-1.2q.107.219.216.439c-.412.65-.89,1.261-1.25,1.943-.2.286.094.536.259.748a4.131,4.131,0,0,0,.836.772c.207.107.4-.058.579-.154.57-.379,1.117-.793,1.681-1.181.1.057.312.171.416.23-.444.81-.89,1.62-1.345,2.424-2.637,1.566-5.252,3.168-7.885,4.741-.239.2-.484-.011-.634-.2q2.13-3.735,4.261-7.468c.235-.389.394-.87.818-1.1" transform="translate(-6377)" fill="#fff"/>
    <path id="Path_17562" data-name="Path 17562" d="M6688.7,982c.782.467,1.573.919,2.353,1.39,1.452,2.6,2.948,5.179,4.424,7.77.129.239.239.488.347.74-.111.036-.334.107-.444.144a18.409,18.409,0,0,1-1.609-.93q-2.742-1.657-5.49-3.3c-.408-.261-.914-.446-1.152-.9-.4-.689-.771-1.4-1.168-2.092l.365-.252c.695.423,1.313.971,2.038,1.35.071,0,.211-.008.282-.009a6.159,6.159,0,0,0,1.069-1.071c.186-.224.007-.5-.114-.7-.369-.577-.754-1.145-1.139-1.711.078-.141.158-.282.238-.423" transform="translate(-6377)" fill="#fff"/>
    <path id="Path_17563" data-name="Path 17563" d="M6681.6,985l.472.162a22.587,22.587,0,0,0,.5,2.537,3.869,3.869,0,0,0,1.91-.035,14.015,14.015,0,0,0,.521-2.5l.475-.162c.172.674.338,1.351.536,2.02a4.324,4.324,0,0,1,.053,1.737c-.6,5.044-1.161,10.091-1.742,15.138a29.221,29.221,0,0,1-.653,4.455c-.136-.124-.393-.166-.415-.379a23.389,23.389,0,0,1-.327-2.6c-.524-4.36-.988-8.725-1.516-13.084-.1-1.522-.412-3.023-.48-4.548.125-.93.472-1.818.668-2.736" transform="translate(-6377)" fill="#fff"/>
    <path id="Path_17564" data-name="Path 17564" d="M6663.6,998.333a2.291,2.291,0,0,1,.758.189c5.633,2.013,11.275,4,16.907,6.014.153,1.234.364,2.461.553,3.691-5.425-2.568-10.716-5.4-16.051-8.151-.768-.43-1.6-.755-2.329-1.243a.629.629,0,0,1,.162-.5" transform="translate(-6377)" fill="#fff"/>
    <path id="Path_17565" data-name="Path 17565" d="M6703,998.423c.189-.054.454-.192.582.044.306.341-.218.533-.45.673-5.94,3.04-11.817,6.208-17.842,9.078.126-1.23.389-2.44.521-3.67,5.72-2.067,11.463-4.073,17.189-6.125" transform="translate(-6377)" fill="#fff"/>
    <path id="Path_17566" data-name="Path 17566" d="M6695.689,970.967c1.915-.073,3.81-.416,5.725-.487a1.319,1.319,0,0,1,1.248,1.789,2.5,2.5,0,0,1-.735.873q-1.986,1.7-3.943,3.435c-1.54-.4-3.065-.862-4.6-1.3.748-1.446,1.539-2.872,2.3-4.311" transform="translate(-6377)" fill="#fff"/>
    <path id="Path_17567" data-name="Path 17567" d="M6664.243,972.177a1.381,1.381,0,0,1,1.069-1.5,15.324,15.324,0,0,1,1.924.124c1.291.149,2.6.145,3.885.336.256.019.332.306.457.487.673,1.269,1.389,2.517,2.063,3.787-1.347.392-2.692.794-4.036,1.2-.252.06-.563.174-.767-.051-1.25-1.039-2.462-2.123-3.712-3.165a2.008,2.008,0,0,1-.883-1.219" transform="translate(-6377)" fill="#fff"/>
    <path id="Path_17568" data-name="Path 17568" d="M6687.7,989.652c1.369.792,2.738,1.587,4.131,2.34q.288,2.855.534,5.72a1.361,1.361,0,0,1-.888,1.508,1.32,1.32,0,0,1-1.482-.5c-1.023-1.245-2.037-2.5-3.09-3.723.22-1.787.518-3.565.8-5.346" transform="translate(-6377)" fill="#fff"/>
    <path id="Path_17569" data-name="Path 17569" d="M6492.134,991.131l.7,0c0,.8,0,1.6,0,2.4a3.211,3.211,0,0,1,2.222-.266c.653.241.805,1.011.865,1.622.062,1.1.012,2.2.028,3.3-.24,0-.48.009-.721.016a19.914,19.914,0,0,0-.2-4.015c-.568-.632-1.5-.254-2.2-.087,0,1.364,0,2.727,0,4.091-.236,0-.47,0-.706,0,.008-2.356,0-4.71,0-7.065" transform="translate(-6377)" fill="#fff"/>
    <path id="Path_17570" data-name="Path 17570" d="M6513,991.139c.242,0,.487-.005.729-.008.009,2.353,0,4.707.007,7.063-.246,0-.49,0-.735,0,0-2.352,0-4.7,0-7.055" transform="translate(-6377)" fill="#fff"/>
    <path id="Path_17571" data-name="Path 17571" d="M6572.741,991.139l.686-.007c.013,2.354,0,4.708.006,7.064-.234,0-.465-.008-.7-.008.007-2.348,0-4.7,0-7.049" transform="translate(-6377)" fill="#fff"/>
    <path id="Path_17572" data-name="Path 17572" d="M6595.879,991.294c.24,0,.485,0,.732,0,0,.287,0,.577,0,.867-.244,0-.486,0-.725.006-.006-.292-.007-.582-.007-.871" transform="translate(-6377)" fill="#fff"/>
    <path id="Path_17573" data-name="Path 17573" d="M6644.093,991.291c.238,0,.477,0,.72,0,0,.287,0,.575,0,.866-.243,0-.482,0-.72.008,0-.293,0-.585,0-.875" transform="translate(-6377)" fill="#fff"/>
    <path id="Path_17574" data-name="Path 17574" d="M6478.687,991.355q2.388,0,4.773,0v.7c-.67.035-1.342.037-2.013.033.006,2.036,0,4.073,0,6.109-.253,0-.505,0-.758,0,0-2.034,0-4.067,0-6.1-.663,0-1.327,0-1.99,0-.005-.246-.009-.491-.014-.736" transform="translate(-6377)" fill="#fff"/>
    <path id="Path_17575" data-name="Path 17575" d="M6533.376,991.357c.243,0,.487-.005.734-.005.529,2.048,1.023,4.106,1.531,6.16l.56.012c.488-2.062.993-4.119,1.532-6.167q.372,0,.745,0c-.565,2.281-1.165,4.553-1.731,6.835-.558,0-1.113,0-1.669,0-.537-2.285-1.179-4.546-1.7-6.835" transform="translate(-6377)" fill="#fff"/>
    <path id="Path_17576" data-name="Path 17576" d="M6576.22,991.355q2.4,0,4.808,0c-.007.244-.012.487-.016.732l-2.015,0c.008,2.032,0,4.066,0,6.1-.242,0-.479.008-.717.015-.012-2.039-.008-4.077,0-6.116-.682,0-1.367,0-2.049,0-.008-.246-.011-.491-.014-.736" transform="translate(-6377)" fill="#fff"/>
    <path id="Path_17577" data-name="Path 17577" d="M6610.574,991.684c.982-.668,2.258-.389,3.348-.191-.014.216-.026.434-.035.654-.941-.114-2.016-.408-2.874.143a4.046,4.046,0,0,0-.616,2.771c.029.788.02,1.783.737,2.294a4.38,4.38,0,0,0,2.755.081l.035.668a4.959,4.959,0,0,1-3.209-.13c-1.053-.64-1-2.011-1.057-3.088.058-1.09-.039-2.447.916-3.2" transform="translate(-6377)" fill="#fff"/>
    <path id="Path_17578" data-name="Path 17578" d="M6553,991.766c.23,0,.462-.006.7-.006v1.5q.754,0,1.512,0c0,.22-.007.44-.009.663-.5,0-1,0-1.5-.005.012.964-.024,1.93.012,2.894,0,.306.08.719.432.806a4.97,4.97,0,0,0,1.083-.018l.077.6a3.7,3.7,0,0,1-1.68.005c-.489-.184-.539-.77-.6-1.21-.065-1.024-.01-2.049-.03-3.075-.232,0-.463,0-.693.009,0-.167,0-.5,0-.667.23,0,.463,0,.7,0,0-.5,0-1,0-1.493" transform="translate(-6377)" fill="#fff"/>
    <path id="Path_17579" data-name="Path 17579" d="M6641.086,991.757c.176.005.528.013.7.019,0,.494,0,.99,0,1.486q.757,0,1.516-.007,0,.333,0,.667h-1.514a30.272,30.272,0,0,0,.068,3.343c.266.6,1.012.319,1.517.335-.011.135-.032.406-.042.541a2.564,2.564,0,0,1-1.426.129,1.022,1.022,0,0,1-.772-1.022c-.1-1.1-.026-2.214-.046-3.32-.237-.006-.473-.009-.705-.011,0-.218,0-.436,0-.653.231-.005.465-.006.7-.009,0-.5,0-1,0-1.5" transform="translate(-6377)" fill="#fff"/>
    <path id="Path_17580" data-name="Path 17580" d="M6484.317,994.021c-.463.316-.441.94-.524,1.436.841.007,1.682,0,2.524,0a3.631,3.631,0,0,0-.253-1.249,1.366,1.366,0,0,0-1.747-.19m-.146-.662a2.1,2.1,0,0,1,2.347.351,3.415,3.415,0,0,1,.494,2.318c-1.069,0-2.141-.007-3.211.011.071.5.015,1.175.56,1.429a5.339,5.339,0,0,0,2.472.1c0,.148,0,.443.009.593a6.225,6.225,0,0,1-2.761-.032c-.878-.408-1.006-1.506-1.008-2.361.033-.88.2-2,1.1-2.407" transform="translate(-6377)" fill="#fff"/>
    <path id="Path_17581" data-name="Path 17581" d="M6498.042,993.519a2.625,2.625,0,0,1,2.217-.185c.556.284.629.972.7,1.526.075,1.11.02,2.224.034,3.337-.243-.009-.485-.013-.729-.021-.032-1.207.068-2.42-.057-3.622a.779.779,0,0,0-.782-.708,2.758,2.758,0,0,0-1.5.354c-.048,1.325-.006,2.653-.011,3.98l-.756.017c0-1.664-.01-3.328.009-4.992a1.5,1.5,0,0,1,.877.314" transform="translate(-6377)" fill="#fff"/>
    <path id="Path_17582" data-name="Path 17582" d="M6504.919,993.333a4.646,4.646,0,0,1,2.349-.04c-.009.156-.023.471-.032.628a3.763,3.763,0,0,0-2.247.193,4.046,4.046,0,0,0,.009,3.138c.593.6,1.51.33,2.254.3,0,.206.012.412.019.619a4.047,4.047,0,0,1-2.551-.151,2.834,2.834,0,0,1-.763-2.431c.036-.813.145-1.841.962-2.256" transform="translate(-6377)" fill="#fff"/>
    <path id="Path_17583" data-name="Path 17583" d="M6508.987,996.03a1.009,1.009,0,0,0,.158,1.62,3.846,3.846,0,0,0,1.771-.274c0-.535,0-1.071,0-1.607a7.376,7.376,0,0,0-1.933.261m-.741-2.662a8.044,8.044,0,0,1,2.257-.176,1.167,1.167,0,0,1,1.054.987c.146,1.043-.021,2.1.082,3.149.244.317.611.556.558,1.019a4.066,4.066,0,0,1-1.222-.408,3.776,3.776,0,0,1-2.2.289,1.611,1.611,0,0,1-.326-2.622,8.763,8.763,0,0,1,2.5-.429c-.066-.445.037-1.1-.49-1.291a8.872,8.872,0,0,0-2.213.064c0-.2,0-.388,0-.582" transform="translate(-6377)" fill="#fff"/>
    <path id="Path_17584" data-name="Path 17584" d="M6517.645,996.06c-.093.517-.295,1.28.291,1.578a3.814,3.814,0,0,0,1.8-.246c.009-.542.011-1.082.012-1.623a9.672,9.672,0,0,0-2.1.291m-.539-2.662a5.843,5.843,0,0,1,2.21-.2,1.193,1.193,0,0,1,1.1,1.015c.1,1.092.006,2.19.059,3.286.179.092.361.183.543.278-.017.19-.037.384-.053.577a5.427,5.427,0,0,1-1.152-.412,4.092,4.092,0,0,1-2.088.323,1.552,1.552,0,0,1-.285-2.731,11.6,11.6,0,0,1,2.337-.355c-.066-.445.028-1.126-.509-1.3a11.276,11.276,0,0,0-2.24.067c.022-.138.064-.412.083-.549" transform="translate(-6377)" fill="#fff"/>
    <path id="Path_17585" data-name="Path 17585" d="M6522.619,993.551a2.648,2.648,0,0,1,2.149-.267,1.629,1.629,0,0,1,.794,1.488c.047,1.14.006,2.28.024,3.422-.231,0-.461,0-.692,0-.084-1.348.236-2.778-.264-4.063-.576-.575-1.477-.163-2.139.03,0,1.344-.005,2.686,0,4.03-.23,0-.459.006-.688.011,0-1.666-.007-3.329.007-4.993a1.129,1.129,0,0,1,.807.345" transform="translate(-6377)" fill="#fff"/>
    <path id="Path_17586" data-name="Path 17586" d="M6539.712,994.354a6.364,6.364,0,0,0-.1,2.445c.153,1.184,2.285,1.187,2.435,0a5.475,5.475,0,0,0-.169-2.691c-.667-.351-1.717-.5-2.169.248m.416-1.118a2.341,2.341,0,0,1,2.281.534,4.014,4.014,0,0,1,.448,2.7,1.807,1.807,0,0,1-1.206,1.742,2.438,2.438,0,0,1-2.443-.544,4.151,4.151,0,0,1-.4-2.611,1.852,1.852,0,0,1,1.324-1.821" transform="translate(-6377)" fill="#fff"/>
    <path id="Path_17587" data-name="Path 17587" d="M6548.621,996.055c-.114.5-.329,1.173.188,1.527.614.267,1.288-.058,1.9-.2.007-.54.007-1.078.008-1.618a9.845,9.845,0,0,0-2.095.289m-.589-2.69c1.028-.118,2.4-.574,3.17.362.422,1.086.111,2.289.214,3.425-.056.356.338.476.553.671-.014.176-.028.353-.041.531a5.812,5.812,0,0,1-1.156-.415,3.081,3.081,0,0,1-2.489.153,1.66,1.66,0,0,1,.025-2.516,9.5,9.5,0,0,1,2.426-.4c-.048-.452.037-1.124-.5-1.3a9.047,9.047,0,0,0-2.2.078c0-.2,0-.4,0-.593" transform="translate(-6377)" fill="#fff"/>
    <path id="Path_17588" data-name="Path 17588" d="M6559.029,993.977c-.517.341-.535,1.054-.563,1.613a2.724,2.724,0,0,0,.4,1.786,1.889,1.889,0,0,0,1.875.077,2.964,2.964,0,0,0,.375-1.509c-.012-.647.058-1.445-.473-1.92a1.84,1.84,0,0,0-1.61-.047m.108-.753a2.159,2.159,0,0,1,2.408.807,5.176,5.176,0,0,1,.076,3.255,2.164,2.164,0,0,1-3.674-.012,5.9,5.9,0,0,1-.077-2.741,1.6,1.6,0,0,1,1.267-1.309" transform="translate(-6377)" fill="#fff"/>
    <path id="Path_17589" data-name="Path 17589" d="M6563.7,993.578a2.654,2.654,0,0,1,2.214-.28,1.746,1.746,0,0,1,.8,1.581c.049,1.1.009,2.209.023,3.313-.245,0-.487,0-.728,0-.015-1.1.05-2.2-.036-3.3-.049-.36-.084-.831-.487-.969a3.115,3.115,0,0,0-1.874.241c0,1.345,0,2.693,0,4.039-.234-.007-.466-.014-.7-.019.016-1.642-.031-3.287.033-4.928h.585l.167.326" transform="translate(-6377)" fill="#fff"/>
    <path id="Path_17590" data-name="Path 17590" d="M6568.665,996.058a1.069,1.069,0,0,0,.13,1.566,3.472,3.472,0,0,0,1.809-.229c.01-.542.01-1.083.017-1.624a6.1,6.1,0,0,0-1.956.287m-.692-2.655a5.717,5.717,0,0,1,2.327-.2,1.265,1.265,0,0,1,1.031,1.153c.082,1.068-.043,2.142.094,3.207l.479.211-.084.587a5.453,5.453,0,0,1-1.118-.439,3.768,3.768,0,0,1-2.144.316,1.554,1.554,0,0,1-.22-2.72,12.185,12.185,0,0,1,2.317-.348,5.242,5.242,0,0,0-.245-1.267,10.6,10.6,0,0,0-2.51.041c.019-.138.054-.41.073-.546" transform="translate(-6377)" fill="#fff"/>
    <path id="Path_17591" data-name="Path 17591" d="M6581.628,993.882a13.028,13.028,0,0,1,1.731-.753q.014.382.026.77a5.529,5.529,0,0,0-1.706.694c-.071,1.192-.011,2.391-.023,3.587-.25.007-.5.012-.744.021,0-1.648-.007-3.295,0-4.942q.368,0,.743.005c-.009.155-.025.463-.032.618" transform="translate(-6377)" fill="#fff"/>
    <path id="Path_17592" data-name="Path 17592" d="M6584.689,996.074c-.046.508-.3,1.275.306,1.55a3.476,3.476,0,0,0,1.814-.238c.009-.54.011-1.078.016-1.617a8.7,8.7,0,0,0-2.136.3m-.524-2.68a6.338,6.338,0,0,1,2.007-.221,1.247,1.247,0,0,1,1.278.948c.163,1.07-.018,2.159.093,3.232.1.225.362.317.543.477-.026.176-.051.354-.073.533a9.427,9.427,0,0,1-1.155-.423,3.029,3.029,0,0,1-2.486.143,1.664,1.664,0,0,1,.04-2.51,10.169,10.169,0,0,1,2.441-.4,4.149,4.149,0,0,0-.269-1.257,10.335,10.335,0,0,0-2.516.038c.025-.139.072-.416.1-.556" transform="translate(-6377)" fill="#fff"/>
    <path id="Path_17593" data-name="Path 17593" d="M6591.649,993.551a2.677,2.677,0,0,1,2.245-.23c.588.283.672,1,.727,1.571.068,1.1.017,2.2.033,3.3q-.354,0-.7,0c-.013-1.043.025-2.084-.008-3.126-.024-.444-.112-1.029-.608-1.177a3.414,3.414,0,0,0-1.779.259c0,1.347,0,2.7,0,4.044l-.727.007c0-1.643,0-3.286,0-4.929.162,0,.486-.012.645-.018.044.076.131.223.173.3" transform="translate(-6377)" fill="#fff"/>
    <path id="Path_17594" data-name="Path 17594" d="M6598.692,993.551a2.664,2.664,0,0,1,2.239-.232c.585.283.685.991.736,1.569.07,1.1.019,2.2.033,3.306-.237,0-.473,0-.709,0a18.306,18.306,0,0,0-.176-3.939c-.5-.758-1.53-.29-2.218-.108q0,2.025,0,4.049c-.242,0-.483,0-.725,0,.013-1.642,0-3.285,0-4.925.156-.005.47-.016.626-.019.046.074.141.223.187.3" transform="translate(-6377)" fill="#fff"/>
    <path id="Path_17595" data-name="Path 17595" d="M6603.708,999.683a2.912,2.912,0,0,0,2.09.026c.506-.266.325-.915.329-1.378a7.477,7.477,0,0,0-2.17-.2.96.96,0,0,0-.249,1.551m-.118-4.286c.23.661,1.1.564,1.642.427.624-.336.374-1.154.369-1.724a1.835,1.835,0,0,0-1.489-.258c-.665.152-.707,1.025-.522,1.555m-.678-1.337a1.642,1.642,0,0,1,1.723-.884,13.515,13.515,0,0,0,2.363.074c0,.164,0,.491,0,.655l-.833-.032a2.153,2.153,0,0,1-.149,2.229,3.013,3.013,0,0,1-1.972.408c-.032.294-.329.685.019.887.794.22,1.709-.079,2.435.391a1.56,1.56,0,0,1-.633,2.58,3.185,3.185,0,0,1-2.864-.334,1.61,1.61,0,0,1,.36-2.178,2,2,0,0,1,.1-1.465,2.093,2.093,0,0,1-.548-2.331" transform="translate(-6377)" fill="#fff"/>
    <path id="Path_17596" data-name="Path 17596" d="M6615.964,993.94c-.893.54-.569,1.835-.561,2.711,0,1.283,2.205,1.392,2.452.2a6.075,6.075,0,0,0-.043-2.325c-.189-.79-1.228-.826-1.848-.588m0-.711a2.416,2.416,0,0,1,2.181.459,3.3,3.3,0,0,1,.54,2.249,2.7,2.7,0,0,1-.568,1.889,2.57,2.57,0,0,1-2.234.4,1.8,1.8,0,0,1-1.278-1.763,4.459,4.459,0,0,1,.336-2.523,1.523,1.523,0,0,1,1.023-.711" transform="translate(-6377)" fill="#fff"/>
    <path id="Path_17597" data-name="Path 17597" d="M6620.476,993.912a9.362,9.362,0,0,1,1.719-.785c.007.257.016.517.026.778a9.746,9.746,0,0,0-1.715.642c-.018,1.216-.007,2.431,0,3.647l-.775-.023c.013-1.638.008-3.276.008-4.912h.765c0,.162-.018.489-.023.653" transform="translate(-6377)" fill="#fff"/>
    <path id="Path_17598" data-name="Path 17598" d="M6623.7,994.179c0,1.13-.006,2.261,0,3.39.665.055,1.469.279,2.007-.249a2.923,2.923,0,0,0,.419-2.085c-.062-.475-.172-1.063-.646-1.295-.594-.258-1.216.069-1.785.239m.118-.635a2.25,2.25,0,0,1,2.3-.109c.723.528.709,1.518.734,2.322a2.693,2.693,0,0,1-.706,2.168,3.715,3.715,0,0,1-2.445.323c.006.71,0,1.419.009,2.129-.179,0-.537.013-.716.016-.007-2.391,0-4.782,0-7.171a1.058,1.058,0,0,1,.832.322" transform="translate(-6377)" fill="#fff"/>
    <path id="Path_17599" data-name="Path 17599" d="M6628.7,994.148a5.4,5.4,0,0,0-.047,2.966,1.447,1.447,0,0,0,1.84.4c.533-.246.525-.911.573-1.409a4.151,4.151,0,0,0-.254-1.909,1.738,1.738,0,0,0-2.112-.052m.29-.89a2.3,2.3,0,0,1,2.392.564,4.174,4.174,0,0,1,.418,2.641,1.778,1.778,0,0,1-1.309,1.768,2.3,2.3,0,0,1-2.375-.621,4.231,4.231,0,0,1-.365-2.565,1.864,1.864,0,0,1,1.239-1.787" transform="translate(-6377)" fill="#fff"/>
    <path id="Path_17600" data-name="Path 17600" d="M6632.892,993.254l.741.012c-.008.213-.013.426-.016.642a9.736,9.736,0,0,1,1.729-.782c.009.255.021.512.033.77a12.684,12.684,0,0,0-1.7.621c-.068,1.224-.029,2.452-.036,3.679-.255,0-.5-.008-.755-.009.007-1.645,0-3.288.006-4.933" transform="translate(-6377)" fill="#fff"/>
    <path id="Path_17601" data-name="Path 17601" d="M6647.258,993.915c-.506.147-.6.732-.675,1.175a3.958,3.958,0,0,0,.237,2.133,1.488,1.488,0,0,0,1.791.283c.6-.343.576-1.135.592-1.735-.02-.584.017-1.316-.474-1.727a1.726,1.726,0,0,0-1.471-.129m-.154-.661a2.239,2.239,0,0,1,2.457.672,4.952,4.952,0,0,1,.229,3.056,1.521,1.521,0,0,1-1.174,1.249,2.345,2.345,0,0,1-2.4-.611,4.329,4.329,0,0,1-.351-2.574,1.782,1.782,0,0,1,1.236-1.792" transform="translate(-6377)" fill="#fff"/>
    <path id="Path_17602" data-name="Path 17602" d="M6651.82,993.534a2.706,2.706,0,0,1,2.241-.21,1.889,1.889,0,0,1,.745,1.6c.042,1.086.007,2.173.017,3.261-.246,0-.49.008-.73.015a17.734,17.734,0,0,0-.2-4.008c-.547-.666-1.507-.223-2.186-.04,0,1.348,0,2.693,0,4.041-.235,0-.471,0-.7,0,.011-1.66,0-3.323.008-4.984a1.13,1.13,0,0,1,.809.326" transform="translate(-6377)" fill="#fff"/>
    <path id="Path_17603" data-name="Path 17603" d="M6488.738,993.359a4.571,4.571,0,0,1,2.405-.072c-.016.21-.029.419-.044.632-.8-.041-2.049-.363-2.394.631a4.627,4.627,0,0,0,.077,2.546c.491.792,1.563.5,2.329.447.018.206.036.413.055.623-.943.106-2.162.4-2.873-.43a4.148,4.148,0,0,1-.438-2.5c.1-.681.211-1.517.883-1.876" transform="translate(-6377)" fill="#fff"/>
    <path id="Path_17604" data-name="Path 17604" d="M6502.2,993.266c.25-.005.5-.011.752-.014,0,1.649,0,3.3,0,4.945-.251-.005-.5-.009-.754-.012,0-1.64,0-3.279,0-4.919" transform="translate(-6377)" fill="#fff"/>
    <path id="Path_17605" data-name="Path 17605" d="M6556.008,993.262l.718-.017c.012,1.647,0,3.295.008,4.942-.244,0-.484.005-.726.01,0-1.644,0-3.289,0-4.935" transform="translate(-6377)" fill="#fff"/>
    <path id="Path_17606" data-name="Path 17606" d="M6588.843,998.2c0-1.652-.006-3.3.007-4.952l.712.014c0,1.643,0,3.288.006,4.932-.243,0-.484,0-.725.006" transform="translate(-6377)" fill="#fff"/>
    <path id="Path_17607" data-name="Path 17607" d="M6595.88,998.184c0-1.646,0-3.292.006-4.937l.723.014q0,2.471,0,4.942c-.243-.007-.486-.015-.727-.019" transform="translate(-6377)" fill="#fff"/>
    <path id="Path_17608" data-name="Path 17608" d="M6639.056,977.509c.292-.628,1.529-.765,1.646.035-.352.092-.9-.132-1.084.282-.187.253.037.531.1.781q.57-.167,1.146-.34c.041.168.087.336.137.508q-1.044.231-2.094.4l-.053-.375.383-.093a1.24,1.24,0,0,1-.186-1.2" transform="translate(-6377)" fill="#fff"/>
    <path id="Path_17609" data-name="Path 17609" d="M6588.155,978.3c.269,0,.54,0,.813.009-.006.325-.007.652-.007.98-.271,0-.539,0-.806,0q0-.5,0-.993" transform="translate(-6377)" fill="#fff"/>
    <path id="Path_17610" data-name="Path 17610" d="M6525.513,988.539c.273,0,.546,0,.82,0q.006.494.011.992c-.279,0-.556,0-.834,0,0-.33,0-.66,0-.988" transform="translate(-6377)" fill="#fff"/>
    <path id="Path_17611" data-name="Path 17611" d="M6503.589,981.06a16.662,16.662,0,0,0-.019,3.386c.814.011,1.627.007,2.442.007a7.766,7.766,0,0,0-.252-2.916c-.5-.685-1.436-.528-2.171-.477m5.656-2.964c.317-.005.632-.008.948-.008q.01,3.6,0,7.212c-1.087-.1-2.294.28-3.278-.324.009.083.029.246.037.329q-3.71-.006-7.42,0c0-.287-.006-.572-.011-.855q1.572.008,3.144,0a11.217,11.217,0,0,1,.13-4.038,3.975,3.975,0,0,1,3.478.213c.878.825.611,2.129.674,3.206-.041.337.327.547.612.6.56.054,1.121.015,1.683.021,0-2.12,0-4.238,0-6.356" transform="translate(-6377)" fill="#fff"/>
    <path id="Path_17612" data-name="Path 17612" d="M6511.949,978.091h.927q0,3.609,0,7.216c-.307,0-.613,0-.92,0-.008-2.406,0-4.81,0-7.216" transform="translate(-6377)" fill="#fff"/>
    <path id="Path_17613" data-name="Path 17613" d="M6536.221,978.3c.273,0,.545,0,.82,0,0,.33,0,.663,0,1q-.412,0-.824-.005c0-.331,0-.66.009-.987" transform="translate(-6377)" fill="#fff"/>
    <path id="Path_17614" data-name="Path 17614" d="M6541.031,978.3c.285,0,.572.005.86.009,0,.325,0,.652,0,.981-.285,0-.57,0-.853,0,0-.333,0-.662,0-.992" transform="translate(-6377)" fill="#fff"/>
    <path id="Path_17615" data-name="Path 17615" d="M6542.383,978.3l.819,0c0,.329,0,.658.009.989q-.414,0-.824.007-.005-.5,0-1" transform="translate(-6377)" fill="#fff"/>
    <path id="Path_17616" data-name="Path 17616" d="M6545.266,978.091h.918q0,3.606,0,7.212c-.718.006-1.435,0-2.151,0,0-.287.006-.572.012-.855h1.219c0-2.119,0-4.241,0-6.362" transform="translate(-6377)" fill="#fff"/>
    <path id="Path_17617" data-name="Path 17617" d="M6547.942,978.088l.948,0c0,2.4,0,4.807,0,7.209-.317,0-.632.005-.946.009q0-3.612,0-7.221" transform="translate(-6377)" fill="#fff"/>
    <path id="Path_17618" data-name="Path 17618" d="M6577.594,984.448q-.008-3.18,0-6.36l.927,0q0,3.181,0,6.361h1.2c-.005.284-.007.569-.007.854q-1.655,0-3.31,0c.008-.285.015-.57.022-.854.389,0,.779,0,1.17-.005" transform="translate(-6377)" fill="#fff"/>
    <path id="Path_17619" data-name="Path 17619" d="M6580.917,978.091c.311,0,.623,0,.938,0q0,3.6,0,7.211c-.7,0-1.406,0-2.108,0,0-.285,0-.572,0-.855q.581,0,1.165,0c0-2.119,0-4.241,0-6.362" transform="translate(-6377)" fill="#fff"/>
    <path id="Path_17620" data-name="Path 17620" d="M6586.841,978.3l.836.005c-.006.329-.007.66-.009.992-.286,0-.567-.005-.846-.006q.005-.5.019-.991" transform="translate(-6377)" fill="#fff"/>
    <path id="Path_17621" data-name="Path 17621" d="M6601.821,981.329a2.942,2.942,0,0,0,1.056,2.111c.181.148.375.378.643.314a3.417,3.417,0,0,0,1.527-2.411,4.236,4.236,0,0,0-3.226-.014m-3.45,3.978c0-2.406,0-4.81,0-7.216h.94q.009,3.18,0,6.362a13.042,13.042,0,0,0,3.16-.175,6.1,6.1,0,0,1-1.381-1.836,4.491,4.491,0,0,1-.211-1.617,5.035,5.035,0,0,1,3.242-.639,7.244,7.244,0,0,1,1.825.655,4.318,4.318,0,0,1-1.629,3.457,8.737,8.737,0,0,0,2.153.158c-.009.283-.015.567-.021.852a6.93,6.93,0,0,1-3.052-.428c-1.585.7-3.354.336-5.029.428" transform="translate(-6377)" fill="#fff"/>
    <path id="Path_17622" data-name="Path 17622" d="M6607.666,984.455q-.006-3.182,0-6.365.469,0,.941,0,0,3.6,0,7.213-1.065,0-2.129,0c0-.285.011-.57.02-.853.387,0,.775,0,1.166,0" transform="translate(-6377)" fill="#fff"/>
    <path id="Path_17623" data-name="Path 17623" d="M6610.337,985.3q0-3.607,0-7.215h.929c0,2.406,0,4.81,0,7.216-.31,0-.618,0-.924,0" transform="translate(-6377)" fill="#fff"/>
    <path id="Path_17624" data-name="Path 17624" d="M6645.541,981.053a11.256,11.256,0,0,0-.012,3.4c.807,0,1.615,0,2.424,0a9.673,9.673,0,0,0-.189-2.809c-.439-.795-1.466-.641-2.223-.591m5.664-2.962q.467,0,.939,0c-.007,2.4.007,4.8-.007,7.206-1.082-.1-2.294.292-3.267-.32.01.081.028.244.039.327-1.939-.006-3.878,0-5.817,0,0-.285,0-.568,0-.851.487,0,.976,0,1.467,0a13.129,13.129,0,0,1,.183-4.03,3.894,3.894,0,0,1,3.508.221c.9.938.578,2.354.667,3.529a4.452,4.452,0,0,0,2.294.273c-.007-2.12,0-4.24,0-6.359" transform="translate(-6377)" fill="#fff"/>
    <g id="Group_525" data-name="Group 525" transform="translate(-6377)">
      <rect id="Rectangle_311" data-name="Rectangle 311" width="1.098" height="7.389" transform="translate(6653.729 978.006)" fill="#fff"/>
      <g id="Group_524" data-name="Group 524" clip-path="url(#clip-path)">
        <path id="Path_17625" data-name="Path 17625" d="M6653.854,978.1c.32-.005.644-.006.969-.005,0,2.4-.005,4.809,0,7.214l-.969-.007q0-3.6,0-7.2" fill="#fff"/>
      </g>
    </g>
    <path id="Path_17626" data-name="Path 17626" d="M6499.493,984.451h-.882a9.531,9.531,0,0,0-.218-2.783,2.753,2.753,0,0,0-1.513-1.677,5.818,5.818,0,0,0-3.945.109c.008.25.015.5.039.749,1.279-.265,2.76-.616,3.9.234,1.029.795.756,2.238.787,3.376-.413-.008-.826-.008-1.247-.008a2.456,2.456,0,0,0-.741-2.144,1.817,1.817,0,0,0-2.566.281,2.8,2.8,0,0,0-.452,1.871c-.951-.008-1.9-.008-2.862-.008,0-1.4,0-2.807.008-4.21h-.936v4.218c-1.567-.094-3.189.2-4.725-.187-.125.257-.249.515-.366.78a8.67,8.67,0,0,0,1.551.288,1.678,1.678,0,0,1-.787,1.528,9.428,9.428,0,0,1-2.355.133c-.85.039-1.9,0-2.378-.819a5.173,5.173,0,0,1-.016-2.628l-.881-.163c-.109,1.162-.593,2.588.281,3.571a3.843,3.843,0,0,0,3.181.874c1.014-.063,2.176.226,3.049-.437a2.847,2.847,0,0,0,.858-2.1c4.413.008,8.819,0,13.232,0C6499.5,985.021,6499.5,984.732,6499.493,984.451Zm-5.88-.007c.039-.538-.109-1.271.476-1.576a.972.972,0,0,1,1.123.219c.335.374.234.9.273,1.364C6494.861,984.459,6494.237,984.459,6493.613,984.444Z" transform="translate(-6377)" fill="#fff"/>
    <path id="Path_17627" data-name="Path 17627" d="M6515.359,981.418a3.66,3.66,0,0,0,.025,2.773,4.187,4.187,0,0,0,2,.264c-.015-1.173.021-2.345-.025-3.517-.672,0-1.577-.208-2,.48m-1.1.235a1.7,1.7,0,0,1,1.341-1.554,7.759,7.759,0,0,1,2.711.148c-.009,1.65.032,3.3-.021,4.949a3.482,3.482,0,0,1-.744,2.3c-.78.584-1.8.286-2.671.14,0-.272,0-.545.007-.816.707.048,1.5.357,2.161-.03a3.046,3.046,0,0,0,.342-1.489c-.932-.068-2.2.288-2.825-.622a5.1,5.1,0,0,1-.3-3.026" transform="translate(-6377)" fill="#fff"/>
    <path id="Path_17628" data-name="Path 17628" d="M6567.841,980.1a3.048,3.048,0,0,1,2.8.567c.987.994.885,2.487.867,3.777.817.009,1.633.005,2.451.005q0-2.1,0-4.211c.308,0,.619,0,.931,0,0,1.4,0,2.806,0,4.21.5,0,1,0,1.494-.005-.006.285-.011.57-.015.857-2.994,0-5.986-.006-8.981,0,0-.287,0-.572,0-.857q1.6,0,3.2,0c-.036-1.07.187-2.4-.751-3.167-.515-.517-1.289-.359-1.946-.4-.019-.263-.039-.523-.055-.782" transform="translate(-6377)" fill="#fff"/>
    <path id="Path_17629" data-name="Path 17629" d="M6593.6,981.044a11.492,11.492,0,0,0-.028,3.406c.814.009,1.627,0,2.442,0a7.927,7.927,0,0,0-.236-2.869c-.466-.735-1.439-.568-2.178-.54m-7.16.424a3.224,3.224,0,0,0,.133,2.6c.687.56,1.654.338,2.474.387,0-1.138,0-2.274,0-3.411-.878-.006-1.885-.223-2.6.424m-.935-.211a1.708,1.708,0,0,1,1.519-1.089,13.89,13.89,0,0,1,2.952.1c.007,1.4,0,2.793,0,4.19.883,0,1.768-.005,2.652,0a11.751,11.751,0,0,1,.182-4.045,4.591,4.591,0,0,1,2.871-.1,1.641,1.641,0,0,1,1.121,1.215,21.182,21.182,0,0,1,.155,3.779c-3.074,0-6.148.006-9.221,0-.788-.006-1.762-.109-2.15-.91a4.829,4.829,0,0,1-.083-3.136" transform="translate(-6377)" fill="#fff"/>
    <path id="Path_17630" data-name="Path 17630" d="M6615.977,981.429a2.86,2.86,0,0,0,.066,2.76,6.021,6.021,0,0,0,2.436.263c-.007-1.137,0-2.271,0-3.406-.825.029-1.844-.276-2.5.383m-1.025-.2a1.789,1.789,0,0,1,1.631-1.075,16.643,16.643,0,0,1,2.8.1c.018,1.4.009,2.8,0,4.2.9,0,1.8.007,2.7-.012q-.006-1.845,0-3.691.458,0,.923.005-.008,1.855,0,3.712a3.521,3.521,0,0,0,1.392-.2c.473-1.113.222-2.345.278-3.517l.927.009a23.7,23.7,0,0,1-.114,3.473,3.659,3.659,0,0,0,1.689.222,30.805,30.805,0,0,0-.178-4.175l.767-.035a15.285,15.285,0,0,1,.331,4.213q1.221,0,2.444,0,0-1.85,0-3.7l.936,0c.006,1.237,0,2.472,0,3.707.547-.012,1.353.113,1.538-.581a14.884,14.884,0,0,0,.146-3.129h.924a22.9,22.9,0,0,1-.115,3.473,3.544,3.544,0,0,0,1.671.228,32.579,32.579,0,0,0-.156-4.171c.252-.014.507-.028.764-.04a20.421,20.421,0,0,1,.316,5.065c-1-.057-2.08.188-2.994-.338a2.148,2.148,0,0,1-.994.331c-1.691.021-3.384-.009-5.074.009a4.5,4.5,0,0,1-2.4-.345,2.068,2.068,0,0,1-1.126.341q-3.431,0-6.858,0c-.75-.021-1.689-.1-2.065-.862a4.625,4.625,0,0,1-.1-3.216" transform="translate(-6377)" fill="#fff"/>
    <path id="Path_17631" data-name="Path 17631" d="M6638.914,981.315a3.085,3.085,0,0,0-.012,2.9,4.371,4.371,0,0,0,1.931.239c0-1.175.016-2.352-.011-3.525-.636.019-1.448-.187-1.908.385m-.206-1.084a5.962,5.962,0,0,1,3.081.014q0,2.106,0,4.208h1.275c0,.284,0,.567,0,.854-.425,0-.847,0-1.27-.007a3.553,3.553,0,0,1-.757,2.178c-.767.6-1.794.31-2.665.162,0-.273,0-.544,0-.815.67.034,1.391.326,2.035.027.5-.347.373-1.023.429-1.543-.84-.059-1.8.168-2.54-.329a3.492,3.492,0,0,1-.666-2.58c.055-.807.224-1.828,1.076-2.169" transform="translate(-6377)" fill="#fff"/>
    <path id="Path_17632" data-name="Path 17632" d="M6536.3,981.422a4.162,4.162,0,0,0,.013,3.023c.67.012,1.341.008,2.011.008,0-1.115,0-2.231,0-3.346a3.043,3.043,0,0,0-2.022.315m-4.643-1.177c.307,0,.613,0,.921,0q0,2.106,0,4.212,1.36,0,2.723,0a5.767,5.767,0,0,1-.023-2.993,1.5,1.5,0,0,1,.987-1.048,8.662,8.662,0,0,1,3-.057q0,2.049,0,4.094h.873c0,.284-.007.567-.007.852-3.707-.005-7.412.012-11.118-.008a2.363,2.363,0,0,1-3.038,2.564,8.163,8.163,0,0,1-3.211-.321,2.154,2.154,0,0,1-1.33-1.969,15.232,15.232,0,0,1,.277-2.177l.868.167a8.436,8.436,0,0,0-.176,2.164,1.743,1.743,0,0,0,1.808,1.266,19.036,19.036,0,0,0,2.973-.082c.689-.186.853-.949.893-1.567a8,8,0,0,1-1.555-.3c.14-.249.28-.5.423-.74a28.462,28.462,0,0,0,4.711.149c0-1.4,0-2.8,0-4.2" transform="translate(-6377)" fill="#fff"/>
    <path id="Path_17633" data-name="Path 17633" d="M6541.629,980.24l.943,0c0,1.4,0,2.808,0,4.21h1.439c0,.285-.008.57-.008.855-1.282-.006-2.562,0-3.843,0,0-.285,0-.57,0-.853h1.465q0-2.1,0-4.213" transform="translate(-6377)" fill="#fff"/>
    <path id="Path_17634" data-name="Path 17634" d="M6558,980.243h.949c0,1.4,0,2.808,0,4.213.476,0,.951,0,1.43,0-.007.284-.013.567-.016.852-1.837,0-3.673.007-5.508-.005-.754-.046-1.7-.05-2.156-.76-.479-.913-.111-1.96.011-2.917-.007-.416.541-.173.8-.252a8.653,8.653,0,0,0-.162,2.366c.155.562.8.646,1.289.694,1.118.054,2.239.009,3.358.022q-.006-2.1,0-4.21" transform="translate(-6377)" fill="#fff"/>
    <path id="Path_17635" data-name="Path 17635" d="M6561.888,980.24h.931q0,2.531,0,5.063c-.807.006-1.614,0-2.421,0,0-.285.007-.57.012-.853h1.476c0-1.4-.005-2.808,0-4.212" transform="translate(-6377)" fill="#fff"/>
    <path id="Path_17636" data-name="Path 17636" d="M6565.424,980.256c.3,0,.606,0,.912,0-.006,1.83.012,3.661-.006,5.493a2.164,2.164,0,0,1-.962,1.951,2.593,2.593,0,0,1-1.409.116c0-.263-.009-.521-.011-.78.433-.083,1.021,0,1.254-.473a4.371,4.371,0,0,0,.228-1.7c-.008-1.536,0-3.071-.006-4.605" transform="translate(-6377)" fill="#fff"/>
    <path id="Path_17637" data-name="Path 17637" d="M6562.612,986.129c.268,0,.541,0,.814.011q0,.471,0,.945h-.817c0-.319,0-.637,0-.955" transform="translate(-6377)" fill="#fff"/>
    <path id="Path_17638" data-name="Path 17638" d="M6481.4,988.54c.271,0,.542-.005.815-.005v.994c-.273,0-.547,0-.82,0,0-.328,0-.658,0-.987" transform="translate(-6377)" fill="#fff"/>
    <path id="Path_17639" data-name="Path 17639" d="M6482.714,988.533c.272,0,.542,0,.813.007v.986l-.825.005c0-.332.009-.665.012-1" transform="translate(-6377)" fill="#fff"/>
    <path id="Path_17640" data-name="Path 17640" d="M6531.668,978.287c.3,0,.6,0,.9,0,0,.332,0,.663,0,1l-.9,0c0-.334,0-.669,0-1" transform="translate(-6377)" fill="#fff"/>
    <path id="Path_17641" data-name="Path 17641" d="M6574.677,978.3l.841.005-.006.988-.833,0c0-.331,0-.661,0-.99" transform="translate(-6377)" fill="#fff"/>
    <path id="Path_17642" data-name="Path 17642" d="M6616.273,978.3l.829.012c-.006.326-.006.653-.006.98-.276,0-.55,0-.825,0,0-.332,0-.664,0-.995" transform="translate(-6377)" fill="#fff"/>
    <path id="Path_17643" data-name="Path 17643" d="M6488.888,978.283c.294,0,.589,0,.885.008,0,.33,0,.663,0,1q-.445,0-.888,0c0-.336,0-.672.007-1.007" transform="translate(-6377)" fill="#fff"/>
    <path id="Path_17644" data-name="Path 17644" d="M6537.526,979.288q0-.494,0-.987c.268,0,.537,0,.807,0q0,.488.006.982h-.808" transform="translate(-6377)" fill="#fff"/>
    <path id="Path_17645" data-name="Path 17645" d="M6573.366,979.295c0-.332-.005-.663-.005-1l.862.008c0,.323,0,.647,0,.972q-.434.006-.861.016" transform="translate(-6377)" fill="#fff"/>
    <path id="Path_17646" data-name="Path 17646" d="M6617.582,979.288c0-.329,0-.656,0-.983.27,0,.541,0,.813,0,0,.327,0,.656,0,.985" transform="translate(-6377)" fill="#fff"/>
    <path id="Path_17647" data-name="Path 17647" d="M6555.453,986.134c.3,0,.6,0,.9,0q0,.483,0,.971c-.3,0-.6,0-.9,0,0-.323,0-.647,0-.967" transform="translate(-6377)" fill="#fff"/>
    <path id="Path_17648" data-name="Path 17648" d="M6524.164,988.544c.287-.005.574-.009.862-.007q0,.494-.007.992c-.285,0-.569,0-.855,0,0-.331,0-.659,0-.987" transform="translate(-6377)" fill="#fff"/>
    <path id="Path_17649" data-name="Path 17649" d="M6561.258,986.127c.286,0,.57.007.857.012,0,.313,0,.628,0,.943-.288,0-.574,0-.86.005q0-.483,0-.96" transform="translate(-6377)" fill="#fff"/>
    <path id="Path_17650" data-name="Path 17650" d="M6502.2,991.295c.25,0,.5-.006.753-.006,0,.29,0,.584.007.877-.253-.005-.5-.007-.756-.008,0-.289,0-.575,0-.863" transform="translate(-6377)" fill="#fff"/>
    <path id="Path_17651" data-name="Path 17651" d="M6527.737,994.169a2.9,2.9,0,0,0-.376,1.763c.046.589.044,1.379.7,1.641a2.792,2.792,0,0,0,1.738-.281c0-1.127.006-2.252-.007-3.378-.675-.048-1.5-.281-2.05.255m2.057-3.034h.736c-.006,2.352,0,4.706,0,7.058-.246,0-.491,0-.734,0,0-.074,0-.221,0-.3a2.634,2.634,0,0,1-2.323.22,2.233,2.233,0,0,1-.851-1.835,4.019,4.019,0,0,1,.509-2.538c.67-.755,1.775-.593,2.669-.479-.009-.71-.006-1.419-.006-2.129" transform="translate(-6377)" fill="#fff"/>
    <path id="Path_17652" data-name="Path 17652" d="M6556.008,991.294c.242,0,.482,0,.726,0,0,.289-.006.579-.006.871q-.365-.006-.723-.006,0-.435,0-.865" transform="translate(-6377)" fill="#fff"/>
    <path id="Path_17653" data-name="Path 17653" d="M6644.1,998.2c0-1.652-.02-3.3.01-4.954.176.006.528.019.7.027,0,1.641,0,3.283.006,4.924-.244,0-.483,0-.72,0" transform="translate(-6377)" fill="#fff"/>
    <path id="Path_17654" data-name="Path 17654" d="M6588.845,991.291c.239,0,.48,0,.723,0,0,.291,0,.581,0,.873-.243,0-.483,0-.722,0,0-.292,0-.582,0-.872" transform="translate(-6377)" fill="#fff"/>
    <path id="Path_17655" data-name="Path 17655" d="M6544.815,993.282a5.222,5.222,0,0,1,2.233.009q0,.313,0,.631a3.862,3.862,0,0,0-2.275.2,4.169,4.169,0,0,0,.012,3.112c.574.632,1.522.34,2.266.315q0,.315.005.632c-.869.081-1.893.332-2.646-.248-.719-.625-.612-1.666-.617-2.523a2.138,2.138,0,0,1,1.025-2.127" transform="translate(-6377)" fill="#fff"/>
    <path id="Path_17656" data-name="Path 17656" d="M6636.572,996.231c0,.385,0,.77.016,1.158.659.52,1.5.207,2.217-.013,0-.537,0-1.071,0-1.607a4.205,4.205,0,0,0-2.235.462m-.438-2.824a5.974,5.974,0,0,1,2.111-.225,1.187,1.187,0,0,1,1.153.84c.2,1.1,0,2.217.123,3.32.257.3.582.563.565,1.009a5.4,5.4,0,0,1-1.246-.409,4.147,4.147,0,0,1-2.028.326c-1.183-.227-1.35-2.116-.393-2.71a10.745,10.745,0,0,1,2.417-.383c-.065-.445.02-1.065-.478-1.281a9.847,9.847,0,0,0-2.326.056c.026-.135.077-.408.1-.543" transform="translate(-6377)" fill="#fff"/>
  </g>
</svg>
