<svg xmlns="http://www.w3.org/2000/svg" width="224.997" height="48.631"><defs><clipPath id="a"><path fill="#fff" d="M6653.729 978.006h1.098v7.389h-1.098z" data-name="Rectangle 312"/></clipPath></defs><g data-name="Group 2051"><path fill="#fff" d="M210.925.798c.319-.379.691-.842 1.246-.795a1.307 1.307 0 0 1 1.31 1.3c0 .889-.171 1.768-.2 2.655-.039 1.108-.153 2.211-.275 3.314-.993.576-2 1.129-2.977 1.732a6.5 6.5 0 0 1-1.179.571 160 160 0 0 0-1.019-3.626c-.1-.428-.349-.956.006-1.333q1.551-1.9 3.09-3.818" data-name="Path 17551"/><path fill="#fff" d="M186.392 26.303c1.349-1.168 2.691-2.342 4.039-3.513q2.3.63 4.579 1.308-1.115 2.157-2.3 4.274c-1.925.161-3.843.445-5.775.5a1.274 1.274 0 0 1-1.286-1.306 1.74 1.74 0 0 1 .747-1.259" data-name="Path 17552"/><path fill="#fff" d="M196.068 1.301a1.244 1.244 0 0 1 1.288-1.215 1.55 1.55 0 0 1 1.142.669c1.091 1.353 2.211 2.684 3.311 4.031.257.233.063.576.012.857-.393 1.332-.7 2.69-1.11 4.014a8.6 8.6 0 0 1-1.426-.755c-.916-.509-1.826-1.032-2.736-1.551-.13-2.019-.465-4.023-.481-6.05" data-name="Path 17553"/><path fill="#fff" d="M214.774 23.964c1.52-.468 3.05-.9 4.575-1.357 1.236 1.108 2.518 2.163 3.777 3.245.44.382 1.02.787 1.026 1.436a1.345 1.345 0 0 1-1.56 1.407c-1.83-.178-3.663-.312-5.494-.464-.776-1.422-1.583-2.826-2.324-4.267" data-name="Path 17554"/><path fill="#fff" d="M196.689 32.304c1.372-.789 2.761-1.549 4.124-2.354a21 21 0 0 1 .385 2.327c.111.931.365 1.847.384 2.789.038.275-.188.464-.331.665-.9 1.061-1.773 2.14-2.655 3.212a1.4 1.4 0 0 1-1.379.608 1.437 1.437 0 0 1-1.049-1.708c.249-1.839.3-3.7.521-5.539" data-name="Path 17555"/><path fill="#fff" d="M204.625 2.227q.231-.008.464-.013c.711 2.466 1.27 4.976 1.923 7.456a5.46 5.46 0 0 1 .367 2.435c-.2.724-.4 1.448-.579 2.176l-.46-.142a14.7 14.7 0 0 0-.534-2.5 4.2 4.2 0 0 0-1.874-.1 17 17 0 0 0-.53 2.568q-.242.089-.48.181c-.174-.764-.4-1.515-.6-2.27a2.64 2.64 0 0 1 .158-1.462c.735-2.772 1.377-5.568 2.143-8.331" data-name="Path 17556"/><path fill="#fff" d="M192.785 7.203a2.8 2.8 0 0 1 .73.3c2.434 1.478 4.88 2.941 7.319 4.412a1.64 1.64 0 0 1 .59.739c.332.612.676 1.216 1 1.831l-.406.229c-.683-.446-1.307-.989-2.032-1.365-.638.13-1.077.8-1.41 1.321a14.4 14.4 0 0 0 1.354 2.2 19 19 0 0 0-.249.415c-.666-.4-1.341-.782-2.01-1.175a1.24 1.24 0 0 1-.5-.527q-2.271-3.991-4.55-7.977l.164-.4" data-name="Path 17557"/><path fill="#fff" d="M216.376 7.401c.238-.15.58-.279.725.063a3.3 3.3 0 0 1-.349.764c-1.459 2.511-2.864 5.054-4.336 7.556a16 16 0 0 1-2.407 1.5q-.105-.215-.206-.431a15 15 0 0 0 1.34-2.177 3.2 3.2 0 0 0-1.332-1.347 16 16 0 0 0-2.095 1.375l-.429-.2c.4-.732.782-1.469 1.206-2.184a1.64 1.64 0 0 1 .636-.548c2.421-1.447 4.832-2.911 7.247-4.367" data-name="Path 17558"/><path fill="#fff" d="M196.139 17.273a1.7 1.7 0 0 1 1.059-.125c.77.23 1.551.424 2.315.674l-.16.424c-.832.206-1.692.3-2.506.574.018.638-.22 1.394.129 1.957.756.295 1.6.322 2.385.549l.142.439c-.86.246-1.718.513-2.589.722-3.075-.8-6.158-1.6-9.213-2.486.072-.194.04-.515.311-.542 2.705-.745 5.419-1.454 8.127-2.186" data-name="Path 17559"/><path fill="#fff" d="M210.203 17.834c.747-.27 1.521-.446 2.28-.683a1.93 1.93 0 0 1 1.178.141c2.764.742 5.523 1.49 8.291 2.214a5 5 0 0 1-.015.5 4 4 0 0 1-.789.263c-2.748.728-5.493 1.473-8.239 2.2a21 21 0 0 1-2.7-.726c.037-.1.11-.311.146-.415.725-.182 1.461-.3 2.192-.459.239-.017.331-.26.359-.466a5.3 5.3 0 0 0-.088-1.652c-.817-.173-1.639-.32-2.45-.512-.043-.1-.126-.307-.169-.409" data-name="Path 17560"/><path fill="#fff" d="M197.654 23.485q1.022-.6 2.048-1.2l.216.439c-.412.65-.89 1.261-1.25 1.943-.2.286.094.536.259.748a4.1 4.1 0 0 0 .836.772c.207.107.4-.058.579-.154.57-.379 1.117-.793 1.681-1.181.1.057.312.171.416.23q-.664 1.217-1.345 2.424c-2.637 1.566-5.252 3.168-7.885 4.741-.239.2-.484-.011-.634-.2l4.261-7.468c.235-.389.394-.87.818-1.1" data-name="Path 17561"/><path fill="#fff" d="M210.025 22.285c.782.467 1.573.919 2.353 1.39 1.452 2.6 2.948 5.179 4.424 7.77.129.239.239.488.347.74-.111.036-.334.107-.444.144a18 18 0 0 1-1.609-.93q-2.742-1.657-5.49-3.3c-.408-.261-.914-.446-1.152-.9-.4-.689-.771-1.4-1.168-2.092l.365-.252c.695.423 1.313.971 2.038 1.35.071 0 .211-.008.282-.009a6.2 6.2 0 0 0 1.069-1.071c.186-.224.007-.5-.114-.7a73 73 0 0 0-1.139-1.711q.117-.212.238-.423" data-name="Path 17562"/><path fill="#fff" d="m202.925 25.285.472.162a23 23 0 0 0 .5 2.537 3.9 3.9 0 0 0 1.91-.035 14 14 0 0 0 .521-2.5l.475-.162c.172.674.338 1.351.536 2.02a4.3 4.3 0 0 1 .053 1.737c-.6 5.044-1.161 10.091-1.742 15.138a29 29 0 0 1-.653 4.455c-.136-.124-.393-.166-.415-.379a23 23 0 0 1-.327-2.6c-.524-4.36-.988-8.725-1.516-13.084-.1-1.522-.412-3.023-.48-4.548.125-.93.472-1.818.668-2.736" data-name="Path 17563"/><path fill="#fff" d="M184.925 38.618a2.3 2.3 0 0 1 .758.189c5.633 2.013 11.275 4 16.907 6.014.153 1.234.364 2.461.553 3.691-5.425-2.568-10.716-5.4-16.051-8.151-.768-.43-1.6-.755-2.329-1.243a.63.63 0 0 1 .162-.5" data-name="Path 17564"/><path fill="#fff" d="M224.325 38.708c.189-.054.454-.192.582.044.306.341-.218.533-.45.673-5.94 3.04-11.817 6.208-17.842 9.078.126-1.23.389-2.44.521-3.67 5.72-2.067 11.463-4.073 17.189-6.125" data-name="Path 17565"/><path fill="#fff" d="M217.014 11.252c1.915-.073 3.81-.416 5.725-.487a1.32 1.32 0 0 1 1.248 1.789 2.5 2.5 0 0 1-.735.873q-1.986 1.7-3.943 3.435c-1.54-.4-3.065-.862-4.6-1.3.748-1.446 1.539-2.872 2.3-4.311" data-name="Path 17566"/><path fill="#fff" d="M185.568 12.462a1.38 1.38 0 0 1 1.069-1.5 15 15 0 0 1 1.924.124c1.291.149 2.6.145 3.885.336.256.019.332.306.457.487.673 1.269 1.389 2.517 2.063 3.787q-2.02.59-4.036 1.2c-.252.06-.563.174-.767-.051-1.25-1.039-2.462-2.123-3.712-3.165a2 2 0 0 1-.883-1.219" data-name="Path 17567"/><path fill="#fff" d="M209.025 29.937c1.369.792 2.738 1.587 4.131 2.34q.288 2.855.534 5.72a1.36 1.36 0 0 1-.888 1.508 1.32 1.32 0 0 1-1.482-.5c-1.023-1.245-2.037-2.5-3.09-3.723.22-1.787.518-3.565.8-5.346" data-name="Path 17568"/><path fill="#fff" d="M13.459 31.416h.7v2.4a3.2 3.2 0 0 1 2.222-.266c.653.241.805 1.011.865 1.622.062 1.1.012 2.2.028 3.3-.24 0-.48.009-.721.016a20 20 0 0 0-.2-4.015c-.568-.632-1.5-.254-2.2-.087v4.091h-.706c.008-2.356 0-4.71 0-7.065" data-name="Path 17569"/><path fill="#fff" d="M34.325 31.424q.365-.002.729-.008c.009 2.353 0 4.707.007 7.063h-.735z" data-name="Path 17570"/><path fill="#fff" d="m94.066 31.424.686-.007c.013 2.354 0 4.708.006 7.064-.234 0-.465-.008-.7-.008.007-2.348 0-4.7 0-7.049" data-name="Path 17571"/><path fill="#fff" d="M117.204 31.579h.732v.867q-.366-.001-.725.006a42 42 0 0 1-.007-.871" data-name="Path 17572"/><path fill="#fff" d="M165.418 31.576h.72v.866c-.243 0-.482 0-.72.008z" data-name="Path 17573"/><path fill="#fff" d="M.012 31.64h4.773v.7a35 35 0 0 1-2.013.033c.006 2.036 0 4.073 0 6.109h-.758v-6.1H.024l-.014-.736" data-name="Path 17574"/><path fill="#fff" d="M54.701 31.642c.243 0 .487-.005.734-.005.529 2.048 1.023 4.106 1.531 6.16l.56.012c.488-2.062.993-4.119 1.532-6.167h.745c-.565 2.281-1.165 4.553-1.731 6.835h-1.669c-.537-2.285-1.179-4.546-1.7-6.835" data-name="Path 17575"/><path fill="#fff" d="M97.545 31.64h4.808q-.01.365-.016.732h-2.015c.008 2.032 0 4.066 0 6.1-.242 0-.479.008-.717.015a623 623 0 0 1 0-6.116h-2.049q-.01-.369-.014-.736" data-name="Path 17576"/><path fill="#fff" d="M131.899 31.969c.982-.668 2.258-.389 3.348-.191q-.021.324-.035.654c-.941-.114-2.016-.408-2.874.143a4.05 4.05 0 0 0-.616 2.771c.029.788.02 1.783.737 2.294a4.38 4.38 0 0 0 2.755.081l.035.668a4.96 4.96 0 0 1-3.209-.13c-1.053-.64-1-2.011-1.057-3.088.058-1.09-.039-2.447.916-3.2" data-name="Path 17577"/><path fill="#fff" d="M74.325 32.051c.23 0 .462-.006.7-.006v1.5h1.512c0 .22-.007.44-.009.663q-.75.001-1.5-.005c.012.964-.024 1.93.012 2.894 0 .306.08.719.432.806a5 5 0 0 0 1.083-.018l.077.6a3.7 3.7 0 0 1-1.68.005c-.489-.184-.539-.77-.6-1.21-.065-1.024-.01-2.049-.03-3.075-.232 0-.463 0-.693.009v-.667h.7v-1.493" data-name="Path 17578"/><path fill="#fff" d="M162.411 32.042c.176.005.528.013.7.019v1.486q.757 0 1.516-.007v.667h-1.514a30 30 0 0 0 .068 3.343c.266.6 1.012.319 1.517.335l-.042.541a2.56 2.56 0 0 1-1.426.129 1.02 1.02 0 0 1-.772-1.022c-.1-1.1-.026-2.214-.046-3.32a42 42 0 0 0-.705-.011v-.653q.347-.006.7-.009v-1.5" data-name="Path 17579"/><path fill="#fff" d="M5.642 34.306c-.463.316-.441.94-.524 1.436.841.007 1.682 0 2.524 0a3.6 3.6 0 0 0-.253-1.249 1.366 1.366 0 0 0-1.747-.19m-.146-.662a2.1 2.1 0 0 1 2.347.351 3.4 3.4 0 0 1 .494 2.318c-1.069 0-2.141-.007-3.211.011.071.5.015 1.175.56 1.429a5.34 5.34 0 0 0 2.472.1c0 .148 0 .443.009.593a6.2 6.2 0 0 1-2.761-.032c-.878-.408-1.006-1.506-1.008-2.361.033-.88.2-2 1.1-2.407" data-name="Path 17580"/><path fill="#fff" d="M19.367 33.804a2.63 2.63 0 0 1 2.217-.185c.556.284.629.972.7 1.526.075 1.11.02 2.224.034 3.337-.243-.009-.485-.013-.729-.021-.032-1.207.068-2.42-.057-3.622a.78.78 0 0 0-.782-.708 2.76 2.76 0 0 0-1.5.354c-.048 1.325-.006 2.653-.011 3.98l-.756.017c0-1.664-.01-3.328.009-4.992a1.5 1.5 0 0 1 .877.314" data-name="Path 17581"/><path fill="#fff" d="M26.244 33.618a4.65 4.65 0 0 1 2.349-.04c-.009.156-.023.471-.032.628a3.76 3.76 0 0 0-2.247.193 4.05 4.05 0 0 0 .009 3.138c.593.6 1.51.33 2.254.3 0 .206.012.412.019.619a4.05 4.05 0 0 1-2.551-.151 2.83 2.83 0 0 1-.763-2.431c.036-.813.145-1.841.962-2.256" data-name="Path 17582"/><path fill="#fff" d="M30.312 36.315a1.01 1.01 0 0 0 .158 1.62 3.85 3.85 0 0 0 1.771-.274v-1.607a7.4 7.4 0 0 0-1.933.261m-.741-2.662a8 8 0 0 1 2.257-.176 1.17 1.17 0 0 1 1.054.987c.146 1.043-.021 2.1.082 3.149.244.317.611.556.558 1.019a4 4 0 0 1-1.222-.408 3.78 3.78 0 0 1-2.2.289 1.61 1.61 0 0 1-.326-2.622 8.8 8.8 0 0 1 2.5-.429c-.066-.445.037-1.1-.49-1.291a9 9 0 0 0-2.213.064z" data-name="Path 17583"/><path fill="#fff" d="M38.97 36.345c-.093.517-.295 1.28.291 1.578a3.8 3.8 0 0 0 1.8-.246q.012-.812.012-1.623a9.7 9.7 0 0 0-2.1.291m-.539-2.662a5.8 5.8 0 0 1 2.21-.2 1.19 1.19 0 0 1 1.1 1.015c.1 1.092.006 2.19.059 3.286q.27.137.543.278-.027.286-.053.577a5.4 5.4 0 0 1-1.152-.412 4.1 4.1 0 0 1-2.088.323 1.552 1.552 0 0 1-.285-2.731 11.6 11.6 0 0 1 2.337-.355c-.066-.445.028-1.126-.509-1.3a11.3 11.3 0 0 0-2.24.067c.022-.138.064-.412.083-.549" data-name="Path 17584"/><path fill="#fff" d="M43.944 33.836a2.65 2.65 0 0 1 2.149-.267 1.63 1.63 0 0 1 .794 1.488c.047 1.14.006 2.28.024 3.422h-.692c-.084-1.348.236-2.778-.264-4.063-.576-.575-1.477-.163-2.139.03 0 1.344-.005 2.686 0 4.03q-.345.002-.688.011c0-1.666-.007-3.329.007-4.993a1.13 1.13 0 0 1 .807.345" data-name="Path 17585"/><path fill="#fff" d="M61.037 34.639a6.4 6.4 0 0 0-.1 2.445c.153 1.184 2.285 1.187 2.435 0a5.5 5.5 0 0 0-.169-2.691c-.667-.351-1.717-.5-2.169.248m.416-1.118a2.34 2.34 0 0 1 2.281.534 4 4 0 0 1 .448 2.7 1.81 1.81 0 0 1-1.206 1.742 2.44 2.44 0 0 1-2.443-.544 4.15 4.15 0 0 1-.4-2.611 1.85 1.85 0 0 1 1.324-1.821" data-name="Path 17586"/><path fill="#fff" d="M69.946 36.34c-.114.5-.329 1.173.188 1.527.614.267 1.288-.058 1.9-.2q.008-.809.008-1.618a10 10 0 0 0-2.095.289m-.589-2.69c1.028-.118 2.4-.574 3.17.362.422 1.086.111 2.289.214 3.425-.056.356.338.476.553.671l-.041.531a5.8 5.8 0 0 1-1.156-.415 3.08 3.08 0 0 1-2.489.153 1.66 1.66 0 0 1 .025-2.516 9.5 9.5 0 0 1 2.426-.4c-.048-.452.037-1.124-.5-1.3a9 9 0 0 0-2.2.078v-.593" data-name="Path 17587"/><path fill="#fff" d="M80.354 34.262c-.517.341-.535 1.054-.563 1.613a2.72 2.72 0 0 0 .4 1.786 1.89 1.89 0 0 0 1.875.077 2.96 2.96 0 0 0 .375-1.509c-.012-.647.058-1.445-.473-1.92a1.84 1.84 0 0 0-1.61-.047m.108-.753a2.16 2.16 0 0 1 2.408.807 5.18 5.18 0 0 1 .076 3.255 2.164 2.164 0 0 1-3.674-.012 5.9 5.9 0 0 1-.077-2.741 1.6 1.6 0 0 1 1.267-1.309" data-name="Path 17588"/><path fill="#fff" d="M85.025 33.863a2.65 2.65 0 0 1 2.214-.28 1.75 1.75 0 0 1 .8 1.581c.049 1.1.009 2.209.023 3.313h-.728c-.015-1.1.05-2.2-.036-3.3-.049-.36-.084-.831-.487-.969a3.1 3.1 0 0 0-1.874.241v4.039q-.35-.011-.7-.019c.016-1.642-.031-3.287.033-4.928h.585l.167.326" data-name="Path 17589"/><path fill="#fff" d="M89.99 36.343a1.07 1.07 0 0 0 .13 1.566 3.47 3.47 0 0 0 1.809-.229c.01-.542.01-1.083.017-1.624a6.1 6.1 0 0 0-1.956.287m-.692-2.655a5.7 5.7 0 0 1 2.327-.2 1.265 1.265 0 0 1 1.031 1.153c.082 1.068-.043 2.142.094 3.207l.479.211-.084.587a5.5 5.5 0 0 1-1.118-.439 3.77 3.77 0 0 1-2.144.316 1.554 1.554 0 0 1-.22-2.72 12 12 0 0 1 2.317-.348 5.2 5.2 0 0 0-.245-1.267 10.6 10.6 0 0 0-2.51.041l.073-.546" data-name="Path 17590"/><path fill="#fff" d="M102.953 34.167a13 13 0 0 1 1.731-.753q.014.382.026.77a5.5 5.5 0 0 0-1.706.694c-.071 1.192-.011 2.391-.023 3.587q-.377.009-.744.021c0-1.648-.007-3.295 0-4.942q.368 0 .743.005l-.032.618" data-name="Path 17591"/><path fill="#fff" d="M106.014 36.359c-.046.508-.3 1.275.306 1.55a3.5 3.5 0 0 0 1.814-.238c.009-.54.011-1.078.016-1.617a8.7 8.7 0 0 0-2.136.3m-.524-2.68a6.3 6.3 0 0 1 2.007-.221 1.25 1.25 0 0 1 1.278.948c.163 1.07-.018 2.159.093 3.232.1.225.362.317.543.477q-.04.264-.073.533a9 9 0 0 1-1.155-.423 3.03 3.03 0 0 1-2.486.143 1.664 1.664 0 0 1 .04-2.51 10.2 10.2 0 0 1 2.441-.4 4.2 4.2 0 0 0-.269-1.257 10.3 10.3 0 0 0-2.516.038c.025-.139.072-.416.1-.556" data-name="Path 17592"/><path fill="#fff" d="M112.974 33.836a2.68 2.68 0 0 1 2.245-.23c.588.283.672 1 .727 1.571.068 1.1.017 2.2.033 3.3h-.7c-.013-1.043.025-2.084-.008-3.126-.024-.444-.112-1.029-.608-1.177a3.4 3.4 0 0 0-1.779.259v4.044l-.727.007v-4.929c.162 0 .486-.012.645-.018.044.076.131.223.173.3" data-name="Path 17593"/><path fill="#fff" d="M120.017 33.836a2.66 2.66 0 0 1 2.239-.232c.585.283.685.991.736 1.569.07 1.1.019 2.2.033 3.306h-.709a18.3 18.3 0 0 0-.176-3.939c-.5-.758-1.53-.29-2.218-.108v4.049h-.725c.013-1.642 0-3.285 0-4.925.156-.005.47-.016.626-.019.046.074.141.223.187.3" data-name="Path 17594"/><path fill="#fff" d="M125.033 39.968a2.9 2.9 0 0 0 2.09.026c.506-.266.325-.915.329-1.378a7.5 7.5 0 0 0-2.17-.2.96.96 0 0 0-.249 1.551m-.118-4.286c.23.661 1.1.564 1.642.427.624-.336.374-1.154.369-1.724a1.84 1.84 0 0 0-1.489-.258c-.665.152-.707 1.025-.522 1.555m-.678-1.337a1.64 1.64 0 0 1 1.723-.884 13.5 13.5 0 0 0 2.363.074v.655l-.833-.032a2.15 2.15 0 0 1-.149 2.229 3 3 0 0 1-1.972.408c-.032.294-.329.685.019.887.794.22 1.709-.079 2.435.391a1.56 1.56 0 0 1-.633 2.58 3.19 3.19 0 0 1-2.864-.334 1.61 1.61 0 0 1 .36-2.178 2 2 0 0 1 .1-1.465 2.09 2.09 0 0 1-.548-2.331" data-name="Path 17595"/><path fill="#fff" d="M137.289 34.225c-.893.54-.569 1.835-.561 2.711 0 1.283 2.205 1.392 2.452.2a6.1 6.1 0 0 0-.043-2.325c-.189-.79-1.228-.826-1.848-.588m0-.711a2.42 2.42 0 0 1 2.181.459 3.3 3.3 0 0 1 .54 2.249 2.7 2.7 0 0 1-.568 1.889 2.57 2.57 0 0 1-2.234.4 1.8 1.8 0 0 1-1.278-1.763 4.46 4.46 0 0 1 .336-2.523 1.52 1.52 0 0 1 1.023-.711" data-name="Path 17596"/><path fill="#fff" d="M141.801 34.197a9.4 9.4 0 0 1 1.719-.785q.01.386.026.778a9.8 9.8 0 0 0-1.715.642c-.018 1.216-.007 2.431 0 3.647l-.775-.023c.013-1.638.008-3.276.008-4.912h.765c0 .162-.018.489-.023.653" data-name="Path 17597"/><path fill="#fff" d="M145.025 34.464c0 1.13-.006 2.261 0 3.39.665.055 1.469.279 2.007-.249a2.92 2.92 0 0 0 .419-2.085c-.062-.475-.172-1.063-.646-1.295-.594-.258-1.216.069-1.785.239m.118-.635a2.25 2.25 0 0 1 2.3-.109c.723.528.709 1.518.734 2.322a2.7 2.7 0 0 1-.706 2.168 3.7 3.7 0 0 1-2.445.323c.006.71 0 1.419.009 2.129-.179 0-.537.013-.716.016-.007-2.391 0-4.782 0-7.171a1.06 1.06 0 0 1 .832.322" data-name="Path 17598"/><path fill="#fff" d="M150.025 34.433a5.4 5.4 0 0 0-.047 2.966 1.45 1.45 0 0 0 1.84.4c.533-.246.525-.911.573-1.409a4.15 4.15 0 0 0-.254-1.909 1.74 1.74 0 0 0-2.112-.052m.29-.89a2.3 2.3 0 0 1 2.392.564 4.17 4.17 0 0 1 .418 2.641 1.78 1.78 0 0 1-1.309 1.768 2.3 2.3 0 0 1-2.375-.621 4.23 4.23 0 0 1-.365-2.565 1.86 1.86 0 0 1 1.239-1.787" data-name="Path 17599"/><path fill="#fff" d="m154.217 33.539.741.012q-.012.319-.016.642a9.7 9.7 0 0 1 1.729-.782q.014.383.033.77a13 13 0 0 0-1.7.621c-.068 1.224-.029 2.452-.036 3.679-.255 0-.5-.008-.755-.009.007-1.645 0-3.288.006-4.933" data-name="Path 17600"/><path fill="#fff" d="M168.583 34.2c-.506.147-.6.732-.675 1.175a3.96 3.96 0 0 0 .237 2.133 1.49 1.49 0 0 0 1.791.283c.6-.343.576-1.135.592-1.735-.02-.584.017-1.316-.474-1.727a1.73 1.73 0 0 0-1.471-.129m-.154-.661a2.24 2.24 0 0 1 2.457.672 4.95 4.95 0 0 1 .229 3.056 1.52 1.52 0 0 1-1.174 1.249 2.35 2.35 0 0 1-2.4-.611 4.33 4.33 0 0 1-.351-2.574 1.78 1.78 0 0 1 1.236-1.792" data-name="Path 17601"/><path fill="#fff" d="M173.145 33.819a2.7 2.7 0 0 1 2.241-.21 1.89 1.89 0 0 1 .745 1.6c.042 1.086.007 2.173.017 3.261-.246 0-.49.008-.73.015a17.7 17.7 0 0 0-.2-4.008c-.547-.666-1.507-.223-2.186-.04v4.041h-.7c.011-1.66 0-3.323.008-4.984a1.13 1.13 0 0 1 .809.326" data-name="Path 17602"/><path fill="#fff" d="M10.063 33.644a4.57 4.57 0 0 1 2.405-.072q-.023.314-.044.632c-.8-.041-2.049-.363-2.394.631a4.63 4.63 0 0 0 .077 2.546c.491.792 1.563.5 2.329.447l.055.623c-.943.106-2.162.4-2.873-.43a4.15 4.15 0 0 1-.438-2.5c.1-.681.211-1.517.883-1.876" data-name="Path 17603"/><path fill="#fff" d="M23.525 33.551q.375-.009.752-.014v4.945q-.375-.008-.754-.012v-4.919" data-name="Path 17604"/><path fill="#fff" d="m77.333 33.547.718-.017c.012 1.647 0 3.295.008 4.942q-.364.001-.726.01z" data-name="Path 17605"/><path fill="#fff" d="M110.168 38.485c0-1.652-.006-3.3.007-4.952l.712.014q-.001 2.465.006 4.932-.364-.001-.725.006" data-name="Path 17606"/><path fill="#fff" d="M117.205 38.469q-.001-2.47.006-4.937l.723.014v4.942q-.365-.012-.727-.019" data-name="Path 17607"/><path fill="#fff" d="M160.381 17.794c.292-.628 1.529-.765 1.646.035-.352.092-.9-.132-1.084.282-.187.253.037.531.1.781q.57-.167 1.146-.34.062.251.137.508-1.044.231-2.094.4l-.053-.375.383-.093a1.24 1.24 0 0 1-.186-1.2" data-name="Path 17608"/><path fill="#fff" d="M109.48 18.585c.269 0 .54 0 .813.009a53 53 0 0 0-.007.98h-.806v-.993" data-name="Path 17609"/><path fill="#fff" d="M46.838 28.824h.82l.011.992h-.834v-.988" data-name="Path 17610"/><path fill="#fff" d="M24.914 21.345a16.7 16.7 0 0 0-.019 3.386c.814.011 1.627.007 2.442.007a7.8 7.8 0 0 0-.252-2.916c-.5-.685-1.436-.528-2.171-.477m5.656-2.964q.475-.008.948-.008.01 3.6 0 7.212c-1.087-.1-2.294.28-3.278-.324.009.083.029.246.037.329q-3.71-.006-7.42 0-.002-.43-.011-.855 1.572.008 3.144 0a11.2 11.2 0 0 1 .13-4.038 3.98 3.98 0 0 1 3.478.213c.878.825.611 2.129.674 3.206-.041.337.327.547.612.6.56.054 1.121.015 1.683.021v-6.356" data-name="Path 17611"/><path fill="#fff" d="M33.274 18.376h.927v7.216h-.92c-.008-2.406 0-4.81 0-7.216" data-name="Path 17612"/><path fill="#fff" d="M57.546 18.585h.82v1q-.412 0-.824-.005c0-.331 0-.66.009-.987" data-name="Path 17613"/><path fill="#fff" d="M62.356 18.585q.428.002.86.009v.981h-.853v-.992" data-name="Path 17614"/><path fill="#fff" d="M63.708 18.585h.819c0 .329 0 .658.009.989q-.414 0-.824.007-.005-.5 0-1" data-name="Path 17615"/><path fill="#fff" d="M66.591 18.376h.918v7.212c-.718.006-1.435 0-2.151 0q.002-.43.012-.855h1.219v-6.362" data-name="Path 17616"/><path fill="#fff" d="M69.267 18.373h.948v7.209q-.475.001-.946.009V18.37" data-name="Path 17617"/><path fill="#fff" d="M98.919 24.733q-.008-3.18 0-6.36h.927v6.361h1.2q-.007.426-.007.854h-3.31l.022-.854q.584.001 1.17-.005" data-name="Path 17618"/><path fill="#fff" d="M102.242 18.376h.938v7.211h-2.108v-.855h1.165V18.37" data-name="Path 17619"/><path fill="#fff" d="m108.166 18.585.836.005q-.008.494-.009.992c-.286 0-.567-.005-.846-.006q.005-.5.019-.991" data-name="Path 17620"/><path fill="#fff" d="M123.146 21.614a2.94 2.94 0 0 0 1.056 2.111c.181.148.375.378.643.314a3.42 3.42 0 0 0 1.527-2.411 4.24 4.24 0 0 0-3.226-.014m-3.45 3.978v-7.216h.94q.009 3.18 0 6.362a13 13 0 0 0 3.16-.175 6.1 6.1 0 0 1-1.381-1.836 4.5 4.5 0 0 1-.211-1.617 5.04 5.04 0 0 1 3.242-.639 7.2 7.2 0 0 1 1.825.655 4.32 4.32 0 0 1-1.629 3.457 8.7 8.7 0 0 0 2.153.158q-.013.424-.021.852a6.9 6.9 0 0 1-3.052-.428c-1.585.7-3.354.336-5.029.428" data-name="Path 17621"/><path fill="#fff" d="M128.991 24.74q-.006-3.182 0-6.365h.941v7.213h-2.129c0-.285.011-.57.02-.853h1.166" data-name="Path 17622"/><path fill="#fff" d="M131.662 25.585V18.37h.929v7.216h-.924" data-name="Path 17623"/><path fill="#fff" d="M166.866 21.338a11.3 11.3 0 0 0-.012 3.4h2.424a9.7 9.7 0 0 0-.189-2.809c-.439-.795-1.466-.641-2.223-.591m5.664-2.962h.939c-.007 2.4.007 4.8-.007 7.206-1.082-.1-2.294.292-3.267-.32.01.081.028.244.039.327-1.939-.006-3.878 0-5.817 0v-.851h1.467a13.1 13.1 0 0 1 .183-4.03 3.9 3.9 0 0 1 3.508.221c.9.938.578 2.354.667 3.529a4.45 4.45 0 0 0 2.294.273c-.007-2.12 0-4.24 0-6.359" data-name="Path 17624"/><g data-name="Group 525"><path fill="#fff" d="M175.054 18.291h1.098v7.389h-1.098z" data-name="Rectangle 311"/><g clip-path="url(#a)" data-name="Group 524" transform="translate(-6478.675 -959.715)"><path fill="#fff" d="M6653.854 978.1q.48-.007.969-.005c0 2.4-.005 4.809 0 7.214l-.969-.007v-7.2" data-name="Path 17625"/></g></g><path fill="#fff" d="M20.818 24.736h-.882a9.5 9.5 0 0 0-.218-2.783 2.75 2.75 0 0 0-1.513-1.677 5.82 5.82 0 0 0-3.945.109c.008.25.015.5.039.749 1.279-.265 2.76-.616 3.9.234 1.029.795.756 2.238.787 3.376-.413-.008-.826-.008-1.247-.008a2.46 2.46 0 0 0-.741-2.144 1.817 1.817 0 0 0-2.566.281 2.8 2.8 0 0 0-.452 1.871c-.951-.008-1.9-.008-2.862-.008 0-1.4 0-2.807.008-4.21h-.936v4.218c-1.567-.094-3.189.2-4.725-.187q-.189.384-.366.78a8.7 8.7 0 0 0 1.551.288 1.68 1.68 0 0 1-.787 1.528 9.4 9.4 0 0 1-2.355.133c-.85.039-1.9 0-2.378-.819a5.2 5.2 0 0 1-.016-2.628l-.881-.163c-.109 1.162-.593 2.588.281 3.571a3.84 3.84 0 0 0 3.181.874c1.014-.063 2.176.226 3.049-.437a2.85 2.85 0 0 0 .858-2.1c4.413.008 8.819 0 13.232 0-.009-.278-.009-.567-.016-.848m-5.88-.007c.039-.538-.109-1.271.476-1.576a.97.97 0 0 1 1.123.219c.335.374.234.9.273 1.364q-.936.014-1.872-.007" data-name="Path 17626"/><path fill="#fff" d="M36.684 21.703a3.66 3.66 0 0 0 .025 2.773 4.2 4.2 0 0 0 2 .264c-.015-1.173.021-2.345-.025-3.517-.672 0-1.577-.208-2 .48m-1.1.235a1.7 1.7 0 0 1 1.341-1.554 7.8 7.8 0 0 1 2.711.148c-.009 1.65.032 3.3-.021 4.949a3.48 3.48 0 0 1-.744 2.3c-.78.584-1.8.286-2.671.14q-.002-.409.007-.816c.707.048 1.5.357 2.161-.03a3.05 3.05 0 0 0 .342-1.489c-.932-.068-2.2.288-2.825-.622a5.1 5.1 0 0 1-.3-3.026" data-name="Path 17627"/><path fill="#fff" d="M89.166 20.385a3.05 3.05 0 0 1 2.8.567c.987.994.885 2.487.867 3.777.817.009 1.633.005 2.451.005v-4.211h.931v4.21c.5 0 1 0 1.494-.005q-.009.427-.015.857c-2.994 0-5.986-.006-8.981 0v-.857h3.2c-.036-1.07.187-2.4-.751-3.167-.515-.517-1.289-.359-1.946-.4q-.03-.394-.055-.782" data-name="Path 17628"/><path fill="#fff" d="M114.925 21.329a11.5 11.5 0 0 0-.028 3.406c.814.009 1.627 0 2.442 0a7.9 7.9 0 0 0-.236-2.869c-.466-.735-1.439-.568-2.178-.54m-7.16.424a3.22 3.22 0 0 0 .133 2.6c.687.56 1.654.338 2.474.387v-3.411c-.878-.006-1.885-.223-2.6.424m-.935-.211a1.71 1.71 0 0 1 1.519-1.089 14 14 0 0 1 2.952.1c.007 1.4 0 2.793 0 4.19.883 0 1.768-.005 2.652 0a11.8 11.8 0 0 1 .182-4.045 4.6 4.6 0 0 1 2.871-.1 1.64 1.64 0 0 1 1.121 1.215 21 21 0 0 1 .155 3.779c-3.074 0-6.148.006-9.221 0-.788-.006-1.762-.109-2.15-.91a4.83 4.83 0 0 1-.083-3.136" data-name="Path 17629"/><path fill="#fff" d="M137.302 21.714a2.86 2.86 0 0 0 .066 2.76 6 6 0 0 0 2.436.263c-.007-1.137 0-2.271 0-3.406-.825.029-1.844-.276-2.5.383m-1.025-.2a1.79 1.79 0 0 1 1.631-1.075 16.6 16.6 0 0 1 2.8.1c.018 1.4.009 2.8 0 4.2.9 0 1.8.007 2.7-.012q-.006-1.845 0-3.691.458 0 .923.005-.008 1.855 0 3.712a3.5 3.5 0 0 0 1.392-.2c.473-1.113.222-2.345.278-3.517l.927.009a24 24 0 0 1-.114 3.473 3.66 3.66 0 0 0 1.689.222 31 31 0 0 0-.178-4.175l.767-.035a15.3 15.3 0 0 1 .331 4.213h2.444v-3.7h.936c.006 1.237 0 2.472 0 3.707.547-.012 1.353.113 1.538-.581a15 15 0 0 0 .146-3.129h.924a23 23 0 0 1-.115 3.473 3.54 3.54 0 0 0 1.671.228 33 33 0 0 0-.156-4.171q.378-.021.764-.04a20.4 20.4 0 0 1 .316 5.065c-1-.057-2.08.188-2.994-.338a2.15 2.15 0 0 1-.994.331c-1.691.021-3.384-.009-5.074.009a4.5 4.5 0 0 1-2.4-.345 2.07 2.07 0 0 1-1.126.341h-6.858c-.75-.021-1.689-.1-2.065-.862a4.63 4.63 0 0 1-.1-3.216" data-name="Path 17630"/><path fill="#fff" d="M160.239 21.6a3.09 3.09 0 0 0-.012 2.9 4.4 4.4 0 0 0 1.931.239c0-1.175.016-2.352-.011-3.525-.636.019-1.448-.187-1.908.385m-.206-1.084a5.96 5.96 0 0 1 3.081.014v4.208h1.275v.854q-.637.002-1.27-.007a3.55 3.55 0 0 1-.757 2.178c-.767.6-1.794.31-2.665.162v-.815c.67.034 1.391.326 2.035.027.5-.347.373-1.023.429-1.543-.84-.059-1.8.168-2.54-.329a3.5 3.5 0 0 1-.666-2.58c.055-.807.224-1.828 1.076-2.169" data-name="Path 17631"/><path fill="#fff" d="M57.625 21.707a4.16 4.16 0 0 0 .013 3.023c.67.012 1.341.008 2.011.008v-3.346a3.04 3.04 0 0 0-2.022.315m-4.643-1.177h.921v4.212h2.723a5.77 5.77 0 0 1-.023-2.993 1.5 1.5 0 0 1 .987-1.048 8.7 8.7 0 0 1 3-.057v4.094h.873c0 .284-.007.567-.007.852-3.707-.005-7.412.012-11.118-.008a2.363 2.363 0 0 1-3.038 2.564 8.2 8.2 0 0 1-3.211-.321 2.15 2.15 0 0 1-1.33-1.969 15 15 0 0 1 .277-2.177l.868.167a8.4 8.4 0 0 0-.176 2.164 1.74 1.74 0 0 0 1.808 1.266 19 19 0 0 0 2.973-.082c.689-.186.853-.949.893-1.567a8 8 0 0 1-1.555-.3c.14-.249.28-.5.423-.74a28.5 28.5 0 0 0 4.711.149v-4.2" data-name="Path 17632"/><path fill="#fff" d="M62.954 20.525h.943v4.21h1.439c0 .285-.008.57-.008.855-1.282-.006-2.562 0-3.843 0v-.853h1.465v-4.213" data-name="Path 17633"/><path fill="#fff" d="M79.325 20.528h.949v4.213h1.43q-.011.425-.016.852c-1.837 0-3.673.007-5.508-.005-.754-.046-1.7-.05-2.156-.76-.479-.913-.111-1.96.011-2.917-.007-.416.541-.173.8-.252a8.7 8.7 0 0 0-.162 2.366c.155.562.8.646 1.289.694 1.118.054 2.239.009 3.358.022q-.006-2.1 0-4.21" data-name="Path 17634"/><path fill="#fff" d="M83.213 20.525h.931v5.063c-.807.006-1.614 0-2.421 0 0-.285.007-.57.012-.853h1.476c0-1.4-.005-2.808 0-4.212" data-name="Path 17635"/><path fill="#fff" d="M86.749 20.541h.912c-.006 1.83.012 3.661-.006 5.493a2.16 2.16 0 0 1-.962 1.951 2.6 2.6 0 0 1-1.409.116c0-.263-.009-.521-.011-.78.433-.083 1.021 0 1.254-.473a4.4 4.4 0 0 0 .228-1.7c-.008-1.536 0-3.071-.006-4.605" data-name="Path 17636"/><path fill="#fff" d="M83.937 26.414c.268 0 .541 0 .814.011v.945h-.817v-.955" data-name="Path 17637"/><path fill="#fff" d="M2.725 28.825c.271 0 .542-.005.815-.005v.994h-.82v-.987" data-name="Path 17638"/><path fill="#fff" d="M4.039 28.818q.407-.002.813.007v.986l-.825.005c0-.332.009-.665.012-1" data-name="Path 17639"/><path fill="#fff" d="M52.993 18.572h.9v1h-.9z" data-name="Path 17640"/><path fill="#fff" d="m96.002 18.585.841.005-.006.988h-.833v-.99" data-name="Path 17641"/><path fill="#fff" d="m137.598 18.585.829.012q-.007.49-.006.98h-.825v-.995" data-name="Path 17642"/><path fill="#fff" d="M10.213 18.568q.441-.002.885.008v1h-.888q-.002-.504.007-1.007" data-name="Path 17643"/><path fill="#fff" d="M58.851 19.573v-.987h.807q0 .488.006.982h-.808" data-name="Path 17644"/><path fill="#fff" d="M94.691 19.58c0-.332-.005-.663-.005-1l.862.008v.972q-.434.006-.861.016" data-name="Path 17645"/><path fill="#fff" d="M138.907 19.573v-.983h.813v.985" data-name="Path 17646"/><path fill="#fff" d="M76.778 26.419h.9v.971h-.9v-.967" data-name="Path 17647"/><path fill="#fff" d="M45.489 28.829q.43-.009.862-.007 0 .494-.007.992h-.855v-.987" data-name="Path 17648"/><path fill="#fff" d="M82.583 26.412c.286 0 .57.007.857.012v.943q-.431-.001-.86.005v-.96" data-name="Path 17649"/><path fill="#fff" d="M23.525 31.58c.25 0 .5-.006.753-.006q-.002.436.007.877c-.253-.005-.5-.007-.756-.008v-.863" data-name="Path 17650"/><path fill="#fff" d="M49.062 34.454a2.9 2.9 0 0 0-.376 1.763c.046.589.044 1.379.7 1.641a2.8 2.8 0 0 0 1.738-.281c0-1.127.006-2.252-.007-3.378-.675-.048-1.5-.281-2.05.255m2.057-3.034h.736c-.006 2.352 0 4.706 0 7.058h-.734v-.3a2.63 2.63 0 0 1-2.323.22 2.23 2.23 0 0 1-.851-1.835 4.02 4.02 0 0 1 .509-2.538c.67-.755 1.775-.593 2.669-.479-.009-.71-.006-1.419-.006-2.129" data-name="Path 17651"/><path fill="#fff" d="M77.333 31.579h.726c0 .289-.006.579-.006.871q-.365-.006-.723-.006v-.865" data-name="Path 17652"/><path fill="#fff" d="M165.425 38.485c0-1.652-.02-3.3.01-4.954.176.006.528.019.7.027q-.001 2.462.006 4.924h-.72" data-name="Path 17653"/><path fill="#fff" d="M110.17 31.576h.723v.873h-.722v-.872" data-name="Path 17654"/><path fill="#fff" d="M66.14 33.567a5.2 5.2 0 0 1 2.233.009v.631a3.86 3.86 0 0 0-2.275.2 4.17 4.17 0 0 0 .012 3.112c.574.632 1.522.34 2.266.315q0 .315.005.632c-.869.081-1.893.332-2.646-.248-.719-.625-.612-1.666-.617-2.523a2.14 2.14 0 0 1 1.025-2.127" data-name="Path 17655"/><path fill="#fff" d="M157.897 36.516c0 .385 0 .77.016 1.158.659.52 1.5.207 2.217-.013v-1.607a4.2 4.2 0 0 0-2.235.462m-.438-2.824a6 6 0 0 1 2.111-.225 1.19 1.19 0 0 1 1.153.84c.2 1.1 0 2.217.123 3.32.257.3.582.563.565 1.009a5.4 5.4 0 0 1-1.246-.409 4.15 4.15 0 0 1-2.028.326c-1.183-.227-1.35-2.116-.393-2.71a10.8 10.8 0 0 1 2.417-.383c-.065-.445.02-1.065-.478-1.281a9.9 9.9 0 0 0-2.326.056c.026-.135.077-.408.1-.543" data-name="Path 17656"/></g></svg>