<svg xmlns="http://www.w3.org/2000/svg" width="24.127" height="22.677"><defs><clipPath id="a"><path fill="none" d="M0 0h24.127v22.677H0z" data-name="Rectangle 614"/></clipPath></defs><g fill="#fff" clip-path="url(#a)" data-name="Group 1336"><path d="M18.181 1.844a10 10 0 0 1 .944.691c.454.4.939.823 1.374 1.255.25.249.438.455.665.707a3.17 3.17 0 0 1 .736 3.047 7.7 7.7 0 0 1-1.066 2.347 15.4 15.4 0 0 1-1.612 2.116 17 17 0 0 1-1.344 1.341 25 25 0 0 1-2.787 2.2 9.5 9.5 0 0 1-2.871 1.31 4.1 4.1 0 0 1-2.045.015 1.34 1.34 0 0 1-1.1-1.1 1.66 1.66 0 0 1 .161-1 4.4 4.4 0 0 1 1.225-1.51c.456-.376.92-.746 1.4-1.1 1.007-.742 1.961-1.548 2.925-2.344.366-.3.724-.615 1.058-.95a12.7 12.7 0 0 0 1.847-2.528 6.3 6.3 0 0 0 .714-1.65 4 4 0 0 0-.213-2.709.14.14 0 0 1-.014-.141" data-name="Path 42014"/><path d="M11.59.012a3.5 3.5 0 0 1 .747.031A19 19 0 0 1 14.864.4a7 7 0 0 1 1.413.451 1.6 1.6 0 0 1 1.039 1.7 6 6 0 0 1-.37 1.792 14 14 0 0 1-1 1.927 11 11 0 0 1-.976 1.391 14 14 0 0 1-2.922 2.727 10.3 10.3 0 0 1-1.9 1.081 3.9 3.9 0 0 1-1.919.286 1.65 1.65 0 0 1-1.467-1.771 2.8 2.8 0 0 1 1.1-2.054 11 11 0 0 1 1.214-.83c.107-.068.209-.146.311-.223a11.7 11.7 0 0 0 1.656-1.469c.272-.3.532-.6.777-.924a7.4 7.4 0 0 0 .683-1 4.6 4.6 0 0 0 .539-1.538 1.49 1.49 0 0 0-.7-1.483 4.6 4.6 0 0 0-.61-.35c-.048-.024-.107-.034-.146-.106" data-name="Path 42015"/><path d="M23.576 10.793a6.95 6.95 0 0 1-.891 3.339 11 11 0 0 1-1.628 2.292 19.6 19.6 0 0 1-3.122 2.791 11.3 11.3 0 0 1-2.981 1.576 4.4 4.4 0 0 1-1.542.286A1.28 1.28 0 0 1 12.2 20.2a1.17 1.17 0 0 1 .406-1.38 15 15 0 0 1 1.6-1.1 36 36 0 0 0 3.384-2.451 18 18 0 0 0 1.613-1.477c.48-.5.922-1.037 1.354-1.581A9 9 0 0 0 22 9.591a7.3 7.3 0 0 0 .427-2.139c.005-.107.019-.213.028-.32 0-.041.006-.085.059-.093a.086.086 0 0 1 .094.063q.065.138.124.28a10.7 10.7 0 0 1 .789 2.7 4.4 4.4 0 0 1 .051.715" data-name="Path 42016"/><path d="M6.087 6.716a1.9 1.9 0 0 1-.472-.433 1.77 1.77 0 0 1-.237-1.63 1.52 1.52 0 0 1 .74-.776 2.33 2.33 0 0 0 .92-.958 1.5 1.5 0 0 0 .131-.519.465.465 0 0 0-.35-.524 1.13 1.13 0 0 0-.819.08 6.5 6.5 0 0 0-1.239.561c-.016.01-.037.014-.091.036a.7.7 0 0 1 .187-.206 8.9 8.9 0 0 1 4.5-2.072 3.5 3.5 0 0 1 1.2-.029 1.164 1.164 0 0 1 .977 1.178 3.7 3.7 0 0 1-.558 1.805 7.7 7.7 0 0 1-1.868 2.246 8.7 8.7 0 0 1-1.585 1.094A4.4 4.4 0 0 1 6 7a4.4 4.4 0 0 1-1.908-.153A1.81 1.81 0 0 1 2.838 5.81a1.6 1.6 0 0 1-.082-.947 2.17 2.17 0 0 1 .5-1.094 1.027 1.027 0 0 1 1.626.252A1.22 1.22 0 0 1 5 4.98a1.67 1.67 0 0 0 .315 1.53.68.68 0 0 0 .51.2c.074.008.149 0 .264 0" data-name="Path 42017"/><path d="M2.52 4.443c-.15.334-.291.644-.427.956a9.8 9.8 0 0 0-.655 1.763 1.84 1.84 0 0 0 .549 1.926 2.66 2.66 0 0 0 1.168.579 11 11 0 0 1 1.111.288 2.36 2.36 0 0 1 1.324 3.279 1.64 1.64 0 0 1-1.251.912 4.03 4.03 0 0 1-2.647-.369 3.04 3.04 0 0 1-1.208-1.206 3.96 3.96 0 0 1-.462-2.392 7.3 7.3 0 0 1 .214-1.311 11.5 11.5 0 0 1 1.652-3.649q.245-.342.5-.679a.19.19 0 0 1 .134-.1" data-name="Path 42018"/><path d="M24.127 12.6c-.043.27-.08.541-.13.809-.079.432-.143.868-.257 1.29a14 14 0 0 1-.628 1.819A10.8 10.8 0 0 1 20.825 20a10.6 10.6 0 0 1-2.775 2.042 6.4 6.4 0 0 1-1.789.615 2.5 2.5 0 0 1-.58.007.42.42 0 0 1-.258-.125.28.28 0 0 1 .035-.464c.416-.288.857-.535 1.288-.8a21.4 21.4 0 0 0 2.732-1.909 14 14 0 0 0 1.133-1.072 22 22 0 0 0 1.913-2.577 14.4 14.4 0 0 0 .976-1.854c.2-.4.381-.811.554-1.225a.3.3 0 0 1 .033-.048l.04.006" data-name="Path 42019"/></g></svg>