<svg xmlns="http://www.w3.org/2000/svg" width="56.459" height="56.446"><g fill="#c29669" data-name="Group 90"><path d="M-.004 3.961A5.3 5.3 0 0 1 4.14 0h18.613c5 .877 4.23 6.2 4.924 10.016l24.529.005a5.08 5.08 0 0 1 4.249 4.352v37.826a5.27 5.27 0 0 1-3.97 4.244H23.596c-4.825-1.138-4.052-6.206-4.747-10.028l-14.8-.033a5.31 5.31 0 0 1-4.053-3.939Zm4.906 39.143h23.431l-4.646-37.75c-.093-1.206-.544-1.925-1.8-2.054-5.408.274-11.178-.368-16.544-.006-1.335.09-1.932.56-2.038 1.931v35.953a1.83 1.83 0 0 0 1.601 1.926Zm20.454 10.034h26.188a1.856 1.856 0 0 0 1.6-1.926V15.368a1.88 1.88 0 0 0-1.6-2.035H28.117l3.859 31.59-.177.595Zm1.213-6.726h-4.3l.552 4.3Z" data-name="Path 1672"/><path d="m43.113 24.911 5.34.007a1.694 1.694 0 0 1 1.036 2.565c-.584.941-1.616.621-1.8.844-.123.146-.632 1.783-.806 2.171a19.4 19.4 0 0 1-3.1 4.943c1.066 1.073 2.58 1.947 3.638 2.975 1.711 1.663-.085 4.016-2.243 2.574-1.267-.846-2.467-2.11-3.672-3.061-1.288.9-2.4 2.129-3.689 3.015a1.94 1.94 0 0 1-1.483.512 1.673 1.673 0 0 1-1.152-2.707l3.966-3.308a19.4 19.4 0 0 1-3.1-4.943c-.174-.388-.683-2.025-.8-2.171-.187-.223-1.218.1-1.8-.844a1.694 1.694 0 0 1 1.036-2.565l5.341-.007V22.76a5 5 0 0 1 .331-.551 1.7 1.7 0 0 1 2.646 0 5 5 0 0 1 .331.551Zm.992 3.307h-5.293a17 17 0 0 0 1.194 2.61c.181.32 1.235 2.073 1.5 2.017.44-.094 2.478-3.927 2.599-4.627" data-name="Path 1673"/><path d="M12.871 11.704a27 27 0 0 1 4.157-.018 1.71 1.71 0 0 1 1.187 1.019l3.381 16.684c.3 2.421-2.643 3.127-3.351.595-.433-1.546-.582-3.312-.957-4.887l-.254-.187-4.253.048c-.216.155-.865 4.5-1.079 5.206a1.708 1.708 0 1 1-3.294-.868l3.262-16.255a1.77 1.77 0 0 1 1.201-1.337m3.668 9.9-1.235-6.429a.333.333 0 0 0-.617 0l-1.235 6.429Z" data-name="Path 1674"/></g></svg>