<svg xmlns="http://www.w3.org/2000/svg" width="56.459" height="56.446" viewBox="0 0 56.459 56.446">
  <g id="Group_90" data-name="Group 90" transform="translate(-768.404 -853.457)">
    <path id="Path_1672" data-name="Path 1672" d="M768.4,857.418a5.3,5.3,0,0,1,4.144-3.961l18.613,0c5,.877,4.23,6.2,4.924,10.016l24.529.005a5.082,5.082,0,0,1,4.249,4.352l0,37.826a5.273,5.273,0,0,1-3.97,4.244H792c-4.825-1.138-4.052-6.206-4.747-10.028l-14.8-.033A5.309,5.309,0,0,1,768.4,895.9Zm4.906,39.143h23.431l-4.646-37.75c-.093-1.206-.544-1.925-1.8-2.054-5.408.274-11.178-.368-16.544-.006-1.335.09-1.932.56-2.038,1.931v35.953A1.832,1.832,0,0,0,773.31,896.561Zm20.454,10.034h26.188a1.856,1.856,0,0,0,1.6-1.926V868.825a1.878,1.878,0,0,0-1.6-2.035H796.521l3.859,31.59-.177.595Zm1.213-6.726h-4.3l.552,4.3Z" fill="#c29669"/>
    <path id="Path_1673" data-name="Path 1673" d="M811.517,878.368l5.34.007a1.694,1.694,0,0,1,1.036,2.565c-.584.941-1.616.621-1.8.844-.123.146-.632,1.783-.806,2.171a19.444,19.444,0,0,1-3.1,4.943c1.066,1.073,2.58,1.947,3.638,2.975,1.711,1.663-.085,4.016-2.243,2.574-1.267-.846-2.467-2.11-3.672-3.061-1.288.9-2.4,2.129-3.689,3.015a1.94,1.94,0,0,1-1.483.512,1.673,1.673,0,0,1-1.152-2.707l3.966-3.308a19.444,19.444,0,0,1-3.1-4.943c-.174-.388-.683-2.025-.8-2.171-.187-.223-1.218.1-1.8-.844a1.694,1.694,0,0,1,1.036-2.565l5.341-.007v-2.151a4.656,4.656,0,0,1,.331-.551,1.7,1.7,0,0,1,2.646,0,4.785,4.785,0,0,1,.331.551Zm.992,3.307h-5.293a16.989,16.989,0,0,0,1.194,2.61c.181.32,1.235,2.073,1.5,2.017C810.35,886.208,812.388,882.375,812.509,881.675Z" fill="#c29669"/>
    <path id="Path_1674" data-name="Path 1674" d="M781.275,865.161a26.808,26.808,0,0,1,4.157-.018,1.71,1.71,0,0,1,1.187,1.019L790,882.846c.3,2.421-2.643,3.127-3.351.595-.433-1.546-.582-3.312-.957-4.887l-.254-.187-4.253.048c-.216.155-.865,4.5-1.079,5.206a1.708,1.708,0,1,1-3.294-.868l3.262-16.255A1.769,1.769,0,0,1,781.275,865.161Zm3.668,9.9-1.235-6.429a.333.333,0,0,0-.617,0l-1.235,6.429Z" fill="#c29669"/>
  </g>
</svg>
