<svg xmlns="http://www.w3.org/2000/svg" width="82.762" height="82.784" viewBox="0 0 82.762 82.784">
  <g id="Group_46" data-name="Group 46" transform="translate(-918.619 -683.526)">
    <path id="Path_1054" data-name="Path 1054" d="M965.783,766.31H954.154l-7.329-.666c-7.761-.908-23.8-4-27.513-11.737-.282-.588-.408-1.229-.693-1.81v-2.908a13.17,13.17,0,0,1,6.781-7.513c1.359-.644,3.063-.608,3.7.988,1.115,2.782-2.008,3.543-3.613,4.915-2.642,2.257-2.531,3.993.074,6.215a23.548,23.548,0,0,0,6.661,3.515c15.032,5.56,42.978,5.711,57.684-.874,2.595-1.162,8.247-4.086,5.827-7.559-1.1-1.583-4.412-2.926-4.9-4.145a2.479,2.479,0,0,1,3.058-3.38,14.325,14.325,0,0,1,2.63,1.569c7.207,5.1,6,11.744-1.033,16.189-7.794,4.923-20.214,6.584-29.316,7.033Z" fill="#fefefe"/>
    <path id="Path_1055" data-name="Path 1055" d="M968.852,737.881c4.921.521,13.8,1.728,17.2,5.653,4.7,5.426-2.86,9.266-7.19,10.581-10.417,3.164-33.207,3.63-42.69-2.05-5.061-3.031-4.774-7.63.264-10.495,4.211-2.4,9.887-3.184,14.645-3.689-4.444-8.315-9.966-16.935-12.642-26.041-6.843-23.29,23.931-38.593,38.966-20.068,5.727,7.057,6.224,14.245,3.237,22.612C977.726,722.569,973,730.285,968.852,737.881Zm-9.4-49.376a17.773,17.773,0,0,0-16.9,14.915c-.759,5.261,1.866,10.778,4.039,15.461,3.588,7.732,8.027,15.053,12.341,22.387a1.316,1.316,0,0,0,2.085,0,56.979,56.979,0,0,0,3.508-5.861c4.247-7.217,10.016-17.217,12.291-25.183C980.024,698.969,970.942,688.2,959.451,688.505Zm-5.491,54.1a36.028,36.028,0,0,0-3.9.309c-3.166.4-8.626,1.405-11.3,3.081-1.565.981-1.2,1.216.319,2.04,8.449,4.594,29.55,4.1,38.655,1.238.761-.24,4.37-1.584,4.516-2.278.194-.924-4.79-2.535-5.611-2.763a51.567,51.567,0,0,0-10.663-1.627c-2.054,4.582-7.749,5.785-11.015,1.662C954.75,743.995,954.065,742.662,953.96,742.6Z" fill="#fefefe"/>
    <path id="Path_1056" data-name="Path 1056" d="M959.779,695.44c11.6-.239,12.392,17.194,1.237,18.212C948.189,714.823,947.575,695.692,959.779,695.44Zm-.334,5.012A4.19,4.19,0,0,0,957,707.5a4.258,4.258,0,0,0,6.013-.09A4.17,4.17,0,0,0,959.445,700.452Z" fill="#fefefe"/>
  </g>
</svg>
