<svg xmlns="http://www.w3.org/2000/svg" width="97.104" height="96.698" viewBox="0 0 97.104 96.698">
  <g id="Group_2050" data-name="Group 2050" transform="translate(-364.605 -4252.45)">
    <path id="Path_17733" data-name="Path 17733" d="M6793.453,4274.261l10.533-21.811,34.724,17.308-10.628,22.119-7.072-1.745c-.732.159-4.163,2.951-4.43,2.951h-3.1c.5.53,2.586,2.956,3.088,2.987,3.115-.476,6.384-1.539,9.483-1.93.232-.029.706-.185.843.043l-14.816,30.937h26.231v3.2h-18.522a26.383,26.383,0,0,0-3.089,3.276l6.178,6.408c-.473.838-5.392,5.051-5.392,5.433v5.707h-3.2v-7.108c0-.284,3.628-3.38,3.99-4.032l-6.178-6.408,2.989-3.276h-27.232a42.739,42.739,0,0,0,3.1,3.2h18.521v3.2h-21.725l-12.415,12.411-2.3-2.3c.435-.583,3.654-3.392,3.586-3.777-.487-.726-4.648-4.4-4.576-4.8l4.576-4.806c-.44-.348-2.869-3.131-3.089-3.131h-31.336v-3.2h9.611v-11.213h10.512c.234,0,2.677-2.994,3.245-3.163,1.177-.349,3.84.319,4.861-.144l6.611-6.7-9.516,3.935-2.971-2.721-4.032,3.99h-8.71V4256.24h41.648Zm0,8.109v6.708l5.727-11,9.276,4.711-6.312,12.479-8.691-4.19v4.205l6.994,3.524c-.911,1.367-5.627,12.315-6.31,12.465-.194.043-.464-.188-.684-.17v14.016h15.018l12.414-26.429-5.6.907-9.619-9.719h9.711c.3,0,4.232-3.237,5.047-3.368.846-.135,5.509,1.6,5.846,1.351l8.016-16.589-28.566-14.195-.447-.032C6801.532,4265.56,6797.4,4273.935,6793.453,4282.37Zm-3.2-22.926h-35.241V4305.9h4.1c.383,0,4.6-4.919,5.434-5.392.419-.074,2.958,3,3.6,3.349l12.212-5.144c.382-.085.243,0,.276.275.078.66-.056,1.43,0,2.106h4.8v14.417h-11.213v-4c-.74.328-1.925,2.178-2.544,2.362-1.177.35-3.84-.319-4.861.145-.526.239-2.875,3.1-3.107,3.1h-8.71v8.009h19.923l6.293,6.335c.072.409-4.089,4.079-4.577,4.806a9.579,9.579,0,0,0,2.461,2.461l7.122-7.122-6.193-6.48h10.212Zm13.6,24.644c-.637-.055-2.988-1.679-3.374-1.4l-3.006,6.578c.637.056,2.988,1.68,3.374,1.4Zm-10.4,15v6.007l2.419-4.886Zm-11.213,5.206c-.309.056-1.5-.088-1.592.01a2.709,2.709,0,0,1-.2.9c-.294.5-3.016,2.781-3.016,2.993v4.1h4.805Z" transform="translate(-6377)" fill="#fff"/>
    <path id="Path_17734" data-name="Path 17734" d="M6834.489,4311.1l-10.6-2.6,4.849-5.061,2.161-8.753,7.775,7.737Zm-1.81-4.015a31.027,31.027,0,0,0,1.968-4.094,14.963,14.963,0,0,0-1.65-1.7c-.408-.171-.27.278-.322.471a21.831,21.831,0,0,1-.822,3.187c-.275.55-1.194,1.076-1.355,1.449s.146.26.29.3A11.473,11.473,0,0,0,6832.679,4307.085Z" transform="translate(-6377)" fill="#fff"/>
    <rect id="Rectangle_327" data-name="Rectangle 327" width="28.834" height="3.204" transform="translate(365.194 4331.528)" fill="#fff"/>
    <path id="Path_17735" data-name="Path 17735" d="M6745.9,4253.44l2.3,2.3-1.984,2.175,2.974,3.059-2.974,3.349c.345.578,3.046,2.8,2.974,3.2l-4.29,4.328-2.3-2.3,1.984-2.175-2.975-3.058,2.975-3.349c-.345-.579-3.046-2.8-2.975-3.2Z" transform="translate(-6377)" fill="#fff"/>
    <rect id="Rectangle_328" data-name="Rectangle 328" width="16.019" height="3.204" transform="translate(445.287 4331.528)" fill="#fff"/>
    <path id="Path_17736" data-name="Path 17736" d="M6835.1,4264.249h-3.2a4.97,4.97,0,0,0-4.726-4.784c-.606-.011-2.435.679-2.65.553a16.949,16.949,0,0,1-1.421-2.657c.065-.278.983-.621,1.281-.728A8.007,8.007,0,0,1,6835.1,4264.249Z" transform="translate(-6377)" fill="#fff"/>
    <path id="Path_17737" data-name="Path 17737" d="M6838.306,4257.842h-3.1c-.154,0-.409-.874-.683-1.119-.217-.2-1.019-.421-1.019-.583v-3.1A4.614,4.614,0,0,1,6838.306,4257.842Z" transform="translate(-6377)" fill="#fff"/>
    <rect id="Rectangle_329" data-name="Rectangle 329" width="4.667" height="3.251" transform="translate(367.2 4291.982) rotate(-45)" fill="#fff"/>
    <rect id="Rectangle_330" data-name="Rectangle 330" width="3.251" height="4.667" transform="translate(365.598 4315.008) rotate(-45)" fill="#fff"/>
    <rect id="Rectangle_331" data-name="Rectangle 331" width="3.251" height="4.667" transform="translate(455.303 4319.814) rotate(-45)" fill="#fff"/>
    <path id="Path_17738" data-name="Path 17738" d="M6823.892,4319.514l-1.6-3.4,2.908-1.384,1.683,3.264Z" transform="translate(-6377)" fill="#fff"/>
    <path id="Path_17739" data-name="Path 17739" d="M6769.425,4262.647v14.417h-9.611v-14.417Zm-3.2,3.2h-3.2v8.009h3.2Z" transform="translate(-6377)" fill="#fff"/>
    <path id="Path_17740" data-name="Path 17740" d="M6785.444,4262.647v14.417h-9.611v-14.417Zm-3.2,3.2h-3.2v8.009h3.2Z" transform="translate(-6377)" fill="#fff"/>
    <path id="Path_17741" data-name="Path 17741" d="M6769.425,4281.87v14.417h-9.611V4281.87Zm-3.2,3.2h-3.2v8.01h3.2Z" transform="translate(-6377)" fill="#fff"/>
    <path id="Path_17742" data-name="Path 17742" d="M6785.444,4281.87v14.417h-9.611V4281.87Zm-3.2,3.2h-3.2v8.01h3.2Z" transform="translate(-6377)" fill="#fff"/>
    <path id="Path_17743" data-name="Path 17743" d="M6807.189,4262.062l9.276,4.71-6.312,12.48-9.276-4.711Zm4.672,6.008c-.637-.056-2.988-1.68-3.374-1.4l-3.006,6.578c.637.055,2.989,1.679,3.375,1.4Z" transform="translate(-6377)" fill="#fff"/>
    <path id="Path_17744" data-name="Path 17744" d="M6805.587,4300.507l9.276,4.71-6.312,12.479-9.276-4.71Zm4.672,6.007c-.636-.055-2.988-1.679-3.374-1.4l-3.006,6.579c.637.055,2.989,1.679,3.375,1.4Z" transform="translate(-6377)" fill="#fff"/>
    <path id="Path_17745" data-name="Path 17745" d="M6820,4268.469l9.276,4.71-6.312,12.48-9.276-4.71Zm4.672,6.008c-.637-.055-2.988-1.679-3.374-1.4l-3.006,6.578c.637.055,2.989,1.679,3.374,1.4Z" transform="translate(-6377)" fill="#fff"/>
  </g>
</svg>
