<svg xmlns="http://www.w3.org/2000/svg" width="97.104" height="96.698"><g fill="#fff" data-name="Group 2050"><path d="M51.848 21.811 62.381 0l34.724 17.308-10.628 22.119-7.072-1.745c-.732.159-4.163 2.951-4.43 2.951h-3.1c.5.53 2.586 2.956 3.088 2.987 3.115-.476 6.384-1.539 9.483-1.93.232-.029.706-.185.843.043L70.473 72.67h26.231v3.2H78.182a26.4 26.4 0 0 0-3.089 3.276l6.178 6.408c-.473.838-5.392 5.051-5.392 5.433v5.707h-3.2v-7.108c0-.284 3.628-3.38 3.99-4.032l-6.178-6.408 2.989-3.276H46.248a43 43 0 0 0 3.1 3.2h18.521v3.2H46.144L33.729 94.681l-2.3-2.3c.435-.583 3.654-3.392 3.586-3.777-.487-.726-4.648-4.4-4.576-4.8l4.576-4.806c-.44-.348-2.869-3.131-3.089-3.131H.59v-3.2h9.611V61.454h10.512c.234 0 2.677-2.994 3.245-3.163 1.177-.349 3.84.319 4.861-.144l6.611-6.7-9.516 3.935-2.971-2.721-4.032 3.99h-8.71V3.79h41.648Zm0 8.109v6.708l5.727-11 9.276 4.711-6.312 12.479-8.691-4.19v4.205l6.994 3.524c-.911 1.367-5.627 12.315-6.31 12.465-.194.043-.464-.188-.684-.17v14.016h15.018L79.28 46.239l-5.6.907-9.619-9.719h9.711c.3 0 4.232-3.237 5.047-3.368.846-.135 5.509 1.6 5.846 1.351l8.016-16.589L64.115 4.626l-.447-.032c-3.741 8.516-7.873 16.891-11.82 25.326m-3.2-22.926H13.407V53.45h4.1c.383 0 4.6-4.919 5.434-5.392.419-.074 2.958 3 3.6 3.349l12.212-5.144c.382-.085.243 0 .276.275.078.66-.056 1.43 0 2.106h4.8v14.417H32.616v-4c-.74.328-1.925 2.178-2.544 2.362-1.177.35-3.84-.319-4.861.145-.526.239-2.875 3.1-3.107 3.1h-8.71v8.009h19.923l6.293 6.335c.072.409-4.089 4.079-4.577 4.806a9.6 9.6 0 0 0 2.461 2.461l7.122-7.122-6.193-6.48h10.212Zm13.6 24.644c-.637-.055-2.988-1.679-3.374-1.4l-3.006 6.578c.637.056 2.988 1.68 3.374 1.4Zm-10.4 15v6.007l2.419-4.886Zm-11.213 5.206c-.309.056-1.5-.088-1.592.01a2.7 2.7 0 0 1-.2.9c-.294.5-3.016 2.781-3.016 2.993v4.1h4.805Z" data-name="Path 17733"/><path d="m92.884 58.65-10.6-2.6 4.849-5.061 2.161-8.753 7.775 7.737Zm-1.81-4.015a31 31 0 0 0 1.968-4.094 15 15 0 0 0-1.65-1.7c-.408-.171-.27.278-.322.471a22 22 0 0 1-.822 3.187c-.275.55-1.194 1.076-1.355 1.449s.146.26.29.3a11.5 11.5 0 0 0 1.891.387" data-name="Path 17734"/><path d="M.589 79.078h28.834v3.204H.589z" data-name="Rectangle 327"/><path d="m4.295.99 2.3 2.3-1.984 2.175 2.974 3.059-2.974 3.349c.345.578 3.046 2.8 2.974 3.2l-4.29 4.328-2.3-2.3 1.984-2.175-2.975-3.058 2.975-3.349c-.345-.579-3.046-2.8-2.975-3.2Z" data-name="Path 17735"/><path d="M80.682 79.078h16.019v3.204H80.682z" data-name="Rectangle 328"/><path d="M93.495 11.799h-3.2a4.97 4.97 0 0 0-4.726-4.784c-.606-.011-2.435.679-2.65.553a17 17 0 0 1-1.421-2.657c.065-.278.983-.621 1.281-.728a8.007 8.007 0 0 1 10.716 7.616" data-name="Path 17736"/><path d="M96.701 5.392h-3.1c-.154 0-.409-.874-.683-1.119-.217-.2-1.019-.421-1.019-.583V.59a4.614 4.614 0 0 1 4.802 4.802" data-name="Path 17737"/><path d="m2.595 39.532 3.3-3.3 2.299 2.299-3.3 3.3z" data-name="Rectangle 329"/><path d="m.993 62.558 2.299-2.299 3.3 3.3-2.299 2.3z" data-name="Rectangle 330"/><path d="m90.698 67.364 2.299-2.299 3.3 3.3-2.299 2.3z" data-name="Rectangle 331"/><path d="m82.287 67.064-1.6-3.4 2.908-1.384 1.683 3.264Z" data-name="Path 17738"/><path d="M27.82 10.197v14.417h-9.611V10.197Zm-3.2 3.2h-3.2v8.009h3.2Z" data-name="Path 17739"/><path d="M43.839 10.197v14.417h-9.611V10.197Zm-3.2 3.2h-3.2v8.009h3.2Z" data-name="Path 17740"/><path d="M27.82 29.42v14.417h-9.611V29.42Zm-3.2 3.2h-3.2v8.01h3.2Z" data-name="Path 17741"/><path d="M43.839 29.42v14.417h-9.611V29.42Zm-3.2 3.2h-3.2v8.01h3.2Z" data-name="Path 17742"/><path d="m65.584 9.612 9.276 4.71-6.312 12.48-9.276-4.711Zm4.672 6.008c-.637-.056-2.988-1.68-3.374-1.4l-3.006 6.578c.637.055 2.989 1.679 3.375 1.4Z" data-name="Path 17743"/><path d="m63.982 48.057 9.276 4.71-6.312 12.479-9.276-4.71Zm4.672 6.007c-.636-.055-2.988-1.679-3.374-1.4l-3.006 6.579c.637.055 2.989 1.679 3.375 1.4Z" data-name="Path 17744"/><path d="m78.395 16.019 9.276 4.71-6.312 12.48-9.276-4.71Zm4.672 6.008c-.637-.055-2.988-1.679-3.374-1.4l-3.006 6.578c.637.055 2.989 1.679 3.374 1.4Z" data-name="Path 17745"/></g></svg>