<svg xmlns="http://www.w3.org/2000/svg" width="80" height="80"><g fill="#a09292" data-name="Group 2045"><path d="M65.782 0v4.843h9.375v46.875H80V80H0V51.718h4.844v-37.5h9.375V9.531h4.688v4.687h9.375v37.5h3.906l5.545 10.939 5.392-10.939h8.594V4.843h9.375V0Zm4.687 9.531H56.407v42.187h4.687v-9.375h4.688v9.375h4.687Zm-46.875 9.375H9.532v32.812h4.687v-9.375h4.688v9.375h4.687Zm5.625 37.5H4.688v18.906h36.015l2.422-4.844h-7.031Zm46.094 0H46.094l-4.531 9.375h9.219l-4.532 9.531h29.063Z" data-name="Path 17675"/><path d="m27.032 65.94-2.263 4.356-9.288-4.765 2.1-4.28Z" data-name="Path 17676"/><path d="m64.532 65.622-9.455 4.689-2.1-4.28 9.288-4.765Z" data-name="Path 17677"/><path d="M61.094 14.218h4.688v4.688h-4.688z" data-name="Rectangle 322"/><path d="M61.094 23.593h4.688v4.688h-4.688z" data-name="Rectangle 323"/><path d="M61.094 32.968h4.688v4.688h-4.688z" data-name="Rectangle 324"/><path d="M14.219 23.593h4.688v4.688h-4.688z" data-name="Rectangle 325"/><path d="M14.219 32.968h4.688v4.688h-4.688z" data-name="Rectangle 326"/></g></svg>