<svg xmlns="http://www.w3.org/2000/svg" width="107.633" height="70.001"><g fill="#a09292" data-name="Group 2055"><path d="M1.132 70.001c-.276-.546-.962-.775-.92-1.465.607-5.589-.817-12.922.113-18.3a7.45 7.45 0 0 1 4.674-5.318c.56-.184 1.984-.569 2.446-.3.22.129 1.953 3.191 2.543 3.583-3.262-.208-5.817.255-6.139 3.968-.44 5.077.684 11.507.02 16.37-.107.783-.543.858-.92 1.465Z" data-name="Path 17690"/><g data-name="Group 2055"><path d="M35.649 70.001c-.378-.607-.813-.682-.92-1.465-.663-4.86.453-11.292.02-16.37-.315-3.7-2.973-4.078-6.138-4.078.66-.3 2.433-3.478 2.647-3.532 1.674-.415 4.163 1.254 5.383 2.266a7.16 7.16 0 0 1 5.031-2.276c.471-.031.409.539.689.912.7.928 1.486 1.787 2.145 2.74-3.263-.208-5.818.255-6.14 3.968-.44 5.077.684 11.507.02 16.37-.107.783-.542.858-.92 1.465Z" data-name="Path 17687"/><path d="M70.167 70.001c-.378-.607-.814-.682-.921-1.465-.663-4.86.454-11.292.02-16.37-.315-3.7-2.973-4.078-6.138-4.078.66-.3 2.434-3.478 2.648-3.532 1.673-.415 4.162 1.254 5.382 2.266a7.16 7.16 0 0 1 5.032-2.276c.47-.031.408.539.688.912.695.928 1.486 1.787 2.145 2.74-3.262-.208-5.818.255-6.139 3.968-.44 5.077.683 11.507.02 16.37-.107.783-.543.858-.921 1.465Z" data-name="Path 17688"/><path d="M106.501 70.001h-1.817c-.378-.607-.813-.682-.92-1.465-.664-4.86.454-11.293.02-16.37-.307-3.584-2.97-4.243-6.14-3.968.659-.953 1.45-1.812 2.145-2.74.28-.373.218-.943.689-.912a7.255 7.255 0 0 1 6.83 5.686c.929 5.382-.494 12.715.113 18.3.041.694-.644.923-.92 1.469" data-name="Path 17689"/><path d="M68.295.116c11.361-1.537 16.354 12.645 7.3 18.431-8.184 5.231-18.214-3.025-14.853-12.128A10.42 10.42 0 0 1 68.295.116m6.333 14.394c5.809-5.809-3.1-14.748-8.922-8.922s3.112 14.732 8.922 8.922" data-name="Path 17691"/><path d="M86.462 28.275c11.361-1.537 16.354 12.645 7.3 18.431-8.184 5.231-18.214-3.025-14.853-12.128a10.41 10.41 0 0 1 7.553-6.303m6.333 14.394c5.809-5.809-3.1-14.748-8.922-8.922s3.112 14.732 8.922 8.922" data-name="Path 17692"/><path d="M33.778.116c11.36-1.537 16.353 12.645 7.3 18.431-8.184 5.231-18.214-3.025-14.853-12.128A10.42 10.42 0 0 1 33.778.116M40.11 14.51c5.811-5.81-3.086-14.757-8.922-8.921S34.3 20.321 40.11 14.51" data-name="Path 17693"/><path d="M17.427 28.275c11.361-1.537 16.354 12.645 7.3 18.431-8.184 5.231-18.215-3.025-14.854-12.128a10.42 10.42 0 0 1 7.554-6.303m6.333 14.394c5.81-5.81-3.087-14.757-8.922-8.922s3.111 14.733 8.924 8.922Z" data-name="Path 17694"/><path d="M51.945 28.275c11.36-1.537 16.353 12.645 7.3 18.431-8.184 5.231-18.214-3.025-14.853-12.128a10.42 10.42 0 0 1 7.553-6.303m6.332 14.394c5.811-5.81-3.086-14.757-8.922-8.922s3.107 14.733 8.922 8.922" data-name="Path 17695"/><path d="M58.323 16.445c.067.042.209.615.388.854.7.927 1.486 1.788 2.145 2.74-3.5-.4-6.429.776-6.133 4.77a7.1 7.1 0 0 0-3.63.228c.388-3.975-2.535-5.475-6.133-5 .572-.371 2.43-3.587 2.649-3.641 1.5-.374 4.245 1.116 5.216 2.265.926-.849 4.358-2.944 5.498-2.216" data-name="Path 17696"/><path d="M89.24 24.809a7.06 7.06 0 0 0-3.629.228c.388-3.975-2.536-5.475-6.134-5 .66-.952 1.449-1.813 2.145-2.74.616-.82 0-1.055 1.575-.864 3.892.472 6.645 4.562 6.043 8.376" data-name="Path 17697"/><path d="M23.796 16.456c.217.127 1.954 3.192 2.543 3.583-3.521-.4-6.43.791-6.133 4.77a7.1 7.1 0 0 0-3.63.228 7.5 7.5 0 0 1 4.456-8.145c.621-.235 2.212-.758 2.764-.436" data-name="Path 17698"/></g></g></svg>