<svg xmlns="http://www.w3.org/2000/svg" width="108.275" height="60"><path fill="#a09292" d="m80.442.537 27.626 56.581c.587 1.4-.12 2.931-1.73 2.88H1.934c-1.6.053-2.318-1.481-1.729-2.88L27.27 1.443c.459-.826.863-1.518 1.945-1.437l50.456.071Zm-2.409 3.312H32.266l19.5 39.906h45.429ZM27.306 42.402V10.387L4.986 56.155h8.341V43.868c0-.256.89-1.466 1.24-1.466Zm26.152 13.753L31.142 10.387v45.768ZM24.6 46.009h-7.44v7.44Zm78.684 10.146-4.171-8.567H53.684l4.171 8.567Zm-75.978 0V48.94l-7.215 7.215Z" data-name="Path 17674"/></svg>