<svg xmlns="http://www.w3.org/2000/svg" width="77.101" height="77"><g fill="#a09292" data-name="Group 2056"><path d="M42.063 0c3.89 1.189 3.35 4.808 3.315 8.114a30.6 30.6 0 0 1 10 4.025c2.276-2.08 3.976-5 7.545-3.446 1.154.5 5.149 4.516 5.591 5.688 1.362 3.61-1.519 5.042-3.547 7.347a30.6 30.6 0 0 1 4.024 9.995c3.307-.034 6.926-.574 8.114 3.316v6.917a4.59 4.59 0 0 1-2.753 3.036 25.7 25.7 0 0 1-6.632.259 1.864 1.864 0 0 1-.922-3.3c1.134-.912 4.331-.235 5.878-.438.5-.066.612-.185.677-.677a34 34 0 0 0-.011-4.815.58.58 0 0 0-.527-.526c-1.609-.306-5.286.51-6.5-.416-.81-.616-1.241-3.807-1.615-5a29 29 0 0 0-2.3-5.215c-.684-1.24-2.464-2.9-1.531-4.336.81-1.243 2.993-2.633 3.91-3.909.15-.209.356-.433.282-.72-.14-.54-3.2-2.991-3.659-3.726a.42.42 0 0 0-.422-.121c-.753.112-3.428 3.582-4.418 4.169-1.509.894-2.993-.781-4.313-1.507a28.6 28.6 0 0 0-5.665-2.455c-1.456-.426-4.664-.529-4.954-2.264-.271-1.623.214-3.9 0-5.563-.031-.242-.058-.474-.307-.6-.792-.386-4.223.111-5.309-.044-.328.113-.372.333-.413.64-.22 1.658.64 5.784-.786 6.733-.758.5-3.108.783-4.169 1.094a28.6 28.6 0 0 0-5.666 2.455c-1.374.756-2.832 2.459-4.4 1.447-1.238-.8-2.586-2.924-3.842-3.826-.209-.15-.433-.357-.72-.282-.54.14-2.991 3.2-3.726 3.658a.42.42 0 0 0-.121.422c.112.754 3.582 3.429 4.169 4.418.894 1.509-.78 2.992-1.507 4.313a29 29 0 0 0-2.455 5.665c-.288.967-.713 3.768-1.215 4.35-.99 1.148-5.051.4-6.612.606-.307.041-.527.085-.64.413.156 1.085-.342 4.517.045 5.309.121.248.354.276.6.307 1.559.2 5.626-.537 6.612.606.5.581.927 3.383 1.215 4.349a29 29 0 0 0 2.455 5.665c.726 1.32 2.4 2.8 1.507 4.313-.587.99-4.057 3.665-4.169 4.418a.42.42 0 0 0 .121.422c.735.461 3.186 3.519 3.726 3.659.287.074.511-.132.72-.282 1.17-.84 3.53-4.16 4.815-4.219.83-.038 2.545 1.3 3.336 1.784 1.281.789 3.648 1.464 2.582 3.545-1.222 2.387-4.13-.253-5.622-.916-2.431 2.437-4.939 5.716-8.573 2.819-1.089-.869-4.244-4.071-4.655-5.27-1.217-3.555 1.843-4.885 3.619-7.222a29.5 29.5 0 0 1-4-9.912c-3.063.126-7.668.423-8.114-3.69a38 38 0 0 1 .069-6.55c.691-3.794 5.137-3.384 8.045-3.308a30.6 30.6 0 0 1 4.025-9.995c-2.424-2.409-5.731-4.975-2.819-8.574.834-1.03 3.964-4.142 5.076-4.548 3.565-1.3 5.05 1.486 7.332 3.533a30.6 30.6 0 0 1 10-4.025c-.034-3.307-.574-6.925 3.316-8.114Z" data-name="Path 17669"/><path d="M77.101 70.377v2.406a5.66 5.66 0 0 1-4.588 4.209l-38.8.008a5.468 5.468 0 0 1-4.157-7.778c6.6-11.211 12.871-22.643 19.646-33.738a5.54 5.54 0 0 1 8.326.708c5.908 10.97 13.061 21.584 18.849 32.581.275.527.439 1.087.724 1.604m-24.555-32.6a1.25 1.25 0 0 0-.564.337c-6.484 11.08-13.054 22.165-19.211 33.426a1.88 1.88 0 0 0 .91 1.58c12.875.19 25.845.189 38.72 0a1.66 1.66 0 0 0 .931-1.75c-6.12-11.152-12.678-22.12-19.029-33.159a1.75 1.75 0 0 0-1.757-.433Z" data-name="Path 17670"/><path d="M37.972 17.038a21.76 21.76 0 0 1 17.471 8.155c.963 1.216 2.955 3.587 1.362 4.963-2.2 1.894-3.545-1.7-4.74-3.09a17.674 17.674 0 1 0-23.282 26.14c.885.6 2.4 1.155 3.108 1.7a1.9 1.9 0 0 1-1.762 3.274c-2.595-.634-6.7-4.29-8.361-6.385-10.913-13.794-1.297-34.257 16.204-34.757" data-name="Path 17671"/><path d="M51.738 59.8a2.1 2.1 0 0 1-.506-1.073c-.423-3.5.317-7.837.013-11.424a1.9 1.9 0 0 1 3.737.3c.457 3.354-.3 7.65 0 11.1a1.951 1.951 0 0 1-3.244 1.097" data-name="Path 17672"/><path d="M52.856 63.941c2.713-.376 2.936 4.2-.182 3.72-2.023-.314-1.882-3.434.182-3.72" data-name="Path 17673"/></g></svg>