<svg xmlns="http://www.w3.org/2000/svg" width="83.692" height="90"><g fill="#A09292" data-name="Group 2049"><path d="M40.242.106c9.621-1.3 14.94 9.641 17.665 17.115.358.244 3.042-.386 3.73-.46 8-.859 20.735 0 20.738 10.866 0 1-.677 3.26-.581 3.981.04.3 1.1 1.449 1.369 2.057a5.972 5.972 0 0 1-4.54 8.422c-.6.081-2.156-.119-2.316-.052a24 24 0 0 0-2.289 2.86.7.7 0 0 0 .1.461c3.235 3.721 6.674 8.577 7.774 13.46 3.035 13.474-10.245 15.413-20.258 14.383-.692-.071-3.369-.706-3.73-.46-.135.648-1.367 2.956-1.278 3.4a25 25 0 0 1 1.566 2.4c1.583 4.664-1.941 8.314-6.63 7.957-.433-.033-1.066-.39-1.3-.344-.146.029-1.5 1.319-1.843 1.558-11.12 7.749-19.359-5.9-22.342-14.968-.361-.246-3.038.389-3.729.46-5.513.567-12.525.73-17.03-3.014-8.085-6.723-.951-18.831 4.546-24.829a.7.7 0 0 0 .1-.461 24 24 0 0 0-2.292-2.862c-.2-.088-2.1.136-2.846.019a5.99 5.99 0 0 1-4.325-8.326 27 27 0 0 1 1.654-2.152c.1-.4-.5-2.959-.5-3.748C1.6 16.758 14.101 15.878 22.348 16.764c.688.074 3.371.7 3.729.46C28.122 11.243 33.216 1.056 40.242.106m14.831 17.957c-2.109-7.444-9.556-20.589-18.578-12.986-3.66 3.084-6.124 8.407-7.587 12.882a109 109 0 0 1 13.007 4.454c4.342-1.572 8.615-3.398 13.158-4.35m-29.948 1.9c-4.228-.552-8.306-1.133-12.55-.324-5.65 1.076-9.346 4.7-7.731 10.75a5.9 5.9 0 0 1 6.415 8.406c-.188.4-1.092 1.6-1.083 1.7a7.8 7.8 0 0 0 1.8 2.2c3.474-3.1 6.913-6.218 10.586-9.089a105 105 0 0 1 2.563-13.646ZM79.13 30.374c2.736-12.155-12.351-11.907-20.267-10.411a105 105 0 0 1 2.563 13.643 124 124 0 0 1 10.613 9.291l1.8-2.179a6.009 6.009 0 0 1 5.291-10.347Zm-40.737-6.429-10.436-3.147-2.263 10.727Zm19.9 7.58L56.03 20.798l-10.434 3.147ZM41.758 25.68a99 99 0 0 0-16.541 9.635 86 86 0 0 0 .083 19.443 91.4 91.4 0 0 0 16.774 9.557 93.4 93.4 0 0 0 16.7-9.664 105 105 0 0 0 .481-13.751 46 46 0 0 0-.39-5.3.8.8 0 0 0-.275-.484 33 33 0 0 0-3.719-2.536 87 87 0 0 0-4.595-2.8 60 60 0 0 0-7.764-3.992c-.256-.08-.474-.215-.754-.111Zm-36.4 7.407a3.205 3.205 0 0 0-2.56 3.6 3.15 3.15 0 1 0 2.56-3.6m70.249.779c-2.866 2.647.85 7.21 4.008 4.86 3.57-2.656-.849-7.778-4.008-4.863Zm-53.52 3.915-3.793 2.934-4.343 4.2c-.093.535 6.979 6.629 8.04 7.274Zm39.808 14.4c.339.094.38-.156.565-.286a74 74 0 0 0 7.571-6.847c.093-.535-6.974-6.637-8.041-7.274ZM25.122 69.999a105 105 0 0 1-2.563-13.644c-3.684-2.863-7.1-6-10.586-9.088-4.551 4.817-11.9 16.4-3.969 21.368 2.934 1.838 6.823 2.1 10.206 2.131Zm33.738 0c5.873 1.062 18.519 1.98 20.384-5.68 1.405-5.772-3.543-12.956-7.236-17.051-3.459 3.116-6.921 6.208-10.585 9.087A103 103 0 0 1 58.863 70Zm-20.471-4.356c-.053-.057-1.193-.4-1.455-.538a118 118 0 0 1-11.243-6.668l2.263 10.727c.371.275 7.135-1.97 8.117-2.335.619-.231 1.49-.509 2.05-.793.153-.075.586-.057.271-.392Zm7.2.374 10.436 3.146 2.262-10.726Zm9.667 5.88c-4.629-.857-8.944-2.782-13.347-4.351A109 109 0 0 1 28.902 72c1.58 5.391 6.618 15.294 13.16 15.229 1.469-.015 4.774-1.3 5.627-2.528.41-.59-.463-1.4-.672-2.007a5.912 5.912 0 0 1 7.1-7.765ZM51.6 77.621a4.1 4.1 0 0 0-1.545 1.109 3.17 3.17 0 0 0 4.317 4.507c2.849-1.851 1.071-6.474-2.765-5.615Z" data-name="Path 17730"/><path d="M40.242 34.603c16.24-2.062 16.032 23.06-.153 20.717-11.371-1.646-11.236-19.27.153-20.717m1.338 2.655c-10.831.639-8.824 17.541 2.129 15.219 9.069-1.923 7.186-15.768-2.129-15.219" data-name="Path 17731"/><path d="M46.113 43.694c3.45-.757 1.295 5.955-1.413 6.56a1.354 1.354 0 0 1-1.674-.71c-.564-1.71.806-1.669 1.513-2.679.684-.979.4-2.917 1.574-3.171" data-name="Path 17732"/></g></svg>