<svg xmlns="http://www.w3.org/2000/svg" width="87.371" height="70"><g fill="#a09292" data-name="Group 2058"><path d="M16.118 43.435c1.409-14.643 16.948-24.288 30.822-23.3 13.489.962 26.833 13.492 24.975 27.581.255.353 7.6.317 8.361 1.881-3.013.865-6.193.673-9.3.841-18.775 1.014-38.643.59-57.464-.22-1.421-.061-3.006.143-4.394.006-.222-.022-1.9-.37-1.57-.622h.631l-.215-.415 8.152-.837c.112-1.589-.148-3.353.002-4.915m45.14-13.69a24.7 24.7 0 0 0-11.492-5.956c-1.669-.36-3.335-.477-5.015-.729.88 3.291-.54 6.157-3.81 7.164-2.452.755-5.974-.258-5.814 3.4.078 1.784.963 2.47-.234 4.349-1.481 2.325-5.5 3.2-8.073 3.63a22.4 22.4 0 0 1-8.4.06 28.6 28.6 0 0 0-1.26 6.479l25.288-.419c-1.4-3.958 2.1-7.054 5.437-8.459 1.2-.506 5.226-1.4 5.851-1.884.431-.335-.007-.827 0-1.258.028-4.005 3.816-6.36 7.522-6.377m-17.971-6.477c-10.675-.1-20.277 7-24.243 16.717 3.188-.916 6.754-1.227 9.911-2.1.871-.242 3.332-.965 3.468-1.981.08-.591-.365-1.415-.42-2.081a5.49 5.49 0 0 1 2.6-5.125c2.35-1.3 5.7.04 7.63-2.192a4.18 4.18 0 0 0 1.054-3.238m27.584 24.45a30.4 30.4 0 0 0-5.262-13.23c-.389-.55-2.03-2.823-2.564-2.85-.869-.044-4.969 2.064-5.552 2.807-1.041 1.326.319 3.435-1.145 4.916-1.746 1.766-6.953 1.888-9.492 3.465-1.513.939-3.263 3.038-2.822 4.9Z" data-name="Path 17658"/><path d="M84.843 54.646c.71 1.131-2.015 3.377-2.226 4.088-.494 1.667.176 6.21.046 8.242a2.757 2.757 0 0 1-2.7 2.688 65 65 0 0 1-10.251.218 3.01 3.01 0 0 1-2.812-2.831c.313-2.265-.2-9.849 1.472-11.276.874-.748 1.343.037 1.765.019.167-.007.487-.34.772-.409 2.36-.575 7.141-1.328 9.458-.964.568.089 1.336.753 1.474.753.296.002 2.448-1.41 3.002-.528m-5.194 11.882v-4.6c-1.157.689-3.37 3.5-4.544 3.732-1.3.26-3.9-3.739-3.6-4.148.446-.625 2.794.651 3.343.952l5.015-5.55c-2.508-.069-5.071-.094-7.565-.276a5.03 5.03 0 0 1-2.573-.56l-.2.521.725 10.136Z" data-name="Path 17659"/><path d="M23.007 54.628c.516.742-2.372 3.839-2.5 4.485-.449 2.343.469 5.66.205 7.938-.381 3.284-3.433 2.48-5.756 2.6-1.991.106-6.6.658-8.295-.047a2.96 2.96 0 0 1-1.612-1.94 36.6 36.6 0 0 1 .549-10.088c.209-.85.49-2.226 1.621-2.124.97.088.264.308 1.484.011 2.428-.591 8.183-1.644 10.394-.8.264.1.5.509.671.524a15.5 15.5 0 0 1 1.91-.77 3.1 3.1 0 0 1 1.329.211m-5.217 2.289-10.141-.635.527 10.456 9.406-.209.206-4.807c-1.081.745-3.846 4.1-5.11 3.976-.682-.068-3.378-3.406-3.262-4.058.2-1.1 3.4.913 3.573.828Z" data-name="Path 17660"/><path d="M27.044 55.724a1.68 1.68 0 0 1 1.613-.06c.047.059-.359.433-.412.733-.294 1.646.5 5.793.619 7.73.055.865-.034 1.746 0 2.611 3.144.078 6.27-.064 9.406-.209l.206-4.807c-1.054.7-3.771 3.952-4.91 3.955-.981 0-3.791-3.661-3.441-4.156.4-.563 2.9.377 3.241 1.031h.3l4.81-5.639-7.568-.27c-3.026-.218-2.979-.856-.166-1.511 2.032-.473 7.232-1.163 9.046-.474.264.1.5.509.671.524.2.017 1.31-.733 1.909-.772 3.272-.216-1 3.811-1.17 4.7-.456 2.389.579 6.279.061 8.421-.662 2.736-3.509 2-5.613 2.119a42.7 42.7 0 0 1-7.5.2 2.88 2.88 0 0 1-2.257-1.712c-.4-1-.252-5.626-.173-6.952.073-1.114.513-4.777 1.328-5.462" data-name="Path 17661"/><path d="M49.346 55.664a2.83 2.83 0 0 0-.425 2.2c.082 2.161.471 4.5.632 6.68.054.726-.031 1.468 0 2.193 3.145.078 6.271-.064 9.407-.209l.209-9.615-9.3-.418c-.831-.2-.562-.7.045-1 1.445-.7 8.359-1.365 9.937-1.044 1.494.3 1.911 1.669 2.03 2.986.232 2.566.23 6.569.212 9.191a3.01 3.01 0 0 1-2.82 3.032c-3.289-.2-6.774.524-10.04.216a3.11 3.11 0 0 1-3.029-3.049 55 55 0 0 1 .483-8.29c.265-1.498.65-3.715 2.659-2.873" data-name="Path 17662"/><path d="M10.698 28.688c.139.189 2.443.9 2.923 1.157 2.191 1.191 1.31 3.764-.841 3.156-.893-.253-3.027-1.939-3.279-1.959-.225-.019-2.231 1.475-3.327 1.617-3.486.453-7.58-3.148-5.7-6.536.365-.659 1.108-.856 1.441-1.276.549-.692.441-1.535 1.451-2.31 3.013-2.31 7.2.8 7.508 4.209.047.52-.237 1.859-.176 1.942M2.35 25.396a12.5 12.5 0 0 0 .341 2.214 4.32 4.32 0 0 0 2.66 1.941c3.491.034 3.557-6.26-1.206-5.188a15 15 0 0 0-1.795 1.025Z" data-name="Path 17663"/><path d="M68.187 7.345a5.2 5.2 0 0 1 1.627.577c3.6 2.6.444 8.131-3.643 8.255-.42.012-1.7-.27-1.767-.217-.63.46-.842 5.567-3.644 3.94-1.721-1 .543-4.237 1.536-5.095a5.76 5.76 0 0 1-1.6-5.793c.742-2.506 4.336-4.892 6.705-3.061.548.428.58 1.208.786 1.394m-.1 5.2a3.64 3.64 0 0 0 .573-3.46c-.653-1.542-1.427-1.716-3-1.163a5.4 5.4 0 0 0-1.732 1.612 2.639 2.639 0 0 0 4.157 3.006Z" data-name="Path 17664"/><path d="M19.858 7.367c.162-.116.282-.741 1.055-1.143 4.789-2.49 8.371 5.531 4.4 8.581.6.817 2.254 2.247 2.464 3.181.362 1.618-1.219 2.89-2.576 1.733-.782-.666-1.808-3.352-1.972-3.467-.3-.209-1.418.153-1.987.124-3.491-.179-6.183-3.951-4.748-7.252a2.98 2.98 0 0 1 2.444-1.969 5.3 5.3 0 0 1 .92.212m3.714 1.342a3.94 3.94 0 0 0-3.38-.906c-1.533.288-1.666 4.643.771 5.294a2.682 2.682 0 0 0 2.609-4.388" data-name="Path 17665"/><path d="M85.707 25.147a1.03 1.03 0 0 1 .819.335 5.64 5.64 0 0 1 .844 2.46c-.168 3.572-4.426 5.207-7.381 3.868-.455-.206-1.394-1.022-1.7-1.021-.635 0-2.11 2.048-3.181 2.257s-2.3-.506-2.108-1.678c.236-1.411 2.912-2.463 4.141-2.884-2.074-4.509 4.534-9.6 8.136-5.931a2.55 2.55 0 0 1 .43 2.594m-3.181-.78a2.6 2.6 0 1 0 .363 5.18c2.462-.223 3.851-4.561.787-5.188a3.1 3.1 0 0 0-1.15.008" data-name="Path 17666"/><path d="M43.916 1.115c.024.028.135-.01.2 0 .035-.817.931-.688 1.572-.627 4.327.414 4.437 6.646 1.135 8.868-.383.259-1.457.581-1.561.736-.659.978 1.368 3.932-.435 5-2.813 1.665-2.914-3.363-2.168-4.988a5.324 5.324 0 0 1-3.52-8.222c.867-1.3 3.067-2.614 4.468-1.4.24.206.257.572.309.633m-1.813 5.364a2.7 2.7 0 0 0 4.519-2.1c-.083-1.13-2-3.265-3.06-2.9-1.801.621-2.896 3.496-1.459 5" data-name="Path 17667"/><path d="M56.337 63.073c-.093.08-.086.275-.246.314-1.467.352-6.054.04-4.035-2.193.5-.547 3.086-1.056 3.825-.891 1.127.25 1.356 1.995.456 2.77" data-name="Path 17668"/></g></svg>