<svg xmlns="http://www.w3.org/2000/svg" viewBox="0 0 1023.4 1024"><path d="M100 1023.4C48.2 1013.7 8.2 972.3.3 920.2L0 188.8C-1.6 143.1 55.9 80 101 80h66.9V0h79.9v79.9h527.6V0h79.9v79.9h66.9c36.9 7 68.8 29.9 87.3 62.6l13.7 37.3v351.7c-23.5-27-50.4-50.8-79.9-71v-84.9H80v528.6c1.4 6.8 3.5 13.4 6.3 19.7 8.4 12 22.1 19.2 36.7 19.3l337.4.4c20.6 29.2 44.5 56 71.3 79.6H100ZM168 160h-49c-13.7 1.5-25.9 9.1-33.4 20.6-2.4 6-4.2 12.1-5.6 18.4v96.9h863.5V199c-1.4-6.3-3.2-12.4-5.6-18.4-7.5-11.5-19.7-19.1-33.4-20.6h-48.9v79.9h-79.9v-80.1H248v79.9h-79.9v-79.8Z"/><path d="M1023.4 723.7v60c-3.4 13.4-5.1 27-8.6 40.4-25.6 92.8-98.1 165.2-190.9 190.9-13.4 3.5-27 5.1-40.4 8.6-19.5-1.2-40.8 1.7-60 0-223.2-19.6-320.8-306-158.9-463.7C724 404.5 1004 503.5 1023.3 723.8ZM751.2 564.3c-104.4 1.3-188 87.1-186.7 191.5s87.1 188 191.5 186.7c76.3-1 144.5-47.6 173-118.3 38.6-97.6-9.3-208.1-106.9-246.7-22.6-8.9-46.6-13.4-70.9-13.3ZM152 459.8h79.9v79.9H152zM311.9 459.8h79.9v79.9h-79.9zM471.8 459.8h79.9v79.9h-79.9zM152 619.6h79.9v79.9H152zM311.9 619.6h79.9v79.9h-79.9zM152 779.5h79.9v79.9H152zM311.9 779.5h79.9v79.9h-79.9z"/><path d="M791.5 619.6v94h68v79.9H711.6V619.6z"/></svg>